<?xml version="1.0" standalone="no"?>
<!DOCTYPE svg PUBLIC "-//W3C//DTD SVG 1.1//EN" "http://www.w3.org/Graphics/SVG/1.1/DTD/svg11.dtd" >
<svg xmlns="http://www.w3.org/2000/svg" xmlns:xlink="http://www.w3.org/1999/xlink" version="1.1">
<metadata>
Created by FontForge 20150318 at Thu Sep 24 08:47:16 2015
 By uniteet7
Copyright (c) 2012 by Ahmet Altun. All rights reserved.
</metadata>
<defs>
<font id="HalisGrotesqueRegular" horiz-adv-x="612" >
  <font-face 
    font-family="HalisGrotesqueRegular"
    font-weight="400"
    font-stretch="normal"
    units-per-em="1000"
    panose-1="2 0 5 5 4 0 0 2 0 4"
    ascent="800"
    descent="-200"
    x-height="500"
    cap-height="700"
    bbox="-185 -338 1114 990"
    underline-thickness="50"
    underline-position="-80"
    unicode-range="U+0020-FB04"
  />
<missing-glyph horiz-adv-x="490" 
d="M460 650v-600h-430v600h430zM210 209q0 -12 9 -21t22 -9q12 0 20.5 9t8.5 21t-8.5 20t-20.5 8q-13 0 -22 -8t-9 -20zM262 267v28q0 13 18 33.5t36.5 47t18.5 54.5q0 39 -24.5 60.5t-62.5 21.5q-55 0 -104 -52l29 -28q35 37 65 38q47 2 47 -41q0 -29 -34 -67t-34 -65v-30
h45z" />
    <glyph glyph-name="f_f" unicode="ff" horiz-adv-x="644" 
d="M654 679l-26 -76q-51 19 -93 19q-35 0 -58.5 -19t-23.5 -63v-40h103v-82h-103v-417h-100v417h-182v-417h-100v417h-61v82h61v44q0 78 52 121t127 43q84 0 145 -49q48 48 131 48q68 0 128 -28zM353 500v44q0 20 3 37q-40 37 -101 37q-36 0 -60 -19.5t-24 -58.5v-40h182z
" />
    <glyph glyph-name="fi" unicode="fi" horiz-adv-x="532" 
d="M452 500v-500h-100v418h-181v-417h-100v417h-61v82h61v44q0 80 49 121.5t124 41.5q68 0 128 -28l-26 -76q-51 19 -93 19q-35 0 -58.5 -19t-23.5 -63v-40h281z" />
    <glyph glyph-name="fl" unicode="fl" horiz-adv-x="531" 
d="M171 539v-39h120v-82h-120v-418h-100v418h-61v82h61v43q0 78 52 121t127 43q79 0 123 -50l16 43h62v-701h-100v574q-32 43 -93 43q-34 0 -58.5 -19t-28.5 -58z" />
    <glyph glyph-name="f_f_i" unicode="ffi" horiz-adv-x="814" 
d="M734 500v-500h-100v418h-181v-417h-100v417h-182v-417h-100v417h-61v82h61v44q0 78 52 121t127 43q84 0 145 -49q48 48 131 48q68 0 128 -28l-26 -76q-51 19 -93 19q-35 0 -58.5 -19t-23.5 -63v-40h281zM353 500v44q0 20 3 37q-40 37 -101 37q-36 0 -60 -19.5t-24 -58.5
v-40h182z" />
    <glyph glyph-name="f_f_l" unicode="ffl" horiz-adv-x="809" 
d="M449 539v-39h120v-82h-120v-418h-100v418h-178v-417h-100v417h-61v82h61v44q0 78 52 121t127 43q84 0 145 -49l-1 -1q52 49 134 49q79 0 123 -50l16 43h62v-701h-100v574q-32 43 -93 43q-34 0 -58.5 -19t-28.5 -58zM349 543q0 24 4 40q-40 35 -98 35q-36 0 -60 -19.5
t-24 -58.5v-40h178v43z" />
    <glyph glyph-name="f_h" unicode="fh" horiz-adv-x="850" 
d="M171 539v-39h120v-82h-120v-418h-100v418h-61v82h61v43q0 78 52 121t127 43q79 0 123 -50l16 43h62v-235q22 19 58 31t70 12q66 0 110.5 -21.5t65 -61t28 -78t7.5 -89.5v-258h-99v258q0 3 -0.5 24.5t-2 34.5t-8.5 35t-18.5 35.5t-34 24.5t-53.5 13q-43 3 -76 -16.5
t-47 -46.5v-362h-100v573q-32 43 -93 43q-34 0 -58.5 -19t-28.5 -58z" />
    <glyph glyph-name="f_j" unicode="fj" horiz-adv-x="533" 
d="M192 -83q46 -27 84 -27q76 0 76 107v421h-181v-417h-100v417h-61v82h61v44q0 80 49 121.5t124 41.5q68 0 128 -28l-26 -76q-51 19 -93 19q-35 0 -58.5 -19t-23.5 -63v-40h281v-503v-2q0 -12 -0.5 -23.5t-4 -37t-14.5 -46t-28.5 -42t-49 -33.5t-72.5 -12q-45 0 -80.5 15.5
t-53.5 33.5z" />
    <glyph glyph-name="f_k" unicode="fk" horiz-adv-x="796" 
d="M171 539v-40h120v-82h-120v-417h-100v417h-61v82h61v44q0 78 52 121t127 43q79 0 123 -50l16 43h62v-409l189 209h106l2 -5l-215 -235l233 -255l-2 -5h-109l-204 223v-223h-100v573q-32 43 -93 43q-34 0 -58.5 -19t-28.5 -58z" />
    <glyph glyph-name="f_b" unicode="fb" horiz-adv-x="883" 
d="M171 539v-40h120v-82h-120v-417h-100v417h-61v82h61v44q0 78 52 121t127 43q79 0 123 -50l16 43h62v-219q52 27 123 27q68 0 119 -25t78 -65.5t39.5 -82.5t12.5 -85q0 -34 -7.5 -68t-25.5 -69t-44.5 -61.5t-70 -43t-96.5 -16.5q-89 0 -151 59l-17 -51h-60v573
q-32 43 -93 43q-34 0 -58.5 -19t-28.5 -58zM574 75q46 0 78.5 20.5t46.5 51.5t19.5 56t5.5 47q0 24 -6.5 50t-22.5 56t-49.5 49.5t-79.5 19.5q-69 0 -115 -35v-248q40 -67 123 -67z" />
    <glyph glyph-name="f_f_b" unicode="ffb" horiz-adv-x="1161" 
d="M689 0h-60v573q-32 43 -93 43q-34 0 -58.5 -19t-28.5 -58v-39h120v-82h-120v-418h-100v418h-178v-417h-100v417h-61v82h61v44q0 78 52 121t127 43q84 0 145 -49l-1 -1q52 49 134 49q79 0 123 -50l16 43h62v-219q52 27 123 27q68 0 119 -25t78 -65.5t39.5 -82.5t12.5 -85
q0 -34 -7.5 -68t-25.5 -69t-44.5 -61.5t-70 -43t-96.5 -16.5q-89 0 -151 59zM852 75q46 0 78.5 20.5t46.5 51.5t19.5 56t5.5 47q0 24 -6.5 50t-22.5 56t-49.5 49.5t-79.5 19.5q-69 0 -115 -35v-248q40 -67 123 -67zM349 543q0 24 4 40q-40 35 -98 35q-36 0 -60 -19.5
t-24 -58.5v-40h178v43z" />
    <glyph glyph-name="f_f_h" unicode="ffh" horiz-adv-x="1128" 
d="M729 0h-100v573q-32 43 -93 43q-34 0 -58.5 -19t-28.5 -58v-39h120v-82h-120v-418h-100v418h-178v-417h-100v417h-61v82h61v44q0 78 52 121t127 43q84 0 145 -49q53 48 133 48q79 0 123 -50l16 43h62v-235q22 19 58 31t70 12q66 0 110.5 -21.5t65 -61t28 -78t7.5 -89.5
v-258h-99v258q0 3 -0.5 24.5t-2 34.5t-8.5 35t-18.5 35.5t-34 24.5t-53.5 13q-43 3 -76 -16.5t-47 -46.5v-362zM349 543q0 24 4 40q-40 35 -98 35q-36 0 -60 -19.5t-24 -58.5v-40h178v43z" />
    <glyph glyph-name="f_f_j" unicode="ffj" horiz-adv-x="815" 
d="M734 500v-503v-2q0 -12 -0.5 -23.5t-4 -37t-14.5 -46t-28.5 -42t-49 -33.5t-72.5 -12q-45 0 -80.5 15.5t-53.5 33.5l43 67q46 -27 84 -27q76 0 76 107v421h-181v-417h-100v417h-182v-417h-100v417h-61v82h61v44q0 78 52 121t127 43q84 0 145 -49q48 48 131 48
q68 0 128 -28l-26 -76q-51 19 -93 19q-35 0 -58.5 -19t-23.5 -63v-40h281zM353 500v44q0 20 3 37q-40 37 -101 37q-36 0 -60 -19.5t-24 -58.5v-40h182z" />
    <glyph glyph-name="f_f_k" unicode="ffk" horiz-adv-x="1074" 
d="M729 223v-223h-100v573q-32 43 -93 43q-34 0 -58.5 -19t-28.5 -58v-39h120v-82h-120v-418h-100v418h-178v-417h-100v417h-61v82h61v44q0 78 52 121t127 43q84 0 145 -49q53 48 133 48q79 0 123 -50l16 43h62v-409l189 209h106l2 -5l-215 -235l233 -253l-2 -7h-109z
M349 543q0 24 4 40q-40 35 -98 35q-36 0 -60 -19.5t-24 -58.5v-40h178v43z" />
    <glyph glyph-name=".notdef" horiz-adv-x="490" 
d="M460 650v-600h-430v600h430zM210 209q0 -12 9 -21t22 -9q12 0 20.5 9t8.5 21t-8.5 20t-20.5 8q-13 0 -22 -8t-9 -20zM262 267v28q0 13 18 33.5t36.5 47t18.5 54.5q0 39 -24.5 60.5t-62.5 21.5q-55 0 -104 -52l29 -28q35 37 65 38q47 2 47 -41q0 -29 -34 -67t-34 -65v-30
h45z" />
    <glyph glyph-name=".null" horiz-adv-x="0" 
 />
    <glyph glyph-name="nonmarkingreturn" horiz-adv-x="333" 
 />
    <glyph glyph-name="space" unicode=" " horiz-adv-x="300" 
 />
    <glyph glyph-name="exclam" unicode="!" horiz-adv-x="319" 
d="M209 700v-282l-19 -210h-63l-18 210v282h100zM100 56q0 26 17 42.5t42 16.5t42.5 -17t17.5 -42t-17.5 -42.5t-42.5 -17.5t-42 17.5t-17 42.5z" />
    <glyph glyph-name="quotedbl" unicode="&#x22;" horiz-adv-x="339" 
d="M141 700l-19 -242h-63l-19 242h101zM299 700l-19 -242h-63l-19 242h101z" />
    <glyph glyph-name="numbersign" unicode="#" horiz-adv-x="572" 
d="M60 388h88v112h75v-112h125v112h75v-112h89v-75h-89v-125h89v-75h-89v-113h-75v113h-125v-113h-75v113h-88v75h88v125h-88v75zM223 313v-125h125v125h-125z" />
    <glyph glyph-name="dollar" unicode="$" horiz-adv-x="621" 
d="M65 518q0 88 58.5 139.5t153.5 53.5v65h69v-69q82 -11 175 -54l-36 -85q-86 34 -139 42v-211q38 -13 63 -22.5t57 -28t50.5 -39.5t31.5 -54t13 -73q0 -77 -60 -128.5t-155 -59.5v-100h-69v99q-116 7 -217 61l39 80q87 -44 178 -50v234q-48 13 -78 25.5t-65 35t-52 57.5
t-17 82zM456 183q0 45 -27.5 69.5t-82.5 43.5v-210q48 10 79 35.5t31 61.5zM166 526q0 -38 28.5 -61.5t82.5 -42.5v190q-106 -9 -111 -86z" />
    <glyph glyph-name="percent" unicode="%" horiz-adv-x="777" 
d="M543 700l-228 -700h-81l228 700h81zM179 702q54 0 89 -26.5t47.5 -59.5t12.5 -69q0 -27 -7.5 -52t-23.5 -49.5t-46.5 -39t-71.5 -14.5t-71.5 14.5t-46.5 39t-23.5 49.5t-7.5 52q0 36 12.5 69t47.5 59.5t89 26.5zM179 461q29 0 47 18t22 35t4 33t-4 33t-22 34.5t-47 17.5
t-47 -17.5t-22.5 -34.5t-4.5 -33q0 -11 3 -23.5t10 -27.5t23 -25t38 -10zM598 308q54 0 89 -26.5t47.5 -59.5t12.5 -69q0 -27 -7.5 -52t-23.5 -49.5t-46.5 -39t-71.5 -14.5t-71.5 14.5t-46.5 39t-23.5 49.5t-7.5 52q0 36 12.5 69t47.5 59.5t89 26.5zM598 67q29 0 47 18
t22 35t4 33t-4 33t-22 34.5t-47 17.5t-47 -17.5t-22.5 -34.5t-4.5 -33q0 -11 3 -23.5t10 -27.5t23 -25t38 -10z" />
    <glyph glyph-name="ampersand" unicode="&#x26;" horiz-adv-x="699" 
d="M218 538q0 -23 14 -47t53 -64q40 26 62 53.5t22 66.5q0 32 -20 55t-56 23q-44 0 -61.5 -32t-13.5 -55zM178 197q-1 -52 36.5 -84t87.5 -32q76 0 131 55l-163 174q-91 -61 -92 -113zM461 548q0 -98 -116 -185l140 -151q27 56 42 131l84 -16q-14 -106 -59 -186l87 -93
l-68 -58l-76 80q-83 -81 -201 -77q-93 3 -153 62t-60 137q-1 66 32.5 108.5t92.5 78.5l-25 27q-56 60 -56 139q0 64 45 112.5t128 48.5q78 0 120.5 -47t42.5 -111z" />
    <glyph glyph-name="quotesingle" unicode="'" horiz-adv-x="181" 
d="M141 700l-19 -242h-63l-19 242h101z" />
    <glyph glyph-name="parenleft" unicode="(" horiz-adv-x="283" 
d="M30 290q0 253 158 479l65 -41q-121 -218 -121 -437q0 -226 121 -444l-65 -41q-158 226 -158 484z" />
    <glyph glyph-name="parenright" unicode=")" horiz-adv-x="283" 
d="M253 290q0 -258 -158 -484l-65 41q121 218 121 444q0 219 -121 437l65 41q158 -226 158 -479z" />
    <glyph glyph-name="asterisk" unicode="*" horiz-adv-x="471" 
d="M156 516l-96 63l33 58l103 -53l6 116h67l6 -116l103 53l33 -58l-97 -63h1l96 -62l-33 -58l-103 52l-6 -115h-67l-6 115l-103 -52l-33 58z" />
    <glyph glyph-name="plus" unicode="+" horiz-adv-x="553" 
d="M80 375h159v159h75v-159h159v-75h-159v-159h-75v159h-159v75z" />
    <glyph glyph-name="comma" unicode="," horiz-adv-x="298" 
d="M135 -161l-50 24q47 85 54 131q-25 2 -42 21t-17 45q0 28 18.5 46.5t46.5 18.5q38 0 55.5 -21t17.5 -52q0 -73 -83 -213z" />
    <glyph glyph-name="hyphen" unicode="-" horiz-adv-x="432" 
d="M80 330h272v-83h-272v83z" />
    <glyph glyph-name="period" unicode="." horiz-adv-x="291" 
d="M80 61q0 28 18.5 46.5t46.5 18.5q27 0 46.5 -19t19.5 -46t-19.5 -46.5t-46.5 -19.5t-46 19.5t-19 46.5z" />
    <glyph glyph-name="slash" unicode="/" horiz-adv-x="369" 
d="M339 700l-228 -700h-81l228 700h81z" />
    <glyph glyph-name="zero" unicode="0" horiz-adv-x="638" 
d="M319 680q57 0 103 -22.5t74.5 -57.5t47.5 -81.5t26.5 -91t7.5 -89.5q0 -46 -7.5 -91t-26.5 -91.5t-47.5 -81.5t-74.5 -57t-103 -22t-103 22t-74.5 57t-47.5 81.5t-26.5 91.5t-7.5 91q0 45 7.5 89.5t26.5 91t47.5 81.5t74.5 57.5t103 22.5zM319 77q49 0 84 30.5t50 77
t21 84t6 69.5q0 24 -3 52.5t-13.5 67t-27 68.5t-47 51t-70.5 21t-70.5 -21t-47 -51t-27 -68.5t-13.5 -67t-3 -52.5q0 -32 6 -69.5t21 -84t50 -77t84 -30.5z" />
    <glyph glyph-name="one" unicode="1" horiz-adv-x="387" 
d="M297 682v-682h-100v524l-114 -70l-43 64l230 164h27z" />
    <glyph glyph-name="two" unicode="2" horiz-adv-x="524" 
d="M101 522l-57 59q94 104 215 104q97 0 154.5 -54.5t49.5 -156.5q-5 -66 -83 -166l-175 -218h239v-90h-411l-3 8l278 356q54 63 59 114q9 48 -15.5 86t-91.5 38q-76 0 -159 -80z" />
    <glyph glyph-name="three" unicode="3" horiz-adv-x="516" 
d="M381 337q40 -29 57.5 -71t17.5 -83q0 -30 -10 -60.5t-32 -62t-67.5 -51t-108.5 -19.5q-47 0 -88.5 14.5t-63 29.5t-46.5 38l52 61q27 -25 68.5 -44t77.5 -19q52 0 88 29.5t36 83.5q0 55 -36 84.5t-88 29.5h-82v80h82q52 0 88 29.5t36 84.5q0 54 -36 83.5t-88 29.5
q-36 0 -77.5 -19t-68.5 -44l-52 61q25 23 46.5 38t63 29.5t88.5 14.5q63 0 108.5 -19.5t67.5 -51t32 -62t10 -60.5q0 -41 -17.5 -83t-57.5 -71z" />
    <glyph glyph-name="four" unicode="4" horiz-adv-x="561" 
d="M423 139v-139h-102v139h-291v54l312 482h81v-450h108v-86h-108zM320 488l-167 -263h168v263h-1z" />
    <glyph glyph-name="five" unicode="5" horiz-adv-x="550" 
d="M60 88l62 58q55 -69 133 -69q63 0 100.5 41.5t37.5 96.5t-37 95.5t-102 40.5h-153v324h337v-86h-237v-157h53q67 0 116 -21.5t73.5 -57t35.5 -71.5t11 -73q0 -23 -6 -49.5t-23 -57t-42.5 -54.5t-68 -40t-96.5 -16q-120 0 -194 96z" />
    <glyph glyph-name="six" unicode="6" horiz-adv-x="584" 
d="M352 692l45 -67q-86 -51 -139.5 -111.5t-73.5 -115.5q15 15 48.5 26.5t59.5 11.5q67 0 115.5 -22.5t72.5 -59t34 -71.5t10 -71q0 -23 -6 -48.5t-22 -56.5t-41 -55.5t-67 -41t-96 -16.5t-96 17.5t-66.5 43t-41 58t-22 59.5t-5.5 51q-1 309 291 469zM292 80q63 0 99 41
t36 97q0 55 -35.5 95.5t-99.5 40.5q-63 0 -97.5 -39.5t-36.5 -96.5q0 -56 35.5 -97t98.5 -41z" />
    <glyph glyph-name="seven" unicode="7" horiz-adv-x="471" 
d="M30 589v86h408l3 -6l-272 -669h-102l239 589h-276z" />
    <glyph glyph-name="eight" unicode="8" horiz-adv-x="556" 
d="M421 337q40 -29 57.5 -71t17.5 -83q0 -30 -10 -60.5t-32 -62t-67.5 -51t-108.5 -19.5t-108.5 19.5t-67.5 51t-32 62t-10 60.5q0 40 18 82.5t57 71.5q-39 29 -57 71.5t-18 82.5q0 30 10 60.5t32 62t67.5 51t108.5 19.5t108.5 -19.5t67.5 -51t32 -62t10 -60.5
q0 -41 -17.5 -83t-57.5 -71zM278 70q52 0 88 29.5t36 83.5q0 55 -36 84.5t-88 29.5t-88 -29.5t-36 -84.5q0 -54 36 -83.5t88 -29.5zM278 377q52 0 88 29.5t36 84.5q0 54 -36 83.5t-88 29.5t-88 -29.5t-36 -83.5q0 -55 36 -84.5t88 -29.5z" />
    <glyph glyph-name="nine" unicode="9" horiz-adv-x="584" 
d="M232 -16l-45 67q86 51 139.5 111.5t73.5 115.5q-15 -15 -48.5 -26.5t-59.5 -11.5q-67 0 -115.5 22.5t-72.5 59t-34 71.5t-10 71q0 23 6 48.5t22 56.5t41 55.5t67 41t96 16.5t96 -17.5t66.5 -43t41 -58t22 -59.5t5.5 -51q1 -309 -291 -469zM292 596q-63 0 -99 -41t-36 -97
q0 -55 35.5 -95.5t99.5 -40.5q63 0 97.5 39.5t36.5 96.5q0 56 -35.5 97t-98.5 41z" />
    <glyph glyph-name="colon" unicode=":" horiz-adv-x="291" 
d="M80 61q0 28 18.5 46.5t46.5 18.5q27 0 46.5 -19t19.5 -46t-19.5 -46.5t-46.5 -19.5t-46 19.5t-19 46.5zM80 438q0 28 18.5 46.5t46.5 18.5q27 0 46.5 -19t19.5 -46t-19.5 -46.5t-46.5 -19.5t-46 19.5t-19 46.5z" />
    <glyph glyph-name="semicolon" unicode=";" horiz-adv-x="298" 
d="M80 437q0 28 18.5 46.5t46.5 18.5q27 0 46.5 -19t19.5 -46t-19.5 -46.5t-46.5 -19.5t-46 19.5t-19 46.5zM135 -161l-50 24q47 85 54 131q-25 2 -42 21t-17 45q0 28 18.5 46.5t46.5 18.5q38 0 55.5 -21t17.5 -52q0 -73 -83 -213z" />
    <glyph glyph-name="less" unicode="&#x3c;" horiz-adv-x="429" 
d="M399 441l-224 -142l224 -144l-40 -69l-329 197v29l329 198z" />
    <glyph glyph-name="equal" unicode="=" horiz-adv-x="502" 
d="M422 435h-342v75h342v-75zM422 197h-342v75h342v-75z" />
    <glyph glyph-name="greater" unicode="&#x3e;" horiz-adv-x="429" 
d="M254 299l-224 142l40 69l329 -198v-29l-329 -197l-40 69z" />
    <glyph glyph-name="question" unicode="?" horiz-adv-x="549" 
d="M321 267l-3 -58h-89v60q0 30 14.5 58.5t34.5 51t40.5 46t35 53t14.5 61.5q0 33 -20.5 59.5t-74.5 24.5q-36 -1 -65 -19t-70 -59l-58 57q52 56 99.5 81t112.5 25q78 0 127.5 -44.5t49.5 -123.5q0 -44 -23 -88t-51 -73t-51 -60t-23 -52zM215 56q0 25 17.5 42t43.5 17
q25 0 42.5 -17t17.5 -42t-17.5 -42.5t-42.5 -17.5t-43 17.5t-18 42.5z" />
    <glyph glyph-name="at" unicode="@" horiz-adv-x="1135" 
d="M575 719q227 0 363.5 -133.5t136.5 -340.5q0 -47 -7.5 -92t-26 -89.5t-46 -78t-70 -54t-95.5 -20.5q-43 0 -73.5 20t-43.5 58l-2 1q-62 -59 -151 -59q-53 0 -96.5 16.5t-70 43t-44.5 61.5t-25.5 69t-7.5 68q0 44 12.5 86t39 82t76.5 64.5t116 24.5q89 0 151 -59l16 51h61
v-376q1 -31 13 -48.5t45 -17.5q57 0 94 70t37 175q0 169 -108.5 278.5t-296.5 109.5q-194 0 -305 -122.5t-109 -329.5q1 -63 20 -123.5t58 -118t106.5 -105.5t157.5 -78l-36 -83q-197 66 -299 200t-104 308q-2 237 139 389.5t375 152.5zM688 81v215q-40 67 -123 67
q-46 0 -78.5 -20.5t-46.5 -51.5t-19.5 -56t-5.5 -47t5.5 -47t20 -56t47 -51t77.5 -20q83 0 123 67z" />
    <glyph glyph-name="A" unicode="A" horiz-adv-x="690" 
d="M548 -1l-78 186h-251l-77 -186h-112l311 707h7l312 -707h-112zM345 487l-89 -213h177z" />
    <glyph glyph-name="B" unicode="B" horiz-adv-x="662" 
d="M517 350q41 -21 63 -66.5t22 -85.5q0 -34 -12.5 -66.5t-38.5 -63t-75.5 -49.5t-116.5 -19h-259v700h259q67 0 116.5 -19t75.5 -50t38.5 -63.5t12.5 -66.5q0 -43 -21.5 -84t-63.5 -67zM373 391q38 1 64.5 13t38.5 30.5t16.5 34.5t4.5 32q0 13 -5 29t-17 35.5t-39.5 32.5
t-66.5 13h-168v-220h172zM369 90q39 0 66.5 12.5t39.5 32t17 35t5 28.5q0 40 -26.5 70.5t-97.5 31.5h-172v-210h168z" />
    <glyph glyph-name="C" unicode="C" horiz-adv-x="725" 
d="M665 597l-67 -65q-31 36 -84 61.5t-108 25.5q-60 0 -106 -22t-71 -52.5t-40.5 -70.5t-20 -69t-4.5 -54t4.5 -54t20 -68.5t40.5 -70t71 -52.5t106 -22q106 0 198 84l59 -75q-102 -102 -257 -102q-77 0 -138.5 23.5t-99 60t-63 85t-35.5 96t-10 95.5q0 47 10 93.5
t35.5 95.5t63 86t99 60.5t138.5 23.5q157 0 259 -113z" />
    <glyph glyph-name="D" unicode="D" horiz-adv-x="748" 
d="M342 0h-242v700h242q77 0 138.5 -22.5t99 -58t63 -83t35.5 -93t10 -92.5q0 -48 -10 -94.5t-35 -93.5t-63.5 -82.5t-99.5 -58t-138 -22.5zM202 90h140q60 0 106 21t70.5 51t40 68.5t20 67t4.5 53.5t-4.5 53.5t-20 67t-40 68t-70.5 50.5t-106 21h-140v-521z" />
    <glyph glyph-name="E" unicode="E" horiz-adv-x="620" 
d="M482 300h-280v-210h358v-90h-460v700h460v-90h-358v-220h280v-90z" />
    <glyph glyph-name="F" unicode="F" horiz-adv-x="620" 
d="M482 300h-280v-300h-102v700h460v-90h-358v-220h280v-90z" />
    <glyph glyph-name="G" unicode="G" horiz-adv-x="717" 
d="M554 250h-147v90h250v-251q-98 -98 -251 -98q-77 0 -138.5 23.5t-99 60t-63 85t-35.5 96t-10 95.5q0 47 10 93.5t35.5 95.5t63 86t99 60.5t138.5 23.5q86 0 141 -23.5t102 -75.5l-64 -66q-28 31 -77 52.5t-102 21.5q-60 0 -106 -22t-71 -52.5t-40.5 -70.5t-20 -69
t-4.5 -54t4.5 -54t20 -68.5t40.5 -70t71 -52.5t106 -22q87 0 148 45v121z" />
    <glyph glyph-name="H" unicode="H" horiz-adv-x="767" 
d="M203 300v-300h-103v700h103v-310h361v310h103v-700h-103v300h-361z" />
    <glyph glyph-name="I" unicode="I" horiz-adv-x="303" 
d="M203 700v-700h-103v700h103z" />
    <glyph glyph-name="J" unicode="J" 
d="M20 182l89 33q19 -59 54.5 -93.5t98.5 -33.5q39 1 68 16t43.5 34.5t23 47t10 45t1.5 36.5v433h104v-433q0 -47 -11.5 -91t-37.5 -87t-77.5 -69t-123.5 -26q-105 0 -160.5 50t-81.5 138z" />
    <glyph glyph-name="K" unicode="K" horiz-adv-x="667" 
d="M203 0h-103v700h103v-303l288 303h123l2 -7l-319 -332l340 -355l-3 -6h-122l-309 328v-328z" />
    <glyph glyph-name="L" unicode="L" horiz-adv-x="530" 
d="M203 700v-610h267v-90h-370v700h103z" />
    <glyph glyph-name="M" unicode="M" horiz-adv-x="1010" 
d="M508 -9h-6l-213 448l-148 -439h-111l242 706h8l225 -507l225 507h8l242 -706h-111l-148 439z" />
    <glyph glyph-name="N" unicode="N" horiz-adv-x="767" 
d="M564 237v463h103v-704l-8 -4l-455 475h-1v-467h-103v703l9 4z" />
    <glyph glyph-name="O" unicode="O" horiz-adv-x="812" 
d="M406 710q77 0 138.5 -23.5t99 -60.5t63 -86t35.5 -95.5t10 -93.5q0 -48 -10 -95.5t-35.5 -96t-63 -85t-99 -60t-138.5 -23.5t-138.5 23.5t-99 60t-63 85t-35.5 96t-10 95.5q0 47 10 93.5t35.5 95.5t63 86t99 60.5t138.5 23.5zM406 82q60 0 106 22t70.5 53t40 71t20 69
t4.5 54t-4.5 54t-20 69t-40 70.5t-70.5 52.5t-106 22t-106 -22t-71 -52.5t-40.5 -70.5t-20 -69t-4.5 -54t4.5 -54t20 -69t40.5 -71t71 -53t106 -22z" />
    <glyph glyph-name="P" unicode="P" horiz-adv-x="664" 
d="M203 260v-260h-103v700h261q66 0 116 -21t76 -55.5t38.5 -70.5t12.5 -72q0 -95 -70.5 -158t-158.5 -63h-172zM370 351q38 1 65.5 15t40.5 35.5t19 41.5t6 38q0 20 -6 40t-19.5 41.5t-42 35t-67.5 13.5h-163v-260h167z" />
    <glyph glyph-name="Q" unicode="Q" horiz-adv-x="807" 
d="M406 710q77 0 138.5 -23.5t99 -60.5t63 -86t35.5 -95.5t10 -93.5q0 -90 -37 -175.5t-116 -134.5l158 -189l-3 -6h-113l-135 156q-47 -11 -100 -11q-77 0 -138.5 23.5t-99 60t-63 85t-35.5 96t-10 95.5q0 47 10 93.5t35.5 95.5t63 86t99 60.5t138.5 23.5zM406 82
q60 0 106 22t70.5 53t40 71t20 69t4.5 54t-4.5 54t-20 69t-40 70.5t-70.5 52.5t-106 22t-106 -22t-71 -52.5t-40.5 -70.5t-20 -69t-4.5 -54t4.5 -54t20 -69t40.5 -71t71 -53t106 -22z" />
    <glyph glyph-name="R" unicode="R" horiz-adv-x="662" 
d="M201 260v-260h-101v700h259q66 0 116 -21t76 -55.5t38.5 -70.5t12.5 -72q0 -75 -44.5 -130.5t-111.5 -78.5l128 -272h-110l-122 260h-141zM368 351q38 1 65.5 15t40.5 35.5t19 41.5t6 38q0 20 -6 40t-19.5 41.5t-42 35t-67.5 13.5h-163v-260h167z" />
    <glyph glyph-name="S" unicode="S" horiz-adv-x="622" 
d="M169 526q0 -32 21.5 -55t56.5 -36t77 -25t83.5 -28.5t76.5 -39t56.5 -63.5t21.5 -97q0 -81 -71 -135.5t-177 -54.5q-136 0 -254 62l39 81q107 -52 207 -52q61 0 105 28t44 72t-29 73.5t-72 42t-93.5 29t-93.5 34t-72 57.5t-29 99q0 89 60.5 141t157.5 52q121 0 240 -56
l-38 -85q-111 45 -179 45q-63 0 -99 -19t-39 -70z" />
    <glyph glyph-name="T" unicode="T" horiz-adv-x="601" 
d="M248 0v610h-203v90h511v-90h-205v-610h-103z" />
    <glyph glyph-name="U" unicode="U" horiz-adv-x="725" 
d="M362 82q39 0 70 14.5t48.5 36t29.5 48t16.5 47.5t4.5 38v434h104v-434q0 -47 -15 -92.5t-45.5 -87t-85.5 -67.5t-127 -26t-127 26t-85.5 67.5t-45 87t-14.5 92.5v434h102v-434q0 -17 4.5 -38t16.5 -47.5t30 -48t49 -36t70 -14.5z" />
    <glyph glyph-name="V" unicode="V" horiz-adv-x="690" 
d="M345 212l203 488h112l-310 -707h-10l-310 707h112z" />
    <glyph glyph-name="W" unicode="W" horiz-adv-x="1105" 
d="M760 218l203 482h112l-310 -707h-10l-203 466l-202 -466h-10l-310 707h112l203 -482l201 487h9z" />
    <glyph glyph-name="X" unicode="X" horiz-adv-x="618" 
d="M469 700h119l-223 -349l223 -351h-117l-162 262l-162 -262h-117l223 351l-223 349h119l160 -260z" />
    <glyph glyph-name="Y" unicode="Y" horiz-adv-x="636" 
d="M369 317v-317h-103v315l-236 385h115l172 -284l173 284h116z" />
    <glyph glyph-name="Z" unicode="Z" horiz-adv-x="639" 
d="M220 90h359v-90h-517l-2 7l356 604h-330v89h489l3 -7z" />
    <glyph glyph-name="bracketleft" unicode="[" horiz-adv-x="248" 
d="M30 -200v976h188v-75h-89v-826h89v-75h-188z" />
    <glyph glyph-name="backslash" unicode="\" horiz-adv-x="369" 
d="M258 0l-228 700h81l228 -700h-81z" />
    <glyph glyph-name="bracketright" unicode="]" horiz-adv-x="248" 
d="M218 777v-976h-188v75h89v826h-89v75h188z" />
    <glyph glyph-name="asciicircum" unicode="^" horiz-adv-x="628" 
d="M321 714l207 -263l-51 -46l-163 185l-163 -185l-51 46l207 263h14z" />
    <glyph glyph-name="underscore" unicode="_" horiz-adv-x="412" 
d="M5 -66v63h402v-63h-402z" />
    <glyph glyph-name="grave" unicode="`" horiz-adv-x="510" 
d="M156 757l154 -115l-36 -53l-164 101z" />
    <glyph glyph-name="a" unicode="a" horiz-adv-x="536" 
d="M252 507q55 3 94 -8t60 -29.5t32.5 -49.5t14.5 -57t3 -64v-299h-60l-16 52q-29 -29 -68.5 -45t-75.5 -16q-43 0 -76.5 11.5t-51.5 28t-29.5 38.5t-15 39.5t-3.5 33.5q0 41 13.5 71.5t38 47t52.5 26.5t64.5 12t65 1t62.5 -5v11q0 72 -22 95t-76 23q-62 0 -136 -32l-29 69
q80 42 159 46zM356 141v77q-203 25 -203 -68q0 -38 24.5 -59t61.5 -21q39 0 70.5 22t46.5 49z" />
    <glyph glyph-name="b" unicode="b" 
d="M303 508q68 0 119 -25t78 -65.5t39.5 -82.5t12.5 -85q0 -34 -7.5 -68t-25.5 -69t-44.5 -61.5t-70 -43t-96.5 -16.5q-89 0 -151 59l-17 -51h-60v700h100v-219q52 27 123 27zM303 75q46 0 78.5 20.5t46.5 51.5t19.5 56t5.5 47q0 24 -6.5 50t-22.5 56t-49.5 49.5t-79.5 19.5
q-69 0 -115 -35v-248q40 -67 123 -67z" />
    <glyph glyph-name="c" unicode="c" horiz-adv-x="558" 
d="M498 426l-67 -61q-53 54 -123 54q-62 0 -105 -44t-43 -121q0 -70 39 -122.5t108 -52.5q74 0 127 58l57 -64q-78 -83 -184 -83q-57 0 -101.5 17t-71.5 43t-44 62t-23.5 70.5t-6.5 71.5q0 43 12.5 85.5t39.5 83t78 65.5t119 25q112 0 189 -87z" />
    <glyph glyph-name="d" unicode="d" 
d="M309 508q71 0 123 -27v219h100v-700h-60l-17 51q-62 -59 -151 -59q-53 0 -96.5 16.5t-70 43t-44.5 61.5t-25.5 69t-7.5 68q0 43 12.5 85t39.5 82.5t78 65.5t119 25zM309 75q83 0 123 67v248q-46 35 -115 35q-46 0 -79.5 -19.5t-49.5 -49.5t-22.5 -56t-6.5 -50
q0 -22 5.5 -47t19.5 -56t46.5 -51.5t78.5 -20.5z" />
    <glyph glyph-name="e" unicode="e" horiz-adv-x="542" 
d="M442 138l53 -62q-85 -82 -201 -82q-68 0 -119 25t-78 65.5t-39.5 83t-12.5 86.5q0 43 12.5 85t39.5 82.5t78 65.5t119 25q113 0 165.5 -78t30.5 -204h-345q3 -25 11 -47.5t23.5 -47.5t45 -40t69.5 -15q87 0 148 58zM294 429q-115 0 -145 -125h252q7 46 -18.5 84t-88.5 41
z" />
    <glyph glyph-name="f" unicode="f" horiz-adv-x="362" 
d="M372 679l-26 -76q-51 19 -93 19q-35 0 -58.5 -19t-23.5 -63v-40h103v-82h-103v-417h-100v417h-61v82h61v44q0 80 49 121.5t124 41.5q68 0 128 -28z" />
    <glyph glyph-name="g" unicode="g" horiz-adv-x="559" 
d="M60 -63q2 76 69 104q-54 20 -56 71q-2 36 14 61.5t45 32.5q-39 52 -39 119q0 31 9.5 61t29.5 58.5t58 46t89 17.5q59 0 102 -25l73 67l55 -54l-69 -73q26 -49 26 -98q0 -70 -45.5 -127t-141.5 -57q-43 0 -75 12q-23 3 -35.5 -9t-12.5 -31q0 -23 22 -34.5t55 -11.5
q11 0 39 -0.5t38 -0.5q58 -1 97.5 -12.5t58 -32t25.5 -42.5t6 -50q-1 -18 -11 -40t-32 -46t-65.5 -40t-102.5 -16q-119 0 -172.5 46.5t-53.5 103.5zM279 225q26 0 45 11.5t27 29.5t11.5 32.5t3.5 26.5t-3.5 26.5t-11.5 32.5t-27 29.5t-45 11.5t-45 -11.5t-27 -29.5
t-11.5 -32.5t-3.5 -26.5t3.5 -26.5t11.5 -32.5t27 -29.5t45 -11.5zM279 -128q34 0 59.5 6t38 14t19.5 18t8.5 15t1.5 8q3 24 -23.5 36.5t-103.5 12.5t-103 -11.5t-26 -37.5q0 -5 2.5 -11.5t11.5 -15.5t22 -16t37.5 -12t55.5 -6z" />
    <glyph glyph-name="h" unicode="h" horiz-adv-x="579" 
d="M180 0h-100v700h100v-235q22 19 58 31t70 12q66 0 110.5 -21.5t65 -61t28 -78t7.5 -89.5v-258h-99v258q0 3 -0.5 24.5t-2 34.5t-8.5 35t-18.5 35.5t-34 24.5t-53.5 13q-43 3 -76 -16.5t-47 -46.5v-362z" />
    <glyph glyph-name="i" unicode="i" horiz-adv-x="279" 
d="M189 500v-501h-100v501h100zM80 652q0 25 17 42.5t42 17.5t42.5 -17.5t17.5 -42.5t-17.5 -42t-42.5 -17t-42 16.5t-17 42.5z" />
    <glyph glyph-name="j" unicode="j" horiz-adv-x="263" 
d="M-87 -83q46 -27 84 -27q76 0 76 107v503h100v-503v-2q0 -12 -0.5 -23.5t-4 -37t-14.5 -46t-28.5 -42t-49 -33.5t-72.5 -12q-45 0 -80.5 15.5t-53.5 33.5zM64 652q0 25 17 42.5t42 17.5t42.5 -17.5t17.5 -42.5t-17.5 -42t-42.5 -17t-42 16.5t-17 42.5z" />
    <glyph glyph-name="k" unicode="k" horiz-adv-x="525" 
d="M180 223v-223h-100v700h100v-409l189 209h106l2 -5l-215 -235l233 -253l-2 -7h-109z" />
    <glyph glyph-name="l" unicode="l" horiz-adv-x="280" 
d="M190 700v-700h-100v700h100z" />
    <glyph glyph-name="m" unicode="m" horiz-adv-x="878" 
d="M180 358v-358h-100v500h60l17 -51q62 59 151 59q113 0 158 -66l7 7q62 59 151 59q45 0 79 -9.5t54.5 -29.5t33.5 -41t18.5 -53.5t7 -56.5t1.5 -60v-258h-99v258q0 5 -0.5 24.5t-1 34t-6 35.5t-15.5 35t-29.5 25t-47.5 13q-80 5 -123 -67q6 -38 6 -100v-258h-99v258
q1 9 0 25t-1 33.5t-6 36t-16 34t-29.5 26t-47.5 12.5q-80 5 -123 -67z" />
    <glyph glyph-name="n" unicode="n" horiz-adv-x="579" 
d="M180 358v-358h-100v500h60l17 -51q62 59 151 59q66 0 110.5 -21.5t65 -61t28 -78t7.5 -89.5v-258h-101v258q0 2 -1 25t-2.5 36t-8.5 35.5t-18 35.5t-33 23.5t-52 10.5q-41 0 -74 -19.5t-49 -46.5z" />
    <glyph glyph-name="o" unicode="o" horiz-adv-x="618" 
d="M309 508q68 0 119 -25t78 -65.5t39.5 -82.5t12.5 -85q0 -44 -12.5 -86.5t-39.5 -82.5t-78 -64.5t-119 -24.5t-119 24.5t-78 64.5t-39.5 82.5t-12.5 86.5q0 43 12.5 85t39.5 82.5t78 65.5t119 25zM309 75q46 0 78.5 20.5t46.5 51.5t19.5 56t5.5 47t-5.5 47t-19.5 56
t-46.5 51.5t-78.5 20.5t-78.5 -20.5t-46.5 -51.5t-19.5 -56t-5.5 -47t5.5 -47t19.5 -56t46.5 -51.5t78.5 -20.5z" />
    <glyph glyph-name="p" unicode="p" 
d="M303 -8q-71 0 -123 27v-219h-100v700h60l17 -51q62 59 151 59q53 0 96.5 -16.5t70 -43t44.5 -61.5t25.5 -69t7.5 -68q0 -43 -12.5 -85t-39.5 -82.5t-78 -65.5t-119 -25zM303 425q-83 0 -123 -67v-248q46 -35 115 -35q46 0 79.5 19.5t49.5 49.5t22.5 56t6.5 50
q0 22 -5.5 47t-19.5 56t-46.5 51.5t-78.5 20.5z" />
    <glyph glyph-name="q" unicode="q" 
d="M309 -8q-68 0 -119 25t-78 65.5t-39.5 82.5t-12.5 85q0 34 7.5 68t25.5 69t44.5 61.5t70 43t96.5 16.5q89 0 151 -59l17 51h60v-700h-100v219q-52 -27 -123 -27zM309 425q-46 0 -78.5 -20.5t-46.5 -51.5t-19.5 -56t-5.5 -47q0 -24 6.5 -50t22.5 -56t49.5 -49.5
t79.5 -19.5q69 0 115 35v248q-40 67 -123 67z" />
    <glyph glyph-name="r" unicode="r" horiz-adv-x="366" 
d="M356 503l-16 -87q-17 4 -39 4q-43 0 -77 -18.5t-44 -48.5v-353h-100v500h60l17 -51q62 59 151 59q17 0 48 -5z" />
    <glyph glyph-name="s" unicode="s" horiz-adv-x="492" 
d="M163 369q0 -25 27.5 -41t67.5 -28t79.5 -28t67 -50.5t27.5 -86.5q0 -64 -51.5 -103.5t-130.5 -39.5q-101 0 -190 50l35 74q77 -41 149 -41q36 0 60.5 16.5t24.5 42.5q0 30 -27 48.5t-65.5 29.5t-77 25.5t-65 46t-26.5 81.5q1 67 45.5 105t116.5 38q91 0 180 -45l-35 -76
q-79 34 -127 34q-82 0 -85 -52z" />
    <glyph glyph-name="t" unicode="t" horiz-adv-x="313" 
d="M72 417h-62v83h62l10 99h90v-99h103v-83h-103v-280q0 -30 10 -46.5t41 -13.5q19 1 65 12l15 -74q-63 -19 -125 -19q-34 0 -57 14t-32.5 36.5t-13 39.5t-3.5 34v297z" />
    <glyph glyph-name="u" unicode="u" horiz-adv-x="579" 
d="M399 142v358h100v-500h-60l-17 51q-62 -59 -151 -59q-66 0 -110.5 21.5t-65 61t-28 78t-7.5 89.5v258h101v-258q0 -2 1 -25t2.5 -36t8.5 -35.5t18 -35.5t33 -23.5t52 -10.5q41 0 74 19.5t49 46.5z" />
    <glyph glyph-name="v" unicode="v" horiz-adv-x="511" 
d="M481 500l-224 -506h-7l-220 506h107l118 -294l119 294h107z" />
    <glyph glyph-name="w" unicode="w" horiz-adv-x="758" 
d="M728 500l-224 -506h-7l-119 285l-121 -285h-7l-220 506h107l118 -294l121 300h6l120 -300l119 294h107z" />
    <glyph glyph-name="x" unicode="x" horiz-adv-x="493" 
d="M344 500h119l-160 -250l160 -250h-119l-98 160l-97 -160h-119l160 250l-160 250h119l97 -161z" />
    <glyph glyph-name="y" unicode="y" horiz-adv-x="575" 
d="M139 500l149 -361l145 361h112l-296 -699h-106l92 219l-205 480h109z" />
    <glyph glyph-name="z" unicode="z" horiz-adv-x="496" 
d="M75 408v92h373l3 -8l-241 -400h228v-92h-391l-2 8l237 400h-207z" />
    <glyph glyph-name="braceleft" unicode="{" horiz-adv-x="302" 
d="M249 776h23v-75h-19q-5 0 -10.5 -1t-15 -7t-16.5 -16.5t-12.5 -32t-5.5 -50.5v-213q0 -33 -18.5 -56t-44.5 -33v-5q26 -8 44.5 -33.5t18.5 -59.5v-211q0 -29 5.5 -50.5t12.5 -32t16.5 -16.5t15 -7t10.5 -1h19v-75h-23q-7 0 -19.5 1.5t-38 11.5t-45.5 27t-36 51.5
t-16 81.5v211q0 32 -16.5 49.5t-37.5 20.5h-10v65h10q21 3 37.5 20.5t16.5 49.5v213q0 47 16 81.5t36 51.5t45.5 27t38 11.5t19.5 1.5z" />
    <glyph glyph-name="bar" unicode="|" horiz-adv-x="189" 
d="M129 -200h-69v973h69v-973z" />
    <glyph glyph-name="braceright" unicode="}" horiz-adv-x="302" 
d="M53 776q7 0 19.5 -1.5t38 -11.5t45.5 -27t36 -51.5t16 -81.5v-213q0 -32 16.5 -49.5t37.5 -20.5h10v-65h-10q-21 -3 -37.5 -20.5t-16.5 -49.5v-211q0 -47 -16 -81.5t-36 -51.5t-45.5 -27t-38 -11.5t-19.5 -1.5h-23v75h19q5 0 10.5 1t15 7t16.5 16.5t12.5 32t5.5 50.5v211
q0 34 18.5 59.5t44.5 33.5v5q-26 10 -44.5 33t-18.5 56v213q0 29 -5.5 50.5t-12.5 32t-16.5 16.5t-15 7t-10.5 1h-19v75h23z" />
    <glyph glyph-name="asciitilde" unicode="~" horiz-adv-x="614" 
d="M122 223l-62 43q61 107 164 107q35 0 88.5 -31t83.5 -31q49 0 99 65l59 -50q-59 -109 -159 -109q-39 0 -94.5 32t-81.5 32q-53 0 -97 -58z" />
    <glyph glyph-name="exclamdown" unicode="&#xa1;" horiz-adv-x="319" 
d="M209 90v-282h-100v282l18 210h63zM100 452q0 25 17 42.5t42 17.5t42.5 -17.5t17.5 -42.5t-17.5 -42t-42.5 -17t-42 16.5t-17 42.5z" />
    <glyph glyph-name="cent" unicode="&#xa2;" horiz-adv-x="558" 
d="M341 -106h-69v98q-49 5 -87 23.5t-61 44.5t-38 60.5t-20.5 66.5t-5.5 67q0 40 10.5 79.5t33.5 78t66.5 65.5t101.5 34v85h69v-85q90 -9 157 -85l-67 -61q-45 45 -90 54v-336q56 13 93 54l57 -64q-67 -71 -150 -81v-98zM160 254q0 -60 29.5 -109t82.5 -62v335
q-49 -13 -80.5 -56.5t-31.5 -107.5z" />
    <glyph glyph-name="sterling" unicode="&#xa3;" horiz-adv-x="599" 
d="M107 -4l-62 43q33 56 78 83v205h-61v82h61v135q0 80 49 121.5t124 41.5q66 0 126 -28l-27 -75q-57 19 -95 19q-73 0 -77 -73v-141h164v-82h-164v-182q28 -4 78 -32.5t80 -28.5q49 0 99 65l59 -50q-59 -109 -159 -109q-39 0 -94.5 32t-81.5 32q-53 0 -97 -58z" />
    <glyph glyph-name="currency" unicode="&#xa4;" horiz-adv-x="651" 
d="M325 476q70 0 118 -33l99 100l49 -49l-101 -101q34 -53 34 -123q0 -64 -28 -114l95 -95l-49 -49l-91 91q-49 -39 -126 -39q-75 0 -125 38l-91 -90l-49 49l95 94q-29 51 -29 115q0 71 34 124l-100 100l49 49l99 -99q46 32 117 32zM325 158q29 0 50 13t30 33t12.5 36
t3.5 30t-3.5 30t-12.5 36t-30 33t-50 13t-50 -13t-30 -33t-12.5 -36t-3.5 -30t3.5 -30t12.5 -36t30 -33t50 -13z" />
    <glyph glyph-name="yen" unicode="&#xa5;" horiz-adv-x="629" 
d="M485 71h-119v-71h-103v71h-120v75h120v95h-120v75h119l-232 374v10h112l172 -284l173 284h112v-10l-233 -373v-1h119v-75h-119v-95h119v-75z" />
    <glyph glyph-name="brokenbar" unicode="&#xa6;" horiz-adv-x="189" 
d="M129 182v-381h-69v381h69zM129 774v-381h-69v381h69z" />
    <glyph glyph-name="section" unicode="&#xa7;" horiz-adv-x="576" 
d="M80 -118l54 69q78 -60 144 -63q35 -2 64.5 18t33.5 54q4 38 -26 66.5t-100 62.5q-161 71 -156 198q1 41 23.5 72.5t46.5 48.5q-64 67 -62 137q3 65 55.5 115.5t148.5 47.5q85 -4 169 -67l-50 -73q-73 44 -124 47q-47 1 -71.5 -20t-26.5 -49q0 -60 103 -110
q43 -20 73.5 -38.5t59.5 -43.5t43 -56t13 -67q-2 -69 -76 -127q68 -74 66 -146q-3 -77 -63.5 -123t-144.5 -40q-109 8 -197 87zM191 289q-1 -11 1.5 -21.5t10 -20.5t13.5 -17.5t19.5 -17t20 -15t23.5 -14.5t22 -11.5t22.5 -11.5t18.5 -9q44 36 46 79q1 18 -9.5 34
t-31.5 30.5t-37.5 23.5t-43.5 21.5t-34 16.5q-41 -35 -41 -67z" />
    <glyph glyph-name="dieresis" unicode="&#xa8;" horiz-adv-x="579" 
d="M109 651q0 25 17 42.5t42 17.5t42.5 -17.5t17.5 -42.5t-17.5 -42t-42.5 -17q-26 0 -42.5 17t-16.5 42zM348 651q0 25 17 42.5t42 17.5t42.5 -17.5t17.5 -42.5t-17.5 -42t-42.5 -17t-42 17t-17 42z" />
    <glyph glyph-name="copyright" unicode="&#xa9;" horiz-adv-x="586" 
d="M293 705q105 0 179 -74t74 -179t-74 -179t-179 -74q-100 0 -176.5 74t-76.5 181q0 99 74 175t179 76zM293 250q84 0 143 59t59 143t-59 143.5t-143 59.5t-143 -59.5t-59 -143.5t59 -143t143 -59zM220 451q0 36 21 58t51 22q33 0 69 -29l42 37q-44 52 -111 52
q-71 0 -106 -45t-35 -95t35 -95t106 -45q67 0 111 52l-42 37q-36 -29 -69 -29q-30 0 -51 22t-21 58z" />
    <glyph glyph-name="ordfeminine" unicode="&#xaa;" horiz-adv-x="397" 
d="M184 710q51 3 84 -9t47 -37.5t18 -49.5t4 -60v-224h-45l-12 39q-45 -46 -108 -46q-40 0 -68.5 12.5t-41 32t-17.5 36t-5 32.5q0 61 38.5 89t96.5 28q40 0 87 -15v20q0 56 -16.5 71.5t-56.5 15.5q-43 0 -101 -25l-23 55q59 32 119 35zM262 435v45q-42 14 -81 14
q-29 0 -50 -14t-21 -38q0 -27 19 -43.5t46 -16.5q29 0 52.5 16.5t34.5 36.5z" />
    <glyph glyph-name="guillemotleft" unicode="&#xab;" horiz-adv-x="473" 
d="M125 251l128 -151l-48 -43l-175 185v18l175 185l48 -43zM315 251l128 -151l-48 -43l-175 185v18l175 185l48 -43z" />
    <glyph glyph-name="logicalnot" unicode="&#xac;" horiz-adv-x="627" 
d="M547 420v-309h-166v147h-301v162h467z" />
    <glyph glyph-name="uni00AD" unicode="&#xad;" horiz-adv-x="402" 
d="M60 234h282v-75h-282v75z" />
    <glyph glyph-name="registered" unicode="&#xae;" horiz-adv-x="586" 
d="M293 706q105 0 179 -74t74 -179t-74 -179t-179 -74q-100 0 -176.5 74t-76.5 181q0 99 74 175t179 76zM293 251q84 0 143 59t59 143t-59 143.5t-143 59.5t-143 -59.5t-59 -143.5t59 -143t143 -59zM251 411v-92h-52v277h107q53 0 77 -28.5t24 -63.5q0 -28 -16 -51t-41 -34
l51 -100h-56l-47 92h-47zM310 460q24 1 33.5 15t9.5 29q0 16 -10 30t-35 14h-57v-88h59z" />
    <glyph glyph-name="macron" unicode="&#xaf;" horiz-adv-x="516" 
d="M113 666h301v-70h-301v70z" />
    <glyph glyph-name="degree" unicode="&#xb0;" horiz-adv-x="330" 
d="M165 440q-56 0 -95.5 39.5t-39.5 95.5t39.5 95.5t95.5 39.5t95.5 -39.5t39.5 -95.5t-39.5 -95.5t-95.5 -39.5zM165 508q25 0 44.5 20.5t19.5 46.5q0 25 -19.5 44.5t-44.5 19.5q-26 0 -46.5 -19.5t-20.5 -44.5q0 -26 20.5 -46.5t46.5 -20.5z" />
    <glyph glyph-name="plusminus" unicode="&#xb1;" horiz-adv-x="553" 
d="M80 115h393v-75h-393v75zM314 534v-159h159v-75h-159v-118h-75v118h-159v75h159v159h75z" />
    <glyph glyph-name="twosuperior" unicode="&#xb2;" horiz-adv-x="282" 
d="M70 704l-37 38q51 55 109 55q46 0 73 -27.5t27 -67.5q0 -43 -39 -89l-73 -86h104v-56h-204v25l128 153q26 32 26 57q0 15 -9.5 26.5t-31.5 11.5q-30 0 -73 -40z" />
    <glyph glyph-name="threesuperior" unicode="&#xb3;" horiz-adv-x="258" 
d="M228 702q0 -45 -32 -73q32 -27 32 -72q0 -36 -25 -66t-83 -30q-51 0 -100 44l32 35q31 -31 68 -31q23 0 38.5 12.5t15.5 35.5t-15.5 36t-38.5 13h-43v47h43q23 0 38.5 13t15.5 36t-16 35.5t-38 12.5q-35 0 -68 -31l-32 35q51 44 100 44q58 0 83 -30.5t25 -65.5z" />
    <glyph glyph-name="acute" unicode="&#xb4;" horiz-adv-x="510" 
d="M200 642l154 115l46 -67l-164 -101z" />
    <glyph glyph-name="mu" unicode="&#xb5;" horiz-adv-x="599" 
d="M180 27v-226h-100v699h100v-258q0 -3 0.5 -22.5t1.5 -34t8 -36t18.5 -36t34 -25t53.5 -11.5q41 -1 74 18.5t49 46.5v358h100v-500h-60l-17 51q-62 -59 -146 -59q-80 0 -116 35z" />
    <glyph glyph-name="mu" unicode="&#x3bc;" horiz-adv-x="599" 
d="M180 27v-226h-100v699h100v-258q0 -3 0.5 -22.5t1.5 -34t8 -36t18.5 -36t34 -25t53.5 -11.5q41 -1 74 18.5t49 46.5v358h100v-500h-60l-17 51q-62 -59 -146 -59q-80 0 -116 35z" />
    <glyph glyph-name="paragraph" unicode="&#xb6;" horiz-adv-x="655" 
d="M40 494q0 34 10 68t31.5 66t62.5 52t96 20h335v-69h-70v-830h-69v830h-108v-830h-69v487h-19q-55 0 -96 20t-62.5 52t-31.5 66t-10 68z" />
    <glyph glyph-name="periodcentered" unicode="&#xb7;" horiz-adv-x="251" 
d="M60 299q0 28 18.5 46.5t46.5 18.5q27 0 46.5 -19t19.5 -46t-19.5 -46.5t-46.5 -19.5t-46 19.5t-19 46.5z" />
    <glyph glyph-name="cedilla" unicode="&#xb8;" horiz-adv-x="554" 
d="M300 -72h-10l-15 10v77h60v-41h6q48 -2 71.5 -31.5t20.5 -64.5q-4 -48 -36 -73.5t-75 -23.5q-48 2 -85 30l28 50q31 -18 57 -18q16 0 28.5 10.5t14.5 24.5q3 21 -12.5 36t-52.5 14z" />
    <glyph glyph-name="onesuperior" unicode="&#xb9;" horiz-adv-x="201" 
d="M156 798v-324h-61v230l-48 -28l-27 43l111 79h25z" />
    <glyph glyph-name="ordmasculine" unicode="&#xba;" horiz-adv-x="378" 
d="M189 706q54 0 89 -26.5t47.5 -59.5t12.5 -69q0 -27 -7.5 -52t-23.5 -49.5t-46.5 -39t-71.5 -14.5t-71.5 14.5t-46.5 39t-23.5 49.5t-7.5 52q0 36 12.5 69t47.5 59.5t89 26.5zM189 456q25 0 42.5 11t25 28t10.5 30.5t3 25.5q0 17 -4.5 35.5t-24.5 38.5t-52 20t-52 -20
t-24.5 -38.5t-4.5 -35.5q0 -12 3 -25.5t10.5 -30.5t25 -28t42.5 -11zM59 299h259v-58h-259v58z" />
    <glyph glyph-name="guillemotright" unicode="&#xbb;" horiz-adv-x="473" 
d="M220 100l128 151l-128 151l48 43l175 -185v-18l-175 -185zM30 100l128 151l-128 151l48 43l175 -185v-18l-175 -185z" />
    <glyph glyph-name="onequarter" unicode="&#xbc;" horiz-adv-x="552" 
d="M162 700v-324h-61v230l-48 -28l-27 43l112 79h24zM463 64v-63h-61v63h-133v35l145 225h49v-204h49v-56h-49zM402 204l-54 -84h54v84zM482 700l-349 -700h-73l350 700h72z" />
    <glyph glyph-name="onehalf" unicode="&#xbd;" horiz-adv-x="591" 
d="M161 700v-324h-61v230l-48 -28l-27 43l112 79h24zM482 700l-349 -700h-73l350 700h72zM379 232l-37 38q51 55 109 55q46 0 73 -27.5t27 -67.5q0 -43 -39 -89l-73 -86h104v-56h-204v25l128 153q26 32 26 57q0 15 -9.5 26.5t-31.5 11.5q-30 0 -73 -40z" />
    <glyph glyph-name="threequarters" unicode="&#xbe;" horiz-adv-x="588" 
d="M499 64v-63h-61v63h-133v35l145 225h49v-204h49v-56h-49zM438 204l-54 -84h54v84zM518 700l-349 -700h-73l350 700h72zM232 610q0 -45 -32 -73q32 -27 32 -72q0 -36 -25 -66t-83 -30q-51 0 -100 44l32 35q31 -31 68 -31q23 0 38.5 12.5t15.5 35.5t-15.5 36t-38.5 13h-43
v47h43q23 0 38.5 13t15.5 36t-16 35.5t-38 12.5q-35 0 -68 -31l-32 35q51 44 100 44q58 0 83 -30.5t25 -65.5z" />
    <glyph glyph-name="questiondown" unicode="&#xbf;" horiz-adv-x="549" 
d="M228 242l4 58h88v-60q0 -30 -14.5 -58.5t-34.5 -51t-40.5 -46t-35 -53t-14.5 -61.5q0 -33 20.5 -59.5t74.5 -24.5q36 1 65 19t70 59l58 -57q-52 -56 -99.5 -81t-112.5 -25q-78 0 -127.5 44.5t-49.5 123.5q0 44 23 88t51 73t51 60t23 52zM334 453q0 -25 -17.5 -42
t-43.5 -17q-25 0 -42.5 17t-17.5 42t17.5 42.5t42.5 17.5t43 -17.5t18 -42.5z" />
    <glyph glyph-name="Agrave" unicode="&#xc0;" horiz-adv-x="690" 
d="M548 -1l-78 186h-251l-77 -186h-112l310 707h10l310 -707h-112zM345 487l-89 -213h177zM291 957l154 -115l-36 -53l-164 101z" />
    <glyph glyph-name="Aacute" unicode="&#xc1;" horiz-adv-x="690" 
d="M548 -1l-78 186h-251l-77 -186h-112l310 707h10l310 -707h-112zM345 487l-89 -213h177zM245 842l154 115l46 -67l-164 -101z" />
    <glyph glyph-name="Acircumflex" unicode="&#xc2;" horiz-adv-x="690" 
d="M548 -1l-78 186h-251l-77 -186h-112l310 707h10l310 -707h-112zM345 487l-89 -213h177zM191 841l154 115l154 -115l-36 -53l-118 72l-118 -72z" />
    <glyph glyph-name="Atilde" unicode="&#xc3;" horiz-adv-x="690" 
d="M548 -1l-78 186h-251l-77 -186h-112l310 707h10l310 -707h-112zM345 487l-89 -213h177zM446 900l57 -30q-37 -83 -111 -83q-22 0 -52 19.5t-49 19.5q-32 0 -51 -42l-53 26q27 90 105 90q27 0 56.5 -19.5t45.5 -19.5q30 0 52 39z" />
    <glyph glyph-name="Adieresis" unicode="&#xc4;" horiz-adv-x="690" 
d="M548 -1l-78 186h-251l-77 -186h-112l310 707h10l310 -707h-112zM345 487l-89 -213h177zM166 851q0 25 17 42.5t42 17.5t42.5 -17.5t17.5 -42.5t-17.5 -42t-42.5 -17t-42 17t-17 42zM405 851q0 25 17 42.5t42 17.5t42.5 -17.5t17.5 -42.5t-17.5 -42t-42.5 -17
q-26 0 -42.5 17t-16.5 42z" />
    <glyph glyph-name="Aring" unicode="&#xc5;" horiz-adv-x="690" 
d="M548 -1l-78 186h-251l-77 -186h-112l310 707h10l310 -707h-112zM345 487l-89 -213h177zM243 888q0 42 30 72t72 30t71.5 -30t29.5 -72t-29.5 -71.5t-71.5 -29.5t-72 29.5t-30 71.5zM304 888q0 -16 12.5 -28t28.5 -12t28 12t12 28t-12 28.5t-28 12.5q-17 0 -29 -12.5
t-12 -28.5z" />
    <glyph glyph-name="AE" unicode="&#xc6;" horiz-adv-x="865" 
d="M728 300h-270v-210h347v-90h-450v185h-136l-79 -185h-110l299 700h476v-89h-347v-221h270v-90zM254 275h101v264z" />
    <glyph glyph-name="Ccedilla" unicode="&#xc7;" horiz-adv-x="725" 
d="M400 -72h-10l-15 10v54q-70 5 -125.5 30t-90 61.5t-58 83.5t-32.5 92.5t-9 91.5q0 47 10 93.5t35.5 95.5t63 86t99 60.5t138.5 23.5q157 0 259 -113l-67 -65q-31 36 -84 61.5t-108 25.5q-60 0 -106 -22t-71 -52.5t-40.5 -70.5t-20 -69t-4.5 -54t4.5 -54t20 -68.5
t40.5 -70t71 -52.5t106 -22q106 0 198 84l59 -75q-93 -93 -228 -101v-18h6q48 -2 71.5 -31.5t20.5 -64.5q-4 -48 -36 -73.5t-75 -23.5q-48 2 -85 30l28 50q31 -18 57 -18q16 0 28.5 10.5t14.5 24.5q3 21 -12.5 36t-52.5 14z" />
    <glyph glyph-name="Egrave" unicode="&#xc8;" horiz-adv-x="620" 
d="M482 300h-280v-210h358v-90h-460v700h460v-90h-358v-220h280v-90zM255 957l154 -115l-36 -53l-164 101z" />
    <glyph glyph-name="Eacute" unicode="&#xc9;" horiz-adv-x="620" 
d="M482 300h-280v-210h358v-90h-460v700h460v-90h-358v-220h280v-90zM209 842l154 115l46 -67l-164 -101z" />
    <glyph glyph-name="Ecircumflex" unicode="&#xca;" horiz-adv-x="620" 
d="M482 300h-280v-210h358v-90h-460v700h460v-90h-358v-220h280v-90zM155 841l154 115l154 -115l-36 -53l-118 72l-118 -72z" />
    <glyph glyph-name="Edieresis" unicode="&#xcb;" horiz-adv-x="620" 
d="M482 300h-280v-210h358v-90h-460v700h460v-90h-358v-220h280v-90zM146 851q0 25 17 42.5t42 17.5t42.5 -17.5t17.5 -42.5t-17.5 -42t-42.5 -17t-42 17t-17 42zM385 851q0 25 17 42.5t42 17.5t42.5 -17.5t17.5 -42.5t-17.5 -42t-42.5 -17q-26 0 -42.5 17t-16.5 42z" />
    <glyph glyph-name="Igrave" unicode="&#xcc;" horiz-adv-x="240" 
d="M171 700v-700h-103v700h103zM66 957l154 -115l-36 -53l-164 101z" />
    <glyph glyph-name="Iacute" unicode="&#xcd;" horiz-adv-x="240" 
d="M171 700v-700h-103v700h103zM20 842l154 115l46 -67l-164 -101z" />
    <glyph glyph-name="Icircumflex" unicode="&#xce;" horiz-adv-x="308" 
d="M205 700v-700h-103v700h103zM0 841l154 115l154 -115l-36 -53l-118 72l-118 -72z" />
    <glyph glyph-name="Idieresis" unicode="&#xcf;" horiz-adv-x="358" 
d="M230 700v-700h-103v700h103zM0 851q0 25 17 42.5t42 17.5t42.5 -17.5t17.5 -42.5t-17.5 -42t-42.5 -17t-42 17t-17 42zM239 851q0 25 17 42.5t42 17.5t42.5 -17.5t17.5 -42.5t-17.5 -42t-42.5 -17q-26 0 -42.5 17t-16.5 42z" />
    <glyph glyph-name="Eth" unicode="&#xd0;" horiz-adv-x="735" 
d="M86 700h243q77 0 138.5 -22.5t99 -58t63 -83t35.5 -93t10 -92.5q0 -48 -10 -94.5t-35 -93.5t-63.5 -82.5t-99.5 -58t-138 -22.5h-243v308h-56v75h56v317zM189 383h183v-75h-183v-218h140q60 0 106 21t70.5 51t40 68.5t20 67t4.5 53.5t-4.5 53.5t-20 67t-40 68t-70.5 50.5
t-106 21h-140v-228z" />
    <glyph glyph-name="Ntilde" unicode="&#xd1;" horiz-adv-x="767" 
d="M564 237v463h103v-704l-10 -4l-453 475h-1v-467h-103v703l11 4zM484 900l57 -30q-37 -83 -111 -83q-22 0 -52 19.5t-49 19.5q-32 0 -51 -42l-53 26q27 90 105 90q27 0 56.5 -19.5t45.5 -19.5q30 0 52 39z" />
    <glyph glyph-name="Ograve" unicode="&#xd2;" horiz-adv-x="812" 
d="M406 710q77 0 138.5 -23.5t99 -60.5t63 -86t35.5 -95.5t10 -93.5q0 -48 -10 -95.5t-35.5 -96t-63 -85t-99 -60t-138.5 -23.5t-138.5 23.5t-99 60t-63 85t-35.5 96t-10 95.5q0 47 10 93.5t35.5 95.5t63 86t99 60.5t138.5 23.5zM406 82q60 0 106 22t70.5 53t40 71t20 69
t4.5 54t-4.5 54t-20 69t-40 70.5t-70.5 52.5t-106 22t-106 -22t-71 -52.5t-40.5 -70.5t-20 -69t-4.5 -54t4.5 -54t20 -69t40.5 -71t71 -53t106 -22zM352 957l154 -115l-36 -53l-164 101z" />
    <glyph glyph-name="Oacute" unicode="&#xd3;" horiz-adv-x="812" 
d="M406 710q77 0 138.5 -23.5t99 -60.5t63 -86t35.5 -95.5t10 -93.5q0 -48 -10 -95.5t-35.5 -96t-63 -85t-99 -60t-138.5 -23.5t-138.5 23.5t-99 60t-63 85t-35.5 96t-10 95.5q0 47 10 93.5t35.5 95.5t63 86t99 60.5t138.5 23.5zM406 82q60 0 106 22t70.5 53t40 71t20 69
t4.5 54t-4.5 54t-20 69t-40 70.5t-70.5 52.5t-106 22t-106 -22t-71 -52.5t-40.5 -70.5t-20 -69t-4.5 -54t4.5 -54t20 -69t40.5 -71t71 -53t106 -22zM306 842l154 115l46 -67l-164 -101z" />
    <glyph glyph-name="Ocircumflex" unicode="&#xd4;" horiz-adv-x="812" 
d="M406 710q77 0 138.5 -23.5t99 -60.5t63 -86t35.5 -95.5t10 -93.5q0 -48 -10 -95.5t-35.5 -96t-63 -85t-99 -60t-138.5 -23.5t-138.5 23.5t-99 60t-63 85t-35.5 96t-10 95.5q0 47 10 93.5t35.5 95.5t63 86t99 60.5t138.5 23.5zM406 82q60 0 106 22t70.5 53t40 71t20 69
t4.5 54t-4.5 54t-20 69t-40 70.5t-70.5 52.5t-106 22t-106 -22t-71 -52.5t-40.5 -70.5t-20 -69t-4.5 -54t4.5 -54t20 -69t40.5 -71t71 -53t106 -22zM252 841l154 115l154 -115l-36 -53l-118 72l-118 -72z" />
    <glyph glyph-name="Otilde" unicode="&#xd5;" horiz-adv-x="812" 
d="M406 710q77 0 138.5 -23.5t99 -60.5t63 -86t35.5 -95.5t10 -93.5q0 -48 -10 -95.5t-35.5 -96t-63 -85t-99 -60t-138.5 -23.5t-138.5 23.5t-99 60t-63 85t-35.5 96t-10 95.5q0 47 10 93.5t35.5 95.5t63 86t99 60.5t138.5 23.5zM406 82q60 0 106 22t70.5 53t40 71t20 69
t4.5 54t-4.5 54t-20 69t-40 70.5t-70.5 52.5t-106 22t-106 -22t-71 -52.5t-40.5 -70.5t-20 -69t-4.5 -54t4.5 -54t20 -69t40.5 -71t71 -53t106 -22zM507 900l57 -30q-37 -83 -111 -83q-22 0 -51.5 19.5t-49.5 19.5q-32 0 -51 -42l-53 26q27 90 105 90q27 0 56.5 -19.5
t45.5 -19.5q30 0 52 39z" />
    <glyph glyph-name="Odieresis" unicode="&#xd6;" horiz-adv-x="812" 
d="M406 710q77 0 138.5 -23.5t99 -60.5t63 -86t35.5 -95.5t10 -93.5q0 -48 -10 -95.5t-35.5 -96t-63 -85t-99 -60t-138.5 -23.5t-138.5 23.5t-99 60t-63 85t-35.5 96t-10 95.5q0 47 10 93.5t35.5 95.5t63 86t99 60.5t138.5 23.5zM406 82q60 0 106 22t70.5 53t40 71t20 69
t4.5 54t-4.5 54t-20 69t-40 70.5t-70.5 52.5t-106 22t-106 -22t-71 -52.5t-40.5 -70.5t-20 -69t-4.5 -54t4.5 -54t20 -69t40.5 -71t71 -53t106 -22zM227 851q0 25 17 42.5t42 17.5t42.5 -17.5t17.5 -42.5t-17.5 -42t-42.5 -17q-26 0 -42.5 17t-16.5 42zM466 851
q0 25 17 42.5t42 17.5t42.5 -17.5t17.5 -42.5t-17.5 -42t-42.5 -17t-42 17t-17 42z" />
    <glyph glyph-name="multiply" unicode="&#xd7;" horiz-adv-x="531" 
d="M100 84l112 112l-112 113l53 53l112 -112l113 112l53 -53l-112 -113l112 -112l-53 -53l-113 112l-112 -112z" />
    <glyph glyph-name="Oslash" unicode="&#xd8;" horiz-adv-x="812" 
d="M141 -5l-53 44l54 64q-82 100 -82 248q0 47 10 93.5t35.5 95.5t63 86t99 60.5t138.5 23.5q118 0 199 -55l65 77l53 -44l-65 -78q48 -52 71 -121.5t23 -137.5q0 -48 -10 -95.5t-35.5 -96t-63 -85t-99 -60t-138.5 -23.5q-130 0 -215 64zM406 82q60 0 106 22t70.5 53t40 71
t20 69t4.5 54q0 103 -56 180l-336 -400q61 -49 151 -49zM164 351q0 -94 46 -167l332 396q-58 39 -136 39q-60 0 -106 -22t-71 -52.5t-40.5 -70.5t-20 -69t-4.5 -54z" />
    <glyph glyph-name="Ugrave" unicode="&#xd9;" horiz-adv-x="725" 
d="M298 957l154 -115l-36 -53l-164 101zM362 82q39 0 70 14.5t48.5 36t29.5 48t16.5 47.5t4.5 38v434h104v-434q0 -47 -15 -92.5t-45.5 -87t-85.5 -67.5t-127 -26t-127 26t-85.5 67.5t-45 87t-14.5 92.5v434h102v-434q0 -17 4.5 -38t16.5 -47.5t30 -48t49 -36t70 -14.5z" />
    <glyph glyph-name="Uacute" unicode="&#xda;" horiz-adv-x="725" 
d="M362 82q39 0 70 14.5t48.5 36t29.5 48t16.5 47.5t4.5 38v434h104v-434q0 -47 -15 -92.5t-45.5 -87t-85.5 -67.5t-127 -26t-127 26t-85.5 67.5t-45 87t-14.5 92.5v434h102v-434q0 -17 4.5 -38t16.5 -47.5t30 -48t49 -36t70 -14.5zM262 842l154 115l46 -67l-164 -101z" />
    <glyph glyph-name="Ucircumflex" unicode="&#xdb;" horiz-adv-x="725" 
d="M362 82q39 0 70 14.5t48.5 36t29.5 48t16.5 47.5t4.5 38v434h104v-434q0 -47 -15 -92.5t-45.5 -87t-85.5 -67.5t-127 -26t-127 26t-85.5 67.5t-45 87t-14.5 92.5v434h102v-434q0 -17 4.5 -38t16.5 -47.5t30 -48t49 -36t70 -14.5zM208 841l154 115l154 -115l-36 -53
l-118 72l-118 -72z" />
    <glyph glyph-name="Udieresis" unicode="&#xdc;" horiz-adv-x="725" 
d="M362 82q39 0 70 14.5t48.5 36t29.5 48t16.5 47.5t4.5 38v434h104v-434q0 -47 -15 -92.5t-45.5 -87t-85.5 -67.5t-127 -26t-127 26t-85.5 67.5t-45 87t-14.5 92.5v434h102v-434q0 -17 4.5 -38t16.5 -47.5t30 -48t49 -36t70 -14.5zM183 851q0 25 17 42.5t42 17.5
t42.5 -17.5t17.5 -42.5t-17.5 -42t-42.5 -17q-26 0 -42.5 17t-16.5 42zM422 851q0 25 17 42.5t42 17.5t42.5 -17.5t17.5 -42.5t-17.5 -42t-42.5 -17t-42 17t-17 42z" />
    <glyph glyph-name="Yacute" unicode="&#xdd;" horiz-adv-x="636" 
d="M369 317v-317h-103v315l-236 385h115l172 -284l173 284h116zM218 842l154 115l46 -67l-164 -101z" />
    <glyph glyph-name="Thorn" unicode="&#xde;" horiz-adv-x="632" 
d="M323 89h-123v-89h-100v700h100v-95h123q68 0 119 -25t78 -65.5t39.5 -82.5t12.5 -85t-12.5 -85t-39.5 -82.5t-78 -65.5t-119 -25zM200 523v-351h115q46 0 79.5 19.5t49.5 49.5t22.5 56t6.5 50t-6.5 50t-22.5 56t-49.5 49.5t-79.5 19.5z" />
    <glyph glyph-name="germandbls" unicode="&#xdf;" horiz-adv-x="644" 
d="M438 189q-3 23 -20.5 48t-36 42.5t-31.5 40.5t-9 45q3 17 17 35.5t28 32t25 35.5t10 46q0 4 -0.5 10.5t-5.5 23t-15 29.5t-32.5 23.5t-53.5 10.5q-41 0 -76 -24t-36 -86v-541h-102v539q0 47 14 84t37 57.5t46 34t49.5 18t38 6t19.5 1.5q62 0 106.5 -20t66 -51t31 -60
t9.5 -56q0 -41 -16.5 -71.5t-33.5 -49t-17 -30.5q0 -16 13 -33.5t29.5 -32.5t32 -44t18.5 -63q5 -88 -59 -143.5t-191 -55.5h-20v84h30q76 0 107.5 33.5t27.5 81.5z" />
    <glyph glyph-name="agrave" unicode="&#xe0;" horiz-adv-x="536" 
d="M214 757l154 -115l-36 -53l-164 101zM252 507q55 3 94 -8t60 -29.5t32.5 -49.5t14.5 -57t3 -64v-299h-60l-16 52q-29 -29 -68.5 -45t-75.5 -16q-43 0 -76.5 11.5t-51.5 28t-29.5 38.5t-15 39.5t-3.5 33.5q0 41 13.5 71.5t38 47t52.5 26.5t64.5 12t65 1t62.5 -5v11
q0 72 -22 95t-76 23q-62 0 -136 -32l-29 69q80 42 159 46zM356 141v77q-203 25 -203 -68q0 -38 24.5 -59t61.5 -21q39 0 70.5 22t46.5 49z" />
    <glyph glyph-name="aacute" unicode="&#xe1;" horiz-adv-x="536" 
d="M168 642l154 115l46 -67l-164 -101zM252 507q55 3 94 -8t60 -29.5t32.5 -49.5t14.5 -57t3 -64v-299h-60l-16 52q-29 -29 -68.5 -45t-75.5 -16q-43 0 -76.5 11.5t-51.5 28t-29.5 38.5t-15 39.5t-3.5 33.5q0 41 13.5 71.5t38 47t52.5 26.5t64.5 12t65 1t62.5 -5v11
q0 72 -22 95t-76 23q-62 0 -136 -32l-29 69q80 42 159 46zM356 141v77q-203 25 -203 -68q0 -38 24.5 -59t61.5 -21q39 0 70.5 22t46.5 49z" />
    <glyph glyph-name="acircumflex" unicode="&#xe2;" horiz-adv-x="536" 
d="M114 641l154 115l154 -115l-36 -53l-118 72l-118 -72zM252 507q55 3 94 -8t60 -29.5t32.5 -49.5t14.5 -57t3 -64v-299h-60l-16 52q-29 -29 -68.5 -45t-75.5 -16q-43 0 -76.5 11.5t-51.5 28t-29.5 38.5t-15 39.5t-3.5 33.5q0 41 13.5 71.5t38 47t52.5 26.5t64.5 12t65 1
t62.5 -5v11q0 72 -22 95t-76 23q-62 0 -136 -32l-29 69q80 42 159 46zM356 141v77q-203 25 -203 -68q0 -38 24.5 -59t61.5 -21q39 0 70.5 22t46.5 49z" />
    <glyph glyph-name="atilde" unicode="&#xe3;" horiz-adv-x="536" 
d="M369 700l57 -30q-37 -83 -111 -83q-23 0 -52 19.5t-49 19.5q-32 0 -51 -42l-53 26q27 90 105 90q27 0 56.5 -19.5t45.5 -19.5q30 0 52 39zM252 507q55 3 94 -8t60 -29.5t32.5 -49.5t14.5 -57t3 -64v-299h-60l-16 52q-29 -29 -68.5 -45t-75.5 -16q-43 0 -76.5 11.5
t-51.5 28t-29.5 38.5t-15 39.5t-3.5 33.5q0 41 13.5 71.5t38 47t52.5 26.5t64.5 12t65 1t62.5 -5v11q0 72 -22 95t-76 23q-62 0 -136 -32l-29 69q80 42 159 46zM356 141v77q-203 25 -203 -68q0 -38 24.5 -59t61.5 -21q39 0 70.5 22t46.5 49z" />
    <glyph glyph-name="adieresis" unicode="&#xe4;" horiz-adv-x="536" 
d="M89 651q0 25 17 42.5t42 17.5t42.5 -17.5t17.5 -42.5t-17.5 -42t-42.5 -17q-26 0 -42.5 17t-16.5 42zM328 651q0 25 17 42.5t42 17.5t42.5 -17.5t17.5 -42.5t-17.5 -42t-42.5 -17t-42 17t-17 42zM252 507q55 3 94 -8t60 -29.5t32.5 -49.5t14.5 -57t3 -64v-299h-60l-16 52
q-29 -29 -68.5 -45t-75.5 -16q-43 0 -76.5 11.5t-51.5 28t-29.5 38.5t-15 39.5t-3.5 33.5q0 41 13.5 71.5t38 47t52.5 26.5t64.5 12t65 1t62.5 -5v11q0 72 -22 95t-76 23q-62 0 -136 -32l-29 69q80 42 159 46zM356 141v77q-203 25 -203 -68q0 -38 24.5 -59t61.5 -21
q39 0 70.5 22t46.5 49z" />
    <glyph glyph-name="aring" unicode="&#xe5;" horiz-adv-x="536" 
d="M166 688q0 42 30 72t72 30t71.5 -30t29.5 -72t-29.5 -71.5t-71.5 -29.5t-72 29.5t-30 71.5zM227 688q0 -16 12.5 -28t28.5 -12t28 12t12 28t-12 28.5t-28 12.5t-28.5 -12.5t-12.5 -28.5zM252 507q55 3 94 -8t60 -29.5t32.5 -49.5t14.5 -57t3 -64v-299h-60l-16 52
q-29 -29 -68.5 -45t-75.5 -16q-43 0 -76.5 11.5t-51.5 28t-29.5 38.5t-15 39.5t-3.5 33.5q0 41 13.5 71.5t38 47t52.5 26.5t64.5 12t65 1t62.5 -5v11q0 72 -22 95t-76 23q-62 0 -136 -32l-29 69q80 42 159 46zM356 141v77q-203 25 -203 -68q0 -38 24.5 -59t61.5 -21
q39 0 70.5 22t46.5 49z" />
    <glyph glyph-name="ae" unicode="&#xe6;" horiz-adv-x="833" 
d="M733 138l53 -62q-85 -82 -201 -82q-119 0 -186 76q-3 -3 -9.5 -9t-9.5 -9q-29 -29 -68.5 -45t-75.5 -16q-43 0 -76.5 11.5t-51.5 28t-29.5 38.5t-15 39.5t-3.5 33.5q0 183 279 154q3 24 13 57q-6 43 -27.5 57t-66.5 14q-62 0 -136 -32l-29 69q80 42 159 46q119 7 166 -52
q65 57 167 57q113 0 165.5 -78t30.5 -204h-345q3 -25 11 -47.5t23.5 -47.5t45 -40t69.5 -15q87 0 148 58zM585 429q-115 0 -145 -125h252q7 46 -18.5 84t-88.5 41zM239 70q39 0 70.5 22t46.5 49q-13 33 -18 79q-185 21 -185 -70q0 -38 24.5 -59t61.5 -21z" />
    <glyph glyph-name="ccedilla" unicode="&#xe7;" horiz-adv-x="558" 
d="M297 -72h-10l-15 10v54q-49 5 -87 23.5t-61 44.5t-38 60.5t-20.5 66.5t-5.5 67q0 43 12.5 85.5t39.5 83t78 65.5t119 25q112 0 189 -87l-67 -61q-53 54 -122 54q-61 0 -105 -44t-44 -121q0 -70 39 -122.5t108 -52.5q74 0 127 58l57 -64q-71 -74 -159 -82v-17h6
q48 -2 71.5 -31.5t20.5 -64.5q-4 -48 -36 -73.5t-75 -23.5q-48 2 -85 30l28 50q31 -18 57 -18q16 0 28.5 10.5t14.5 24.5q3 21 -12.5 36t-52.5 14z" />
    <glyph glyph-name="egrave" unicode="&#xe8;" horiz-adv-x="542" 
d="M442 138l53 -62q-85 -82 -201 -82q-68 0 -119 25t-78 65.5t-39.5 83t-12.5 86.5q0 43 12.5 85t39.5 82.5t78 65.5t119 25q113 0 165.5 -78t30.5 -204h-345q3 -25 11 -47.5t23.5 -47.5t45 -40t69.5 -15q87 0 148 58zM294 429q-115 0 -145 -125h252q7 46 -18.5 84t-88.5 41
zM217 757l154 -115l-36 -53l-164 101z" />
    <glyph glyph-name="eacute" unicode="&#xe9;" horiz-adv-x="542" 
d="M442 138l53 -62q-85 -82 -201 -82q-68 0 -119 25t-78 65.5t-39.5 83t-12.5 86.5q0 43 12.5 85t39.5 82.5t78 65.5t119 25q113 0 165.5 -78t30.5 -204h-345q3 -25 11 -47.5t23.5 -47.5t45 -40t69.5 -15q87 0 148 58zM294 429q-115 0 -145 -125h252q7 46 -18.5 84t-88.5 41
zM171 642l154 115l46 -67l-164 -101z" />
    <glyph glyph-name="ecircumflex" unicode="&#xea;" horiz-adv-x="542" 
d="M442 138l53 -62q-85 -82 -201 -82q-68 0 -119 25t-78 65.5t-39.5 83t-12.5 86.5q0 43 12.5 85t39.5 82.5t78 65.5t119 25q113 0 165.5 -78t30.5 -204h-345q3 -25 11 -47.5t23.5 -47.5t45 -40t69.5 -15q87 0 148 58zM294 429q-115 0 -145 -125h252q7 46 -18.5 84t-88.5 41
zM117 641l154 115l154 -115l-36 -53l-118 72l-118 -72z" />
    <glyph glyph-name="edieresis" unicode="&#xeb;" horiz-adv-x="542" 
d="M442 138l53 -62q-85 -82 -201 -82q-68 0 -119 25t-78 65.5t-39.5 83t-12.5 86.5q0 43 12.5 85t39.5 82.5t78 65.5t119 25q113 0 165.5 -78t30.5 -204h-345q3 -25 11 -47.5t23.5 -47.5t45 -40t69.5 -15q87 0 148 58zM294 429q-115 0 -145 -125h252q7 46 -18.5 84t-88.5 41
zM109 651q0 25 17 42.5t42 17.5t42.5 -17.5t17.5 -42.5t-17.5 -42t-42.5 -17q-26 0 -42.5 17t-16.5 42zM348 651q0 25 17 42.5t42 17.5t42.5 -17.5t17.5 -42.5t-17.5 -42t-42.5 -17t-42 17t-17 42z" />
    <glyph glyph-name="igrave" unicode="&#xec;" horiz-adv-x="240" 
d="M169 500v-501h-100v501h100zM66 757l154 -115l-36 -53l-164 101z" />
    <glyph glyph-name="iacute" unicode="&#xed;" horiz-adv-x="240" 
d="M169 501v-501h-100v501h100zM20 642l154 115l46 -67l-164 -101z" />
    <glyph glyph-name="icircumflex" unicode="&#xee;" horiz-adv-x="308" 
d="M201 500v-500h-100v500h100zM0 641l154 115l154 -115l-36 -53l-118 72l-118 -72z" />
    <glyph glyph-name="idieresis" unicode="&#xef;" horiz-adv-x="358" 
d="M228 500v-500h-100v500h100zM239 651q0 25 17 42.5t42 17.5t42.5 -17.5t17.5 -42.5t-17.5 -42t-42.5 -17q-26 0 -42.5 17t-16.5 42zM0 651q0 25 17 42.5t42 17.5t42.5 -17.5t17.5 -42.5t-17.5 -42t-42.5 -17t-42 17t-17 42z" />
    <glyph glyph-name="eth" unicode="&#xf0;" horiz-adv-x="584" 
d="M316 538l-52 -51l-53 53l51 50q-39 30 -75 52l45 67q49 -26 90 -59l58 58l53 -53l-55 -55q149 -153 145 -388q0 -24 -6 -50t-22 -57t-40.5 -55t-66.5 -40t-96 -16t-96 16.5t-67 41t-41 55.5t-22 56.5t-6 48.5q0 36 10 71t34 71.5t72.5 59t115.5 22.5q26 0 59.5 -11.5
t48.5 -26.5q-28 79 -84 140zM292 80q63 0 98.5 41t35.5 97q-2 57 -36.5 96.5t-97.5 39.5q-64 0 -99.5 -40.5t-35.5 -95.5q0 -56 36 -97t99 -41z" />
    <glyph glyph-name="ntilde" unicode="&#xf1;" horiz-adv-x="579" 
d="M180 358v-358h-100v500h60l17 -51q62 59 151 59q66 0 110.5 -21.5t65 -61t28 -78t7.5 -89.5v-258h-101v258q0 2 -1 25t-2.5 36t-8.5 35.5t-18 35.5t-33 23.5t-52 10.5q-41 0 -74 -19.5t-49 -46.5zM390 700l57 -30q-37 -83 -111 -83q-22 0 -51.5 19.5t-49.5 19.5
q-32 0 -51 -42l-53 26q27 90 105 90q27 0 56.5 -19.5t45.5 -19.5q30 0 52 39z" />
    <glyph glyph-name="ograve" unicode="&#xf2;" horiz-adv-x="618" 
d="M309 508q68 0 119 -25t78 -65.5t39.5 -82.5t12.5 -85q0 -44 -12.5 -86.5t-39.5 -82.5t-78 -64.5t-119 -24.5t-119 24.5t-78 64.5t-39.5 82.5t-12.5 86.5q0 43 12.5 85t39.5 82.5t78 65.5t119 25zM309 75q46 0 78.5 20.5t46.5 51.5t19.5 56t5.5 47t-5.5 47t-19.5 56
t-46.5 51.5t-78.5 20.5t-78.5 -20.5t-46.5 -51.5t-19.5 -56t-5.5 -47t5.5 -47t19.5 -56t46.5 -51.5t78.5 -20.5zM255 757l154 -115l-36 -53l-164 101z" />
    <glyph glyph-name="oacute" unicode="&#xf3;" horiz-adv-x="618" 
d="M309 508q68 0 119 -25t78 -65.5t39.5 -82.5t12.5 -85q0 -44 -12.5 -86.5t-39.5 -82.5t-78 -64.5t-119 -24.5t-119 24.5t-78 64.5t-39.5 82.5t-12.5 86.5q0 43 12.5 85t39.5 82.5t78 65.5t119 25zM309 75q46 0 78.5 20.5t46.5 51.5t19.5 56t5.5 47t-5.5 47t-19.5 56
t-46.5 51.5t-78.5 20.5t-78.5 -20.5t-46.5 -51.5t-19.5 -56t-5.5 -47t5.5 -47t19.5 -56t46.5 -51.5t78.5 -20.5zM209 642l154 115l46 -67l-164 -101z" />
    <glyph glyph-name="ocircumflex" unicode="&#xf4;" horiz-adv-x="618" 
d="M309 508q68 0 119 -25t78 -65.5t39.5 -82.5t12.5 -85q0 -44 -12.5 -86.5t-39.5 -82.5t-78 -64.5t-119 -24.5t-119 24.5t-78 64.5t-39.5 82.5t-12.5 86.5q0 43 12.5 85t39.5 82.5t78 65.5t119 25zM309 75q46 0 78.5 20.5t46.5 51.5t19.5 56t5.5 47t-5.5 47t-19.5 56
t-46.5 51.5t-78.5 20.5t-78.5 -20.5t-46.5 -51.5t-19.5 -56t-5.5 -47t5.5 -47t19.5 -56t46.5 -51.5t78.5 -20.5zM155 641l154 115l154 -115l-36 -53l-118 72l-118 -72z" />
    <glyph glyph-name="otilde" unicode="&#xf5;" horiz-adv-x="618" 
d="M309 508q68 0 119 -25t78 -65.5t39.5 -82.5t12.5 -85q0 -44 -12.5 -86.5t-39.5 -82.5t-78 -64.5t-119 -24.5t-119 24.5t-78 64.5t-39.5 82.5t-12.5 86.5q0 43 12.5 85t39.5 82.5t78 65.5t119 25zM309 75q46 0 78.5 20.5t46.5 51.5t19.5 56t5.5 47t-5.5 47t-19.5 56
t-46.5 51.5t-78.5 20.5t-78.5 -20.5t-46.5 -51.5t-19.5 -56t-5.5 -47t5.5 -47t19.5 -56t46.5 -51.5t78.5 -20.5zM410 700l57 -30q-37 -83 -111 -83q-22 0 -52 19.5t-49 19.5q-32 0 -51 -42l-53 26q27 90 105 90q27 0 56.5 -19.5t45.5 -19.5q30 0 52 39z" />
    <glyph glyph-name="odieresis" unicode="&#xf6;" horiz-adv-x="618" 
d="M309 508q68 0 119 -25t78 -65.5t39.5 -82.5t12.5 -85q0 -44 -12.5 -86.5t-39.5 -82.5t-78 -64.5t-119 -24.5t-119 24.5t-78 64.5t-39.5 82.5t-12.5 86.5q0 43 12.5 85t39.5 82.5t78 65.5t119 25zM309 75q46 0 78.5 20.5t46.5 51.5t19.5 56t5.5 47t-5.5 47t-19.5 56
t-46.5 51.5t-78.5 20.5t-78.5 -20.5t-46.5 -51.5t-19.5 -56t-5.5 -47t5.5 -47t19.5 -56t46.5 -51.5t78.5 -20.5zM130 651q0 25 17 42.5t42 17.5t42.5 -17.5t17.5 -42.5t-17.5 -42t-42.5 -17t-42 17t-17 42zM369 651q0 25 17 42.5t42 17.5t42.5 -17.5t17.5 -42.5t-17.5 -42
t-42.5 -17q-26 0 -42.5 17t-16.5 42z" />
    <glyph glyph-name="divide" unicode="&#xf7;" horiz-adv-x="461" 
d="M60 234h341v-75h-341v75zM178 61q0 23 15 37.5t37 14.5t37.5 -15t15.5 -37t-15.5 -38t-37.5 -16t-37 16t-15 38zM178 346q0 23 15 38t37 15t37.5 -15.5t15.5 -37.5t-15.5 -38t-37.5 -16t-37 16t-15 38z" />
    <glyph glyph-name="oslash" unicode="&#xf8;" horiz-adv-x="618" 
d="M119 -15l-53 44l45 53q-51 70 -51 168q0 43 12.5 85t39.5 82.5t78 65.5t119 25q76 0 132 -32l55 66l53 -44l-55 -66q64 -72 64 -182q0 -44 -12.5 -86.5t-39.5 -82.5t-78 -64.5t-119 -24.5q-89 0 -149 42zM309 75q46 0 78.5 20.5t46.5 51.5t19.5 56t5.5 47q0 60 -28 107
l-212 -253q35 -29 90 -29zM159 250q0 -45 18 -89l206 245q-32 19 -74 19q-46 0 -78.5 -20.5t-46.5 -51.5t-19.5 -56t-5.5 -47z" />
    <glyph glyph-name="ugrave" unicode="&#xf9;" horiz-adv-x="579" 
d="M399 142v358h100v-500h-60l-17 51q-62 -59 -151 -59q-66 0 -110.5 21.5t-65 61t-28 78t-7.5 89.5v258h101v-258q0 -2 1 -25t2.5 -36t8.5 -35.5t18 -35.5t33 -23.5t52 -10.5q41 0 74 19.5t49 46.5zM235 757l154 -115l-36 -53l-164 101z" />
    <glyph glyph-name="uacute" unicode="&#xfa;" horiz-adv-x="579" 
d="M399 142v358h100v-500h-60l-17 51q-62 -59 -151 -59q-66 0 -110.5 21.5t-65 61t-28 78t-7.5 89.5v258h101v-258q0 -2 1 -25t2.5 -36t8.5 -35.5t18 -35.5t33 -23.5t52 -10.5q41 0 74 19.5t49 46.5zM189 642l154 115l46 -67l-164 -101z" />
    <glyph glyph-name="ucircumflex" unicode="&#xfb;" horiz-adv-x="579" 
d="M399 142v358h100v-500h-60l-17 51q-62 -59 -151 -59q-66 0 -110.5 21.5t-65 61t-28 78t-7.5 89.5v258h101v-258q0 -2 1 -25t2.5 -36t8.5 -35.5t18 -35.5t33 -23.5t52 -10.5q41 0 74 19.5t49 46.5zM135 641l154 115l154 -115l-36 -53l-118 72l-118 -72z" />
    <glyph glyph-name="udieresis" unicode="&#xfc;" horiz-adv-x="579" 
d="M399 142v358h100v-500h-60l-17 51q-62 -59 -151 -59q-66 0 -110.5 21.5t-65 61t-28 78t-7.5 89.5v258h101v-258q0 -2 1 -25t2.5 -36t8.5 -35.5t18 -35.5t33 -23.5t52 -10.5q41 0 74 19.5t49 46.5zM101 651q0 25 17 42.5t42 17.5t42.5 -17.5t17.5 -42.5t-17.5 -42
t-42.5 -17q-26 0 -42.5 17t-16.5 42zM340 651q0 25 17 42.5t42 17.5t42.5 -17.5t17.5 -42.5t-17.5 -42t-42.5 -17t-42 17t-17 42z" />
    <glyph glyph-name="yacute" unicode="&#xfd;" horiz-adv-x="575" 
d="M139 500l149 -361l145 361h112l-296 -699h-106l92 219l-205 480h109zM188 642l154 115l46 -67l-164 -101z" />
    <glyph glyph-name="thorn" unicode="&#xfe;" 
d="M303 -8q-71 0 -123 27v-219h-100v900h100v-219q52 27 123 27q68 0 119 -25t78 -65.5t39.5 -82.5t12.5 -85t-12.5 -85t-39.5 -82.5t-78 -65.5t-119 -25zM180 390v-280q46 -35 115 -35q46 0 79.5 19.5t49.5 49.5t22.5 56t6.5 50t-6.5 50t-22.5 56t-49.5 49.5t-79.5 19.5
q-69 0 -115 -35z" />
    <glyph glyph-name="ydieresis" unicode="&#xff;" horiz-adv-x="566" 
d="M134 500l149 -361l145 361h108v-11l-292 -688h-102v11l88 208l-200 469v11h104zM111 651q0 25 17 42.5t42 17.5t42.5 -17.5t17.5 -42.5t-17.5 -42t-42.5 -17q-26 0 -42.5 17t-16.5 42zM350 651q0 25 17 42.5t42 17.5t42.5 -17.5t17.5 -42.5t-17.5 -42t-42.5 -17t-42 17
t-17 42z" />
    <glyph glyph-name="Amacron" unicode="&#x100;" horiz-adv-x="690" 
d="M548 -1l-78 186h-251l-77 -186h-112l310 707h10l310 -707h-112zM345 487l-89 -213h177zM194 866h301v-70h-301v70z" />
    <glyph glyph-name="amacron" unicode="&#x101;" horiz-adv-x="536" 
d="M117 666h301v-70h-301v70zM252 507q55 3 94 -8t60 -29.5t32.5 -49.5t14.5 -57t3 -64v-299h-60l-16 52q-29 -29 -68.5 -45t-75.5 -16q-43 0 -76.5 11.5t-51.5 28t-29.5 38.5t-15 39.5t-3.5 33.5q0 41 13.5 71.5t38 47t52.5 26.5t64.5 12t65 1t62.5 -5v11q0 71 -23 93
t-75 22q-62 0 -136 -32l-29 72q80 42 159 46zM356 141v77q-203 25 -203 -68q0 -38 24.5 -59t61.5 -21q39 0 70.5 22t46.5 49z" />
    <glyph glyph-name="Abreve" unicode="&#x102;" horiz-adv-x="695" 
d="M554 0l-76 185h-262l-75 -185h-111l309 707h14l312 -707h-111zM343 498l-91 -223h189l-91 223h-7zM417 930l68 -20q-13 -54 -51 -86t-88 -32q-49 0 -87 32t-51 86l67 20q7 -32 26 -49.5t45 -17.5q27 0 46 17.5t25 49.5z" />
    <glyph glyph-name="abreve" unicode="&#x103;" horiz-adv-x="536" 
d="M339 730l68 -20q-13 -54 -51 -86t-88 -32q-49 0 -87 32t-51 86l67 20q7 -32 26 -49.5t45 -17.5q27 0 46 17.5t25 49.5zM252 507q55 3 94 -8t60 -29.5t32.5 -49.5t14.5 -57t3 -64v-299h-60l-16 52q-29 -29 -68.5 -45t-75.5 -16q-43 0 -76.5 11.5t-51.5 28t-29.5 38.5
t-15 39.5t-3.5 33.5q0 41 13.5 71.5t38 47t52.5 26.5t64.5 12t65 1t62.5 -5v11q0 72 -22 95t-76 23q-62 0 -136 -32l-29 69q80 42 159 46zM356 141v77q-203 25 -203 -68q0 -38 24.5 -59t61.5 -21q39 0 70.5 22t46.5 49z" />
    <glyph glyph-name="Aogonek" unicode="&#x104;" horiz-adv-x="628" 
d="M548 0l-78 186h-251l-77 -186h-112l310 707h10l310 -707h-49v-1q0 -10 -17.5 -44t-17.5 -55q0 -26 15 -40.5t43 -14.5q31 0 69 16v-64q-43 -18 -82 -18q-50 0 -83 27t-33 79q0 30 21.5 69t22.5 46h-1zM345 488l-89 -213h177z" />
    <glyph glyph-name="aogonek" unicode="&#x105;" horiz-adv-x="536" 
d="M252 507q55 3 94 -8t60 -29.5t32.5 -49.5t14.5 -57t3 -64v-300q0 -10 -17.5 -44t-17.5 -55q0 -26 15 -40.5t43 -14.5q31 0 69 16v-64q-43 -18 -82 -18q-50 0 -83 27t-33 79q0 30 22 69.5t22 47.5l-14 50q-29 -29 -68.5 -45t-75.5 -16q-43 0 -76.5 11.5t-51.5 28
t-29.5 38.5t-15 39.5t-3.5 33.5q0 82 51 119t129 37q49 0 116 -20v27q0 75 -22.5 95.5t-75.5 20.5q-56 0 -134 -34l-31 74q77 41 159 46zM356 141v60q-59 18 -108 18q-39 0 -67 -18.5t-28 -50.5q0 -36 25 -58t61 -22q39 0 70.5 22t46.5 49z" />
    <glyph glyph-name="Cacute" unicode="&#x106;" horiz-adv-x="725" 
d="M665 597l-67 -65q-31 36 -84 61.5t-108 25.5q-60 0 -106 -22t-71 -52.5t-40.5 -70.5t-20 -69t-4.5 -54t4.5 -54t20 -68.5t40.5 -70t71 -52.5t106 -22q106 0 198 84l59 -75q-102 -102 -257 -102q-77 0 -138.5 23.5t-99 60t-63 85t-35.5 96t-10 95.5q0 47 10 93.5
t35.5 95.5t63 86t99 60.5t138.5 23.5q157 0 259 -113zM260 842l154 115l46 -67l-164 -101z" />
    <glyph glyph-name="cacute" unicode="&#x107;" horiz-adv-x="558" 
d="M498 426l-67 -61q-53 54 -123 54q-62 0 -105 -44t-43 -121q0 -70 39 -122.5t108 -52.5q74 0 127 58l57 -64q-78 -83 -184 -83q-57 0 -101.5 17t-71.5 43t-44 62t-23.5 70.5t-6.5 71.5q0 43 12.5 85.5t39.5 83t78 65.5t119 25q112 0 189 -87zM177 642l154 115l46 -67
l-164 -101z" />
    <glyph glyph-name="Ccircumflex" unicode="&#x108;" horiz-adv-x="725" 
d="M665 597l-67 -65q-31 36 -84 61.5t-108 25.5q-60 0 -106 -22t-71 -52.5t-40.5 -70.5t-20 -69t-4.5 -54t4.5 -54t20 -68.5t40.5 -70t71 -52.5t106 -22q106 0 198 84l59 -75q-110 -103 -257 -103q-77 0 -138.5 23.5t-99 60t-63 85.5t-35.5 96.5t-10 95.5q0 47 10 93.5
t35.5 95.5t63 86t99 60.5t138.5 23.5q157 0 259 -113zM254 841l154 115l154 -115l-36 -53l-118 72l-118 -72z" />
    <glyph glyph-name="ccircumflex" unicode="&#x109;" horiz-adv-x="560" 
d="M500 426l-67 -61q-57 58 -122 58q-61 0 -105 -46t-44 -123q0 -70 39 -122.5t108 -52.5q74 0 127 58l57 -64q-75 -80 -184 -83q-70 -2 -121.5 23t-78 67.5t-38 85.5t-11.5 88q0 43 13 85.5t40 83t78.5 65.5t119.5 25q112 0 189 -87zM150 641l154 115l154 -115l-36 -53
l-118 72l-118 -72z" />
    <glyph glyph-name="Cdotaccent" unicode="&#x10a;" horiz-adv-x="725" 
d="M665 597l-67 -65q-31 36 -84 61.5t-108 25.5q-60 0 -106 -22t-71 -52.5t-40.5 -70.5t-20 -69t-4.5 -54t4.5 -54t20 -68.5t40.5 -70t71 -52.5t106 -22q106 0 198 84l59 -75q-102 -102 -257 -102q-77 0 -138.5 23.5t-99 60t-63 85t-35.5 96t-10 95.5q0 47 10 93.5
t35.5 95.5t63 86t99 60.5t138.5 23.5q157 0 259 -113zM348 852q0 25 17 42.5t42 17.5t42.5 -17.5t17.5 -42.5t-17.5 -42t-42.5 -17t-42 16.5t-17 42.5z" />
    <glyph glyph-name="cdotaccent" unicode="&#x10b;" horiz-adv-x="558" 
d="M498 426l-67 -61q-53 54 -123 54q-62 0 -105 -44t-43 -121q0 -70 39 -122.5t108 -52.5q74 0 127 58l57 -64q-78 -83 -184 -83q-57 0 -101.5 17t-71.5 43t-44 62t-23.5 70.5t-6.5 71.5q0 43 12.5 85.5t39.5 83t78 65.5t119 25q112 0 189 -87zM248 652q0 25 17 42.5
t42 17.5t42.5 -17.5t17.5 -42.5t-17.5 -42t-42.5 -17t-42 16.5t-17 42.5z" />
    <glyph glyph-name="Ccaron" unicode="&#x10c;" horiz-adv-x="725" 
d="M665 597l-67 -65q-31 36 -84 61.5t-108 25.5q-60 0 -106 -22t-71 -52.5t-40.5 -70.5t-20 -69t-4.5 -54t4.5 -54t20 -68.5t40.5 -70t71 -52.5t106 -22q106 0 198 84l59 -75q-102 -102 -257 -102q-77 0 -138.5 23.5t-99 60t-63 85t-35.5 96t-10 95.5q0 47 10 93.5
t35.5 95.5t63 86t99 60.5t138.5 23.5q157 0 259 -113zM409 788l-154 115l36 53l118 -72l118 72l36 -53z" />
    <glyph glyph-name="ccaron" unicode="&#x10d;" horiz-adv-x="558" 
d="M498 426l-67 -61q-53 54 -123 54q-62 0 -105 -44t-43 -121q0 -70 39 -122.5t108 -52.5q74 0 127 58l57 -64q-78 -83 -184 -83q-57 0 -101.5 17t-71.5 43t-44 62t-23.5 70.5t-6.5 71.5q0 43 12.5 85.5t39.5 83t78 65.5t119 25q112 0 189 -87zM308 588l-154 115l36 53
l118 -72l118 72l36 -53z" />
    <glyph glyph-name="Dcaron" unicode="&#x10e;" horiz-adv-x="748" 
d="M342 0h-242v700h242q77 0 138.5 -22.5t99 -58t63 -83t35.5 -93t10 -92.5q0 -48 -10 -94.5t-35 -93.5t-63.5 -82.5t-99.5 -58t-138 -22.5zM202 90h140q60 0 106 21t70.5 51t40 68.5t20 67t4.5 53.5t-4.5 53.5t-20 67t-40 68t-70.5 50.5t-106 21h-140v-521zM294 788
l-154 115l36 53l118 -72l118 72l36 -53z" />
    <glyph glyph-name="dcaron" unicode="&#x10f;" horiz-adv-x="765" 
d="M309 508q-68 0 -119 -25t-78 -65.5t-39.5 -82.5t-12.5 -85q0 -34 7.5 -68t25.5 -69t44.5 -61.5t70 -43t96.5 -16.5q89 0 151 59l17 -51h60v700h-100v-219q-52 27 -123 27zM309 75q-46 0 -78.5 20.5t-46.5 51.5t-19.5 56t-5.5 47q0 24 6.5 50t22.5 56t49.5 49.5t79.5 19.5
q69 0 115 -35v-248q-40 -67 -123 -67zM672 430l-50 24q47 85 54 131q-25 2 -42 21t-17 45q0 28 18.5 46.5t46.5 18.5q38 0 55.5 -21t17.5 -52q0 -73 -83 -213z" />
    <glyph glyph-name="Dcroat" unicode="&#x110;" horiz-adv-x="725" 
d="M76 700h243q77 0 138.5 -22.5t99 -58t63 -83t35.5 -93t10 -92.5q0 -48 -10 -94.5t-35 -93.5t-63.5 -82.5t-99.5 -58t-138 -22.5h-243v308h-56v75h56v317zM179 383h183v-75h-183v-218h140q60 0 106 21t70.5 51t40 68.5t20 67t4.5 53.5t-4.5 53.5t-20 67t-40 68t-70.5 50.5
t-106 21h-140v-228z" />
    <glyph glyph-name="dcroat" unicode="&#x111;" horiz-adv-x="599" 
d="M532 658h57v-64h-57v-594h-60l-17 51q-62 -59 -151 -59q-53 0 -96.5 16.5t-70 43t-44.5 61.5t-25.5 69t-7.5 68q0 43 12.5 85t39.5 82.5t78 65.5t119 25q71 0 123 -27v113h-106v64h106v42h100v-42zM309 75q83 0 123 67v248q-46 35 -115 35q-46 0 -79.5 -19.5t-49.5 -49.5
t-22.5 -56t-6.5 -50q0 -22 5.5 -47t19.5 -56t46.5 -51.5t78.5 -20.5z" />
    <glyph glyph-name="Emacron" unicode="&#x112;" horiz-adv-x="620" 
d="M482 300h-280v-210h358v-90h-460v700h460v-90h-358v-220h280v-90zM159 866h301v-70h-301v70z" />
    <glyph glyph-name="emacron" unicode="&#x113;" horiz-adv-x="542" 
d="M442 138l53 -62q-85 -82 -201 -82q-68 0 -119 25t-78 65.5t-39.5 83t-12.5 86.5q0 43 12.5 85t39.5 82.5t78 65.5t119 25q113 0 165.5 -78t30.5 -204h-345q3 -25 11 -47.5t23.5 -47.5t45 -40t69.5 -15q87 0 148 58zM294 429q-115 0 -145 -125h252q7 46 -18.5 84t-88.5 41
zM120 666h301v-70h-301v70z" />
    <glyph glyph-name="Ebreve" unicode="&#x114;" horiz-adv-x="620" 
d="M482 300h-280v-210h358v-90h-460v700h460v-90h-358v-220h280v-90zM380 930l68 -20q-13 -54 -51 -86t-88 -32q-49 0 -87 32t-51 86l67 20q7 -32 26 -49.5t45 -17.5q27 0 46 17.5t25 49.5z" />
    <glyph glyph-name="ebreve" unicode="&#x115;" horiz-adv-x="542" 
d="M442 138l53 -62q-85 -82 -201 -82q-68 0 -119 25t-78 65.5t-39.5 83t-12.5 86.5q0 43 12.5 85t39.5 82.5t78 65.5t119 25q113 0 165.5 -78t30.5 -204h-345q3 -25 11 -47.5t23.5 -47.5t45 -40t69.5 -15q87 0 148 58zM294 429q-115 0 -145 -125h252q7 46 -18.5 84t-88.5 41
zM342 730l68 -20q-13 -54 -51 -86t-88 -32q-49 0 -87 32t-51 86l67 20q7 -32 26 -49.5t45 -17.5q27 0 46 17.5t25 49.5z" />
    <glyph glyph-name="Edotaccent" unicode="&#x116;" horiz-adv-x="620" 
d="M482 300h-280v-210h358v-90h-460v700h460v-90h-358v-220h280v-90zM250 852q0 25 17 42.5t42 17.5t42.5 -17.5t17.5 -42.5t-17.5 -42t-42.5 -17t-42 16.5t-17 42.5z" />
    <glyph glyph-name="edotaccent" unicode="&#x117;" horiz-adv-x="542" 
d="M442 138l53 -62q-85 -82 -201 -82q-68 0 -119 25t-78 65.5t-39.5 83t-12.5 86.5q0 43 12.5 85t39.5 82.5t78 65.5t119 25q113 0 165.5 -78t30.5 -204h-345q3 -25 11 -47.5t23.5 -47.5t45 -40t69.5 -15q87 0 148 58zM294 429q-115 0 -145 -125h252q7 46 -18.5 84t-88.5 41
zM240 652q0 25 17 42.5t42 17.5t42.5 -17.5t17.5 -42.5t-17.5 -42t-42.5 -17t-42 16.5t-17 42.5z" />
    <glyph glyph-name="Eogonek" unicode="&#x118;" horiz-adv-x="632" 
d="M482 300h-280v-210h358v-91q0 -10 -17.5 -44t-17.5 -55q0 -26 15 -40.5t43 -14.5q31 0 69 16v-64q-43 -18 -82 -18q-50 0 -83 27t-33 79q0 30 21.5 69t22.5 46h-398v700h460v-90h-358v-220h280v-90z" />
    <glyph glyph-name="eogonek" unicode="&#x119;" horiz-adv-x="524" 
d="M442 138l53 -62q-38 -37 -73 -54v-23q0 -10 -17.5 -44t-17.5 -55q0 -26 15 -40.5t43 -14.5q31 0 69 16v-64q-43 -18 -82 -18q-50 0 -83 27t-33 79q0 30 21.5 69.5t22.5 45.5q-32 -6 -66 -6q-68 0 -119 25t-78 65.5t-39.5 83t-12.5 86.5q0 43 12.5 85t39.5 82.5t78 65.5
t119 25q113 0 165.5 -78t30.5 -204h-345q3 -25 11 -47.5t23.5 -47.5t45 -40t69.5 -15q87 0 148 58zM294 429q-115 0 -145 -125h252q7 46 -18.5 84t-88.5 41z" />
    <glyph glyph-name="Ecaron" unicode="&#x11a;" horiz-adv-x="620" 
d="M482 300h-280v-210h358v-90h-460v700h460v-90h-358v-220h280v-90zM309 788l-154 115l36 53l118 -72l118 72l36 -53z" />
    <glyph glyph-name="ecaron" unicode="&#x11b;" horiz-adv-x="542" 
d="M442 138l53 -62q-85 -82 -201 -82q-68 0 -119 25t-78 65.5t-39.5 83t-12.5 86.5q0 43 12.5 85t39.5 82.5t78 65.5t119 25q113 0 165.5 -78t30.5 -204h-345q3 -25 11 -47.5t23.5 -47.5t45 -40t69.5 -15q87 0 148 58zM294 429q-115 0 -145 -125h252q7 46 -18.5 84t-88.5 41
zM271 588l-154 115l36 53l118 -72l118 72l36 -53z" />
    <glyph glyph-name="Gcircumflex" unicode="&#x11c;" horiz-adv-x="718" 
d="M554 250h-147v90h250v-251q-98 -98 -251 -98q-77 0 -138.5 23.5t-99 60t-63 85t-35.5 96t-10 95.5q0 47 10 93.5t35.5 95.5t63 86t99 60.5t138.5 23.5q86 0 141 -23.5t102 -75.5l-64 -66q-28 31 -77 52.5t-102 21.5q-60 0 -106 -22t-71 -52.5t-40.5 -70.5t-20 -69
t-4.5 -54t4.5 -54t20 -68.5t40.5 -70t71 -52.5t106 -22q87 0 148 45v121zM251 841l154 115l154 -115l-36 -53l-118 72l-118 -72z" />
    <glyph glyph-name="gcircumflex" unicode="&#x11d;" horiz-adv-x="565" 
d="M128 641l154 115l154 -115l-36 -53l-118 72l-118 -72zM60 -63q2 76 69 104q-54 20 -56 71q-2 36 14 61.5t45 32.5q-39 52 -39 119q0 31 9.5 61t29.5 58.5t58 46t89 17.5q59 0 102 -25l73 67l55 -54l-69 -73q26 -49 26 -98q0 -70 -45.5 -127t-141.5 -57q-43 0 -75 12
q-23 3 -35.5 -9t-12.5 -31q0 -23 22 -34.5t55 -11.5q11 0 39 -0.5t38 -0.5q58 -1 97.5 -12.5t58 -32t25.5 -42.5t6 -50q-1 -18 -11 -40t-32 -46t-65.5 -40t-102.5 -16q-119 0 -172.5 46.5t-53.5 103.5zM279 225q26 0 45 11.5t27 29.5t11.5 32.5t3.5 26.5t-3.5 26.5
t-11.5 32.5t-27 29.5t-45 11.5t-45 -11.5t-27 -29.5t-11.5 -32.5t-3.5 -26.5t3.5 -26.5t11.5 -32.5t27 -29.5t45 -11.5zM279 -128q34 0 59.5 6t38 14t19.5 18t8.5 15t1.5 8q3 24 -23.5 36.5t-103.5 12.5t-103 -11.5t-26 -37.5q0 -5 2.5 -11.5t11.5 -15.5t22 -16t37.5 -12
t55.5 -6z" />
    <glyph glyph-name="Gbreve" unicode="&#x11e;" horiz-adv-x="717" 
d="M554 250h-147v90h250v-251q-98 -98 -251 -98q-77 0 -138.5 23.5t-99 60t-63 85t-35.5 96t-10 95.5q0 47 10 93.5t35.5 95.5t63 86t99 60.5t138.5 23.5q86 0 141 -23.5t102 -75.5l-64 -66q-28 31 -77 52.5t-102 21.5q-60 0 -106 -22t-71 -52.5t-40.5 -70.5t-20 -69
t-4.5 -54t4.5 -54t20 -68.5t40.5 -70t71 -52.5t106 -22q87 0 148 45v121zM473 930l68 -20q-13 -54 -51 -86t-88 -32q-49 0 -87 32t-51 86l67 20q7 -32 26 -49.5t45 -17.5q27 0 46 17.5t25 49.5z" />
    <glyph glyph-name="gbreve" unicode="&#x11f;" horiz-adv-x="569" 
d="M353 730l68 -20q-13 -54 -51 -86t-88 -32q-49 0 -87 32t-51 86l67 20q7 -32 26 -49.5t45 -17.5q27 0 46 17.5t25 49.5zM60 -63q2 76 69 104q-54 20 -56 71q-2 36 14 61.5t45 32.5q-39 52 -39 119q0 31 9.5 61t29.5 58.5t58 46t89 17.5q59 0 102 -25l73 67l55 -54l-69 -73
q26 -49 26 -98q0 -70 -45.5 -127t-141.5 -57q-43 0 -75 12q-23 3 -35.5 -9t-12.5 -31q0 -23 22 -34.5t55 -11.5q11 0 39 -0.5t38 -0.5q58 -1 97.5 -12.5t58 -32t25.5 -42.5t6 -50q-1 -18 -11 -40t-32 -46t-65.5 -40t-102.5 -16q-119 0 -172.5 46.5t-53.5 103.5zM279 225
q26 0 45 11.5t27 29.5t11.5 32.5t3.5 26.5t-3.5 26.5t-11.5 32.5t-27 29.5t-45 11.5t-45 -11.5t-27 -29.5t-11.5 -32.5t-3.5 -26.5t3.5 -26.5t11.5 -32.5t27 -29.5t45 -11.5zM279 -128q34 0 59.5 6t38 14t19.5 18t8.5 15t1.5 8q3 24 -23.5 36.5t-103.5 12.5t-103 -11.5
t-26 -37.5q0 -5 2.5 -11.5t11.5 -15.5t22 -16t37.5 -12t55.5 -6z" />
    <glyph glyph-name="Gdotaccent" unicode="&#x120;" horiz-adv-x="717" 
d="M554 250h-147v90h250v-251q-98 -98 -251 -98q-77 0 -138.5 23.5t-99 60t-63 85t-35.5 96t-10 95.5q0 47 10 93.5t35.5 95.5t63 86t99 60.5t138.5 23.5q86 0 141 -23.5t102 -75.5l-64 -66q-28 31 -77 52.5t-102 21.5q-60 0 -106 -22t-71 -52.5t-40.5 -70.5t-20 -69
t-4.5 -54t4.5 -54t20 -68.5t40.5 -70t71 -52.5t106 -22q87 0 148 45v121zM347 851q0 25 17 42.5t42 17.5t42.5 -17.5t17.5 -42.5t-17.5 -42t-42.5 -17q-26 0 -42.5 17t-16.5 42z" />
    <glyph glyph-name="gdotaccent" unicode="&#x121;" horiz-adv-x="565" 
d="M223 652q0 25 17 42.5t42 17.5t42.5 -17.5t17.5 -42.5t-17.5 -42t-42.5 -17q-26 0 -42.5 16.5t-16.5 42.5zM60 -63q2 76 69 104q-54 20 -56 71q-2 36 14 61.5t45 32.5q-39 52 -39 119q0 31 9.5 61t29.5 58.5t58 46t89 17.5q59 0 102 -25l73 67l55 -54l-69 -73
q26 -49 26 -98q0 -70 -45.5 -127t-141.5 -57q-43 0 -75 12q-23 3 -35.5 -9t-12.5 -31q0 -23 22 -34.5t55 -11.5q11 0 39 -0.5t38 -0.5q58 -1 97.5 -12.5t58 -32t25.5 -42.5t6 -50q-1 -18 -11 -40t-32 -46t-65.5 -40t-102.5 -16q-119 0 -172.5 46.5t-53.5 103.5zM279 225
q26 0 45 11.5t27 29.5t11.5 32.5t3.5 26.5t-3.5 26.5t-11.5 32.5t-27 29.5t-45 11.5t-45 -11.5t-27 -29.5t-11.5 -32.5t-3.5 -26.5t3.5 -26.5t11.5 -32.5t27 -29.5t45 -11.5zM279 -128q34 0 59.5 6t38 14t19.5 18t8.5 15t1.5 8q3 24 -23.5 36.5t-103.5 12.5t-103 -11.5
t-26 -37.5q0 -5 2.5 -11.5t11.5 -15.5t22 -16t37.5 -12t55.5 -6z" />
    <glyph glyph-name="Gcommaaccent" unicode="&#x122;" horiz-adv-x="718" 
d="M554 250h-147v90h250v-251q-98 -98 -251 -98q-77 0 -138.5 23.5t-99 60t-63 85t-35.5 96t-10 95.5q0 47 10 93.5t35.5 95.5t63 86t99 60.5t138.5 23.5q86 0 141 -23.5t102 -75.5l-64 -66q-28 31 -77 52.5t-102 21.5q-60 0 -106 -22t-71 -52.5t-40.5 -70.5t-20 -69
t-4.5 -54t4.5 -54t20 -68.5t40.5 -70t71 -52.5t106 -22q87 0 148 45v121zM403 -338l-42 21q36 69 43 108q-23 1 -38 18.5t-15 40.5q0 25 16.5 42t41.5 17q34 0 50 -19.5t16 -46.5q0 -64 -72 -181z" />
    <glyph glyph-name="gcommaaccent" unicode="&#x123;" horiz-adv-x="565" 
d="M296 870l50 -24q-47 -85 -54 -131q25 -2 42 -21t17 -45q0 -28 -18.5 -46.5t-46.5 -18.5q-38 0 -55.5 21t-17.5 52q0 73 83 213zM60 -63q2 76 69 104q-54 20 -56 71q-2 36 14 61.5t45 32.5q-39 52 -39 119q0 31 9.5 61t29.5 58.5t58 46t89 17.5q59 0 102 -25l73 67l55 -54
l-69 -73q26 -49 26 -98q0 -70 -45.5 -127t-141.5 -57q-43 0 -75 12q-23 3 -35.5 -9t-12.5 -31q0 -23 22 -34.5t55 -11.5q11 0 39 -0.5t38 -0.5q58 -1 97.5 -12.5t58 -32t25.5 -42.5t6 -50q-1 -18 -11 -40t-32 -46t-65.5 -40t-102.5 -16q-119 0 -172.5 46.5t-53.5 103.5z
M279 225q26 0 45 11.5t27 29.5t11.5 32.5t3.5 26.5t-3.5 26.5t-11.5 32.5t-27 29.5t-45 11.5t-45 -11.5t-27 -29.5t-11.5 -32.5t-3.5 -26.5t3.5 -26.5t11.5 -32.5t27 -29.5t45 -11.5zM279 -128q34 0 59.5 6t38 14t19.5 18t8.5 15t1.5 8q3 24 -23.5 36.5t-103.5 12.5
t-103 -11.5t-26 -37.5q0 -5 2.5 -11.5t11.5 -15.5t22 -16t37.5 -12t55.5 -6z" />
    <glyph glyph-name="Hcircumflex" unicode="&#x124;" horiz-adv-x="767" 
d="M203 300v-300h-103v700h103v-310h361v310h103v-700h-103v300h-361zM224 841l154 115l154 -115l-36 -53l-118 72l-118 -72z" />
    <glyph glyph-name="hcircumflex" unicode="&#x125;" horiz-adv-x="579" 
d="M180 0h-100v700h100v-235q22 19 58 31t70 12q66 0 110.5 -21.5t65 -61t28 -78t7.5 -89.5v-258h-99v258q0 3 -0.5 24.5t-2 34.5t-8.5 35t-18.5 35.5t-34 24.5t-53.5 13q-43 3 -76 -16.5t-47 -46.5v-362zM-16 841l154 115l154 -115l-36 -53l-118 72l-118 -72z" />
    <glyph glyph-name="Hbar" unicode="&#x126;" horiz-adv-x="761" 
d="M97 527h-57v71h57v102h103v-102h361v102h103v-102h57v-71h-57v-527h-103v300h-361v-300h-103v527zM200 390h361v137h-361v-137z" />
    <glyph glyph-name="hbar" unicode="&#x127;" horiz-adv-x="571" 
d="M72 559h-62v70h62v71h100v-71h135v-70h-135v-94q22 19 58 31t70 12q66 0 110.5 -21.5t65 -61t28 -78t7.5 -89.5v-258h-99v258q0 3 -0.5 24.5t-2 34.5t-8.5 35t-18.5 35.5t-34 24.5t-53.5 13q-43 3 -76 -16.5t-47 -46.5v-362h-100v559z" />
    <glyph glyph-name="Itilde" unicode="&#x128;" horiz-adv-x="316" 
d="M209 700v-700h-103v700h103zM259 900l57 -30q-37 -83 -111 -83q-23 0 -52 19.5t-49 19.5q-32 0 -51 -42l-53 26q27 90 105 90q27 0 56.5 -19.5t45.5 -19.5q30 0 52 39z" />
    <glyph glyph-name="itilde" unicode="&#x129;" horiz-adv-x="316" 
d="M208 500v-500h-100v500h100zM259 700l57 -30q-37 -83 -111 -83q-23 0 -52 19.5t-49 19.5q-32 0 -51 -42l-53 26q27 90 105 90q27 0 56.5 -19.5t45.5 -19.5q30 0 52 39z" />
    <glyph glyph-name="Imacron" unicode="&#x12a;" horiz-adv-x="301" 
d="M202 700v-700h-103v700h103zM0 866h301v-70h-301v70z" />
    <glyph glyph-name="imacron" unicode="&#x12b;" horiz-adv-x="301" 
d="M200 500v-500h-100v500h100zM0 666h301v-70h-301v70z" />
    <glyph glyph-name="Ibreve" unicode="&#x12c;" horiz-adv-x="277" 
d="M190 700v-700h-103v700h103zM209 930l68 -20q-13 -54 -51 -86t-88 -32q-49 0 -87 32t-51 86l67 20q7 -32 26 -49.5t45 -17.5q27 0 46 17.5t25 49.5z" />
    <glyph glyph-name="ibreve" unicode="&#x12d;" horiz-adv-x="277" 
d="M188 500v-500h-100v500h100zM209 730l68 -20q-13 -54 -51 -86t-88 -32q-49 0 -87 32t-51 86l67 20q7 -32 26 -49.5t45 -17.5q27 0 46 17.5t25 49.5z" />
    <glyph glyph-name="Iogonek" unicode="&#x12e;" horiz-adv-x="278" 
d="M196 700v-701q0 -10 -17.5 -44t-17.5 -55q0 -26 15 -40.5t43 -14.5q31 0 69 16v-64q-43 -18 -82 -18q-50 0 -83 27t-33 79q0 30 21.5 69t22.5 46h-41v700h103z" />
    <glyph glyph-name="iogonek" unicode="&#x12f;" horiz-adv-x="271" 
d="M189 500v-500q0 -10 -17.5 -44.5t-17.5 -55.5q0 -26 15 -40.5t43 -14.5q31 0 69 16v-64q-43 -18 -82 -18q-50 0 -83 27t-33 79q0 30 21.5 69t22.5 46h-38v500h100zM80 652q0 25 17 42.5t42 17.5t42.5 -17.5t17.5 -42.5t-17.5 -42t-42.5 -17t-42 16.5t-17 42.5z" />
    <glyph glyph-name="Idotaccent" unicode="&#x130;" horiz-adv-x="299" 
d="M201 700v-700h-103v700h103zM90 847q0 25 17 42.5t42 17.5t42.5 -17.5t17.5 -42.5t-17.5 -42t-42.5 -17t-42 17t-17 42z" />
    <glyph glyph-name="dotlessi" unicode="&#x131;" horiz-adv-x="260" 
d="M180 500v-500h-100v500h100z" />
    <glyph glyph-name="IJ" unicode="&#x132;" horiz-adv-x="869" 
d="M203 700v-700h-103v700h103zM277 182l93 34q20 -61 53 -95.5t96 -34.5q39 0 68 15t43.5 35t23 48t10 46t1.5 37v433h104v-433q0 -47 -11.5 -91t-37.5 -87t-77.5 -69t-123.5 -26q-105 0 -160.5 50t-81.5 138z" />
    <glyph glyph-name="ij" unicode="&#x133;" horiz-adv-x="538" 
d="M189 500v-501h-100v501h100zM80 652q0 25 17 42.5t42 17.5t42.5 -17.5t17.5 -42.5t-17.5 -42t-42.5 -17t-42 16.5t-17 42.5zM188 -83q46 -27 84 -27q76 0 76 107v503h100v-503v-2q0 -12 -0.5 -23.5t-4 -37t-14.5 -46t-28.5 -42t-49 -33.5t-72.5 -12q-45 0 -80.5 15.5
t-53.5 33.5zM339 652q0 25 17 42.5t42 17.5t42.5 -17.5t17.5 -42.5t-17.5 -42t-42.5 -17q-26 0 -42.5 16.5t-16.5 42.5z" />
    <glyph glyph-name="Jcircumflex" unicode="&#x134;" 
d="M20 182l93 34q20 -61 53 -95.5t96 -34.5q39 0 68 15t43.5 35t23 48t10 46t1.5 37v433h104v-433q0 -47 -11.5 -91t-37.5 -87t-77.5 -69t-123.5 -26q-105 0 -160.5 50t-81.5 138zM304 841l154 115l154 -115l-36 -53l-118 72l-118 -72z" />
    <glyph glyph-name="jcircumflex" unicode="&#x135;" horiz-adv-x="288" 
d="M-87 -83q46 -27 84 -27q76 0 76 107v503h100v-503v-2q0 -12 -0.5 -23.5t-4 -37t-14.5 -46t-28.5 -42t-49 -33.5t-72.5 -12q-45 0 -80.5 15.5t-53.5 33.5zM-20 641l154 115l154 -115l-36 -53l-118 72l-118 -72z" />
    <glyph glyph-name="Kcommaaccent" unicode="&#x136;" horiz-adv-x="666" 
d="M323 -338l-42 21q36 69 43 108q-23 1 -38 18.5t-15 40.5q0 25 16.5 42t41.5 17q34 0 50 -19.5t16 -46.5q0 -64 -72 -181zM203 0h-103v700h103v-303l288 303h123l2 -7l-319 -332l340 -355l-3 -6h-122l-309 328v-328z" />
    <glyph glyph-name="kcommaaccent" unicode="&#x137;" horiz-adv-x="525" 
d="M180 223v-223h-100v700h100v-409l189 209h106l2 -5l-215 -235l233 -255l-2 -5h-109zM252 -338l-42 21q36 69 43 108q-23 1 -38 18.5t-15 40.5q0 25 16.5 42t41.5 17q34 0 50 -19.5t16 -46.5q0 -64 -72 -181z" />
    <glyph glyph-name="kgreenlandic" unicode="&#x138;" horiz-adv-x="525" 
d="M180 223v-223h-100v500h100v-209l189 209h106l2 -5l-215 -235l233 -255l-2 -5h-109z" />
    <glyph glyph-name="Lacute" unicode="&#x139;" horiz-adv-x="530" 
d="M203 700v-610h267v-90h-370v700h103zM165 842l154 115l46 -67l-164 -101z" />
    <glyph glyph-name="lacute" unicode="&#x13a;" horiz-adv-x="260" 
d="M180 700v-700h-100v700h100zM30 836l154 115l46 -67l-164 -101z" />
    <glyph glyph-name="Lcommaaccent" unicode="&#x13b;" horiz-adv-x="530" 
d="M203 700v-610h267v-90h-370v700h103zM273 -338l-42 21q36 69 43 108q-23 1 -38 18.5t-15 40.5q0 25 16.5 42t41.5 17q34 0 50 -19.5t16 -46.5q0 -64 -72 -181z" />
    <glyph glyph-name="lcommaaccent" unicode="&#x13c;" horiz-adv-x="244" 
d="M172 700v-700h-100v700h100zM112 -338l-42 21q36 69 43 108q-23 1 -38 18.5t-15 40.5q0 25 16.5 42t41.5 17q34 0 50 -19.5t16 -46.5q0 -64 -72 -181z" />
    <glyph glyph-name="Lcaron" unicode="&#x13d;" horiz-adv-x="530" 
d="M203 700v-610h267v-90h-370v700h103zM360 432l-50 24q47 85 54 131q-25 2 -42 21t-17 45q0 28 18.5 46.5t46.5 18.5q38 0 55.5 -21t17.5 -52q0 -73 -83 -213z" />
    <glyph glyph-name="lcaron" unicode="&#x13e;" horiz-adv-x="414" 
d="M180 700v-700h-100v700h100zM331 421l-50 24q47 85 54 131q-25 2 -42 21t-17 45q0 28 18.5 46.5t46.5 18.5q38 0 55.5 -21t17.5 -52q0 -73 -83 -213z" />
    <glyph glyph-name="Ldot" unicode="&#x13f;" horiz-adv-x="530" 
d="M203 700v-610h267v-90h-370v700h103zM323 334q0 -27 19 -46.5t46 -19.5t46.5 19.5t19.5 46.5t-19.5 46t-46.5 19q-28 0 -46.5 -18.5t-18.5 -46.5z" />
    <glyph glyph-name="ldot" unicode="&#x140;" horiz-adv-x="448" 
d="M190 700v-700h-100v700h100zM287 326q0 -27 19 -46.5t46 -19.5t46.5 19.5t19.5 46.5t-19.5 46t-46.5 19q-28 0 -46.5 -18.5t-18.5 -46.5z" />
    <glyph glyph-name="Lslash" unicode="&#x141;" horiz-adv-x="536" 
d="M45 243l-35 59l96 55v343h103v-283l149 86l35 -59l-184 -107v-247h267v-90h-370v278z" />
    <glyph glyph-name="lslash" unicode="&#x142;" horiz-adv-x="348" 
d="M45 243l-35 59l96 55v343h103v-283l94 54l35 -59l-129 -75v-336h-103v277z" />
    <glyph glyph-name="Nacute" unicode="&#x143;" horiz-adv-x="767" 
d="M564 237v463h103v-704l-10 -4l-453 475h-1v-467h-103v703l11 4zM283 842l154 115l46 -67l-164 -101z" />
    <glyph glyph-name="nacute" unicode="&#x144;" horiz-adv-x="579" 
d="M180 358v-358h-100v500h60l17 -51q62 59 151 59q66 0 110.5 -21.5t65 -61t28 -78t7.5 -89.5v-258h-101v258q0 2 -1 25t-2.5 36t-8.5 35.5t-18 35.5t-33 23.5t-52 10.5q-41 0 -74 -19.5t-49 -46.5zM189 642l154 115l46 -67l-164 -101z" />
    <glyph glyph-name="Ncommaaccent" unicode="&#x145;" horiz-adv-x="767" 
d="M564 237v463h103v-704l-10 -4l-453 475h-1v-467h-103v703l11 4zM373 -338l-42 21q36 69 43 108q-23 1 -38 18.5t-15 40.5q0 25 16.5 42t41.5 17q34 0 50 -19.5t16 -46.5q0 -64 -72 -181z" />
    <glyph glyph-name="ncommaaccent" unicode="&#x146;" horiz-adv-x="579" 
d="M180 358v-358h-100v500h60l17 -51q62 59 151 59q66 0 110.5 -21.5t65 -61t28 -78t7.5 -89.5v-258h-101v258q0 2 -1 25t-2.5 36t-8.5 35.5t-18 35.5t-33 23.5t-52 10.5q-41 0 -74 -19.5t-49 -46.5zM279 -338l-42 21q36 69 43 108q-23 1 -38 18.5t-15 40.5q0 25 16.5 42
t41.5 17q34 0 50 -19.5t16 -46.5q0 -64 -72 -181z" />
    <glyph glyph-name="Ncaron" unicode="&#x147;" horiz-adv-x="767" 
d="M564 237v463h103v-704l-10 -4l-453 475h-1v-467h-103v703l11 4zM383 788l-154 115l36 53l118 -72l118 72l36 -53z" />
    <glyph glyph-name="ncaron" unicode="&#x148;" horiz-adv-x="579" 
d="M180 358v-358h-100v500h60l17 -51q62 59 151 59q66 0 110.5 -21.5t65 -61t28 -78t7.5 -89.5v-258h-101v258q0 2 -1 25t-2.5 36t-8.5 35.5t-18 35.5t-33 23.5t-52 10.5q-41 0 -74 -19.5t-49 -46.5zM289 588l-154 115l36 53l118 -72l118 72l36 -53z" />
    <glyph glyph-name="napostrophe" unicode="&#x149;" horiz-adv-x="672" 
d="M273 358v-358h-100v500h60l17 -51q62 59 151 59q66 0 110.5 -21.5t65 -61t28 -78t7.5 -89.5v-258h-101v258q0 2 -1 25t-2.5 36t-8.5 35.5t-18 35.5t-33 23.5t-52 10.5q-41 0 -74 -19.5t-49 -46.5zM62 494l-42 21q36 69 43 108q-23 1 -38 18.5t-15 40.5q0 25 16.5 42
t41.5 17q34 0 50 -19.5t16 -46.5q0 -64 -72 -181z" />
    <glyph glyph-name="Eng" unicode="&#x14a;" horiz-adv-x="768" 
d="M564 237v463h103v-716q0 -154 -111 -188q-27 -8 -60 -8q-45 0 -80.5 15.5t-53.5 33.5l43 67q46 -27 84 -27q75 0 75 107v105l-360 378h-1v-467h-103v703l11 4z" />
    <glyph glyph-name="eng" unicode="&#x14b;" horiz-adv-x="579" 
d="M258 -95q46 -27 84 -27q76 0 76 107v273q0 2 -1 25t-2.5 36t-8.5 35.5t-18 35.5t-33 23.5t-52 10.5q-41 0 -74 -19.5t-49 -46.5v-358h-100v500h60l17 -51q62 59 151 59q66 0 110.5 -21.5t65 -61t28 -78t7.5 -89.5l-1 -273v-2q0 -12 -0.5 -23.5t-4 -37t-14.5 -46
t-28.5 -42t-49 -33.5t-72.5 -12q-45 0 -80.5 15.5t-53.5 33.5z" />
    <glyph glyph-name="Omacron" unicode="&#x14c;" horiz-adv-x="812" 
d="M406 710q77 0 138.5 -23.5t99 -60.5t63 -86t35.5 -95.5t10 -93.5q0 -48 -10 -95.5t-35.5 -96t-63 -85t-99 -60t-138.5 -23.5t-138.5 23.5t-99 60t-63 85t-35.5 96t-10 95.5q0 47 10 93.5t35.5 95.5t63 86t99 60.5t138.5 23.5zM406 82q60 0 106 22t70.5 53t40 71t20 69
t4.5 54t-4.5 54t-20 69t-40 70.5t-70.5 52.5t-106 22t-106 -22t-71 -52.5t-40.5 -70.5t-20 -69t-4.5 -54t4.5 -54t20 -69t40.5 -71t71 -53t106 -22zM255 866h301v-70h-301v70z" />
    <glyph glyph-name="omacron" unicode="&#x14d;" horiz-adv-x="618" 
d="M309 508q68 0 119 -25t78 -65.5t39.5 -82.5t12.5 -85q0 -44 -12.5 -86.5t-39.5 -82.5t-78 -64.5t-119 -24.5t-119 24.5t-78 64.5t-39.5 82.5t-12.5 86.5q0 43 12.5 85t39.5 82.5t78 65.5t119 25zM309 75q46 0 78.5 20.5t46.5 51.5t19.5 56t5.5 47t-5.5 47t-19.5 56
t-46.5 51.5t-78.5 20.5t-78.5 -20.5t-46.5 -51.5t-19.5 -56t-5.5 -47t5.5 -47t19.5 -56t46.5 -51.5t78.5 -20.5zM158 666h301v-70h-301v70z" />
    <glyph glyph-name="Obreve" unicode="&#x14e;" horiz-adv-x="812" 
d="M406 710q77 0 138.5 -23.5t99 -60.5t63 -86t35.5 -95.5t10 -93.5q0 -48 -10 -95.5t-35.5 -96t-63 -85t-99 -60t-138.5 -23.5t-138.5 23.5t-99 60t-63 85t-35.5 96t-10 95.5q0 47 10 93.5t35.5 95.5t63 86t99 60.5t138.5 23.5zM406 82q60 0 106 22t70.5 53t40 71t20 69
t4.5 54t-4.5 54t-20 69t-40 70.5t-70.5 52.5t-106 22t-106 -22t-71 -52.5t-40.5 -70.5t-20 -69t-4.5 -54t4.5 -54t20 -69t40.5 -71t71 -53t106 -22zM476 930l68 -20q-13 -54 -51 -86t-88 -32q-49 0 -87 32t-51 86l67 20q7 -32 26 -49.5t45 -17.5q27 0 46 17.5t25 49.5z" />
    <glyph glyph-name="obreve" unicode="&#x14f;" horiz-adv-x="618" 
d="M309 508q68 0 119 -25t78 -65.5t39.5 -82.5t12.5 -85q0 -44 -12.5 -86.5t-39.5 -82.5t-78 -64.5t-119 -24.5t-119 24.5t-78 64.5t-39.5 82.5t-12.5 86.5q0 43 12.5 85t39.5 82.5t78 65.5t119 25zM309 75q46 0 78.5 20.5t46.5 51.5t19.5 56t5.5 47t-5.5 47t-19.5 56
t-46.5 51.5t-78.5 20.5t-78.5 -20.5t-46.5 -51.5t-19.5 -56t-5.5 -47t5.5 -47t19.5 -56t46.5 -51.5t78.5 -20.5zM379 730l68 -20q-13 -54 -51 -86t-88 -32q-49 0 -87 32t-51 86l67 20q7 -32 26 -49.5t45 -17.5q27 0 46 17.5t25 49.5z" />
    <glyph glyph-name="Ohungarumlaut" unicode="&#x150;" horiz-adv-x="812" 
d="M406 710q77 0 138.5 -23.5t99 -60.5t63 -86t35.5 -95.5t10 -93.5q0 -48 -10 -95.5t-35.5 -96t-63 -85t-99 -60t-138.5 -23.5t-138.5 23.5t-99 60t-63 85t-35.5 96t-10 95.5q0 47 10 93.5t35.5 95.5t63 86t99 60.5t138.5 23.5zM406 82q60 0 106 22t70.5 53t40 71t20 69
t4.5 54t-4.5 54t-20 69t-40 70.5t-70.5 52.5t-106 22t-106 -22t-71 -52.5t-40.5 -70.5t-20 -69t-4.5 -54t4.5 -54t20 -69t40.5 -71t71 -53t106 -22zM575 946l-65 -154h-68l49 154h84zM402 946l-65 -154h-68l49 154h84z" />
    <glyph glyph-name="ohungarumlaut" unicode="&#x151;" horiz-adv-x="618" 
d="M309 508q68 0 119 -25t78 -65.5t39.5 -82.5t12.5 -85q0 -44 -12.5 -86.5t-39.5 -82.5t-78 -64.5t-119 -24.5t-119 24.5t-78 64.5t-39.5 82.5t-12.5 86.5q0 43 12.5 85t39.5 82.5t78 65.5t119 25zM309 75q46 0 78.5 20.5t46.5 51.5t19.5 56t5.5 47t-5.5 47t-19.5 56
t-46.5 51.5t-78.5 20.5t-78.5 -20.5t-46.5 -51.5t-19.5 -56t-5.5 -47t5.5 -47t19.5 -56t46.5 -51.5t78.5 -20.5zM483 750l-65 -154h-68l49 154h84zM310 750l-65 -154h-68l49 154h84z" />
    <glyph glyph-name="OE" unicode="&#x152;" horiz-adv-x="995" 
d="M587 610v-220h269v-90h-269v-210h348v-90h-439q-42 -9 -90 -9q-77 0 -138.5 23.5t-99 60t-63 85t-35.5 96t-10 95.5q0 47 10 93.5t35.5 95t63 85.5t99 60.5t138.5 23.5q48 0 89 -9h440v-90h-348zM406 82q45 0 78 10v515q-36 11 -78 11q-60 0 -106 -22t-71 -52.5
t-40.5 -70t-20 -68.5t-4.5 -54t4.5 -54t20 -69t40.5 -71t71 -53t106 -22z" />
    <glyph glyph-name="oe" unicode="&#x153;" horiz-adv-x="954" 
d="M854 138l53 -62q-85 -82 -201 -82q-132 0 -198 90q-66 -92 -199 -92q-68 0 -119 24.5t-78 64.5t-39.5 82.5t-12.5 86.5q0 43 12.5 85t39.5 82.5t78 65.5t119 25q131 0 197 -91q67 95 200 95q113 0 165.5 -78t30.5 -204h-345q3 -25 11 -47.5t23.5 -47.5t45 -40t69.5 -15
q87 0 148 58zM309 75q46 0 78.5 20.5t46.5 51.5t19.5 56t5.5 47t-5.5 47t-19.5 56t-46.5 51.5t-78.5 20.5t-78.5 -20.5t-46.5 -51.5t-19.5 -56t-5.5 -47t5.5 -47t19.5 -56t46.5 -51.5t78.5 -20.5zM703 429q-115 0 -145 -125h252q7 46 -18.5 84t-88.5 41z" />
    <glyph glyph-name="Racute" unicode="&#x154;" horiz-adv-x="662" 
d="M201 260v-260h-101v700h259q66 0 116 -21t76 -55.5t38.5 -70.5t12.5 -72q0 -75 -44.5 -130.5t-111.5 -78.5l128 -272h-110l-122 260h-141zM368 351q38 1 65.5 15t40.5 35.5t19 41.5t6 38q0 20 -6 40t-19.5 41.5t-42 35t-67.5 13.5h-163v-260h167zM231 842l154 115l46 -67
l-164 -101z" />
    <glyph glyph-name="racute" unicode="&#x155;" horiz-adv-x="366" 
d="M356 503l-16 -87q-17 4 -39 4q-43 0 -77 -18.5t-44 -48.5v-353h-100v500h60l17 -51q62 59 151 59q17 0 48 -5zM93 642l154 115l46 -67l-164 -101z" />
    <glyph glyph-name="Rcommaaccent" unicode="&#x156;" horiz-adv-x="663" 
d="M201 260v-260h-101v700h259q66 0 116 -21t76 -55.5t38.5 -70.5t12.5 -72q0 -75 -44.5 -130.5t-111.5 -78.5l128 -272h-110l-122 260h-141zM368 351q38 1 65.5 15t40.5 35.5t19 41.5t6 38q0 20 -6 40t-19.5 41.5t-42 35t-67.5 13.5h-163v-260h167zM321 -338l-42 21
q36 69 43 108q-23 1 -38 18.5t-15 40.5q0 25 16.5 42t41.5 17q34 0 50 -19.5t16 -46.5q0 -64 -72 -181z" />
    <glyph glyph-name="rcommaaccent" unicode="&#x157;" horiz-adv-x="375" 
d="M356 503l-16 -87q-17 4 -39 4q-43 0 -77 -18.5t-44 -48.5v-353h-100v500h60l17 -51q62 59 151 59q17 0 48 -5zM118 -338l-42 21q36 69 43 108q-23 1 -38 18.5t-15 40.5q0 25 16.5 42t41.5 17q34 0 50 -19.5t16 -46.5q0 -64 -72 -181z" />
    <glyph glyph-name="Rcaron" unicode="&#x158;" horiz-adv-x="662" 
d="M201 260v-260h-101v700h259q66 0 116 -21t76 -55.5t38.5 -70.5t12.5 -72q0 -75 -44.5 -130.5t-111.5 -78.5l128 -272h-110l-122 260h-141zM368 351q38 1 65.5 15t40.5 35.5t19 41.5t6 38q0 20 -6 40t-19.5 41.5t-42 35t-67.5 13.5h-163v-260h167zM310 788l-154 115l36 53
l118 -72l118 72l36 -53z" />
    <glyph glyph-name="rcaron" unicode="&#x159;" horiz-adv-x="372" 
d="M352 503l-16 -87q-17 4 -39 4q-43 0 -77 -18.5t-44 -48.5v-353h-100v500h60l17 -51q62 59 151 59q17 0 48 -5zM184 588l-154 115l36 53l118 -72l118 72l36 -53z" />
    <glyph glyph-name="Sacute" unicode="&#x15a;" horiz-adv-x="622" 
d="M169 526q0 -32 21.5 -55t56.5 -36t77 -25t83.5 -28.5t76.5 -39t56.5 -63.5t21.5 -97q0 -81 -71 -135.5t-177 -54.5q-136 0 -254 62l39 81q107 -52 207 -52q61 0 105 28t44 72t-29 73.5t-72 42t-93.5 29t-93.5 34t-72 57.5t-29 99q0 89 60.5 141t157.5 52q121 0 240 -56
l-38 -85q-111 45 -179 45q-63 0 -99 -19t-39 -70zM213 842l154 115l46 -67l-164 -101z" />
    <glyph glyph-name="sacute" unicode="&#x15b;" horiz-adv-x="492" 
d="M163 369q0 -25 27.5 -41t67.5 -28t79.5 -28t67 -50.5t27.5 -86.5q0 -64 -51.5 -103.5t-130.5 -39.5q-101 0 -190 50l35 74q77 -41 149 -41q36 0 60.5 16.5t24.5 42.5q0 30 -27 48.5t-65.5 29.5t-77 25.5t-65 46t-26.5 81.5q1 67 45.5 105t116.5 38q91 0 180 -45l-35 -76
q-79 34 -127 34q-82 0 -85 -52zM147 642l154 115l46 -67l-164 -101z" />
    <glyph glyph-name="Scircumflex" unicode="&#x15c;" horiz-adv-x="622" 
d="M169 526q0 -32 21.5 -55t56.5 -36t77 -25t83.5 -28.5t76.5 -39t56.5 -63.5t21.5 -97q0 -81 -71 -135.5t-177 -54.5q-136 0 -254 62l39 81q107 -52 207 -52q61 0 105 28t44 72t-29 73.5t-72 42t-93.5 29t-93.5 34t-72 57.5t-29 99q0 89 60.5 141t157.5 52q121 0 240 -56
l-38 -85q-111 45 -179 45q-63 0 -99 -19t-39 -70zM159 841l154 115l154 -115l-36 -53l-118 72l-118 -72z" />
    <glyph glyph-name="scircumflex" unicode="&#x15d;" horiz-adv-x="492" 
d="M163 369q0 -25 27.5 -41t67.5 -28t79.5 -28t67 -50.5t27.5 -86.5q0 -64 -51.5 -103.5t-130.5 -39.5q-101 0 -190 50l35 74q77 -41 149 -41q36 0 60.5 16.5t24.5 42.5q0 30 -27 48.5t-65.5 29.5t-77 25.5t-65 46t-26.5 81.5q1 67 45.5 105t116.5 38q91 0 180 -45l-35 -76
q-79 34 -127 34q-82 0 -85 -52zM94 641l154 115l154 -115l-36 -53l-118 72l-118 -72z" />
    <glyph glyph-name="Scedilla" unicode="&#x15e;" horiz-adv-x="622" 
d="M304 -72h-10l-15 10v55q-118 7 -219 61l39 81q107 -52 207 -52q61 0 105 28t44 72t-29 73.5t-72 42t-93.5 29t-93.5 34t-72 57.5t-29 99q0 89 60.5 141t157.5 52q121 0 240 -56l-38 -85q-111 45 -179 45q-63 0 -99 -19t-39 -70q0 -32 21.5 -55t56.5 -36t77 -25
t83.5 -28.5t76.5 -39t56.5 -63.5t21.5 -97q0 -76 -63 -129t-160 -60v-19h6q48 -2 71.5 -31.5t20.5 -64.5q-4 -48 -36 -73.5t-75 -23.5q-48 2 -85 30l28 50q31 -18 57 -18q16 0 28.5 10.5t14.5 24.5q3 21 -12.5 36t-52.5 14z" />
    <glyph glyph-name="scedilla" unicode="&#x15f;" horiz-adv-x="492" 
d="M235 -72h-10l-15 10v56q-76 7 -150 48l35 74q77 -41 149 -41q36 0 60.5 16.5t24.5 42.5q0 30 -27 48.5t-65.5 29.5t-77 25.5t-65 46t-26.5 81.5q1 67 45.5 105t116.5 38q91 0 180 -45l-35 -76q-79 34 -127 34q-82 0 -85 -52q0 -25 27.5 -41t67.5 -28t79.5 -28t67 -50.5
t27.5 -86.5q0 -60 -45 -98.5t-117 -43.5v-19h6q48 -2 71.5 -31.5t20.5 -64.5q-4 -48 -36 -73.5t-75 -23.5q-48 2 -85 30l28 50q31 -18 57 -18q16 0 28.5 10.5t14.5 24.5q3 21 -12.5 36t-52.5 14z" />
    <glyph glyph-name="Scaron" unicode="&#x160;" horiz-adv-x="622" 
d="M169 526q0 -32 21.5 -55t56.5 -36t77 -25t83.5 -28.5t76.5 -39t56.5 -63.5t21.5 -97q0 -81 -71 -135.5t-177 -54.5q-136 0 -254 62l39 81q107 -52 207 -52q61 0 105 28t44 72t-29 73.5t-72 42t-93.5 29t-93.5 34t-72 57.5t-29 99q0 89 60.5 141t157.5 52q121 0 240 -56
l-38 -85q-111 45 -179 45q-63 0 -99 -19t-39 -70zM296 781l-154 115l36 53l118 -72l118 72l36 -53z" />
    <glyph glyph-name="scaron" unicode="&#x161;" horiz-adv-x="492" 
d="M163 369q0 -25 27.5 -41t67.5 -28t79.5 -28t67 -50.5t27.5 -86.5q0 -64 -51.5 -103.5t-130.5 -39.5q-101 0 -190 50l35 74q77 -41 149 -41q36 0 60.5 16.5t24.5 42.5q0 30 -27 48.5t-65.5 29.5t-77 25.5t-65 46t-26.5 81.5q1 67 45.5 105t116.5 38q91 0 180 -45l-35 -76
q-79 34 -127 34q-82 0 -85 -52zM248 588l-154 115l36 53l118 -72l118 72l36 -53z" />
    <glyph glyph-name="Tcommaaccent" unicode="&#x162;" horiz-adv-x="601" 
d="M248 0v610h-203v90h511v-90h-205v-610h-103zM290 -338l-42 21q36 69 43 108q-23 1 -38 18.5t-15 40.5q0 25 16.5 42t41.5 17q34 0 50 -19.5t16 -46.5q0 -64 -72 -181z" />
    <glyph glyph-name="tcommaaccent" unicode="&#x163;" horiz-adv-x="320" 
d="M72 417h-62v83h62l10 99h90v-99h103v-83h-103v-280q0 -30 10 -46.5t41 -13.5q19 1 65 12l15 -74q-63 -19 -125 -19q-34 0 -57 14t-32.5 36.5t-13 39.5t-3.5 34v297zM150 -338l-42 21q36 69 43 108q-23 1 -38 18.5t-15 40.5q0 25 16.5 42t41.5 17q34 0 50 -19.5t16 -46.5
q0 -64 -72 -181z" />
    <glyph glyph-name="Tcaron" unicode="&#x164;" horiz-adv-x="601" 
d="M248 0v610h-203v90h511v-90h-205v-610h-103zM300 788l-154 115l36 53l118 -72l118 72l36 -53z" />
    <glyph glyph-name="tcaron" unicode="&#x165;" horiz-adv-x="493" 
d="M72 417h-62v83h62l10 97h90v-97h103v-83h-103v-280q0 -30 10 -46.5t41 -13.5q19 1 65 12l15 -74q-63 -19 -125 -19q-34 0 -57 14t-32.5 36.5t-13 39.5t-3.5 34v297zM410 434l-50 24q47 85 54 131q-25 2 -42 21t-17 45q0 28 18.5 46.5t46.5 18.5q38 0 55.5 -21t17.5 -52
q0 -73 -83 -213z" />
    <glyph glyph-name="Tbar" unicode="&#x166;" horiz-adv-x="601" 
d="M248 317h-100v66h100v227h-203v90h511v-90h-203v-227h99v-66h-99v-317h-105v317z" />
    <glyph glyph-name="tbar" unicode="&#x167;" horiz-adv-x="315" 
d="M10 336h64v81h-62v83h62l10 99h90v-99h103v-83h-103v-81h100v-76h-100v-123q0 -30 10 -46.5t41 -13.5q19 1 65 12l15 -74q-63 -19 -125 -19q-34 0 -57 14t-32.5 36.5t-13 39.5t-3.5 34v140h-64v76z" />
    <glyph glyph-name="Utilde" unicode="&#x168;" horiz-adv-x="725" 
d="M362 82q39 0 70 14.5t48.5 36t29.5 48t16.5 47.5t4.5 38v434h104v-434q0 -47 -15 -92.5t-45.5 -87t-85.5 -67.5t-127 -26t-127 26t-85.5 67.5t-45 87t-14.5 92.5v434h102v-434q0 -17 4.5 -38t16.5 -47.5t30 -48t49 -36t70 -14.5zM463 900l57 -30q-37 -83 -111 -83
q-23 0 -52 19.5t-49 19.5q-32 0 -51 -42l-53 26q27 90 105 90q27 0 56.5 -19.5t45.5 -19.5q30 0 52 39z" />
    <glyph glyph-name="utilde" unicode="&#x169;" horiz-adv-x="579" 
d="M399 142v358h100v-500h-60l-17 51q-62 -59 -151 -59q-66 0 -110.5 21.5t-65 61t-28 78t-7.5 89.5v258h101v-258q0 -2 1 -25t2.5 -36t8.5 -35.5t18 -35.5t33 -23.5t52 -10.5q41 0 74 19.5t49 46.5zM390 700l57 -30q-37 -83 -111 -83q-22 0 -51.5 19.5t-49.5 19.5
q-32 0 -51 -42l-53 26q27 90 105 90q27 0 56.5 -19.5t45.5 -19.5q30 0 52 39z" />
    <glyph glyph-name="Umacron" unicode="&#x16a;" horiz-adv-x="725" 
d="M362 82q39 0 70 14.5t48.5 36t29.5 48t16.5 47.5t4.5 38v434h104v-434q0 -47 -15 -92.5t-45.5 -87t-85.5 -67.5t-127 -26t-127 26t-85.5 67.5t-45 87t-14.5 92.5v434h102v-434q0 -17 4.5 -38t16.5 -47.5t30 -48t49 -36t70 -14.5zM212 866h301v-70h-301v70z" />
    <glyph glyph-name="umacron" unicode="&#x16b;" horiz-adv-x="579" 
d="M399 142v358h100v-500h-60l-17 51q-62 -59 -151 -59q-66 0 -110.5 21.5t-65 61t-28 78t-7.5 89.5v258h101v-258q0 -2 1 -25t2.5 -36t8.5 -35.5t18 -35.5t33 -23.5t52 -10.5q41 0 74 19.5t49 46.5zM139 666h301v-70h-301v70z" />
    <glyph glyph-name="Ubreve" unicode="&#x16c;" horiz-adv-x="725" 
d="M362 82q39 0 70 14.5t48.5 36t29.5 48t16.5 47.5t4.5 38v434h104v-434q0 -47 -15 -92.5t-45.5 -87t-85.5 -67.5t-127 -26t-127 26t-85.5 67.5t-45 87t-14.5 92.5v434h102v-434q0 -17 4.5 -38t16.5 -47.5t30 -48t49 -36t70 -14.5zM433 930l68 -20q-13 -54 -51 -86t-88 -32
q-49 0 -87 32t-51 86l67 20q7 -32 26 -49.5t45 -17.5q27 0 46 17.5t25 49.5z" />
    <glyph glyph-name="ubreve" unicode="&#x16d;" horiz-adv-x="579" 
d="M399 142v358h100v-500h-60l-17 51q-62 -59 -151 -59q-66 0 -110.5 21.5t-65 61t-28 78t-7.5 89.5v258h101v-258q0 -2 1 -25t2.5 -36t8.5 -35.5t18 -35.5t33 -23.5t52 -10.5q41 0 74 19.5t49 46.5zM360 730l68 -20q-13 -54 -51 -86t-88 -32q-49 0 -87 32t-51 86l67 20
q7 -32 26 -49.5t45 -17.5q27 0 46 17.5t25 49.5z" />
    <glyph glyph-name="Uring" unicode="&#x16e;" horiz-adv-x="725" 
d="M362 82q39 0 70 14.5t48.5 36t29.5 48t16.5 47.5t4.5 38v434h104v-434q0 -47 -15 -92.5t-45.5 -87t-85.5 -67.5t-127 -26t-127 26t-85.5 67.5t-45 87t-14.5 92.5v434h102v-434q0 -17 4.5 -38t16.5 -47.5t30 -48t49 -36t70 -14.5zM261 888q0 42 30 72t72 30t71.5 -30
t29.5 -72t-29.5 -71.5t-71.5 -29.5t-72 29.5t-30 71.5zM322 888q0 -16 12.5 -28t28.5 -12t28 12t12 28t-12 28.5t-28 12.5q-17 0 -29 -12.5t-12 -28.5z" />
    <glyph glyph-name="uring" unicode="&#x16f;" horiz-adv-x="579" 
d="M399 142v358h100v-500h-60l-17 51q-62 -59 -151 -59q-66 0 -110.5 21.5t-65 61t-28 78t-7.5 89.5v258h101v-258q0 -2 1 -25t2.5 -36t8.5 -35.5t18 -35.5t33 -23.5t52 -10.5q41 0 74 19.5t49 46.5zM188 688q0 42 30 72t72 30t71.5 -30t29.5 -72t-29.5 -71.5t-71.5 -29.5
t-72 29.5t-30 71.5zM249 688q0 -16 12.5 -28t28.5 -12t28 12t12 28t-12 28.5t-28 12.5t-28.5 -12.5t-12.5 -28.5z" />
    <glyph glyph-name="Uhungarumlaut" unicode="&#x170;" horiz-adv-x="725" 
d="M362 82q39 0 70 14.5t48.5 36t29.5 48t16.5 47.5t4.5 38v434h104v-434q0 -47 -15 -92.5t-45.5 -87t-85.5 -67.5t-127 -26t-127 26t-85.5 67.5t-45 87t-14.5 92.5v434h102v-434q0 -17 4.5 -38t16.5 -47.5t30 -48t49 -36t70 -14.5zM524 946l-65 -154h-68l49 154h84z
M351 946l-65 -154h-68l49 154h84z" />
    <glyph glyph-name="uhungarumlaut" unicode="&#x171;" horiz-adv-x="579" 
d="M399 142v358h100v-500h-60l-17 51q-62 -59 -151 -59q-66 0 -110.5 21.5t-65 61t-28 78t-7.5 89.5v258h101v-258q0 -2 1 -25t2.5 -36t8.5 -35.5t18 -35.5t33 -23.5t52 -10.5q41 0 74 19.5t49 46.5zM443 746l-65 -154h-68l49 154h84zM270 746l-65 -154h-68l49 154h84z" />
    <glyph glyph-name="Uogonek" unicode="&#x172;" horiz-adv-x="725" 
d="M362 82q39 0 70 14.5t48.5 36t29.5 48t16.5 47.5t4.5 38v434h104v-434q0 -43 -12.5 -85.5t-38.5 -82.5t-72.5 -67.5t-107.5 -34.5q-1 -9 -18 -42t-17 -54q0 -26 15 -40.5t43 -14.5q31 0 69 16v-64q-43 -18 -82 -18q-50 0 -83 27t-33 79q0 21 8.5 42t19.5 40t14 27
q-66 4 -116.5 30.5t-78.5 67.5t-41.5 85t-13.5 89v434h102v-434q0 -17 4.5 -38t16.5 -47.5t30 -48t49 -36t70 -14.5z" />
    <glyph glyph-name="uogonek" unicode="&#x173;" horiz-adv-x="591" 
d="M399 142v358h100v-501q0 -10 -17.5 -44t-17.5 -55q0 -26 15 -40.5t43 -14.5q31 0 69 16v-64q-43 -18 -82 -18q-50 0 -83 27t-33 79q0 30 22 69.5t22 47.5v4l-15 45q-62 -59 -151 -59q-66 0 -110.5 21.5t-65 61t-28 78t-7.5 89.5v258h101v-258q0 -2 1 -25t2.5 -36
t8.5 -35.5t18 -35.5t33 -23.5t52 -10.5q41 0 74 19.5t49 46.5z" />
    <glyph glyph-name="Wcircumflex" unicode="&#x174;" horiz-adv-x="1105" 
d="M760 218l203 482h112l-310 -707h-10l-203 466l-202 -466h-10l-310 707h112l203 -482l201 487h9zM398 841l154 115l154 -115l-36 -53l-118 72l-118 -72z" />
    <glyph glyph-name="wcircumflex" unicode="&#x175;" horiz-adv-x="758" 
d="M728 500l-224 -506h-7l-119 285l-121 -285h-7l-220 506h107l118 -294l120 300h9l118 -300l119 294h107zM225 641l154 115l154 -115l-36 -53l-118 72l-118 -72z" />
    <glyph glyph-name="Ycircumflex" unicode="&#x176;" horiz-adv-x="636" 
d="M160 841l154 115l154 -115l-36 -53l-118 72l-118 -72zM369 317v-317h-103v315l-236 385h115l172 -284l173 284h116z" />
    <glyph glyph-name="ycircumflex" unicode="&#x177;" horiz-adv-x="566" 
d="M134 500l149 -361l145 361h108v-11l-292 -688h-102v11l88 208l-200 469v11h104zM128 641l154 115l154 -115l-36 -53l-118 72l-118 -72z" />
    <glyph glyph-name="Ydieresis" unicode="&#x178;" horiz-adv-x="636" 
d="M369 317v-317h-103v315l-236 385h115l172 -284l173 284h116zM139 851q0 25 17 42.5t42 17.5t42.5 -17.5t17.5 -42.5t-17.5 -42t-42.5 -17q-26 0 -42.5 17t-16.5 42zM378 851q0 25 17 42.5t42 17.5t42.5 -17.5t17.5 -42.5t-17.5 -42t-42.5 -17t-42 17t-17 42z" />
    <glyph glyph-name="Zacute" unicode="&#x179;" horiz-adv-x="639" 
d="M219 842l154 115l46 -67l-164 -101zM220 90h359v-90h-517l-2 5l356 606h-330v89h489l3 -7z" />
    <glyph glyph-name="zacute" unicode="&#x17a;" horiz-adv-x="496" 
d="M148 642l154 115l46 -67l-164 -101zM75 408v92h373l3 -9l-241 -399h228v-92h-391l-2 8l237 400h-207z" />
    <glyph glyph-name="Zdotaccent" unicode="&#x17b;" horiz-adv-x="639" 
d="M260 852q0 25 17 42.5t42 17.5t42.5 -17.5t17.5 -42.5t-17.5 -42t-42.5 -17t-42 16.5t-17 42.5zM220 90h359v-90h-517l-2 5l356 606h-330v89h489l3 -7z" />
    <glyph glyph-name="zdotaccent" unicode="&#x17c;" horiz-adv-x="496" 
d="M197 652q0 25 17 42.5t42 17.5t42.5 -17.5t17.5 -42.5t-17.5 -42t-42.5 -17q-26 0 -42.5 16.5t-16.5 42.5zM75 408v92h373l3 -9l-241 -399h228v-92h-391l-2 8l237 400h-207z" />
    <glyph glyph-name="Zcaron" unicode="&#x17d;" horiz-adv-x="639" 
d="M319 788l-154 115l36 53l118 -72l118 72l36 -53zM220 90h359v-90h-517l-2 5l356 606h-330v89h489l3 -7z" />
    <glyph glyph-name="zcaron" unicode="&#x17e;" horiz-adv-x="496" 
d="M248 588l-154 115l36 53l118 -72l118 72l36 -53zM75 408v92h373l3 -9l-249 -399h236v-92h-391l-2 8l246 400h-216z" />
    <glyph glyph-name="longs" unicode="&#x17f;" horiz-adv-x="360" 
d="M370 679l-27 -75q-57 19 -95 19q-73 0 -77 -73v-549h-100v417h-61v82h61v44q0 80 49 121.5t124 41.5q66 0 126 -28z" />
    <glyph glyph-name="florin" unicode="&#x192;" horiz-adv-x="402" 
d="M-90 -186l29 77q51 -19 90 -19q74 0 82 74v472h-61v82h61v44q0 80 49 121.5t124 41.5q68 0 128 -28l-29 -77q-51 19 -90 19q-74 0 -82 -74v-47h103v-82h-103v-469q0 -80 -49 -121.5t-124 -41.5q-68 0 -128 28z" />
    <glyph glyph-name="Scommaaccent" unicode="&#x218;" horiz-adv-x="622" 
d="M300 -338l-42 21q36 69 43 108q-23 1 -38 18.5t-15 40.5q0 25 16.5 42t41.5 17q34 0 50 -19.5t16 -46.5q0 -64 -72 -181zM169 526q0 -32 21.5 -55t56.5 -36t77 -25t83.5 -28.5t76.5 -39t56.5 -63.5t21.5 -97q0 -81 -71 -135.5t-177 -54.5q-136 0 -254 62l39 81
q107 -52 207 -52q61 0 105 28t44 72t-29 73.5t-72 42t-93.5 29t-93.5 34t-72 57.5t-29 99q0 89 60.5 141t157.5 52q121 0 240 -56l-38 -85q-111 45 -179 45q-63 0 -99 -19t-39 -70z" />
    <glyph glyph-name="scommaaccent" unicode="&#x219;" horiz-adv-x="492" 
d="M163 369q0 -25 27.5 -41t67.5 -28t79.5 -28t67 -50.5t27.5 -86.5q0 -64 -51.5 -103.5t-130.5 -39.5q-101 0 -190 50l35 74q77 -41 149 -41q36 0 60.5 16.5t24.5 42.5q0 30 -27 48.5t-65.5 29.5t-77 25.5t-65 46t-26.5 81.5q1 67 45.5 105t116.5 38q91 0 180 -45l-35 -76
q-79 34 -127 34q-82 0 -85 -52zM237 -338l-42 21q36 69 43 108q-23 1 -38 18.5t-15 40.5q0 25 16.5 42t41.5 17q34 0 50 -19.5t16 -46.5q0 -64 -72 -181z" />
    <glyph glyph-name="circumflex" unicode="&#x2c6;" horiz-adv-x="518" 
d="M110 641l154 115l154 -115l-36 -53l-118 72l-118 -72z" />
    <glyph glyph-name="caron" unicode="&#x2c7;" horiz-adv-x="500" 
d="M268 588l-154 115l36 53l118 -72l118 72l36 -53z" />
    <glyph glyph-name="breve" unicode="&#x2d8;" horiz-adv-x="516" 
d="M342 730l68 -20q-13 -54 -51 -86t-88 -32q-49 0 -87 32t-51 86l67 20q7 -32 26 -49.5t45 -17.5q27 0 46 17.5t25 49.5z" />
    <glyph glyph-name="dotaccent" unicode="&#x2d9;" horiz-adv-x="579" 
d="M226 652q0 25 17 42.5t42 17.5t42.5 -17.5t17.5 -42.5t-17.5 -42t-42.5 -17t-42 16.5t-17 42.5z" />
    <glyph glyph-name="ring" unicode="&#x2da;" horiz-adv-x="523" 
d="M160 688q0 42 30 72t72 30t71.5 -30t29.5 -72t-29.5 -71.5t-71.5 -29.5t-72 29.5t-30 71.5zM221 688q0 -16 12.5 -28t28.5 -12t28 12t12 28t-12 28.5t-28 12.5t-28.5 -12.5t-12.5 -28.5z" />
    <glyph glyph-name="ogonek" unicode="&#x2db;" horiz-adv-x="611" 
d="M275 24h62v-25q0 -10 -17.5 -44t-17.5 -55q0 -26 15 -40.5t43 -14.5q31 0 69 16v-64q-43 -18 -82 -18q-50 0 -83 27t-33 79q0 30 22 69.5t22 47.5v22z" />
    <glyph glyph-name="tilde" unicode="&#x2dc;" horiz-adv-x="516" 
d="M359 700l57 -30q-37 -83 -111 -83q-23 0 -52 19.5t-49 19.5q-32 0 -51 -42l-53 26q27 90 105 90q27 0 56.5 -19.5t45.5 -19.5q30 0 52 39z" />
    <glyph glyph-name="hungarumlaut" unicode="&#x2dd;" horiz-adv-x="530" 
d="M464 746l-65 -154h-68l49 154h84zM291 746l-65 -154h-68l49 154h84z" />
    <glyph glyph-name="Delta" unicode="&#x394;" horiz-adv-x="740" 
d="M375 705l305 -705h-620l305 705h10zM531 90l-161 400l-161 -400h322z" />
    <glyph glyph-name="Delta" unicode="&#x2206;" horiz-adv-x="740" 
d="M375 705l305 -705h-620l305 705h10zM531 90l-161 400l-161 -400h322z" />
    <glyph glyph-name="Omega" unicode="&#x3a9;" horiz-adv-x="849" 
d="M679 90h110v-90h-263v88q42 21 72 58t43.5 77t19 70.5t5.5 55.5t-4.5 54t-20 69t-40.5 70.5t-71 52.5t-106 22t-106 -22t-70.5 -52.5t-40 -70.5t-20 -69t-4.5 -54t5.5 -55.5t18.5 -70.5t43 -77t72 -59v-87h-262v90h110q-92 100 -92 259q0 47 10 93.5t35.5 95.5t63 86
t99 60.5t138.5 23.5t138.5 -23.5t99 -60.5t63 -86t35.5 -95.5t10 -93.5q0 -158 -91 -259z" />
    <glyph glyph-name="Omega" unicode="&#x2126;" horiz-adv-x="849" 
d="M679 90h110v-90h-263v88q42 21 72 58t43.5 77t19 70.5t5.5 55.5t-4.5 54t-20 69t-40.5 70.5t-71 52.5t-106 22t-106 -22t-70.5 -52.5t-40 -70.5t-20 -69t-4.5 -54t5.5 -55.5t18.5 -70.5t43 -77t72 -59v-87h-262v90h110q-92 100 -92 259q0 47 10 93.5t35.5 95.5t63 86
t99 60.5t138.5 23.5t138.5 -23.5t99 -60.5t63 -86t35.5 -95.5t10 -93.5q0 -158 -91 -259z" />
    <glyph glyph-name="pi" unicode="&#x3c0;" horiz-adv-x="633" 
d="M458 -4q-34 0 -57 14t-32.5 36.5t-13 39.5t-3.5 34v288h-128v-408h-100v408h-74v92h517v-92h-115v-271q0 -30 10 -46.5t41 -13.5q19 1 65 12l15 -74q-63 -19 -125 -19z" />
    <glyph glyph-name="endash" unicode="&#x2013;" horiz-adv-x="550" 
d="M470 277h-390v75h390v-75z" />
    <glyph glyph-name="emdash" unicode="&#x2014;" horiz-adv-x="672" 
d="M592 277h-512v75h512v-75z" />
    <glyph glyph-name="quoteleft" unicode="&#x2018;" horiz-adv-x="258" 
d="M143 716l50 -24q-47 -85 -54 -131q25 -2 42 -21t17 -45q0 -28 -18.5 -46.5t-46.5 -18.5q-38 0 -55.5 21t-17.5 52q0 73 83 213z" />
    <glyph glyph-name="quoteright" unicode="&#x2019;" horiz-adv-x="258" 
d="M115 430l-50 24q47 85 54 131q-25 2 -42 21t-17 45q0 28 18.5 46.5t46.5 18.5q38 0 55.5 -21t17.5 -52q0 -73 -83 -213z" />
    <glyph glyph-name="quotesinglbase" unicode="&#x201a;" horiz-adv-x="298" 
d="M135 -161l-50 24q47 85 54 131q-25 2 -42 21t-17 45q0 28 18.5 46.5t46.5 18.5q38 0 55.5 -21t17.5 -52q0 -73 -83 -213z" />
    <glyph glyph-name="quotedblleft" unicode="&#x201c;" horiz-adv-x="435" 
d="M143 716l50 -24q-47 -85 -54 -131q25 -2 42 -21t17 -45q0 -28 -18.5 -46.5t-46.5 -18.5q-38 0 -55.5 21t-17.5 52q0 73 83 213zM320 716l50 -24q-47 -85 -54 -131q25 -2 42 -21t17 -45q0 -28 -18.5 -46.5t-46.5 -18.5q-38 0 -55.5 21t-17.5 52q0 73 83 213z" />
    <glyph glyph-name="quotedblright" unicode="&#x201d;" horiz-adv-x="435" 
d="M292 430l-50 24q47 85 54 131q-25 2 -42 21t-17 45q0 28 18.5 46.5t46.5 18.5q38 0 55.5 -21t17.5 -52q0 -73 -83 -213zM115 430l-50 24q47 85 54 131q-25 2 -42 21t-17 45q0 28 18.5 46.5t46.5 18.5q38 0 55.5 -21t17.5 -52q0 -73 -83 -213z" />
    <glyph glyph-name="quotedblbase" unicode="&#x201e;" horiz-adv-x="451" 
d="M135 -161l-50 24q47 85 54 131q-25 2 -42 21t-17 45q0 28 18.5 46.5t46.5 18.5q38 0 55.5 -21t17.5 -52q0 -73 -83 -213zM328 -161l-50 24q47 85 54 131q-25 2 -42 21t-17 45q0 28 18.5 46.5t46.5 18.5q38 0 55.5 -21t17.5 -52q0 -73 -83 -213z" />
    <glyph glyph-name="dagger" unicode="&#x2020;" horiz-adv-x="553" 
d="M473 411h-149v-572h-95v572h-149v89h149v200h95v-200h149v-89z" />
    <glyph glyph-name="daggerdbl" unicode="&#x2021;" horiz-adv-x="553" 
d="M324 41v-202h-95v202h-149v89h149v281h-149v89h149v200h95v-200h149v-89h-149v-281h149v-89h-149z" />
    <glyph glyph-name="bullet" unicode="&#x2022;" horiz-adv-x="398" 
d="M197 172q-47 0 -82 35t-35 82q0 49 35 85t82 36q49 0 85 -36t36 -85q0 -47 -36 -82t-85 -35z" />
    <glyph glyph-name="ellipsis" unicode="&#x2026;" horiz-adv-x="651" 
d="M80 59q0 28 18.5 46.5t46.5 18.5q27 0 46.5 -19t19.5 -46t-19.5 -46.5t-46.5 -19.5t-46 19.5t-19 46.5zM280 59q0 28 18.5 46.5t46.5 18.5q27 0 46.5 -19t19.5 -46t-19.5 -46.5t-46.5 -19.5t-46 19.5t-19 46.5zM480 59q0 28 18.5 46.5t46.5 18.5q27 0 46.5 -19t19.5 -46
t-19.5 -46.5t-46.5 -19.5t-46 19.5t-19 46.5z" />
    <glyph glyph-name="perthousand" unicode="&#x2030;" horiz-adv-x="1144" 
d="M543 700l-228 -700h-81l228 700h81zM179 702q54 0 89 -26.5t47.5 -59.5t12.5 -69q0 -27 -7.5 -52t-23.5 -49.5t-46.5 -39t-71.5 -14.5t-71.5 14.5t-46.5 39t-23.5 49.5t-7.5 52q0 36 12.5 69t47.5 59.5t89 26.5zM179 461q29 0 47 18t22 35t4 33t-4 33t-22 34.5t-47 17.5
t-47 -17.5t-22.5 -34.5t-4.5 -33q0 -11 3 -23.5t10 -27.5t23 -25t38 -10zM598 308q54 0 89 -26.5t47.5 -59.5t12.5 -69q0 -27 -7.5 -52t-23.5 -49.5t-46.5 -39t-71.5 -14.5t-71.5 14.5t-46.5 39t-23.5 49.5t-7.5 52q0 36 12.5 69t47.5 59.5t89 26.5zM598 67q29 0 47 18
t22 35t4 33t-4 33t-22 34.5t-47 17.5t-47 -17.5t-22.5 -34.5t-4.5 -33q0 -11 3 -23.5t10 -27.5t23 -25t38 -10zM965 308q54 0 89 -26.5t47.5 -59.5t12.5 -69q0 -27 -7.5 -52t-23.5 -49.5t-46.5 -39t-71.5 -14.5t-71.5 14.5t-46.5 39t-23.5 49.5t-7.5 52q0 36 12.5 69
t47.5 59.5t89 26.5zM965 67q29 0 47 18t22 35t4 33t-4 33t-22 34.5t-47 17.5t-47 -17.5t-22.5 -34.5t-4.5 -33q0 -11 3 -23.5t10 -27.5t23 -25t38 -10z" />
    <glyph glyph-name="guilsinglleft" unicode="&#x2039;" horiz-adv-x="283" 
d="M125 251l128 -151l-48 -43l-175 185v18l175 185l48 -43z" />
    <glyph glyph-name="guilsinglright" unicode="&#x203a;" horiz-adv-x="283" 
d="M30 100l128 151l-128 151l48 43l175 -185v-18l-175 -185z" />
    <glyph glyph-name="fraction" unicode="&#x2044;" horiz-adv-x="53" 
d="M237 700l-349 -700h-73l350 700h72z" />
    <glyph glyph-name="zerosuperior" unicode="&#x2070;" horiz-adv-x="312" 
d="M156 796q34 0 60 -15.5t39.5 -41t20 -52.5t6.5 -54q0 -39 -10.5 -73.5t-40.5 -62t-75 -27.5t-75 27.5t-40.5 62t-10.5 73.5q0 27 6.5 54t20 52.5t39.5 41t60 15.5zM156 522q20 0 34 13t20.5 32.5t9 35.5t2.5 30q0 20 -4 42t-20 45.5t-42 23.5t-42 -23.5t-20 -45.5t-4 -42
q0 -14 2.5 -30t9 -35.5t20.5 -32.5t34 -13z" />
    <glyph glyph-name="foursuperior" unicode="&#x2074;" horiz-adv-x="283" 
d="M214 539v-63h-61v63h-133v35l145 225h49v-204h49v-56h-49zM153 679l-54 -84h54v84z" />
    <glyph glyph-name="fivesuperior" unicode="&#x2075;" horiz-adv-x="274" 
d="M30 525l39 37q27 -35 61 -35q25 0 39.5 16.5t14.5 38.5t-14.5 38t-40.5 16h-77v163h169v-54h-108v-56h16q62 0 88.5 -34t26.5 -76q0 -36 -27.5 -71t-87.5 -35q-59 0 -99 52z" />
    <glyph glyph-name="sixsuperior" unicode="&#x2076;" horiz-adv-x="286" 
d="M173 805l30 -43q-63 -38 -92 -83q12 7 32 7q62 0 87.5 -34.5t25.5 -76.5q0 -21 -8 -43t-35 -43t-70 -21q-32 0 -56 11.5t-35 29.5t-16 34.5t-5 31.5q-2 149 142 230zM143 523q25 0 39.5 16.5t14.5 38.5t-14 38t-40 16q-25 0 -38.5 -15.5t-14.5 -38.5q0 -22 14 -38.5
t39 -16.5z" />
    <glyph glyph-name="sevensuperior" unicode="&#x2077;" horiz-adv-x="242" 
d="M20 745v54h202v-16l-126 -307h-63l110 269h-123z" />
    <glyph glyph-name="eightsuperior" unicode="&#x2078;" horiz-adv-x="274" 
d="M204 635q36 -27 36 -74q0 -34 -24 -63.5t-81 -29.5t-81 29.5t-24 63.5q0 47 36 74q-36 27 -36 74q0 34 24 63.5t81 29.5t81 -29.5t24 -63.5q0 -47 -36 -74zM135 518q19 0 33 11.5t14 31.5q0 21 -14 32.5t-33 11.5t-33 -11.5t-14 -32.5q0 -20 14 -31.5t33 -11.5zM135 665
q19 0 33 11.5t14 32.5q0 20 -14 31.5t-33 11.5t-33 -11.5t-14 -31.5q0 -21 14 -32.5t33 -11.5z" />
    <glyph glyph-name="ninesuperior" unicode="&#x2079;" horiz-adv-x="286" 
d="M113 462l-30 43q63 38 92 83q-12 -7 -32 -7q-62 0 -87.5 34.5t-25.5 76.5q0 21 8 43t35 43t70 21q32 0 56 -11.5t35 -29.5t16 -34.5t5 -31.5q2 -149 -142 -230zM143 744q-25 0 -39.5 -16.5t-14.5 -38.5t14 -38t40 -16q25 0 38.5 15.5t14.5 38.5q0 22 -14 38.5t-39 16.5z
" />
    <glyph glyph-name="zeroinferior" unicode="&#x2080;" horiz-adv-x="312" 
d="M156 159q34 0 60 -15.5t39.5 -41t20 -52.5t6.5 -54q0 -39 -10.5 -73.5t-40.5 -62t-75 -27.5t-75 27.5t-40.5 62t-10.5 73.5q0 27 6.5 54t20 52.5t39.5 41t60 15.5zM156 -115q20 0 34 13t20.5 32.5t9 35.5t2.5 30q0 20 -4 42t-20 45.5t-42 23.5t-42 -23.5t-20 -45.5
t-4 -42q0 -14 2.5 -30t9 -35.5t20.5 -32.5t34 -13z" />
    <glyph glyph-name="oneinferior" unicode="&#x2081;" horiz-adv-x="206" 
d="M156 157v-324h-61v230l-48 -28l-27 43l111 79h25z" />
    <glyph glyph-name="twoinferior" unicode="&#x2082;" horiz-adv-x="262" 
d="M60 66l-37 38q51 55 109 55q46 0 73 -27.5t27 -67.5q0 -43 -39 -89l-73 -86h104v-56h-204v25l128 153q26 32 26 57q0 15 -9.5 26.5t-31.5 11.5q-30 0 -73 -40z" />
    <glyph glyph-name="threeinferior" unicode="&#x2083;" horiz-adv-x="258" 
d="M228 63q0 -45 -32 -73q32 -27 32 -72q0 -36 -25 -66t-83 -30q-51 0 -100 44l32 35q31 -31 68 -31q23 0 38.5 12.5t15.5 35.5t-15.5 36t-38.5 13h-43v47h43q23 0 38.5 13t15.5 36t-16 35.5t-38 12.5q-35 0 -68 -31l-32 35q51 44 100 44q58 0 83 -30.5t25 -65.5z" />
    <glyph glyph-name="fourinferior" unicode="&#x2084;" horiz-adv-x="283" 
d="M214 -104v-63h-61v63h-133v35l145 225h49v-204h49v-56h-49zM153 36l-54 -84h54v84z" />
    <glyph glyph-name="fiveinferior" unicode="&#x2085;" horiz-adv-x="274" 
d="M30 -118l39 37q27 -35 61 -35q25 0 39.5 16.5t14.5 38.5t-14.5 38t-40.5 16h-77v163h169v-54h-108v-56h16q62 0 88.5 -34t26.5 -76q0 -36 -27.5 -71t-87.5 -35q-59 0 -99 52z" />
    <glyph glyph-name="sixinferior" unicode="&#x2086;" horiz-adv-x="286" 
d="M173 163l30 -43q-63 -38 -92 -83q12 7 32 7q62 0 87.5 -34.5t25.5 -76.5q0 -21 -8 -43t-35 -43t-70 -21q-32 0 -56 11.5t-35 29.5t-16 34.5t-5 31.5q-2 149 142 230zM143 -119q25 0 39.5 16.5t14.5 38.5t-14 38t-40 16q-25 0 -38.5 -15.5t-14.5 -38.5q0 -22 14 -38.5
t39 -16.5z" />
    <glyph glyph-name="seveninferior" unicode="&#x2087;" horiz-adv-x="242" 
d="M20 102v54h202v-16l-126 -307h-63l110 269h-123z" />
    <glyph glyph-name="eightinferior" unicode="&#x2088;" horiz-adv-x="274" 
d="M135 -160q-54 0 -79.5 30t-25.5 65q0 20 9.5 39t23.5 26q-13 9 -22 28.5t-9 36.5q0 35 24 64.5t81 29.5t80.5 -29.5t23.5 -64.5q0 -15 -8.5 -35t-21.5 -30q33 -23 33 -65q0 -36 -26 -65.5t-83 -29.5zM137 -24q-24 -1 -35.5 -14.5t-11.5 -26.5q0 -20 13 -31t32 -11
q20 0 34.5 10.5t14.5 31.5q0 15 -11 28t-36 13zM180 65q0 19 -13 29.5t-31 10.5t-30.5 -10.5t-12.5 -29.5q0 -13 10 -25t34 -13q24 1 33.5 13.5t9.5 24.5z" />
    <glyph glyph-name="nineinferior" unicode="&#x2089;" horiz-adv-x="286" 
d="M113 -178l-30 43q63 38 92 83q-12 -7 -32 -7q-62 0 -87.5 34.5t-25.5 76.5q0 21 8 43t35 43t70 21q32 0 56 -11.5t35 -29.5t16 -34.5t5 -31.5q2 -149 -142 -230zM143 104q-25 0 -39.5 -16.5t-14.5 -38.5t14 -38t40 -16q25 0 38.5 15.5t14.5 38.5q0 22 -14 38.5t-39 16.5z
" />
    <glyph glyph-name="Euro" unicode="&#x20ac;" horiz-adv-x="556" 
d="M389 377h-213v-27q0 -18 1 -28h175l-20 -68h-147q34 -175 152 -175q65 0 113 49l66 -51q-73 -84 -179 -84q-57 0 -102.5 22t-75 60.5t-47 82.5t-26.5 96h-76l21 68h47v55h-68l21 68h55q9 51 26.5 95t47 83t75 61t102.5 22q104 0 177 -85l-66 -53q-49 52 -111 52
q-117 0 -152 -175h225z" />
    <glyph glyph-name="afii61289" unicode="&#x2113;" horiz-adv-x="437" 
d="M20 298v84h57v158q0 50 16 86.5t42 53.5t50 24t49 7q85 0 129 -53t44 -129q0 -98 -67 -164t-163 -66v-110q0 -16 1 -29t6 -29t12.5 -26.5t22.5 -18t35 -6.5q39 2 87 32l42 -66q-54 -46 -126 -51q-48 -3 -83.5 11t-53 35.5t-28.5 51t-13 48.5t-2 38v119h-57zM177 382
q59 0 100 44.5t37 113.5q-2 42 -25.5 65t-54.5 21q-57 -4 -57 -78v-166z" />
    <glyph glyph-name="trademark" unicode="&#x2122;" horiz-adv-x="699" 
d="M123 465v235h-78v53h215v-53h-79v-235h-58zM462 461h-4l-80 160l-49 -156h-63l103 290h7l84 -179l84 179h7l103 -290h-63l-49 156z" />
    <glyph glyph-name="estimated" unicode="&#x212e;" horiz-adv-x="812" 
d="M627 151l44 -35q-50 -64 -112 -94t-153 -30q-77 0 -138.5 23.5t-99 60t-63 85t-35.5 96t-10 95.5q0 47 10 93.5t35.5 95.5t63 86t99 60.5t138.5 23.5t138.5 -23.5t99 -60.5t63 -86t35.5 -95.5t10 -93.5v-13h-556v-197q73 -98 210 -98q129 0 221 107zM406 659
q-136 0 -210 -97v-171h417v174q0 1 1 1q-73 93 -208 93z" />
    <glyph glyph-name="onethird" unicode="&#x2153;" horiz-adv-x="592" 
d="M162 701v-324h-61v230l-48 -28l-27 43l111 79h25zM470 700l-349 -700h-73l350 700h72zM541 234q0 -45 -32 -73q32 -27 32 -72q0 -36 -25 -66t-83 -30q-51 0 -100 44l32 35q31 -31 68 -31q23 0 38.5 12.5t15.5 35.5t-15.5 36t-38.5 13h-43v47h43q23 0 38.5 13t15.5 36
t-15.5 35.5t-38.5 12.5q-35 0 -68 -31l-32 35q51 44 100 44q58 0 83 -30.5t25 -65.5z" />
    <glyph glyph-name="twothirds" unicode="&#x2154;" horiz-adv-x="633" 
d="M527 700l-349 -700h-73l350 700h72zM68 610l-37 38q51 55 109 55q46 0 73 -27.5t27 -67.5q0 -43 -39 -89l-73 -86h104v-56h-204v25l128 153q26 32 26 57q0 15 -9.5 26.5t-31.5 11.5q-30 0 -73 -40zM591 234q0 -45 -32 -73q32 -27 32 -72q0 -36 -25 -66t-83 -30
q-51 0 -100 44l32 35q31 -31 68 -31q23 0 38.5 12.5t15.5 35.5t-15.5 36t-38.5 13h-43v47h43q23 0 38.5 13t15.5 36t-15.5 35.5t-38.5 12.5q-35 0 -68 -31l-32 35q51 44 100 44q58 0 83 -30.5t25 -65.5z" />
    <glyph glyph-name="oneeighth" unicode="&#x215b;" horiz-adv-x="585" 
d="M475 700l-349 -700h-73l350 700h72zM162 701v-324h-61v230l-48 -28l-27 43l111 79h25zM505 164q36 -27 36 -74q0 -34 -24 -63.5t-81 -29.5t-81 29.5t-24 63.5q0 47 36 74q-36 27 -36 74q0 34 24 63.5t81 29.5t81 -29.5t24 -63.5q0 -47 -36 -74zM436 47q19 0 33 11.5
t14 31.5q0 21 -14 32.5t-33 11.5t-33 -11.5t-14 -32.5q0 -20 14 -31.5t33 -11.5zM436 194q19 0 33 11.5t14 32.5q0 20 -14 31.5t-33 11.5t-33 -11.5t-14 -31.5q0 -21 14 -32.5t33 -11.5z" />
    <glyph glyph-name="threeeighths" unicode="&#x215c;" horiz-adv-x="578" 
d="M489 700l-349 -700h-73l350 700h72zM507 164q36 -27 36 -74q0 -34 -24 -63.5t-81 -29.5t-81 29.5t-24 63.5q0 47 36 74q-36 27 -36 74q0 34 24 63.5t81 29.5t81 -29.5t24 -63.5q0 -47 -36 -74zM438 47q19 0 33 11.5t14 31.5q0 21 -14 32.5t-33 11.5t-33 -11.5t-14 -32.5
q0 -20 14 -31.5t33 -11.5zM438 194q19 0 33 11.5t14 32.5q0 20 -14 31.5t-33 11.5t-33 -11.5t-14 -31.5q0 -21 14 -32.5t33 -11.5zM230 611q0 -45 -32 -73q32 -27 32 -72q0 -36 -25 -66t-83 -30q-51 0 -100 44l32 35q31 -31 68 -31q23 0 38.5 12.5t15.5 35.5t-15.5 36
t-38.5 13h-43v47h43q23 0 38.5 13t15.5 36t-16 35.5t-38 12.5q-35 0 -68 -31l-32 35q51 44 100 44q58 0 83 -30.5t25 -65.5z" />
    <glyph glyph-name="fiveeighths" unicode="&#x215d;" horiz-adv-x="596" 
d="M501 700l-349 -700h-73l350 700h72zM30 426l39 37q27 -35 61 -35q25 0 39.5 16.5t14.5 38.5t-14.5 38t-40.5 16h-77v163h169v-54h-108v-56h16q62 0 88.5 -34t26.5 -76q0 -36 -27.5 -71t-87.5 -35q-59 0 -99 52zM519 164q36 -27 36 -74q0 -34 -24 -63.5t-81 -29.5
t-81 29.5t-24 63.5q0 47 36 74q-36 27 -36 74q0 34 24 63.5t81 29.5t81 -29.5t24 -63.5q0 -47 -36 -74zM450 47q19 0 33 11.5t14 31.5q0 21 -14 32.5t-33 11.5t-33 -11.5t-14 -32.5q0 -20 14 -31.5t33 -11.5zM450 194q19 0 33 11.5t14 32.5q0 20 -14 31.5t-33 11.5
t-33 -11.5t-14 -31.5q0 -21 14 -32.5t33 -11.5z" />
    <glyph glyph-name="seveneighths" unicode="&#x215e;" horiz-adv-x="516" 
d="M430 700l-349 -700h-73l350 700h72zM20 646v54h202v-16l-126 -307h-63l110 269h-123zM449 164q36 -27 36 -74q0 -34 -24 -63.5t-81 -29.5t-81 29.5t-24 63.5q0 47 36 74q-36 27 -36 74q0 34 24 63.5t81 29.5t81 -29.5t24 -63.5q0 -47 -36 -74zM380 47q19 0 33 11.5
t14 31.5q0 21 -14 32.5t-33 11.5t-33 -11.5t-14 -32.5q0 -20 14 -31.5t33 -11.5zM380 194q19 0 33 11.5t14 32.5q0 20 -14 31.5t-33 11.5t-33 -11.5t-14 -31.5q0 -21 14 -32.5t33 -11.5z" />
    <glyph glyph-name="arrowleft" unicode="&#x2190;" horiz-adv-x="607" 
d="M547 218h-336l159 -173l-53 -52l-257 257v17l257 257l52 -52l-158 -172h336v-82z" />
    <glyph glyph-name="arrowup" unicode="&#x2191;" horiz-adv-x="591" 
d="M336 349v-336h-82v336l-172 -158l-52 52l257 257h17l257 -257l-52 -53z" />
    <glyph glyph-name="arrowright" unicode="&#x2192;" horiz-adv-x="607" 
d="M396 218h-336v82h336l-158 172l52 52l257 -257v-17l-257 -257l-53 52z" />
    <glyph glyph-name="arrowdown" unicode="&#x2193;" horiz-adv-x="591" 
d="M336 500v-336l173 159l52 -53l-257 -257h-17l-257 257l52 52l172 -158v336h82z" />
    <glyph glyph-name="partialdiff" unicode="&#x2202;" horiz-adv-x="584" 
d="M187 638l45 67q55 -30 103.5 -72.5t93 -102.5t70 -142t24.5 -176q0 -24 -6 -50t-22 -57t-40.5 -55t-66.5 -40t-96 -16t-96 16.5t-67 41t-41 55.5t-22 56.5t-6 48.5q0 36 10 71t34 71.5t72.5 59t115.5 22.5q26 0 59.5 -11.5t48.5 -26.5q-22 59 -75.5 124.5t-137.5 115.5z
M292 80q63 0 98.5 41t35.5 97q-2 57 -36.5 96.5t-97.5 39.5q-64 0 -99.5 -40.5t-35.5 -95.5q0 -56 36 -97t99 -41z" />
    <glyph glyph-name="product" unicode="&#x220f;" horiz-adv-x="614" 
d="M123 0v610h-78v90h524v-90h-78v-610h-103v610h-162v-610h-103z" />
    <glyph glyph-name="summation" unicode="&#x2211;" horiz-adv-x="504" 
d="M367 350l-181 -264h288v-86h-442l-2 8l231 342l-231 341l2 9h442v-86h-288z" />
    <glyph glyph-name="minus" unicode="&#x2212;" horiz-adv-x="574" 
d="M80 418h414v-75h-414v75z" />
    <glyph glyph-name="radical" unicode="&#x221a;" horiz-adv-x="654" 
d="M259 202l206 498h159v-77h-89l-269 -634h-18l-218 500l4 11h101l121 -298h3z" />
    <glyph glyph-name="infinity" unicode="&#x221e;" horiz-adv-x="671" 
d="M219 150q-69 0 -104 43.5t-35 103.5q0 59 35 103t104 44q35 0 66 -19t51 -50q43 69 116 69q70 0 104.5 -44t34.5 -104q0 -59 -34.5 -102.5t-104.5 -43.5q-35 0 -66 18t-50 48q-41 -66 -117 -66zM443 231q28 0 45.5 19t17.5 46t-17.5 44.5t-45.5 17.5q-46 0 -70 -62
q25 -65 70 -65zM228 230q46 0 70 67q-21 64 -70 64q-28 0 -45 -17t-17 -47q0 -31 17 -49t45 -18z" />
    <glyph glyph-name="integral" unicode="&#x222b;" horiz-adv-x="456" 
d="M423 591q-46 27 -84 27q-76 0 -76 -107v-514v-2q0 -12 -0.5 -23.5t-4 -37t-14.5 -46t-28.5 -42t-49 -33.5t-72.5 -12q-45 0 -80.5 15.5t-53.5 33.5l43 67q46 -27 84 -27q76 0 76 107v514v2q0 12 0.5 23.5t4 37t14.5 46t28.5 42t49 33.5t72.5 12q45 0 80.5 -15.5
t53.5 -33.5z" />
    <glyph glyph-name="approxequal" unicode="&#x2248;" horiz-adv-x="578" 
d="M141 310l-61 42q55 97 143 97q30 0 76 -26q46 -23 62 -23q37 0 79 54l58 -48q-53 -97 -138 -97q-33 0 -84 29q-38 22 -57 22q-38 0 -78 -50zM141 110l-61 42q55 97 143 97q30 0 76 -26q46 -23 62 -23q37 0 79 54l58 -48q-53 -97 -138 -97q-33 0 -84 29q-38 22 -57 22
q-38 0 -78 -50z" />
    <glyph glyph-name="notequal" unicode="&#x2260;" horiz-adv-x="502" 
d="M166 100h-86v75h110l47 145h-157v75h181l35 105h66l-35 -105h95v-75h-119l-47 -145h166v-75h-190l-32 -100h-66z" />
    <glyph glyph-name="lessequal" unicode="&#x2264;" horiz-adv-x="429" 
d="M399 472l-224 -142l224 -144l-40 -69l-329 197v29l329 198zM30 75h356v-75h-356v75z" />
    <glyph glyph-name="greaterequal" unicode="&#x2265;" horiz-adv-x="425" 
d="M254 330l-224 142l40 69l329 -198v-29l-329 -197l-40 69zM43 75h356v-75h-356v75z" />
    <glyph glyph-name="lozenge" unicode="&#x25ca;" horiz-adv-x="652" 
d="M326 707l266 -359l-266 -358l-266 358zM471 348l-145 208l-145 -208l145 -207z" />
    <glyph glyph-name="CR" horiz-adv-x="250" 
 />
    <glyph glyph-name="zero.oldstyle" horiz-adv-x="574" 
d="M287 506q62 0 108.5 -25.5t71 -66.5t36 -84t11.5 -86q0 -33 -5.5 -64.5t-21.5 -66t-40.5 -60t-65.5 -42.5t-94 -17t-94 17.5t-65.5 44t-40.5 62t-21.5 67.5t-5.5 65q0 32 5.5 64t21.5 67.5t40.5 62.5t65.5 44.5t94 17.5zM287 80q34 0 59 14.5t37.5 33t19.5 44.5t8.5 41.5
t1.5 30.5t-1.5 31.5t-8.5 44t-19.5 48t-37.5 36t-59 15.5t-59.5 -15t-37.5 -34.5t-19 -46t-8.5 -42t-1.5 -31.5q0 -21 3 -42.5t14 -54t39 -53t70 -20.5z" />
    <glyph glyph-name="one.oldstyle" horiz-adv-x="464" 
d="M58 78h127v277l-115 -66l-40 64l228 160h27v-435h119v-78h-346v78z" />
    <glyph glyph-name="two.oldstyle" horiz-adv-x="429" 
d="M369 363q0 -57 -62 -142l-113 -140h165v-81h-326l-3 8l208 268q41 53 41 90q0 23 -16.5 41.5t-49.5 18.5q-50 0 -121 -60l-49 57q76 84 170 84q69 0 112.5 -37.5t43.5 -106.5z" />
    <glyph glyph-name="three.oldstyle" horiz-adv-x="475" 
d="M415 332q0 -84 -63 -134q63 -50 63 -133q0 -27 -9 -55t-29 -57t-61 -47t-97 -18q-42 0 -79.5 14.5t-55.5 28t-44 37.5l51 62q25 -23 61.5 -40.5t66.5 -17.5q43 0 72.5 24t29.5 69q0 44 -29.5 68t-72.5 24h-77v82h77q43 0 72.5 24.5t29.5 68.5q0 45 -29.5 69t-72.5 24
q-30 0 -66.5 -17.5t-61.5 -40.5l-51 62q24 22 43 36t56.5 27.5t79.5 13.5q56 0 97 -17.5t61 -46t29 -56t9 -54.5z" />
    <glyph glyph-name="four.oldstyle" horiz-adv-x="512" 
d="M387 18v-129h-100v129h-257v55l279 427h78v-397h95v-85h-95zM287 313l-135 -210h135v210z" />
    <glyph glyph-name="five.oldstyle" horiz-adv-x="513" 
d="M60 -21l63 57q56 -63 118 -63q54 0 86 34.5t32 81.5q0 51 -34 83t-91 32h-133v296h322v-86h-225v-128h42q61 0 105 -18.5t66.5 -49.5t32 -64t9.5 -70q0 -21 -5.5 -45t-20.5 -51.5t-38 -49t-62 -36t-87 -14.5q-103 0 -173 82z" />
    <glyph glyph-name="six.oldstyle" horiz-adv-x="540" 
d="M325 624l43 -69q-136 -87 -182 -184q36 24 84 24q61 0 105 -20.5t65.5 -53.5t30.5 -64.5t9 -64.5q0 -20 -5 -43.5t-20 -51.5t-37.5 -50t-61 -37t-86.5 -15t-86 14.5t-60 36.5t-36.5 50t-20 51t-6.5 45q-3 81 18.5 151.5t61.5 123t85 90.5t99 67zM270 81q54 0 84 35t30 82
t-29.5 81t-84.5 34q-53 0 -83 -34t-30 -81t30 -82t83 -35z" />
    <glyph glyph-name="seven.oldstyle" horiz-adv-x="424" 
d="M268 415h-238v85h368v-20l-245 -591h-101z" />
    <glyph glyph-name="eight.oldstyle" horiz-adv-x="527" 
d="M259 -5q-54 0 -94.5 17.5t-62 46t-32 58t-10.5 59.5q0 81 71 130q-34 21 -49.5 60t-15.5 72q0 27 9 54.5t29.5 56t61.5 46.5t98 18t98 -18t61 -46.5t28.5 -55.5t8.5 -55q0 -35 -15.5 -72.5t-48.5 -59.5q71 -49 71 -130q0 -30 -10.5 -59.5t-32.5 -58t-65 -46t-100 -17.5z
M265 270q-56 -1 -84.5 -33t-28.5 -61q0 -48 31.5 -75t75.5 -27q48 0 82.5 26t34.5 76q0 35 -27 64.5t-84 29.5zM368 438q0 45 -31 70t-75 25q-42 0 -73 -25t-31 -70q0 -32 25 -61.5t82 -32.5q56 3 79.5 34t23.5 60z" />
    <glyph glyph-name="nine.oldstyle" horiz-adv-x="539" 
d="M215 -123l-43 69q136 87 182 184q-36 -24 -84 -24q-61 0 -105 20.5t-65.5 53.5t-30.5 64.5t-9 64.5q0 20 5 43.5t20 51.5t37.5 50t61 37t86.5 15t86 -14.5t60.5 -36.5t37 -49.5t20 -51.5t5.5 -45q0 -157 -74.5 -263.5t-189.5 -168.5zM270 420q-54 0 -84 -35t-30 -82
t29.5 -81t84.5 -34q53 0 83 34t30 81t-30 82t-83 35z" />
    <glyph glyph-name="Euro.oldstyle" horiz-adv-x="547" 
d="M60 273l16 50h37q17 77 69.5 130t149.5 53q90 0 155 -60l-52 -63q-45 36 -103 36q-90 0 -117 -96h177l-16 -50h-169q-1 -10 -1 -23t1 -21h127l-16 -50h-103q25 -99 117 -99q48 0 101 33l47 -67q-67 -52 -148 -52q-98 0 -150.5 53t-69.5 132h-52l16 50h30q0 4 -0.5 11
t-0.5 10t0.5 11t0.5 12h-46z" />
    <glyph glyph-name="florin.oldstyle" horiz-adv-x="317" 
d="M-90 -94l18 75q42 -14 74 -11q29 2 47.5 18.5t18.5 47.5v166h-71v85h71v65q0 75 44 114.5t127 39.5q40 0 88 -16l-19 -74q-42 14 -74 11q-29 -2 -47.5 -18.5t-18.5 -47.5v-74h108v-85h-108v-157q0 -75 -44 -114.5t-127 -39.5q-39 0 -87 15z" />
    <glyph glyph-name="sterling.oldstyle" horiz-adv-x="610" 
d="M111 -4l-62 43q33 56 78 83v99h-61v58h61v65q0 80 49 121.5t124 41.5q66 0 126 -28l-27 -75q-57 19 -95 19q-73 0 -77 -73v-71h164v-58h-164v-76q28 -4 78 -32.5t80 -28.5q49 0 99 65l59 -50q-59 -109 -159 -109q-39 0 -94.5 32t-81.5 32q-53 0 -97 -58z" />
    <glyph glyph-name="yen.oldstyle" horiz-adv-x="583" 
d="M121 252h120l-181 238v10h110l122 -167l122 167h109v-10l-179 -236v-2h119v-58h-119v-56h119v-58h-119v-80h-103v80h-120v58h120v56h-120v58z" />
    <glyph glyph-name="percent.oldstyle" horiz-adv-x="798" 
d="M530 557l-181 -557h-81l181 557h81zM179 562q54 0 89 -26.5t47.5 -59.5t12.5 -69q0 -27 -7.5 -52t-23.5 -49.5t-46.5 -39t-71.5 -14.5t-71.5 14.5t-46.5 39t-23.5 49.5t-7.5 52q0 36 12.5 69t47.5 59.5t89 26.5zM179 321q29 0 47 18t22 35t4 33t-4 33t-22 34.5t-47 17.5
t-47 -17.5t-22.5 -34.5t-4.5 -33q0 -11 3 -23.5t10 -27.5t23 -25t38 -10zM619 308q54 0 89 -26.5t47.5 -59.5t12.5 -69q0 -27 -7.5 -52t-23.5 -49.5t-46.5 -39t-71.5 -14.5t-71.5 14.5t-46.5 39t-23.5 49.5t-7.5 52q0 36 12.5 69t47.5 59.5t89 26.5zM619 67q29 0 47 18
t22 35t4 33t-4 33t-22 34.5t-47 17.5t-47 -17.5t-22.5 -34.5t-4.5 -33q0 -11 3 -23.5t10 -27.5t23 -25t38 -10z" />
    <glyph glyph-name="commaaccent" horiz-adv-x="250" 
d="M118 -338l-42 21q36 69 43 108q-23 1 -38 18.5t-15 40.5q0 25 16.5 42t41.5 17q34 0 50 -19.5t16 -46.5q0 -64 -72 -181z" />
    <glyph glyph-name="a.alt" 
d="M304 -8q-53 0 -96.5 16.5t-70 43t-44.5 61.5t-25.5 69t-7.5 68t7.5 68t25.5 69t44.5 61.5t70 43t96.5 16.5q89 0 151 -59l17 51h60v-500h-60l-17 51q-62 -59 -151 -59zM309 425q-46 0 -78.5 -20.5t-46.5 -51.5t-19.5 -56t-5.5 -47t5.5 -47t19.5 -56t46.5 -51.5
t78.5 -20.5q83 0 123 67v216q-40 67 -123 67z" />
    <glyph glyph-name="aogonek.alt" horiz-adv-x="604" 
d="M304 -8q-53 0 -96.5 16.5t-70 43t-44.5 61.5t-25.5 69t-7.5 68t7.5 68t25.5 69t44.5 61.5t70 43t96.5 16.5q89 0 151 -59l17 51h60v-501q0 -10 -17.5 -44t-17.5 -55q0 -26 15 -40.5t43 -14.5q31 0 69 16v-64q-43 -18 -82 -18q-50 0 -83 27t-33 79q0 30 22 69.5t22 47.5v4
l-15 45q-62 -59 -151 -59zM309 425q-46 0 -78.5 -20.5t-46.5 -51.5t-19.5 -56t-5.5 -47t5.5 -47t19.5 -56t46.5 -51.5t78.5 -20.5q83 0 123 67v216q-40 67 -123 67z" />
    <glyph glyph-name="amacron.alt" 
d="M304 -8q-53 0 -96.5 16.5t-70 43t-44.5 61.5t-25.5 69t-7.5 68t7.5 68t25.5 69t44.5 61.5t70 43t96.5 16.5q89 0 151 -59l17 51h60v-500h-60l-17 51q-62 -59 -151 -59zM309 425q-46 0 -78.5 -20.5t-46.5 -51.5t-19.5 -56t-5.5 -47t5.5 -47t19.5 -56t46.5 -51.5
t78.5 -20.5q83 0 123 67v216q-40 67 -123 67zM171 666h301v-70h-301v70z" />
    <glyph glyph-name="adieresis.alt" 
d="M134 652q0 25 17 42.5t42 17.5t42.5 -17.5t17.5 -42.5t-17.5 -42t-42.5 -17t-42 16.5t-17 42.5zM373 652q0 25 17 42.5t42 17.5t42.5 -17.5t17.5 -42.5t-17.5 -42t-42.5 -17q-26 0 -42.5 16.5t-16.5 42.5zM304 -8q-53 0 -96.5 16.5t-70 43t-44.5 61.5t-25.5 69t-7.5 68
t7.5 68t25.5 69t44.5 61.5t70 43t96.5 16.5q89 0 151 -59l17 51h60v-500h-60l-17 51q-62 -59 -151 -59zM309 425q-46 0 -78.5 -20.5t-46.5 -51.5t-19.5 -56t-5.5 -47t5.5 -47t19.5 -56t46.5 -51.5t78.5 -20.5q83 0 123 67v216q-40 67 -123 67z" />
    <glyph glyph-name="aring.alt" 
d="M214 688q0 42 30 72t72 30t71.5 -30t29.5 -72t-29.5 -71.5t-71.5 -29.5t-72 29.5t-30 71.5zM275 688q0 -16 12.5 -28t28.5 -12t28 12t12 28t-12 28.5t-28 12.5t-28.5 -12.5t-12.5 -28.5zM304 -8q-53 0 -96.5 16.5t-70 43t-44.5 61.5t-25.5 69t-7.5 68t7.5 68t25.5 69
t44.5 61.5t70 43t96.5 16.5q89 0 151 -59l17 51h60v-500h-60l-17 51q-62 -59 -151 -59zM309 425q-46 0 -78.5 -20.5t-46.5 -51.5t-19.5 -56t-5.5 -47t5.5 -47t19.5 -56t46.5 -51.5t78.5 -20.5q83 0 123 67v216q-40 67 -123 67z" />
    <glyph glyph-name="agrave.alt" 
d="M304 -8q-53 0 -96.5 16.5t-70 43t-44.5 61.5t-25.5 69t-7.5 68t7.5 68t25.5 69t44.5 61.5t70 43t96.5 16.5q89 0 151 -59l17 51h60v-500h-60l-17 51q-62 -59 -151 -59zM309 425q-46 0 -78.5 -20.5t-46.5 -51.5t-19.5 -56t-5.5 -47t5.5 -47t19.5 -56t46.5 -51.5
t78.5 -20.5q83 0 123 67v216q-40 67 -123 67zM220 757l154 -115l-36 -53l-164 101z" />
    <glyph glyph-name="acircumflex.alt" 
d="M304 -8q-53 0 -96.5 16.5t-70 43t-44.5 61.5t-25.5 69t-7.5 68t7.5 68t25.5 69t44.5 61.5t70 43t96.5 16.5q89 0 151 -59l17 51h60v-500h-60l-17 51q-62 -59 -151 -59zM309 425q-46 0 -78.5 -20.5t-46.5 -51.5t-19.5 -56t-5.5 -47t5.5 -47t19.5 -56t46.5 -51.5
t78.5 -20.5q83 0 123 67v216q-40 67 -123 67zM153 641l154 115l154 -115l-36 -53l-118 72l-118 -72z" />
    <glyph glyph-name="aacute.alt" 
d="M304 -8q-53 0 -96.5 16.5t-70 43t-44.5 61.5t-25.5 69t-7.5 68t7.5 68t25.5 69t44.5 61.5t70 43t96.5 16.5q89 0 151 -59l17 51h60v-500h-60l-17 51q-62 -59 -151 -59zM309 425q-46 0 -78.5 -20.5t-46.5 -51.5t-19.5 -56t-5.5 -47t5.5 -47t19.5 -56t46.5 -51.5
t78.5 -20.5q83 0 123 67v216q-40 67 -123 67zM192 642l154 115l46 -67l-164 -101z" />
    <glyph glyph-name="atilde.alt" 
d="M304 -8q-53 0 -96.5 16.5t-70 43t-44.5 61.5t-25.5 69t-7.5 68t7.5 68t25.5 69t44.5 61.5t70 43t96.5 16.5q89 0 151 -59l17 51h60v-500h-60l-17 51q-62 -59 -151 -59zM309 425q-46 0 -78.5 -20.5t-46.5 -51.5t-19.5 -56t-5.5 -47t5.5 -47t19.5 -56t46.5 -51.5
t78.5 -20.5q83 0 123 67v216q-40 67 -123 67zM413 700l57 -30q-37 -83 -111 -83q-23 0 -52 19.5t-49 19.5q-32 0 -51 -42l-53 26q27 90 105 90q27 0 56.5 -19.5t45.5 -19.5q30 0 52 39z" />
    <glyph glyph-name="abreve.alt" 
d="M304 -8q-53 0 -96.5 16.5t-70 43t-44.5 61.5t-25.5 69t-7.5 68t7.5 68t25.5 69t44.5 61.5t70 43t96.5 16.5q89 0 151 -59l17 51h60v-500h-60l-17 51q-62 -59 -151 -59zM309 425q-46 0 -78.5 -20.5t-46.5 -51.5t-19.5 -56t-5.5 -47t5.5 -47t19.5 -56t46.5 -51.5
t78.5 -20.5q83 0 123 67v216q-40 67 -123 67zM373 730l68 -20q-13 -54 -51 -86t-88 -32q-49 0 -87 32t-51 86l67 20q7 -32 26 -49.5t45 -17.5q27 0 46 17.5t25 49.5z" />
    <glyph glyph-name="parenleft.case" horiz-adv-x="283" 
d="M30 354q0 253 158 479l65 -41q-121 -218 -121 -437q0 -226 121 -444l-65 -41q-158 226 -158 484z" />
    <glyph glyph-name="parenright.case" horiz-adv-x="283" 
d="M253 354q0 -258 -158 -484l-65 41q121 218 121 444q0 219 -121 437l65 41q158 -226 158 -479z" />
    <glyph glyph-name="hyphen.case" horiz-adv-x="432" 
d="M80 395h272v-83h-272v83z" />
    <glyph glyph-name="bracketleft.case" horiz-adv-x="248" 
d="M30 -134v976h188v-75h-89v-826h89v-75h-188z" />
    <glyph glyph-name="bracketright.case" horiz-adv-x="248" 
d="M218 842v-976h-188v75h89v826h-89v75h188z" />
    <glyph glyph-name="braceleft.case" horiz-adv-x="302" 
d="M249 841h23v-75h-19q-5 0 -10.5 -1t-15 -7t-16.5 -16.5t-12.5 -32t-5.5 -50.5v-213q0 -33 -18.5 -56t-44.5 -33v-5q26 -8 44.5 -33.5t18.5 -59.5v-211q0 -29 5.5 -50.5t12.5 -32t16.5 -16.5t15 -7t10.5 -1h19v-75h-23q-7 0 -19.5 1.5t-38 11.5t-45.5 27t-36 51.5
t-16 81.5v211q0 32 -16.5 49.5t-37.5 20.5h-10v65h10q21 3 37.5 20.5t16.5 49.5v213q0 47 16 81.5t36 51.5t45.5 27t38 11.5t19.5 1.5z" />
    <glyph glyph-name="bar.case" horiz-adv-x="189" 
d="M129 -134h-69v973h69v-973z" />
    <glyph glyph-name="braceright.case" horiz-adv-x="302" 
d="M53 841q7 0 19.5 -1.5t38 -11.5t45.5 -27t36 -51.5t16 -81.5v-213q0 -32 16.5 -49.5t37.5 -20.5h10v-65h-10q-21 -3 -37.5 -20.5t-16.5 -49.5v-211q0 -47 -16 -81.5t-36 -51.5t-45.5 -27t-38 -11.5t-19.5 -1.5h-23v75h19q5 0 10.5 1t15 7t16.5 16.5t12.5 32t5.5 50.5v211
q0 34 18.5 59.5t44.5 33.5v5q-26 10 -44.5 33t-18.5 56v213q0 29 -5.5 50.5t-12.5 32t-16.5 16.5t-15 7t-10.5 1h-19v75h23z" />
    <glyph glyph-name="guilsinglleft.case" horiz-adv-x="283" 
d="M125 349l128 -151l-48 -43l-175 185v18l175 185l48 -43z" />
    <glyph glyph-name="guilsinglright.case" horiz-adv-x="283" 
d="M30 198l128 151l-128 151l48 43l175 -185v-18l-175 -185z" />
    <glyph glyph-name="guillemotleft.case" horiz-adv-x="471" 
d="M125 349l128 -151l-48 -43l-175 185v18l175 185l48 -43zM313 349l128 -151l-48 -43l-175 185v18l175 185l48 -43z" />
    <glyph glyph-name="guillemotright.case" horiz-adv-x="471" 
d="M218 198l128 151l-128 151l48 43l175 -185v-18l-175 -185zM30 198l128 151l-128 151l48 43l175 -185v-18l-175 -185z" />
    <glyph glyph-name="endash.case" horiz-adv-x="550" 
d="M470 342h-390v75h390v-75z" />
    <glyph glyph-name="emdash.case" horiz-adv-x="672" 
d="M592 342h-512v75h512v-75z" />
    <glyph glyph-name="bullet.case" horiz-adv-x="398" 
d="M197 237q-47 0 -82 35t-35 82q0 49 35 85t82 36q49 0 85 -36t36 -85q0 -47 -36 -82t-85 -35z" />
    <glyph glyph-name="periodcentered.case" horiz-adv-x="251" 
d="M60 365q0 28 18.5 46.5t46.5 18.5q27 0 46.5 -19t19.5 -46t-19.5 -46.5t-46.5 -19.5t-46 19.5t-19 46.5z" />
    <glyph glyph-name="brokenbar.case" horiz-adv-x="189" 
d="M129 246v-381h-69v381h69zM129 838v-381h-69v381h69z" />
    <glyph glyph-name="zero.denom" horiz-adv-x="312" 
d="M156 326q34 0 60 -15.5t39.5 -41t20 -52.5t6.5 -54q0 -39 -10.5 -73.5t-40.5 -62t-75 -27.5t-75 27.5t-40.5 62t-10.5 73.5q0 27 6.5 54t20 52.5t39.5 41t60 15.5zM156 52q20 0 34 13t20.5 32.5t9 35.5t2.5 30q0 20 -4 42t-20 45.5t-42 23.5t-42 -23.5t-20 -45.5t-4 -42
q0 -14 2.5 -30t9 -35.5t20.5 -32.5t34 -13z" />
    <glyph glyph-name="one.denom" horiz-adv-x="206" 
d="M156 324v-324h-61v230l-48 -28l-27 43l111 79h25z" />
    <glyph glyph-name="two.denom" horiz-adv-x="262" 
d="M60 233l-37 38q51 55 109 55q46 0 73 -27.5t27 -67.5q0 -43 -39 -89l-73 -86h104v-56h-204v25l128 153q26 32 26 57q0 15 -9.5 26.5t-31.5 11.5q-30 0 -73 -40z" />
    <glyph glyph-name="three.denom" horiz-adv-x="258" 
d="M228 234q0 -45 -32 -73q32 -27 32 -72q0 -36 -25 -66t-83 -30q-51 0 -100 44l32 35q31 -31 68 -31q23 0 38.5 12.5t15.5 35.5t-15.5 36t-38.5 13h-43v47h43q23 0 38.5 13t15.5 36t-16 35.5t-38 12.5q-35 0 -68 -31l-32 35q51 44 100 44q58 0 83 -30.5t25 -65.5z" />
    <glyph glyph-name="four.denom" horiz-adv-x="283" 
d="M214 63v-63h-61v63h-133v35l145 225h49v-204h49v-56h-49zM153 203l-54 -84h54v84z" />
    <glyph glyph-name="five.denom" horiz-adv-x="274" 
d="M30 46l39 37q27 -35 61 -35q25 0 39.5 16.5t14.5 38.5t-14.5 38t-40.5 16h-77v165h169v-54h-108v-58h16q62 0 88.5 -34t26.5 -76q0 -36 -27.5 -71t-87.5 -35q-59 0 -99 52z" />
    <glyph glyph-name="six.denom" horiz-adv-x="286" 
d="M173 330l30 -43q-63 -38 -92 -83q12 7 32 7q62 0 87.5 -34.5t25.5 -76.5q0 -21 -8 -43t-35 -43t-70 -21q-32 0 -56 11.5t-35 29.5t-16 34.5t-5 31.5q-2 149 142 230zM143 48q25 0 39.5 16.5t14.5 38.5t-14 38t-40 16q-25 0 -38.5 -15.5t-14.5 -38.5q0 -22 14 -38.5
t39 -16.5z" />
    <glyph glyph-name="seven.denom" horiz-adv-x="242" 
d="M20 269v54h202v-16l-126 -307h-63l110 269h-123z" />
    <glyph glyph-name="eight.denom" horiz-adv-x="270" 
d="M204 159q36 -27 36 -74q0 -34 -24 -63.5t-81 -29.5t-81 29.5t-24 63.5q0 47 36 74q-36 27 -36 74q0 34 24 63.5t81 29.5t81 -29.5t24 -63.5q0 -47 -36 -74zM135 42q19 0 33 11.5t14 31.5q0 21 -14 32.5t-33 11.5t-33 -11.5t-14 -32.5q0 -20 14 -31.5t33 -11.5zM135 189
q19 0 33 11.5t14 32.5q0 20 -14 31.5t-33 11.5t-33 -11.5t-14 -31.5q0 -21 14 -32.5t33 -11.5z" />
    <glyph glyph-name="nine.denom" horiz-adv-x="286" 
d="M113 -11l-30 43q63 38 92 83q-12 -7 -32 -7q-62 0 -87.5 34.5t-25.5 76.5q0 21 8 43t35 43t70 21q32 0 56 -11.5t35 -29.5t16 -34.5t5 -31.5q2 -149 -142 -230zM143 271q-25 0 -39.5 -16.5t-14.5 -38.5t14 -38t40 -16q25 0 38.5 15.5t14.5 38.5q0 22 -14 38.5t-39 16.5z
" />
    <glyph glyph-name="zero.num" horiz-adv-x="312" 
d="M156 703q34 0 60 -15.5t39.5 -41t20 -52.5t6.5 -54q0 -39 -10.5 -73.5t-40.5 -62t-75 -27.5t-75 27.5t-40.5 62t-10.5 73.5q0 27 6.5 54t20 52.5t39.5 41t60 15.5zM156 429q20 0 34 13t20.5 32.5t9 35.5t2.5 30q0 20 -4 42t-20 45.5t-42 23.5t-42 -23.5t-20 -45.5t-4 -42
q0 -14 2.5 -30t9 -35.5t20.5 -32.5t34 -13z" />
    <glyph glyph-name="one.num" horiz-adv-x="206" 
d="M156 701v-324h-61v230l-48 -28l-27 43l111 79h25z" />
    <glyph glyph-name="two.num" horiz-adv-x="262" 
d="M60 610l-37 38q51 55 109 55q46 0 73 -27.5t27 -67.5q0 -43 -39 -89l-73 -86h104v-56h-204v25l128 153q26 32 26 57q0 15 -9.5 26.5t-31.5 11.5q-30 0 -73 -40z" />
    <glyph glyph-name="three.num" horiz-adv-x="258" 
d="M228 608q0 -45 -32 -73q32 -27 32 -72q0 -36 -25 -66t-83 -30q-51 0 -100 44l32 35q31 -31 68 -31q23 0 38.5 12.5t15.5 35.5t-15.5 36t-38.5 13h-43v47h43q23 0 38.5 13t15.5 36t-16 35.5t-38 12.5q-35 0 -68 -31l-32 35q51 44 100 44q58 0 83 -30.5t25 -65.5z" />
    <glyph glyph-name="four.num" horiz-adv-x="283" 
d="M214 440v-63h-61v63h-133v35l145 225h49v-204h49v-56h-49zM153 580l-54 -84h54v84z" />
    <glyph glyph-name="five.num" horiz-adv-x="274" 
d="M30 426l39 37q27 -35 61 -35q25 0 39.5 16.5t14.5 38.5t-14.5 38t-40.5 16h-77v163h169v-54h-108v-56h16q62 0 88.5 -34t26.5 -76q0 -36 -27.5 -71t-87.5 -35q-59 0 -99 52z" />
    <glyph glyph-name="six.num" horiz-adv-x="286" 
d="M173 707l30 -43q-63 -38 -92 -83q12 7 32 7q62 0 87.5 -34.5t25.5 -76.5q0 -21 -8 -43t-35 -43t-70 -21q-32 0 -56 11.5t-35 29.5t-16 34.5t-5 31.5q-2 149 142 230zM143 425q25 0 39.5 16.5t14.5 38.5t-14 38t-40 16q-25 0 -38.5 -15.5t-14.5 -38.5q0 -22 14 -38.5
t39 -16.5z" />
    <glyph glyph-name="seven.num" horiz-adv-x="242" 
d="M20 646v54h202v-16l-126 -307h-63l110 269h-123z" />
    <glyph glyph-name="eight.num" horiz-adv-x="274" 
d="M204 539q36 -27 36 -74q0 -34 -24 -63.5t-81 -29.5t-81 29.5t-24 63.5q0 47 36 74q-36 27 -36 74q0 34 24 63.5t81 29.5t81 -29.5t24 -63.5q0 -47 -36 -74zM135 422q19 0 33 11.5t14 31.5q0 21 -14 32.5t-33 11.5t-33 -11.5t-14 -32.5q0 -20 14 -31.5t33 -11.5zM135 569
q19 0 33 11.5t14 32.5q0 20 -14 31.5t-33 11.5t-33 -11.5t-14 -31.5q0 -21 14 -32.5t33 -11.5z" />
    <glyph glyph-name="nine.num" horiz-adv-x="286" 
d="M113 366l-30 43q63 38 92 83q-12 -7 -32 -7q-62 0 -87.5 34.5t-25.5 76.5q0 21 8 43t35 43t70 21q32 0 56 -11.5t35 -29.5t16 -34.5t5 -31.5q2 -149 -142 -230zM143 648q-25 0 -39.5 -16.5t-14.5 -38.5t14 -38t40 -16q25 0 38.5 15.5t14.5 38.5q0 22 -14 38.5t-39 16.5z
" />
    <glyph glyph-name="numbersign.oldstyle" horiz-adv-x="572" 
d="M60 388h88v112h75v-112h125v112h75v-112h89v-75h-89v-125h89v-75h-89v-113h-75v113h-125v-113h-75v113h-88v75h88v125h-88v75zM223 313v-125h125v125h-125z" />
    <glyph glyph-name="dollar.oldstyle" horiz-adv-x="492" 
d="M270 -91h-59v85q-78 7 -151 48l35 74q59 -32 116 -39v143q-33 10 -53 19t-44 25t-35 41.5t-11 59.5q1 62 39.5 99.5t103.5 42.5v78h59v-80q72 -8 140 -42l-35 -76q-58 25 -105 32v-123q36 -12 58 -21.5t49.5 -27.5t41 -46t13.5 -66q0 -60 -45 -98.5t-117 -43.5v-84z
M329 134q0 42 -59 66v-123q26 5 42.5 20.5t16.5 36.5zM163 369q0 -32 48 -52v100q-47 -10 -48 -48z" />
    <glyph glyph-name="zero.ftd" horiz-adv-x="678" 
d="M339 680q57 0 103 -22.5t74.5 -57.5t47.5 -81.5t26.5 -91t7.5 -89.5q0 -46 -7.5 -91t-26.5 -91.5t-47.5 -81.5t-74.5 -57t-103 -22t-103 22t-74.5 57t-47.5 81.5t-26.5 91.5t-7.5 91q0 45 7.5 89.5t26.5 91t47.5 81.5t74.5 57.5t103 22.5zM339 77q49 0 84 30.5t50 77
t21 84t6 69.5q0 24 -3 52.5t-13.5 67t-27 68.5t-47 51t-70.5 21t-70.5 -21t-47 -51t-27 -68.5t-13.5 -67t-3 -52.5q0 -32 6 -69.5t21 -84t50 -77t84 -30.5z" />
    <glyph glyph-name="one.ftd" horiz-adv-x="500" 
d="M86 0v85h131v433l-114 -70l-43 64l230 164h27v-591h123v-85h-354z" />
    <glyph glyph-name="two.ftd" horiz-adv-x="574" 
d="M121 522l-57 59q94 104 215 104q97 0 154.5 -54.5t49.5 -156.5q-5 -66 -83 -166l-175 -218h239v-90h-411l-3 8l278 356q54 63 59 114q9 48 -15.5 86t-91.5 38q-76 0 -159 -80z" />
    <glyph glyph-name="three.ftd" horiz-adv-x="556" 
d="M401 337q40 -29 57.5 -71t17.5 -83q0 -30 -10 -60.5t-32 -62t-67.5 -51t-108.5 -19.5q-47 0 -88.5 14.5t-63 29.5t-46.5 38l52 61q27 -25 68.5 -44t77.5 -19q52 0 88 29.5t36 83.5q0 55 -36 84.5t-88 29.5h-82v80h82q52 0 88 29.5t36 84.5q0 54 -36 83.5t-88 29.5
q-36 0 -77.5 -19t-68.5 -44l-52 61q25 23 46.5 38t63 29.5t88.5 14.5q63 0 108.5 -19.5t67.5 -51t32 -62t10 -60.5q0 -41 -17.5 -83t-57.5 -71z" />
    <glyph glyph-name="four.ftd" horiz-adv-x="621" 
d="M453 139v-139h-102v139h-291v54l312 482h81v-450h108v-86h-108zM350 488l-167 -263h168v263h-1z" />
    <glyph glyph-name="five.ftd" horiz-adv-x="590" 
d="M80 88l62 58q55 -69 133 -69q63 0 100.5 41.5t37.5 96.5t-37 95.5t-102 40.5h-153v324h337v-86h-237v-157h53q67 0 116 -21.5t73.5 -57t35.5 -71.5t11 -73q0 -23 -6 -49.5t-23 -57t-42.5 -54.5t-68 -40t-96.5 -16q-120 0 -194 96z" />
    <glyph glyph-name="six.ftd" horiz-adv-x="644" 
d="M382 692l45 -67q-86 -51 -139.5 -111.5t-73.5 -115.5q15 15 48.5 26.5t59.5 11.5q67 0 115.5 -22.5t72.5 -59t34 -71.5t10 -71q0 -23 -6 -48.5t-22 -56.5t-41 -55.5t-67 -41t-96 -16.5t-96 16t-66.5 40t-40.5 55t-22 57t-6 50q-1 94 24 174t70.5 138t93 97.5t103.5 70.5z
M322 80q63 0 99 41t36 97q0 55 -35.5 95.5t-99.5 40.5q-63 0 -97.5 -39.5t-36.5 -96.5q0 -56 35.5 -97t98.5 -41z" />
    <glyph glyph-name="seven.ftd" horiz-adv-x="511" 
d="M50 589v86h411v-17l-272 -658h-102l242 589h-279z" />
    <glyph glyph-name="eight.ftd" horiz-adv-x="596" 
d="M441 337q40 -29 57.5 -71t17.5 -83q0 -30 -10 -60.5t-32 -62t-67.5 -51t-108.5 -19.5t-108.5 19.5t-67.5 51t-32 62t-10 60.5q0 40 18 82.5t57 71.5q-39 29 -57 71.5t-18 82.5q0 30 10 60.5t32 62t67.5 51t108.5 19.5t108.5 -19.5t67.5 -51t32 -62t10 -60.5
q0 -41 -17.5 -83t-57.5 -71zM298 70q52 0 88 29.5t36 83.5q0 55 -36 84.5t-88 29.5t-88 -29.5t-36 -84.5q0 -54 36 -83.5t88 -29.5zM298 377q52 0 88 29.5t36 84.5q0 54 -36 83.5t-88 29.5t-88 -29.5t-36 -83.5q0 -55 36 -84.5t88 -29.5z" />
    <glyph glyph-name="nine.ftd" horiz-adv-x="644" 
d="M262 -16l-45 67q86 51 139.5 111.5t73.5 115.5q-15 -15 -48.5 -26.5t-59.5 -11.5q-67 0 -115.5 22.5t-72.5 59t-34 71.5t-10 71q0 23 6 48.5t22 56.5t41 55.5t67 41t96 16.5t96 -16t66.5 -40t40.5 -55t22 -57t6 -50q1 -94 -24 -174t-70.5 -138t-93 -97.5t-103.5 -70.5z
M322 596q-63 0 -99 -41t-36 -97q0 -55 35.5 -95.5t99.5 -40.5q63 0 97.5 39.5t36.5 96.5q0 56 -35.5 97t-98.5 41z" />
    <glyph glyph-name="cent.oldstyle" horiz-adv-x="558" 
d="M341 -106h-69v98q-49 5 -87 23.5t-61 44.5t-38 60.5t-20.5 66.5t-5.5 67q0 40 10.5 79.5t33.5 78t66.5 65.5t101.5 34v85h69v-85q90 -9 157 -85l-67 -61q-45 45 -90 54v-336q56 13 93 54l57 -64q-67 -71 -150 -81v-98zM160 254q0 -60 29.5 -109t82.5 -62v335
q-49 -13 -80.5 -56.5t-31.5 -107.5z" />
    <glyph glyph-name="g.alt" 
d="M309 -9q-68 0 -119 25t-78 65.5t-39.5 83t-12.5 85.5q0 34 7.5 68t25.5 69t44.5 61.5t70 43t96.5 16.5q89 0 151 -59l17 51h60v-480q0 -31 -4 -59t-18 -64t-37.5 -61.5t-67.5 -43.5t-103 -18q-113 0 -220 90l52 62q79 -68 164 -68q134 0 134 153v12q-49 -32 -123 -32z
M309 425q-46 0 -78.5 -20.5t-46.5 -51.5t-19.5 -56t-5.5 -47q0 -24 6.5 -50t22.5 -56t49.5 -49.5t79.5 -19.5q69 0 115 35v248q-40 67 -123 67z" />
    <glyph glyph-name="gcircumflex.alt" 
d="M152 641l154 115l154 -115l-36 -53l-118 72l-118 -72zM309 -9q-68 0 -119 25t-78 65.5t-39.5 83t-12.5 85.5q0 34 7.5 68t25.5 69t44.5 61.5t70 43t96.5 16.5q89 0 151 -59l17 51h60v-480q0 -31 -4 -59t-18 -64t-37.5 -61.5t-67.5 -43.5t-103 -18q-113 0 -220 90l52 62
q79 -68 164 -68q134 0 134 153v12q-49 -32 -123 -32zM309 425q-46 0 -78.5 -20.5t-46.5 -51.5t-19.5 -56t-5.5 -47q0 -24 6.5 -50t22.5 -56t49.5 -49.5t79.5 -19.5q69 0 115 35v248q-40 67 -123 67z" />
    <glyph glyph-name="gbreve.alt" 
d="M379 730l68 -20q-13 -54 -51 -86t-88 -32q-49 0 -87 32t-51 86l67 20q7 -32 26 -49.5t45 -17.5q27 0 46 17.5t25 49.5zM309 -9q-68 0 -119 25t-78 65.5t-39.5 83t-12.5 85.5q0 34 7.5 68t25.5 69t44.5 61.5t70 43t96.5 16.5q89 0 151 -59l17 51h60v-480q0 -31 -4 -59
t-18 -64t-37.5 -61.5t-67.5 -43.5t-103 -18q-113 0 -220 90l52 62q79 -68 164 -68q134 0 134 153v12q-49 -32 -123 -32zM309 425q-46 0 -78.5 -20.5t-46.5 -51.5t-19.5 -56t-5.5 -47q0 -24 6.5 -50t22.5 -56t49.5 -49.5t79.5 -19.5q69 0 115 35v248q-40 67 -123 67z" />
    <glyph glyph-name="gdotaccent.alt" 
d="M246 652q0 25 17 42.5t42 17.5t42.5 -17.5t17.5 -42.5t-17.5 -42t-42.5 -17t-42 16.5t-17 42.5zM309 -9q-68 0 -119 25t-78 65.5t-39.5 83t-12.5 85.5q0 34 7.5 68t25.5 69t44.5 61.5t70 43t96.5 16.5q89 0 151 -59l17 51h60v-480q0 -31 -4 -59t-18 -64t-37.5 -61.5
t-67.5 -43.5t-103 -18q-113 0 -220 90l52 62q79 -68 164 -68q134 0 134 153v12q-49 -32 -123 -32zM309 425q-46 0 -78.5 -20.5t-46.5 -51.5t-19.5 -56t-5.5 -47q0 -24 6.5 -50t22.5 -56t49.5 -49.5t79.5 -19.5q69 0 115 35v248q-40 67 -123 67z" />
    <glyph glyph-name="gcommaaccent.alt" 
d="M317 870l50 -24q-47 -85 -54 -131q25 -2 42 -21t17 -45q0 -28 -18.5 -46.5t-46.5 -18.5q-38 0 -55.5 21t-17.5 52q0 73 83 213zM309 -9q-68 0 -119 25t-78 65.5t-39.5 83t-12.5 85.5q0 34 7.5 68t25.5 69t44.5 61.5t70 43t96.5 16.5q89 0 151 -59l17 51h60v-480
q0 -31 -4 -59t-18 -64t-37.5 -61.5t-67.5 -43.5t-103 -18q-113 0 -220 90l52 62q79 -68 164 -68q134 0 134 153v12q-49 -32 -123 -32zM309 425q-46 0 -78.5 -20.5t-46.5 -51.5t-19.5 -56t-5.5 -47q0 -24 6.5 -50t22.5 -56t49.5 -49.5t79.5 -19.5q69 0 115 35v248
q-40 67 -123 67z" />
    <glyph glyph-name="ampersand.alt1" horiz-adv-x="752" 
d="M300 86q67 0 127 40l-56 41q-66 45 -96 86t-30 90q0 36 16.5 68t51.5 44q-37 30 -37 93q0 72 52 117t125 45q115 0 172 -73.5t57 -179.5q0 -183 -108 -319l118 -86l-57 -72l-127 88q-96 -77 -206 -77q-206 0 -206 209v317q-1 32 -15.5 44.5t-50.5 13.5v84q21 4 38 4
q127 0 127 -146v-329q0 -46 30 -74t75 -28zM418 250l77 -56q86 112 86 262q0 67 -30.5 114.5t-91.5 47.5q-38 0 -59.5 -22t-21.5 -53q0 -26 14 -42t40 -16h47v-87h-71q-29 0 -45.5 -16t-16.5 -37q0 -26 16 -46t56 -49z" />
    <glyph glyph-name="T_L" horiz-adv-x="585" 
d="M144 700h104v-123l202 75v-76l-202 -73v-53l202 74v-76l-202 -73v-278q86 19 139.5 80t63.5 152h94q-11 -153 -113 -243.5t-235 -90.5q-27 0 -53 3v340l-124 -45v73l124 45v54l-124 -44v73l124 45v161z" />
    </font>
</defs>
</svg>
