<?xml version="1.0" standalone="no"?>
<!DOCTYPE svg PUBLIC "-//W3C//DTD SVG 1.1//EN" "http://www.w3.org/Graphics/SVG/1.1/DTD/svg11.dtd" >
<svg xmlns="http://www.w3.org/2000/svg" xmlns:xlink="http://www.w3.org/1999/xlink" version="1.1">
<metadata>
Created by FontForge 20150318 at Thu Sep 24 08:46:49 2015
 By uniteet7
Copyright (c) 2012 by Ahmet Altun. All rights reserved.
</metadata>
<defs>
<font id="HalisGrotesqueBold" horiz-adv-x="585" >
  <font-face 
    font-family="HalisGrotesqueBold"
    font-weight="700"
    font-stretch="normal"
    units-per-em="1000"
    panose-1="2 0 5 5 3 0 0 2 0 4"
    ascent="800"
    descent="-200"
    x-height="500"
    cap-height="700"
    bbox="-190 -342 1213 994"
    underline-thickness="50"
    underline-position="-80"
    unicode-range="U+0020-FB04"
  />
<missing-glyph horiz-adv-x="490" 
d="M460 650v-600h-430v600h430zM210 209q0 -12 9 -21t22 -9q12 0 20.5 9t8.5 21t-8.5 20t-20.5 8q-13 0 -22 -8t-9 -20zM262 267v28q0 13 18 33.5t36.5 47t18.5 54.5q0 39 -24.5 60.5t-62.5 21.5q-55 0 -104 -52l29 -28q35 37 65 38q47 2 47 -41q0 -29 -34 -67t-34 -65v-30
h45z" />
    <glyph glyph-name="f_f" unicode="ff" horiz-adv-x="670" 
d="M680 671l-40 -107q-54 22 -96 22q-22 0 -37 -12.5t-15 -40.5v-33h93v-117h-93v-383h-136v383h-158v-383h-136v383h-52v117h52v37q0 87 50 128.5t129 41.5q78 0 166 -43q49 43 129 43q71 0 144 -36zM198 541v-41h158v37q0 19 3 37q-48 26 -89 26q-72 0 -72 -59z" />
    <glyph glyph-name="fi" unicode="fi" horiz-adv-x="590" 
d="M510 500v-500h-136v383h-176v-383h-136v383h-52v117h52v37q0 83 50.5 126.5t129.5 43.5q71 0 144 -36l-40 -107q-54 22 -96 22q-22 0 -37 -12.5t-15 -40.5v-33h312z" />
    <glyph glyph-name="fl" unicode="fl" horiz-adv-x="598" 
d="M518 700v-700h-135v539q-12 24 -47.5 41.5t-71.5 17.5q-66 0 -66 -57v-41h106v-117h-106v-383h-136v383h-52v117h52v37q0 85 49 128.5t122 43.5q96 0 173 -63l14 54h98z" />
    <glyph glyph-name="f_f_i" unicode="ffi" horiz-adv-x="881" 
d="M680 671l-40 -107q-54 22 -96 22q-22 0 -37 -12.5t-15 -40.5v-33h309v-500h-136v383h-173v-383h-136v383h-158v-383h-136v383h-52v117h52v37q0 87 50 128.5t129 41.5q78 0 166 -43q49 43 129 43q71 0 144 -36zM198 541v-41h158v37q0 19 3 37q-48 26 -89 26q-72 0 -72 -59
z" />
    <glyph glyph-name="f_f_l" unicode="ffl" horiz-adv-x="892" 
d="M198 383v-383h-136v383h-52v117h52v37q0 87 50 128.5t129 41.5q75 0 164 -42q45 44 122 44q96 0 173 -63l14 54h98v-700h-135v539q-12 24 -47.5 41.5t-71.5 17.5q-66 0 -66 -57v-41h115v-117h-115v-383h-136v383h-158zM198 541v-41h158v37q0 19 3 37q-44 26 -89 26
q-72 0 -72 -59z" />
    <glyph glyph-name="f_h" unicode="fh" horiz-adv-x="960" 
d="M386 671l-40 -107q-54 22 -96 22q-22 0 -37 -12.5t-15 -40.5v-33h93v-117h-93v-383h-136v383h-52v117h52v37q0 83 50.5 126.5t129.5 43.5q71 0 144 -36zM591 0h-135v700h135v-218q43 26 96 26q55 0 95.5 -15t62.5 -38t35 -58.5t16.5 -66.5t3.5 -72v-258h-135v258
q0 59 -18.5 94t-76.5 34q-53 -2 -79 -38v-348z" />
    <glyph glyph-name="f_j" unicode="fj" horiz-adv-x="595" 
d="M515 500v-513q0 -18 -2 -36.5t-12.5 -48t-28 -51t-52.5 -38t-83 -16.5q-46 0 -91 19t-66 40l57 87q49 -28 84 -28q58 0 58 75v393h-181v-383h-136v383h-52v117h52v37q0 83 50.5 126.5t129.5 43.5q71 0 144 -36l-40 -107q-54 22 -96 22q-22 0 -37 -12.5t-15 -40.5v-33h317
z" />
    <glyph glyph-name="f_k" unicode="fk" horiz-adv-x="903" 
d="M723 0l-205 224v-224h-135v539q-12 24 -47.5 41.5t-71.5 17.5q-66 0 -66 -57v-41h99v-117h-99v-383h-136v383h-52v117h52v37q0 85 49 128.5t122 43.5q96 0 173 -63l14 54h98v-415l191 215h144l2 -8l-205 -232l223 -252l-3 -8h-147z" />
    <glyph glyph-name="f_b" unicode="fb" horiz-adv-x="917" 
d="M518 700v-208q37 17 90 17q58 0 103 -16.5t72 -42.5t44 -61.5t23.5 -69t6.5 -69.5q0 -44 -12 -86.5t-37.5 -82.5t-74.5 -65t-115 -25q-32 0 -71 12.5t-60 31.5l-11 -35h-93v538q-11 24 -47 42t-72 18q-29 0 -47.5 -14.5t-18.5 -43.5v-41h99v-117h-99v-383h-136v383h-52
v117h52v37q0 85 49 128.5t122 43.5q96 0 173 -63l14 55h98zM608 113q36 0 61 15t35.5 39t14.5 43.5t4 39.5q0 23 -4.5 43t-16 43.5t-38 37.5t-64.5 14q-45 0 -82 -24v-212q11 -15 36 -27t54 -12z" />
    <glyph glyph-name="f_f_b" unicode="ffb" horiz-adv-x="1211" 
d="M198 383v-383h-136v383h-52v117h52v37q0 87 50 128.5t129 41.5q75 0 164 -42q45 44 122 44q96 0 173 -63l14 54h98v-208q37 17 90 17q58 0 103 -16.5t72 -42.5t44 -61.5t23.5 -69t6.5 -69.5q0 -44 -12 -86.5t-37.5 -82.5t-74.5 -65t-115 -25q-32 0 -71 12.5t-60 31.5
l-11 -35h-93v539q-12 24 -47.5 41.5t-71.5 17.5q-66 0 -66 -57v-41h115v-117h-115v-383h-136v383h-158zM902 113q36 0 61 15t35.5 39t14.5 43.5t4 39.5q0 23 -4.5 43t-16 43.5t-38 37.5t-64.5 14q-45 0 -82 -24v-212q11 -15 36 -27t54 -12zM198 541v-41h158v37q0 19 3 37
q-44 26 -89 26q-72 0 -72 -59z" />
    <glyph glyph-name="f_f_h" unicode="ffh" horiz-adv-x="1181" 
d="M198 383v-383h-136v383h-52v117h52v37q0 87 50 128.5t129 41.5q75 0 164 -42q45 44 122 44q96 0 173 -63l14 54h98v-218q43 26 96 26q55 0 95.5 -15t62.5 -38t35 -58.5t16.5 -66.5t3.5 -72v-258h-135v258q0 59 -18.5 94t-76.5 34q-53 -2 -79 -38v-348h-135v539
q-12 24 -47.5 41.5t-71.5 17.5q-66 0 -66 -57v-41h115v-117h-115v-383h-136v383h-158zM198 541v-41h158v37q0 19 3 37q-44 26 -89 26q-72 0 -72 -59z" />
    <glyph glyph-name="f_f_j" unicode="ffj" horiz-adv-x="881" 
d="M680 671l-40 -107q-54 22 -96 22q-22 0 -37 -12.5t-15 -40.5v-33h309v-513q0 -18 -2 -36.5t-12.5 -48t-28 -51t-52.5 -38t-83 -16.5q-46 0 -91 19t-66 40l57 87q49 -28 84 -28q58 0 58 75v393h-173v-383h-136v383h-158v-383h-136v383h-52v117h52v37q0 87 50 128.5
t129 41.5q78 0 166 -43q49 43 129 43q71 0 144 -36zM198 541v-41h158v37q0 19 3 37q-48 26 -89 26q-72 0 -72 -59z" />
    <glyph glyph-name="f_f_k" unicode="ffk" horiz-adv-x="1198" 
d="M198 383v-383h-136v383h-52v117h52v37q0 87 50 128.5t129 41.5q75 0 164 -42q45 44 122 44q96 0 173 -63l14 54h98v-415l191 215h144l4 -9l-207 -231l224 -251l-4 -9h-147l-205 224v-224h-135v539q-12 24 -47.5 41.5t-71.5 17.5q-66 0 -66 -57v-41h115v-117h-115v-383
h-136v383h-158zM198 541v-41h158v37q0 19 3 37q-44 26 -89 26q-72 0 -72 -59z" />
    <glyph glyph-name=".notdef" horiz-adv-x="490" 
d="M460 650v-600h-430v600h430zM210 209q0 -12 9 -21t22 -9q12 0 20.5 9t8.5 21t-8.5 20t-20.5 8q-13 0 -22 -8t-9 -20zM262 267v28q0 13 18 33.5t36.5 47t18.5 54.5q0 39 -24.5 60.5t-62.5 21.5q-55 0 -104 -52l29 -28q35 37 65 38q47 2 47 -41q0 -29 -34 -67t-34 -65v-30
h45z" />
    <glyph glyph-name=".null" horiz-adv-x="0" 
 />
    <glyph glyph-name="nonmarkingreturn" horiz-adv-x="333" 
 />
    <glyph glyph-name="space" unicode=" " horiz-adv-x="300" 
 />
    <glyph glyph-name="exclam" unicode="!" horiz-adv-x="352" 
d="M245 701v-281l-19 -212h-98l-19 212v281h136zM100 69q0 33 21.5 55t54.5 22q32 0 54 -22t22 -55q0 -32 -22 -54.5t-54 -22.5q-33 0 -54.5 22.5t-21.5 54.5z" />
    <glyph glyph-name="quotedbl" unicode="&#x22;" horiz-adv-x="430" 
d="M390 702l-24 -255h-92l-24 255h140zM180 702l-24 -255h-92l-24 255h140z" />
    <glyph glyph-name="numbersign" unicode="#" horiz-adv-x="575" 
d="M60 397h80v103h111v-103h73v103h111v-103h80v-110h-80v-74h80v-109h-80v-104h-111v104h-73v-104h-111v104h-80v109h80v74h-80v110zM251 287v-74h73v74h-73z" />
    <glyph glyph-name="dollar" unicode="$" horiz-adv-x="642" 
d="M214 512q1 -18 10.5 -31t32 -23.5t39 -16.5t52.5 -16q42 -12 66 -20.5t60.5 -28t56.5 -41.5t35.5 -59t15.5 -83q0 -76 -58.5 -131t-151.5 -67v-92h-102v92q-108 10 -214 68l59 117q119 -57 205 -57q48 0 82 19.5t34 51.5q0 18 -8.5 33t-19 24.5t-34 19.5t-37 14.5
t-45.5 14.5q-9 3 -13 4q-38 11 -60.5 19.5t-54 25.5t-49 36.5t-30.5 51t-13 70.5q0 87 54.5 140.5t143.5 61.5v90h102v-95q93 -15 182 -57l-54 -121q-44 18 -98.5 34t-80.5 16q-49 0 -77 -13.5t-30 -50.5z" />
    <glyph glyph-name="percent" unicode="%" horiz-adv-x="854" 
d="M189 706q43 0 75 -16t49 -42t25 -53t8 -54t-8 -54t-25 -52.5t-49 -41t-75 -15.5q-83 0 -121 50.5t-38 112.5q0 28 8 54.5t25 52.5t49.5 42t76.5 16zM189 486q25 0 34 18t9 37q0 11 -2.5 22t-13 22.5t-27.5 11.5q-18 0 -29 -11.5t-13.5 -22.5t-2.5 -22t2.5 -21.5t13.5 -22
t29 -11.5zM604 700l-232 -700h-119l233 700h118zM667 323q43 0 75 -16t49 -42t25 -53t8 -54t-8 -54t-25 -52.5t-49 -41t-75 -15.5t-75.5 15.5t-49.5 41t-25 52.5t-8 54q0 28 8 54.5t25 52.5t49.5 42t75.5 16zM667 103q25 0 34.5 18.5t9.5 36.5q0 11 -2.5 22t-13.5 22.5
t-28 11.5q-18 0 -29 -11.5t-13.5 -22.5t-2.5 -22q0 -10 2.5 -21t13.5 -22.5t29 -11.5z" />
    <glyph glyph-name="ampersand" unicode="&#x26;" horiz-adv-x="719" 
d="M298 450q57 42 57 90q0 23 -13.5 39.5t-38.5 16.5q-29 0 -41.5 -18.5t-12.5 -38.5q0 -40 49 -89zM211 207q0 -41 29.5 -66t69.5 -25q60 0 99 33l-131 141q-66 -46 -67 -83zM481 541q0 -99 -101 -179l101 -108q25 58 34 114l114 -22q-9 -102 -57 -191l87 -92l-88 -82
l-76 78q-75 -66 -192 -66q-96 2 -159.5 64t-63.5 144q0 63 28.5 105.5t80.5 76.5q-2 2 -5 5.5t-4 4.5q-56 63 -56 145q0 69 47 121t136 52q84 0 129 -50.5t45 -119.5z" />
    <glyph glyph-name="quotesingle" unicode="'" horiz-adv-x="220" 
d="M180 702l-24 -255h-92l-24 255h140z" />
    <glyph glyph-name="parenleft" unicode="(" horiz-adv-x="320" 
d="M30 294q0 256 168 497l92 -56q-125 -230 -125 -440q0 -217 125 -447l-92 -55q-168 238 -168 501z" />
    <glyph glyph-name="parenright" unicode=")" horiz-adv-x="320" 
d="M290 294q0 -263 -168 -501l-92 55q125 230 125 447q0 210 -125 440l92 56q168 -241 168 -497z" />
    <glyph glyph-name="asterisk" unicode="*" horiz-adv-x="480" 
d="M197 333l-5 100l-89 -45l-43 74l83 55l-83 54l43 74l89 -45l5 100h86l5 -100l89 45l43 -74l-84 -54l84 -55l-43 -74l-89 45l-5 -100h-86z" />
    <glyph glyph-name="plus" unicode="+" horiz-adv-x="558" 
d="M222 140v142h-142v113h142v142h114v-142h142v-113h-142v-142h-114z" />
    <glyph glyph-name="comma" unicode="," horiz-adv-x="332" 
d="M150 -168l-70 34q37 63 56 128q-54 17 -54 78q0 35 23 58.5t58 23.5q46 0 67.5 -26t21.5 -64q0 -45 -34 -117.5t-68 -114.5z" />
    <glyph glyph-name="hyphen" unicode="-" horiz-adv-x="446" 
d="M80 353h286v-115h-286v115z" />
    <glyph glyph-name="period" unicode="." horiz-adv-x="327" 
d="M80 77q0 35 25 59.5t59 24.5q35 0 59 -24.5t24 -59.5t-24.5 -59t-58.5 -24t-59 24.5t-25 58.5z" />
    <glyph glyph-name="slash" unicode="/" horiz-adv-x="411" 
d="M381 700l-232 -700h-119l233 700h118z" />
    <glyph glyph-name="zero" unicode="0" horiz-adv-x="646" 
d="M322 683q72 0 126 -33.5t82.5 -87.5t42 -110t13.5 -113q0 -46 -8 -91t-27 -92t-48.5 -82t-76 -57.5t-104.5 -22.5t-104.5 22.5t-75 57.5t-48 82t-27 92t-7.5 91q0 57 13.5 113t41.5 110t82 87.5t125 33.5zM322 115q39 0 66.5 26.5t39.5 66.5t16.5 72t4.5 59t-4.5 58.5
t-16.5 71.5t-39.5 66t-66.5 26q-38 0 -65.5 -26t-39.5 -66t-17 -71.5t-5 -58.5t5 -59t17 -72t39.5 -66.5t65.5 -26.5z" />
    <glyph glyph-name="one" unicode="1" horiz-adv-x="417" 
d="M327 678v-678h-136v473l-93 -52l-58 92l238 165h49z" />
    <glyph glyph-name="two" unicode="2" horiz-adv-x="538" 
d="M121 480l-81 86q108 118 227 118q94 0 152.5 -50.5t58.5 -145.5q0 -73 -83 -187l-128 -174h193v-127h-427l-3 7l265 374q51 72 51 111q0 30 -18.5 50.5t-59.5 20.5q-61 0 -147 -83z" />
    <glyph glyph-name="three" unicode="3" horiz-adv-x="536" 
d="M476 487q0 -43 -19 -84t-52 -64q36 -21 53.5 -61.5t17.5 -83.5q0 -31 -10 -62t-32.5 -63.5t-69 -53t-110.5 -20.5q-112 0 -214 95l77 91q28 -27 67.5 -47.5t69.5 -20.5q38 0 64.5 21t26.5 60q0 40 -27 63.5t-64 23.5h-99v118h99q37 0 64 24t27 64q0 39 -26.5 60t-64.5 21
q-29 0 -68.5 -20.5t-68.5 -47.5l-77 91q102 95 214 95q64 0 110.5 -20.5t69 -53t32.5 -63.5t10 -62z" />
    <glyph glyph-name="four" unicode="4" horiz-adv-x="555" 
d="M437 133v-133h-139v133h-268v78l299 464h108v-418h88v-124h-88zM298 404l-92 -147h92v147z" />
    <glyph glyph-name="five" unicode="5" horiz-adv-x="567" 
d="M60 108l91 81q58 -73 119 -73q48 0 76 31t28 73q0 41 -28 70.5t-77 29.5h-171v359h366v-123h-224v-119h29q68 0 117.5 -21.5t74 -56.5t35.5 -70.5t11 -73.5q0 -24 -6 -51t-23 -58t-42.5 -55t-69 -40.5t-97.5 -16.5q-120 0 -209 114z" />
    <glyph glyph-name="six" unicode="6" horiz-adv-x="586" 
d="M356 688l65 -99q-105 -56 -177 -157q26 12 69 12q62 -3 106 -26t66 -58.5t31.5 -70.5t9.5 -73q0 -23 -5.5 -49.5t-22 -58t-41 -56.5t-67 -41.5t-96.5 -16.5t-97 17.5t-67.5 43.5t-41 59t-22 60t-5.5 51q0 87 26 163.5t71 133t93.5 96.5t104.5 70zM294 118q46 0 73 30.5
t27 72.5t-26.5 72t-73.5 30t-73 -29.5t-28 -72.5q0 -42 26.5 -72.5t74.5 -30.5z" />
    <glyph glyph-name="seven" unicode="7" horiz-adv-x="493" 
d="M30 555v123h430l3 -7l-269 -671h-141l220 555h-243z" />
    <glyph glyph-name="eight" unicode="8" horiz-adv-x="566" 
d="M506 485q0 -35 -18 -76.5t-58 -69.5q76 -45 76 -143q0 -31 -10 -62.5t-32.5 -64.5t-69.5 -54t-111 -21q-52 0 -93 14t-64.5 35.5t-39 50t-21 53t-5.5 48.5q0 43 19 84t53 61q-72 52 -72 145q0 31 10 62t32.5 63.5t69.5 53t111 20.5t111 -20.5t69.5 -53t32.5 -63.5t10 -62
zM283 112q38 0 64.5 22.5t26.5 60.5q0 40 -26.5 62.5t-64.5 22.5t-65 -22.5t-27 -62.5q0 -39 27 -61t65 -22zM283 400q38 0 64.5 22.5t26.5 62.5q0 39 -26 60t-65 21t-65.5 -21t-26.5 -60q0 -40 27 -62.5t65 -22.5z" />
    <glyph glyph-name="nine" unicode="9" horiz-adv-x="586" 
d="M230 -9l-65 99q105 56 177 157q-26 -12 -69 -12q-62 3 -106 26t-66 58.5t-31.5 70.5t-9.5 73q0 23 5.5 49.5t22 58t41 56.5t67 41.5t96.5 16.5t97 -17.5t67.5 -43.5t41 -59t22 -60t5.5 -51q0 -87 -26 -163.5t-71 -133t-93.5 -96.5t-104.5 -70zM292 561q-46 0 -73 -30.5
t-27 -72.5t26.5 -72t73.5 -30t73 29.5t28 72.5q0 42 -26.5 72.5t-74.5 30.5z" />
    <glyph glyph-name="colon" unicode=":" horiz-adv-x="327" 
d="M80 77q0 35 25 59.5t59 24.5q35 0 59 -24.5t24 -59.5t-24.5 -59t-58.5 -24t-59 24.5t-25 58.5zM80 419q0 35 25 59.5t59 24.5q35 0 59 -24.5t24 -59.5t-24.5 -59t-58.5 -24t-59 24.5t-25 58.5z" />
    <glyph glyph-name="semicolon" unicode=";" horiz-adv-x="332" 
d="M80 419q0 35 25 59.5t59 24.5q35 0 59 -24.5t24 -59.5t-24.5 -59t-58.5 -24t-59 24.5t-25 58.5zM150 -168l-70 34q37 63 56 128q-54 17 -54 78q0 35 23 58.5t58 23.5q46 0 67.5 -26t21.5 -64q0 -45 -34 -117.5t-68 -114.5z" />
    <glyph glyph-name="less" unicode="&#x3c;" horiz-adv-x="441" 
d="M222 294l189 -120l-57 -100l-324 196v48l324 195l57 -99z" />
    <glyph glyph-name="equal" unicode="=" horiz-adv-x="510" 
d="M430 389h-350v114h350v-114zM430 176h-350v112h350v-112z" />
    <glyph glyph-name="greater" unicode="&#x3e;" horiz-adv-x="441" 
d="M30 174l189 120l-189 120l57 99l324 -195v-48l-324 -196z" />
    <glyph glyph-name="question" unicode="?" horiz-adv-x="571" 
d="M355 281v-71h-127v74q0 28 10.5 54t22 40.5t33.5 40.5q20 22 29.5 35t20 35.5t10.5 43.5t-14 38.5t-51 15.5q-28 -1 -55.5 -19.5t-68.5 -59.5l-85 81q59 64 110 92.5t116 28.5q82 0 133.5 -46.5t51.5 -129.5q0 -35 -16 -72t-32 -58.5t-43 -52.5q-45 -53 -45 -70zM213 61
q0 33 22.5 55t55.5 22t55.5 -22t22.5 -55t-23 -55.5t-55 -22.5q-34 0 -56 21.5t-22 56.5z" />
    <glyph glyph-name="at" unicode="@" horiz-adv-x="1146" 
d="M580 730q229 0 367.5 -136t138.5 -345q0 -61 -14 -119t-42.5 -110t-80.5 -84t-120 -32q-84 0 -123 68q-60 -47 -141 -47q-70 0 -122 26t-80 67.5t-41 86t-13 89.5q0 46 13 90t41 86t80 67.5t122 25.5q81 0 137 -43l12 35h92v-385q2 -46 39 -46q47 0 77.5 63t30.5 157
q0 158 -100.5 259t-275.5 101q-180 0 -283.5 -114t-101.5 -307q2 -124 87.5 -236.5t257.5 -170.5l-55 -113q-206 69 -313 207t-108 313q-1 156 61.5 280t182 195.5t275.5 71.5zM672 95v198q-41 53 -102 53q-39 0 -66.5 -17.5t-39.5 -45t-17 -49.5t-5 -41t5 -41t17.5 -48.5
t40 -44t65.5 -17.5q67 0 102 53z" />
    <glyph glyph-name="A" unicode="A" horiz-adv-x="724" 
d="M30 0l327 709h10l327 -709h-157l-69 165h-212l-68 -165h-158zM362 419l-57 -137h114z" />
    <glyph glyph-name="B" unicode="B" horiz-adv-x="675" 
d="M615 491q0 -40 -24.5 -81t-61.5 -59q37 -19 61.5 -57.5t24.5 -85.5q0 -38 -12.5 -72.5t-40 -66t-78 -50.5t-119.5 -19h-265v700h265q69 0 119.5 -19t78 -51t40 -66.5t12.5 -72.5zM378 409q37 1 59.5 17.5t28 32.5t5.5 32q0 14 -5.5 30t-29 33t-61.5 17h-135v-162h138z
M375 130q38 0 61.5 16.5t29 32t5.5 29.5q0 17 -5.5 31.5t-28 28.5t-59.5 15h-138v-153h135z" />
    <glyph glyph-name="C" unicode="C" horiz-adv-x="741" 
d="M681 579l-93 -90q-29 36 -81 62.5t-99 26.5q-51 0 -90 -18.5t-59.5 -44.5t-34 -60t-17 -58.5t-3.5 -45.5t4 -45.5t17 -58t34 -59.5t60 -44.5t90 -18.5q48 0 99 23.5t89 57.5l80 -97q-118 -118 -269 -118q-77 0 -138.5 23.5t-99.5 60t-64 85t-36 96t-10 95.5q0 47 10 93.5
t36 95.5t64 86t99.5 60.5t138.5 23.5q157 0 273 -131z" />
    <glyph glyph-name="D" unicode="D" horiz-adv-x="755" 
d="M349 0h-249v700h249q76 0 137.5 -22.5t99.5 -58t63.5 -83t35.5 -93t10 -92.5q0 -48 -10 -94.5t-35.5 -93.5t-63.5 -82.5t-99 -58t-138 -22.5zM240 130h109q62 0 105.5 25.5t63 65t27 71t7.5 59.5t-7.5 59.5t-27 70.5t-63 64.5t-105.5 25.5h-109v-441z" />
    <glyph glyph-name="E" unicode="E" horiz-adv-x="636" 
d="M503 280h-262v-150h335v-130h-476v700h476v-130h-335v-160h262v-130z" />
    <glyph glyph-name="F" unicode="F" horiz-adv-x="636" 
d="M503 280h-262v-280h-141v700h476v-130h-335v-160h262v-130z" />
    <glyph glyph-name="G" unicode="G" horiz-adv-x="727" 
d="M523 245h-138v128h280v-279q-103 -103 -257 -103q-77 0 -138.5 23.5t-99.5 60t-64 85t-36 96t-10 95.5q0 47 10 93.5t36 95.5t64 86t99.5 60.5t138.5 23.5q153 0 259 -114l-87 -94q-30 32 -79 54t-93 22q-51 0 -90 -18.5t-59.5 -44t-34 -59t-17 -58t-3.5 -45.5t3.5 -46.5
t17 -60t34 -61.5t59.5 -46t90 -19q30 0 63.5 10t51.5 26v89z" />
    <glyph glyph-name="H" unicode="H" horiz-adv-x="775" 
d="M242 280v-280h-142v700h142v-290h292v290h141v-700h-141v280h-292z" />
    <glyph glyph-name="I" unicode="I" horiz-adv-x="342" 
d="M242 700v-700h-142v700h142z" />
    <glyph glyph-name="J" unicode="J" horiz-adv-x="631" 
d="M20 206l126 46q40 -126 129 -124q113 3 113 145v427h143v-427q0 -38 -6.5 -73.5t-24 -74t-45 -66.5t-74 -46.5t-106.5 -18.5q-109 0 -167.5 56.5t-87.5 155.5z" />
    <glyph glyph-name="K" unicode="K" horiz-adv-x="710" 
d="M242 0h-142v700h142v-280l247 280h155l3 -8l-293 -331l316 -354l-2 -7h-160l-266 295v-295z" />
    <glyph glyph-name="L" unicode="L" horiz-adv-x="564" 
d="M242 700v-570h262v-130h-404v700h142z" />
    <glyph glyph-name="M" unicode="M" horiz-adv-x="1012" 
d="M511 -6h-10l-194 383l-126 -377h-151l257 704h11l208 -430l208 430h11l257 -704h-151l-126 377z" />
    <glyph glyph-name="N" unicode="N" horiz-adv-x="776" 
d="M100 702l9 4l425 -403v397h142v-701l-10 -4l-424 406v-401h-142v702z" />
    <glyph glyph-name="O" unicode="O" horiz-adv-x="814" 
d="M408 712q76 0 137.5 -24t99.5 -61t63.5 -86t35.5 -96t10 -94q0 -48 -10 -95.5t-35.5 -96.5t-63.5 -86t-99.5 -60.5t-137.5 -23.5q-77 0 -138.5 23.5t-99.5 60.5t-64 86t-36 96.5t-10 95.5q0 47 10 94t36 96t64 86t99.5 61t138.5 24zM408 120q50 0 88.5 19t59 45.5
t33.5 61t17 59.5t4 46t-4 46t-17 59t-33.5 60.5t-59 45t-88.5 18.5q-51 0 -90 -18.5t-59.5 -45t-34 -60.5t-17 -59t-3.5 -46t3.5 -46t17 -59.5t34 -61t59.5 -45.5t90 -19z" />
    <glyph glyph-name="P" unicode="P" horiz-adv-x="677" 
d="M242 243v-243h-142v700h267q68 0 119.5 -22t78.5 -57.5t39.5 -72.5t12.5 -75q0 -99 -72.5 -164.5t-164.5 -65.5h-138zM376 374q53 1 76 33.5t23 65.5q0 35 -23.5 66.5t-79.5 31.5h-130v-197h134z" />
    <glyph glyph-name="Q" unicode="Q" horiz-adv-x="824" 
d="M408 710q76 0 137.5 -23.5t99.5 -60.5t63.5 -85.5t35.5 -95.5t10 -94q0 -83 -33.5 -163.5t-102.5 -132.5l158 -186v-13h-162l-115 145q-50 -10 -91 -10q-77 0 -138.5 23.5t-99.5 60t-64 85t-36 96t-10 95.5q0 47 10 93.5t36 95.5t64 86t99.5 60.5t138.5 23.5zM408 122
q50 0 88.5 18.5t59 45t33.5 60.5t17 59t4 46t-4 46t-17 58.5t-33.5 59.5t-59 44.5t-88.5 18.5q-51 0 -90 -18.5t-59.5 -44.5t-34 -60t-17 -58.5t-3.5 -45.5t3.5 -46t17 -59t34 -60.5t59.5 -45t90 -18.5z" />
    <glyph glyph-name="R" unicode="R" horiz-adv-x="675" 
d="M240 243v-243h-140v700h265q68 0 119.5 -22t78.5 -57.5t39.5 -72.5t12.5 -75q0 -73 -38 -127t-100 -81l125 -265h-154l-114 243h-94zM374 374q53 1 76 33.5t23 65.5q0 35 -23.5 66.5t-79.5 31.5h-130v-197h134z" />
    <glyph glyph-name="S" unicode="S" horiz-adv-x="642" 
d="M214 514q1 -17 10 -30t31 -24.5t37 -17.5t51 -18q35 -12 49 -17t46.5 -18.5t48 -24t38.5 -29t33.5 -37.5t18 -46.5t5.5 -58.5q-5 -87 -76 -144t-179 -57q-138 0 -271 71l62 117q119 -57 202 -57q46 0 76.5 18t35.5 49q6 35 -24 57.5t-88 40.5q-108 33 -144 53
q-104 56 -104 166q0 94 63 149t164 55q118 0 255 -64l-51 -119q-124 51 -194 51q-92 0 -95 -65z" />
    <glyph glyph-name="T" unicode="T" horiz-adv-x="613" 
d="M234 0v570h-189v130h523v-130h-191v-570h-143z" />
    <glyph glyph-name="U" unicode="U" horiz-adv-x="736" 
d="M368 122q38 0 66.5 17t42 43t20 49t6.5 41v428h143v-428q0 -47 -15 -93.5t-46 -89.5t-87.5 -69.5t-129.5 -26.5t-129.5 26.5t-87.5 69.5t-46 89.5t-15 93.5v428h142v-428q0 -18 6.5 -41t20.5 -49t42.5 -43t66.5 -17z" />
    <glyph glyph-name="V" unicode="V" horiz-adv-x="724" 
d="M358 -9l-328 709h158l174 -419l175 419h157l-328 -709h-8z" />
    <glyph glyph-name="W" unicode="W" horiz-adv-x="1091" 
d="M1061 700l-327 -704h-6l-183 379l-182 -379h-7l-326 704h158l174 -411l179 416l8 -1l180 -415l174 411h158z" />
    <glyph glyph-name="X" unicode="X" horiz-adv-x="659" 
d="M464 701h165l-222 -350l222 -351h-163l-137 226l-136 -226h-163l221 351l-221 350h165l134 -224z" />
    <glyph glyph-name="Y" unicode="Y" horiz-adv-x="677" 
d="M409 313v-313h-141v311l-238 389h156l152 -254l152 254h157z" />
    <glyph glyph-name="Z" unicode="Z" horiz-adv-x="661" 
d="M282 130h313v-130h-531l-4 8l316 563h-286v129h507l4 -8z" />
    <glyph glyph-name="bracketleft" unicode="[" horiz-adv-x="270" 
d="M30 -205v985h210v-107h-80v-771h80v-107h-210z" />
    <glyph glyph-name="backslash" unicode="\" horiz-adv-x="411" 
d="M262 0l-232 700h118l233 -700h-119z" />
    <glyph glyph-name="bracketright" unicode="]" horiz-adv-x="270" 
d="M240 780v-985h-210v107h80v771h-80v107h210z" />
    <glyph glyph-name="asciicircum" unicode="^" horiz-adv-x="609" 
d="M157 389l-77 68l215 260h21l213 -260l-77 -69l-147 167z" />
    <glyph glyph-name="underscore" unicode="_" horiz-adv-x="421" 
d="M5 -87v84h411v-84h-411z" />
    <glyph glyph-name="grave" unicode="`" horiz-adv-x="510" 
d="M165 786l161 -125l-52 -74l-174 108z" />
    <glyph glyph-name="a" unicode="a" horiz-adv-x="548" 
d="M87 456q103 53 196 53q49 0 84.5 -13t54.5 -32t30 -49.5t13.5 -56.5t2.5 -62v-296h-94l-10 32q-46 -39 -119 -42q-55 -2 -94 13t-57.5 41.5t-26 51.5t-7.5 51q0 166 214 166q26 0 58 -7q0 49 -15.5 65.5t-51.5 16.5q-53 0 -134 -35zM332 147v54q-41 11 -62 11
q-81 0 -81 -58q0 -22 17 -34t42 -12q26 0 50 12t34 27z" />
    <glyph glyph-name="b" unicode="b" horiz-adv-x="614" 
d="M305 509q58 0 103 -16.5t72 -42.5t44 -61.5t23.5 -69t6.5 -69.5q0 -44 -12 -86.5t-37.5 -82.5t-74.5 -65t-115 -25q-32 0 -71 12.5t-60 31.5l-11 -35h-93v701h135v-209q37 17 90 17zM305 113q36 0 61 15t35.5 39t14.5 43.5t4 39.5q0 23 -4.5 43t-16 43.5t-38 37.5
t-64.5 14q-45 0 -82 -24v-212q11 -15 36 -27t54 -12z" />
    <glyph glyph-name="c" unicode="c" horiz-adv-x="554" 
d="M421 173l79 -95q-83 -85 -188 -85q-68 0 -119.5 24.5t-79 64t-40.5 81.5t-13 85q0 46 11.5 88t38 82.5t78 65t122.5 24.5q109 0 199 -99l-78 -87q-24 26 -57.5 43t-63.5 17q-54 0 -84.5 -39t-30.5 -92q0 -59 34 -93.5t82 -34.5q59 0 110 50z" />
    <glyph glyph-name="d" unicode="d" horiz-adv-x="614" 
d="M309 509q53 0 90 -17v209h135v-701h-93l-11 35q-21 -19 -60 -31.5t-71 -12.5q-66 0 -115 25t-74.5 65t-37.5 82.5t-12 86.5q0 36 6.5 69.5t23.5 69t44 61.5t72 42.5t103 16.5zM309 113q29 0 54 12t36 27v212q-37 24 -82 24q-38 0 -64.5 -14t-38 -37.5t-16 -43.5t-4.5 -43
q0 -20 4 -39.5t14.5 -43.5t35.5 -39t61 -15z" />
    <glyph glyph-name="e" unicode="e" horiz-adv-x="547" 
d="M498 227h-313q6 -47 35 -78.5t75 -31.5q66 0 125 45l66 -91q-92 -77 -191 -77q-68 0 -119 24.5t-78 64t-40 82t-13 86.5q0 43 13 85t40 82t78 64.5t119 24.5q98 0 152.5 -58t54.5 -157q0 -21 -4 -65zM295 386q-80 0 -106 -79h179q-2 78 -73 79z" />
    <glyph glyph-name="f" unicode="f" horiz-adv-x="376" 
d="M386 671l-40 -107q-54 22 -96 22q-22 0 -37 -12.5t-15 -40.5v-33h93v-117h-93v-383h-136v383h-52v117h52v37q0 83 50.5 126.5t129.5 43.5q71 0 144 -36z" />
    <glyph glyph-name="g" unicode="g" 
d="M60 -66q1 26 14.5 54.5t38.5 45.5q-41 32 -41 93q0 25 14.5 49t37.5 35q-35 38 -35 105q0 34 10.5 66.5t32.5 62.5t62.5 48.5t95.5 18.5q59 0 95 -20l71 67l79 -79l-70 -75q28 -41 28 -91q0 -33 -11 -65.5t-33 -62t-63.5 -48t-95.5 -18.5q-45 0 -76 12q-9 -1 -16 -6
t-7 -12q0 -19 11.5 -27.5t42.5 -7.5q154 7 213.5 -32t59.5 -114q0 -12 -3 -27.5t-16.5 -39.5t-35.5 -42.5t-65.5 -32.5t-101.5 -14q-125 0 -180.5 48t-55.5 109zM290 242q25 0 40 16t18.5 30.5t3.5 27.5q0 14 -3.5 28.5t-18.5 30.5t-40 16q-35 0 -49 -24.5t-14 -50.5
q0 -14 3 -28t18.5 -30t41.5 -16zM290 -109q27 0 47 4t29.5 9.5t15.5 12t7 9.5t1 5q0 37 -100 37q-102 0 -102 -35q0 -7 6.5 -15t31.5 -17t64 -10z" />
    <glyph glyph-name="h" unicode="h" horiz-adv-x="584" 
d="M215 0h-135v700h135v-218q43 26 96 26q55 0 95.5 -15t62.5 -38t35 -58.5t16.5 -66.5t3.5 -72v-258h-135v258q0 59 -18.5 94t-76.5 34q-53 -2 -79 -38v-348z" />
    <glyph glyph-name="i" unicode="i" horiz-adv-x="313" 
d="M224 500v-500h-136v500h136zM80 663q0 32 22 54.5t55 22.5q32 0 54 -22.5t22 -54.5q0 -33 -22 -54.5t-54 -21.5q-33 0 -55 21.5t-22 54.5z" />
    <glyph glyph-name="j" unicode="j" horiz-adv-x="293" 
d="M-73 -57q49 -28 84 -28q56 0 56 75v510h138v-502v-11q0 -18 -2 -36.5t-12.5 -48t-28 -51t-52.5 -38t-83 -16.5q-46 0 -91 19t-66 40zM60 664q0 33 21.5 55t54.5 22q32 0 54.5 -22.5t22.5 -54.5q0 -33 -22 -54.5t-55 -21.5t-54.5 21t-21.5 55z" />
    <glyph glyph-name="k" unicode="k" horiz-adv-x="601" 
d="M420 0l-205 224v-224h-135v700h135v-415l191 215h144l4 -9l-207 -231l224 -251l-4 -9h-147z" />
    <glyph glyph-name="l" unicode="l" horiz-adv-x="297" 
d="M217 701v-701h-137v701h137z" />
    <glyph glyph-name="m" unicode="m" horiz-adv-x="855" 
d="M215 344v-344h-135v500h92l12 -38q54 46 126 46q100 0 147 -50q64 50 140 50q40 0 71 -8t51.5 -20.5t35.5 -33.5t22.5 -40t11.5 -47.5t5 -49t1 -51.5v-258h-138v271q0 26 -1 41.5t-6.5 35.5t-20 30t-37.5 10q-51 0 -85 -43v-345h-137v271q0 26 -1 41.5t-6.5 35.5t-20 30
t-37.5 10q-58 0 -90 -44z" />
    <glyph glyph-name="n" unicode="n" 
d="M215 344v-344h-135v500h92l12 -36q54 44 126 44q55 0 95 -15.5t63 -38.5t36 -58t17 -66.5t4 -71.5v-258h-138v258q0 129 -82 129q-59 0 -90 -43z" />
    <glyph glyph-name="o" unicode="o" horiz-adv-x="618" 
d="M309 510q68 0 119 -25t78 -66t39.5 -83.5t12.5 -85.5q0 -44 -12.5 -86.5t-39.5 -83t-78 -65t-119 -24.5t-119 24.5t-78 65t-39.5 83t-12.5 86.5q0 43 12.5 85.5t39.5 83.5t78 66t119 25zM309 112q35 0 59.5 16t35.5 41t15 44.5t4 36.5t-4 37t-15 45t-35.5 41t-59.5 16
t-60 -16.5t-35.5 -41t-15 -44.5t-4.5 -37t4.5 -36.5t15 -44.5t35.5 -41t60 -16z" />
    <glyph glyph-name="p" unicode="p" horiz-adv-x="614" 
d="M305 -8q-53 0 -90 17v-209h-135v701h93l11 -35q21 19 60 31.5t71 12.5q66 0 115 -25t74.5 -65t37.5 -82.5t12 -86.5q0 -36 -6.5 -69.5t-23.5 -69t-44 -61.5t-72 -42.5t-103 -16.5zM305 388q-29 0 -54 -12t-36 -27v-212q37 -24 82 -24q38 0 64.5 14t38 37.5t16 43.5
t4.5 43q0 20 -4 39.5t-14.5 43.5t-35.5 39t-61 15z" />
    <glyph glyph-name="q" unicode="q" horiz-adv-x="614" 
d="M309 -8q-58 0 -103 16.5t-72 42.5t-44 61.5t-23.5 69t-6.5 69.5q0 44 12 86.5t37.5 82.5t74.5 65t115 25q32 0 71 -12.5t60 -31.5l11 35h93v-701h-135v209q-37 -17 -90 -17zM309 388q-36 0 -61 -15t-35.5 -39t-14.5 -43.5t-4 -39.5q0 -23 4.5 -43t16 -43.5t38 -37.5
t64.5 -14q45 0 82 24v212q-11 15 -36 27t-54 12z" />
    <glyph glyph-name="r" unicode="r" horiz-adv-x="415" 
d="M395 498l-39 -124q-33 7 -59 7q-58 0 -82 -41v-340h-135v500h92l12 -31q57 37 128 37q46 0 83 -8z" />
    <glyph glyph-name="s" unicode="s" horiz-adv-x="512" 
d="M207 357q0 -19 74 -42q31 -10 47.5 -16t44 -21t42 -31t26 -42.5t11.5 -59.5q0 -68 -53 -110.5t-135 -42.5q-100 0 -204 61l54 106q90 -46 145 -46q23 0 39 8.5t16 22.5q0 20 -20.5 31t-62.5 23q-35 11 -55.5 19.5t-47 26t-39.5 45t-13 64.5q0 72 46.5 113.5t123.5 41.5
q89 0 194 -52l-51 -111q-80 39 -127 39q-55 0 -55 -27z" />
    <glyph glyph-name="t" unicode="t" horiz-adv-x="330" 
d="M62 380h-52v120h52l10 98h126v-98h94v-120h-94v-235q0 -32 28 -32q11 0 71 15l23 -110q-83 -24 -139 -24q-38 0 -64 15.5t-37 40t-14.5 43t-3.5 37.5v250z" />
    <glyph glyph-name="u" unicode="u" 
d="M370 156v344h135v-500h-92l-12 36q-54 -44 -126 -44q-55 0 -95 15.5t-63 38.5t-36 58t-17 66.5t-4 71.5v258h138v-258q0 -129 82 -129q59 0 90 43z" />
    <glyph glyph-name="v" unicode="v" horiz-adv-x="564" 
d="M282 257l106 243h149l-252 -502h-7l-251 502h149z" />
    <glyph glyph-name="w" unicode="w" horiz-adv-x="764" 
d="M272 267l107 238h8l105 -238l101 233h143l-237 -503h-7l-110 222l-111 -222h-7l-236 503h143z" />
    <glyph glyph-name="x" unicode="x" horiz-adv-x="504" 
d="M474 500l-149 -250l149 -250h-155l-67 123l-67 -123h-155l148 250l-148 250h155l67 -123l67 123h155z" />
    <glyph glyph-name="y" unicode="y" horiz-adv-x="609" 
d="M235 40q-30 73 -104.5 237t-100.5 223h155l123 -301q31 81 119 301h152l-297 -699h-141v11z" />
    <glyph glyph-name="z" unicode="z" horiz-adv-x="509" 
d="M67 371v129h394l3 -8l-197 -363h187v-129h-406l-3 7l199 364h-177z" />
    <glyph glyph-name="braceleft" unicode="{" horiz-adv-x="322" 
d="M251 777h41v-106h-20h-8t-12.5 -4t-16 -11t-11 -24t-5.5 -41v-215q0 -26 -15.5 -51t-34.5 -35q19 -13 34.5 -37.5t15.5 -50.5v-215q0 -21 5 -37t12 -24t15.5 -12.5t13.5 -5.5t8 -1h19v-106h-41q-7 0 -19.5 1.5t-39 11.5t-47.5 27.5t-38 53.5t-17 85v216q0 20 -10 32.5
t-23 15.5h-27v92h27q13 2 23 14t10 33v216q0 48 17 84.5t38 53.5t47.5 27t39 11.5t19.5 1.5z" />
    <glyph glyph-name="bar" unicode="|" horiz-adv-x="222" 
d="M162 -201h-102v972h102v-972z" />
    <glyph glyph-name="braceright" unicode="}" horiz-adv-x="322" 
d="M30 777h41q7 0 19.5 -1.5t39 -11.5t47.5 -27t38 -53.5t17 -84.5v-216q0 -21 10 -33t23 -14h27v-92h-27q-13 -3 -23 -15.5t-10 -32.5v-216q0 -49 -17 -85t-38 -53.5t-47.5 -27.5t-39 -11.5t-19.5 -1.5h-41v106h19q3 0 8 1t13.5 5.5t15.5 12.5t12 24t5 37v215
q0 26 15.5 50.5t34.5 37.5q-19 10 -34.5 35t-15.5 51v215q0 24 -5.5 41t-11 24t-16 11t-12.5 4h-8h-20v106z" />
    <glyph glyph-name="asciitilde" unicode="~" horiz-adv-x="630" 
d="M146 206l-86 60q72 128 178 128q34 0 92 -32q42 -24 66 -24q37 0 87 66l87 -63q-71 -131 -175 -131q-46 0 -104 36q-42 22 -57 22q-41 0 -88 -62z" />
    <glyph glyph-name="exclamdown" unicode="&#xa1;" horiz-adv-x="352" 
d="M245 82v-281h-136v281l19 212h98zM100 433q0 32 21.5 54.5t54.5 22.5q32 0 54 -22.5t22 -54.5q0 -33 -22 -55t-54 -22q-33 0 -54.5 22t-21.5 55z" />
    <glyph glyph-name="cent" unicode="&#xa2;" horiz-adv-x="554" 
d="M421 173l79 -95q-65 -66 -140 -80v-85h-102v85q-54 9 -94 36t-61.5 63.5t-32 74.5t-10.5 76q0 41 9.5 79.5t30.5 76.5t61.5 64.5t96.5 35.5v78h102v-79q79 -17 149 -94l-78 -87q-24 26 -57.5 43t-63.5 17q-54 0 -84.5 -39t-30.5 -92q0 -59 34 -93.5t82 -34.5q59 0 110 50
z" />
    <glyph glyph-name="sterling" unicode="&#xa3;" horiz-adv-x="646" 
d="M469 671l-40 -107q-54 22 -96 22q-22 0 -37 -12.5t-15 -40.5v-33h93v-117h-93v-217q15 -3 55.5 -23.5t66.5 -20.5q19 0 46.5 17t49.5 51l87 -63q-35 -64 -84.5 -96.5t-99.5 -32.5q-36 0 -95.5 28.5t-87.5 28.5q-41 0 -88 -62l-88 58q44 78 102 110v222h-52v117h52v37
q0 83 50.5 126.5t129.5 43.5q71 0 144 -36z" />
    <glyph glyph-name="currency" unicode="&#xa4;" horiz-adv-x="664" 
d="M332 495q60 0 105 -26l92 96l75 -76l-95 -95q26 -48 26 -109q0 -57 -20 -101l89 -89l-75 -74l-84 84q-51 -30 -113 -30q-65 0 -113 29l-84 -83l-75 75l91 88q-22 44 -22 101q0 61 25 110l-93 94l75 76l93 -94q46 24 103 24zM332 206q25 0 41 16.5t20 32.5t4 30
q0 10 -2.5 21.5t-8.5 25.5t-20 23.5t-34 9.5q-37 0 -51 -27t-14 -53q0 -15 3.5 -30.5t19.5 -32t42 -16.5z" />
    <glyph glyph-name="yen" unicode="&#xa5;" horiz-adv-x="676" 
d="M512 57h-104v-57h-141v57h-105v101h105v62h-105v103h97l-229 377h155l152 -254l153 254h156l-232 -377h98v-103h-104v-62h104v-101z" />
    <glyph glyph-name="brokenbar" unicode="&#xa6;" horiz-adv-x="222" 
d="M162 188v-387h-102v387h102zM162 774v-386h-102v386h102z" />
    <glyph glyph-name="section" unicode="&#xa7;" horiz-adv-x="603" 
d="M80 -109l74 94q90 -66 146 -66q28 0 49.5 15t21.5 41q0 47 -111 102h1q-71 31 -116 82t-45 118q0 72 58 125q-51 63 -51 125q0 68 53 124t151 56q97 0 203 -77l-70 -102q-82 49 -128 52q-35 0 -53.5 -14.5t-20.5 -34.5q1 -22 25.5 -45t62.5 -41q193 -93 193 -209
q0 -71 -64 -130q55 -64 55 -134q0 -80 -58.5 -130.5t-142.5 -50.5q-123 0 -233 100zM231 285q0 -20 14.5 -38.5t29.5 -28t43 -24t36 -19.5q27 30 29 55q0 20 -21 37t-61.5 37t-46.5 24q-23 -21 -23 -43z" />
    <glyph glyph-name="dieresis" unicode="&#xa8;" horiz-adv-x="582" 
d="M99 667q0 32 22 54.5t55 22.5q32 0 54 -22.5t22 -54.5q0 -33 -22 -54.5t-54 -21.5q-33 0 -55 21.5t-22 54.5zM328 667q0 32 22 54.5t55 22.5q32 0 54 -22.5t22 -54.5q0 -33 -22 -54.5t-54 -21.5q-33 0 -55 21.5t-22 54.5z" />
    <glyph glyph-name="copyright" unicode="&#xa9;" horiz-adv-x="586" 
d="M235 450q0 31 18 50.5t44 19.5q36 0 66 -34l46 48q-49 59 -112 59q-38 0 -67.5 -14t-45 -36.5t-23.5 -46t-8 -46.5q0 -54 35.5 -99t108.5 -45q61 0 112 59l-45 46q-30 -31 -67 -31q-26 0 -44 19t-18 51zM293 705q105 0 179 -74t74 -179t-74 -179t-179 -74
q-100 0 -176.5 74t-76.5 181q0 99 74 175t179 76zM293 272q76 0 128 52t52 128t-52 128.5t-128 52.5t-128.5 -52.5t-52.5 -128.5t52.5 -128t128.5 -52z" />
    <glyph glyph-name="ordfeminine" unicode="&#xaa;" horiz-adv-x="402" 
d="M187 708q3 0 9 0.5t9 0.5q37 0 63 -9.5t40 -24t22 -37t10 -41.5t2 -46v-219h-70l-7 24q-34 -29 -88 -31q-41 -2 -70 9t-42.5 30.5t-19 38.5t-5.5 38q0 123 158 123q17 0 43 -6q0 37 -11.5 49t-37.5 12q-39 0 -99 -26l-33 76q68 36 127 39zM241 441v40q-29 8 -46 8
q-60 0 -60 -43q0 -16 13 -25t31 -9q43 0 62 29z" />
    <glyph glyph-name="guillemotleft" unicode="&#xab;" horiz-adv-x="553" 
d="M176 256l114 -143l-73 -64l-187 200v13l187 199l73 -64zM409 256l114 -143l-73 -64l-187 200v13l187 199l73 -64z" />
    <glyph glyph-name="logicalnot" unicode="&#xac;" horiz-adv-x="627" 
d="M547 420v-334h-221v127h-246v207h467z" />
    <glyph glyph-name="uni00AD" unicode="&#xad;" horiz-adv-x="400" 
d="M61 266h282v-116h-282v116z" />
    <glyph glyph-name="registered" unicode="&#xae;" horiz-adv-x="586" 
d="M268 404v-73h-68v250h100q49 0 71.5 -27.5t22.5 -60.5q0 -20 -12 -40.5t-29 -32.5l50 -89h-80l-39 73h-16zM268 471h35q22 1 22 22q0 8 -5.5 15.5t-18.5 7.5h-33v-45zM293 705q105 0 179 -74t74 -179t-74 -179t-179 -74q-100 0 -176.5 74t-76.5 181q0 99 74 175t179 76z
M293 272q76 0 128 52t52 128t-52 128.5t-128 52.5t-128.5 -52.5t-52.5 -128.5t52.5 -128t128.5 -52z" />
    <glyph glyph-name="macron" unicode="&#xaf;" horiz-adv-x="516" 
d="M113 694h301v-97h-301v97z" />
    <glyph glyph-name="degree" unicode="&#xb0;" horiz-adv-x="330" 
d="M165 440q-56 0 -95.5 39.5t-39.5 95.5t39.5 95.5t95.5 39.5t95.5 -38.5t39.5 -96.5q0 -56 -39.5 -95.5t-95.5 -39.5zM165 522q21 0 36 15t15 38q0 22 -15 36.5t-36 14.5q-22 0 -38 -15.5t-16 -35.5q0 -23 16 -38t38 -15z" />
    <glyph glyph-name="plusminus" unicode="&#xb1;" horiz-adv-x="553" 
d="M80 115h393v-104h-393v104zM222 182v100h-142v113h142v142h114v-142h142v-113h-142v-100h-114z" />
    <glyph glyph-name="twosuperior" unicode="&#xb2;" horiz-adv-x="305" 
d="M84 685l-54 52q56 68 126 68q51 0 80 -28.5t29 -75.5q0 -39 -40 -94l-41 -57h76v-78h-222l-3 8l123 177q18 26 18 43q0 8 -6.5 15.5t-17.5 7.5q-26 0 -68 -38z" />
    <glyph glyph-name="threesuperior" unicode="&#xb3;" horiz-adv-x="282" 
d="M252 700q0 -40 -31 -66q31 -24 31 -64q0 -37 -27 -70.5t-89 -33.5q-63 0 -116 49l49 54q27 -26 67 -26q14 0 24.5 7.5t10.5 19.5q0 15 -10 23t-25 8h-55v67h55q14 0 24.5 8.5t10.5 23.5q0 12 -10.5 19.5t-24.5 7.5q-34 0 -67 -28l-47 54q51 51 114 51q62 0 89 -33t27 -71
z" />
    <glyph glyph-name="acute" unicode="&#xb4;" horiz-adv-x="510" 
d="M141 661l161 125l65 -91l-174 -108z" />
    <glyph glyph-name="mu" unicode="&#xb5;" horiz-adv-x="605" 
d="M80 -198v698h138v-258q0 -129 82 -129q59 0 90 43v344h135v-500h-92l-12 36q-56 -46 -126 -44q-51 1 -77 27v-217h-138z" />
    <glyph glyph-name="mu" unicode="&#x3bc;" horiz-adv-x="605" 
d="M80 -198v698h138v-258q0 -129 82 -129q59 0 90 43v344h135v-500h-92l-12 36q-56 -46 -126 -44q-51 1 -77 27v-217h-138z" />
    <glyph glyph-name="paragraph" unicode="&#xb6;" horiz-adv-x="734" 
d="M40 491q0 28 6 55t20.5 55.5t37 50.5t59 35.5t81.5 13.5h410v-108h-67v-792h-130v792h-88v-792h-130v480q-54 1 -95 21.5t-62.5 53t-31.5 66.5t-10 69z" />
    <glyph glyph-name="periodcentered" unicode="&#xb7;" horiz-adv-x="284" 
d="M60 299q0 35 23 58t58 23t59 -23t24 -58t-24 -59t-59 -24t-58 24t-23 59z" />
    <glyph glyph-name="cedilla" unicode="&#xb8;" horiz-adv-x="554" 
d="M326 -86h-26l-12 13v96h82v-51q49 -1 72.5 -30.5t23.5 -60.5q0 -53 -34 -81t-83 -28q-60 0 -106 27l30 66q34 -17 66 -17q14 0 25 10t12 23q1 14 -11.5 23.5t-38.5 9.5z" />
    <glyph glyph-name="onesuperior" unicode="&#xb9;" horiz-adv-x="228" 
d="M183 799v-327h-88v208l-41 -22l-34 56l119 85h44z" />
    <glyph glyph-name="ordmasculine" unicode="&#xba;" horiz-adv-x="378" 
d="M189 706q54 0 89 -26.5t47.5 -59.5t12.5 -69q0 -27 -7.5 -52t-23.5 -49.5t-46.5 -39t-71.5 -14.5t-71.5 14.5t-46.5 39t-23.5 49.5t-7.5 52q0 36 12.5 69t47.5 59.5t89 26.5zM189 501q25 0 34 16.5t9 33.5q0 9 -2.5 18.5t-13 20t-27.5 10.5q-25 0 -34 -16.5t-9 -32.5
q0 -9 2.5 -19t13 -20.5t27.5 -10.5zM59 322h259v-105h-259v105z" />
    <glyph glyph-name="guillemotright" unicode="&#xbb;" horiz-adv-x="553" 
d="M263 113l114 143l-114 141l73 64l187 -199v-13l-187 -200zM30 113l114 143l-114 141l73 64l187 -199v-13l-187 -200z" />
    <glyph glyph-name="onequarter" unicode="&#xbc;" horiz-adv-x="592" 
d="M512 700l-349 -700h-102l350 700h101zM183 703v-327h-88v208l-41 -22l-34 56l119 85h44zM510 48v-47h-83v47h-132v66l147 215h68v-207h46v-74h-46zM427 183l-42 -61h42v61z" />
    <glyph glyph-name="onehalf" unicode="&#xbd;" horiz-adv-x="639" 
d="M512 700l-349 -700h-102l350 700h101zM183 703v-327h-88v208l-41 -22l-34 56l119 85h44zM416 213l-54 52q56 68 126 68q50 0 79.5 -30.5t29.5 -73.5q0 -40 -40 -94l-43 -57h78v-78h-225v20l123 165q18 24 18 43q0 8 -6.5 15.5t-17.5 7.5q-26 0 -68 -38z" />
    <glyph glyph-name="threequarters" unicode="&#xbe;" horiz-adv-x="633" 
d="M549 700l-349 -700h-102l350 700h101zM547 48v-47h-83v47h-132v66l147 215h68v-207h46v-74h-46zM464 183l-42 -61h42v61zM252 603q0 -40 -31 -66q31 -24 31 -64q0 -37 -27 -70.5t-89 -33.5q-63 0 -116 49l49 54q27 -26 67 -26q14 0 24.5 7.5t10.5 19.5q0 15 -10 23t-25 8
h-55v67h55q14 0 24.5 8.5t10.5 23.5q0 12 -10.5 19.5t-24.5 7.5q-34 0 -67 -28l-47 54q51 51 114 51q62 0 89 -33t27 -71z" />
    <glyph glyph-name="questiondown" unicode="&#xbf;" horiz-adv-x="571" 
d="M216 209v71h127v-74q0 -28 -10.5 -54t-22 -40.5t-33.5 -40.5q-20 -22 -29.5 -35t-20 -35.5t-10.5 -43.5t14 -38.5t51 -15.5q28 1 55.5 19.5t68.5 59.5l85 -81q-59 -64 -110 -92.5t-116 -28.5q-82 0 -133.5 46.5t-51.5 129.5q0 35 16 72t32 58.5t43 52.5q45 53 45 70z
M358 429q0 -33 -22.5 -55t-55.5 -22t-55.5 22t-22.5 55t23 55.5t55 22.5q34 0 56 -21.5t22 -56.5z" />
    <glyph glyph-name="Agrave" unicode="&#xc0;" horiz-adv-x="724" 
d="M30 -1l323 709h18l323 -709h-157l-69 165h-212l-68 -165h-158zM362 418l-57 -137h114zM314 986l161 -125l-52 -74l-174 108z" />
    <glyph glyph-name="Aacute" unicode="&#xc1;" horiz-adv-x="724" 
d="M30 -1l323 709h18l323 -709h-157l-69 165h-212l-68 -165h-158zM362 418l-57 -137h114zM249 861l161 125l65 -91l-174 -108z" />
    <glyph glyph-name="Acircumflex" unicode="&#xc2;" horiz-adv-x="724" 
d="M30 -1l323 709h18l323 -709h-157l-69 165h-212l-68 -165h-158zM362 418l-57 -137h114zM201 860l161 125l161 -125l-52 -74l-109 67l-109 -67z" />
    <glyph glyph-name="Atilde" unicode="&#xc3;" horiz-adv-x="724" 
d="M30 -1l323 709h18l323 -709h-157l-69 165h-212l-68 -165h-158zM362 418l-57 -137h114zM457 948l82 -43q-46 -102 -133 -102q-23 0 -50.5 17t-43.5 17q-32 0 -50 -39l-78 36q18 59 53.5 83t75.5 24q27 0 55.5 -16t39.5 -16q27 0 49 39z" />
    <glyph glyph-name="Adieresis" unicode="&#xc4;" horiz-adv-x="724" 
d="M30 0l327 709h10l327 -709h-157l-69 165h-212l-68 -165h-158zM362 419l-57 -137h114zM171 867q0 32 22 54.5t55 22.5q32 0 54 -22.5t22 -54.5q0 -33 -22 -54.5t-54 -21.5q-33 0 -55 21.5t-22 54.5zM400 867q0 32 22 54.5t55 22.5q32 0 54 -22.5t22 -54.5q0 -33 -22 -54.5
t-54 -21.5q-33 0 -55 21.5t-22 54.5z" />
    <glyph glyph-name="Aring" unicode="&#xc5;" horiz-adv-x="724" 
d="M30 -1l323 709h18l323 -709h-157l-69 165h-212l-68 -165h-158zM362 418l-57 -137h114zM260 888q0 42 30 72t72 30t71.5 -30t29.5 -72t-29.5 -71.5t-71.5 -29.5t-72 29.5t-30 71.5zM332 888q0 -11 9 -20t21 -9q11 0 20 9t9 20q0 12 -9 21t-20 9q-12 0 -21 -9t-9 -21z" />
    <glyph glyph-name="AE" unicode="&#xc6;" horiz-adv-x="898" 
d="M765 280h-262v-150h335v-130h-476v164h-106l-68 -165h-158l319 701h489v-130h-335v-160h262v-130zM362 418l-57 -137h57v137z" />
    <glyph glyph-name="Ccedilla" unicode="&#xc7;" horiz-adv-x="741" 
d="M394 -86h-26l-12 13v67q-81 9 -141 46t-92.5 90.5t-47.5 108.5t-15 112q0 47 10 93.5t36 95.5t64 86t99.5 60.5t138.5 23.5q157 0 273 -131l-93 -90q-29 36 -81 62.5t-99 26.5q-51 0 -90 -18.5t-59.5 -44.5t-34 -60t-17 -58.5t-3.5 -45.5t4 -45.5t17 -58t34 -59.5
t60 -44.5t90 -18.5q48 0 99 23.5t89 57.5l80 -97q-106 -106 -239 -116v-21q49 -1 72.5 -30.5t23.5 -60.5q0 -53 -34 -81t-83 -28q-60 0 -106 27l30 66q34 -17 66 -17q14 0 25 10t12 23q1 14 -11.5 23.5t-38.5 9.5z" />
    <glyph glyph-name="Egrave" unicode="&#xc8;" horiz-adv-x="636" 
d="M503 280h-262v-150h335v-130h-476v700h476v-130h-335v-160h262v-130zM270 986l161 -125l-52 -74l-174 108z" />
    <glyph glyph-name="Eacute" unicode="&#xc9;" horiz-adv-x="636" 
d="M503 280h-262v-150h335v-130h-476v700h476v-130h-335v-160h262v-130zM205 861l161 125l65 -91l-174 -108z" />
    <glyph glyph-name="Ecircumflex" unicode="&#xca;" horiz-adv-x="636" 
d="M503 280h-262v-150h335v-130h-476v700h476v-130h-335v-160h262v-130zM157 860l161 125l161 -125l-52 -74l-109 67l-109 -67z" />
    <glyph glyph-name="Edieresis" unicode="&#xcb;" horiz-adv-x="636" 
d="M503 280h-262v-150h335v-130h-476v700h476v-130h-335v-160h262v-130zM127 867q0 32 22 54.5t55 22.5q32 0 54 -22.5t22 -54.5q0 -33 -22 -54.5t-54 -21.5q-33 0 -55 21.5t-22 54.5zM356 867q0 32 22 54.5t55 22.5q32 0 54 -22.5t22 -54.5q0 -33 -22 -54.5t-54 -21.5
q-33 0 -55 21.5t-22 54.5z" />
    <glyph glyph-name="Igrave" unicode="&#xcc;" horiz-adv-x="266" 
d="M204 700v-700h-142v700h142zM85 986l161 -125l-52 -74l-174 108z" />
    <glyph glyph-name="Iacute" unicode="&#xcd;" horiz-adv-x="266" 
d="M204 700v-700h-142v700h142zM20 861l161 125l65 -91l-174 -108z" />
    <glyph glyph-name="Icircumflex" unicode="&#xce;" horiz-adv-x="322" 
d="M232 700v-700h-142v700h142zM0 860l161 125l161 -125l-52 -74l-109 67l-109 -67z" />
    <glyph glyph-name="Idieresis" unicode="&#xcf;" horiz-adv-x="398" 
d="M270 700v-700h-142v700h142zM0 862q0 32 22 54.5t55 22.5q32 0 54 -22.5t22 -54.5q0 -33 -22 -54.5t-54 -21.5q-33 0 -55 21.5t-22 54.5zM245 862q0 32 22 54.5t55 22.5q32 0 54 -22.5t22 -54.5q0 -33 -22 -54.5t-54 -21.5q-33 0 -55 21.5t-22 54.5z" />
    <glyph glyph-name="Eth" unicode="&#xd0;" horiz-adv-x="755" 
d="M29 410h71v290h249q76 0 137.5 -22.5t99.5 -58t63.5 -83t35.5 -93t10 -92.5q0 -48 -10 -94.5t-35.5 -93.5t-63.5 -82.5t-99 -58t-138 -22.5h-249v295h-71v115zM240 130h109q62 0 105.5 25.5t63 65t27 71t7.5 59.5t-7.5 59.5t-27 70.5t-63 64.5t-105.5 25.5h-109v-161h136
v-115h-136v-165z" />
    <glyph glyph-name="Ntilde" unicode="&#xd1;" horiz-adv-x="776" 
d="M100 702l9 4l425 -403v397h142v-701l-9 -5l-425 407v-401h-142v702zM483 935l82 -43q-46 -102 -133 -102q-23 0 -50.5 17t-43.5 17q-32 0 -50 -39l-78 36q18 59 53.5 83t75.5 24q27 0 55.5 -16t39.5 -16q27 0 49 39z" />
    <glyph glyph-name="Ograve" unicode="&#xd2;" horiz-adv-x="814" 
d="M408 712q76 0 137.5 -24t99.5 -61t63.5 -86t35.5 -96t10 -94q0 -48 -10 -95.5t-35.5 -96.5t-63.5 -86t-99.5 -60.5t-137.5 -23.5q-77 0 -138.5 23.5t-99.5 60.5t-64 86t-36 96.5t-10 95.5q0 47 10 94t36 96t64 86t99.5 61t138.5 24zM408 120q50 0 88.5 19t59 45.5
t33.5 61t17 59.5t4 46t-4 46t-17 59t-33.5 60.5t-59 45t-88.5 18.5q-51 0 -90 -18.5t-59.5 -45t-34 -60.5t-17 -59t-3.5 -46t3.5 -46t17 -59.5t34 -61t59.5 -45.5t90 -19zM359 986l161 -125l-52 -74l-174 108z" />
    <glyph glyph-name="Oacute" unicode="&#xd3;" horiz-adv-x="814" 
d="M408 712q76 0 137.5 -24t99.5 -61t63.5 -86t35.5 -96t10 -94q0 -48 -10 -95.5t-35.5 -96.5t-63.5 -86t-99.5 -60.5t-137.5 -23.5q-77 0 -138.5 23.5t-99.5 60.5t-64 86t-36 96.5t-10 95.5q0 47 10 94t36 96t64 86t99.5 61t138.5 24zM408 120q50 0 88.5 19t59 45.5
t33.5 61t17 59.5t4 46t-4 46t-17 59t-33.5 60.5t-59 45t-88.5 18.5q-51 0 -90 -18.5t-59.5 -45t-34 -60.5t-17 -59t-3.5 -46t3.5 -46t17 -59.5t34 -61t59.5 -45.5t90 -19zM294 861l161 125l65 -91l-174 -108z" />
    <glyph glyph-name="Ocircumflex" unicode="&#xd4;" horiz-adv-x="814" 
d="M408 712q76 0 137.5 -24t99.5 -61t63.5 -86t35.5 -96t10 -94q0 -48 -10 -95.5t-35.5 -96.5t-63.5 -86t-99.5 -60.5t-137.5 -23.5q-77 0 -138.5 23.5t-99.5 60.5t-64 86t-36 96.5t-10 95.5q0 47 10 94t36 96t64 86t99.5 61t138.5 24zM408 120q50 0 88.5 19t59 45.5
t33.5 61t17 59.5t4 46t-4 46t-17 59t-33.5 60.5t-59 45t-88.5 18.5q-51 0 -90 -18.5t-59.5 -45t-34 -60.5t-17 -59t-3.5 -46t3.5 -46t17 -59.5t34 -61t59.5 -45.5t90 -19zM246 863l161 125l161 -125l-52 -74l-109 67l-109 -67z" />
    <glyph glyph-name="Otilde" unicode="&#xd5;" horiz-adv-x="814" 
d="M408 712q76 0 137.5 -24t99.5 -61t63.5 -86t35.5 -96t10 -94q0 -48 -10 -95.5t-35.5 -96.5t-63.5 -86t-99.5 -60.5t-137.5 -23.5q-77 0 -138.5 23.5t-99.5 60.5t-64 86t-36 96.5t-10 95.5q0 47 10 94t36 96t64 86t99.5 61t138.5 24zM408 120q50 0 88.5 19t59 45.5
t33.5 61t17 59.5t4 46t-4 46t-17 59t-33.5 60.5t-59 45t-88.5 18.5q-51 0 -90 -18.5t-59.5 -45t-34 -60.5t-17 -59t-3.5 -46t3.5 -46t17 -59.5t34 -61t59.5 -45.5t90 -19zM502 935l82 -43q-46 -102 -133 -102q-23 0 -50.5 17t-43.5 17q-32 0 -50 -39l-78 36q18 59 53.5 83
t75.5 24q27 0 55.5 -16t39.5 -16q27 0 49 39z" />
    <glyph glyph-name="Odieresis" unicode="&#xd6;" horiz-adv-x="814" 
d="M408 712q76 0 137.5 -24t99.5 -61t63.5 -86t35.5 -96t10 -94q0 -48 -10 -95.5t-35.5 -96.5t-63.5 -86t-99.5 -60.5t-137.5 -23.5q-77 0 -138.5 23.5t-99.5 60.5t-64 86t-36 96.5t-10 95.5q0 47 10 94t36 96t64 86t99.5 61t138.5 24zM408 120q50 0 88.5 19t59 45.5
t33.5 61t17 59.5t4 46t-4 46t-17 59t-33.5 60.5t-59 45t-88.5 18.5q-51 0 -90 -18.5t-59.5 -45t-34 -60.5t-17 -59t-3.5 -46t3.5 -46t17 -59.5t34 -61t59.5 -45.5t90 -19zM216 867q0 32 22 54.5t55 22.5q32 0 54 -22.5t22 -54.5q0 -33 -22 -54.5t-54 -21.5q-33 0 -55 21.5
t-22 54.5zM445 867q0 32 22 54.5t55 22.5q32 0 54 -22.5t22 -54.5q0 -33 -22 -54.5t-54 -21.5q-33 0 -55 21.5t-22 54.5z" />
    <glyph glyph-name="multiply" unicode="&#xd7;" horiz-adv-x="562" 
d="M381 21l-100 100l-101 -100l-80 80l101 100l-101 101l81 80l100 -100l101 100l80 -80l-101 -100l101 -101z" />
    <glyph glyph-name="Oslash" unicode="&#xd8;" horiz-adv-x="814" 
d="M408 712q108 0 190 -50l51 60l78 -65l-53 -63q80 -101 80 -243q0 -48 -10 -95.5t-35.5 -96.5t-63.5 -86t-99.5 -60.5t-137.5 -23.5q-118 0 -198 53l-57 -68l-78 65l61 72q-76 99 -76 240q0 47 10 94t36 96t64 86t99.5 61t138.5 24zM408 120q50 0 88.5 19t59 45.5t33.5 61
t17 59.5t4 46q0 70 -32 129l-278 -332q44 -28 108 -28zM204 351q0 -67 28 -125l276 329q-43 25 -100 25q-51 0 -90 -18.5t-59.5 -45t-34 -60.5t-17 -59t-3.5 -46z" />
    <glyph glyph-name="Ugrave" unicode="&#xd9;" horiz-adv-x="736" 
d="M368 122q38 0 66.5 17t42 43t20 49t6.5 41v428h143v-428q0 -47 -15 -93.5t-46 -89.5t-87.5 -69.5t-129.5 -26.5t-129.5 26.5t-87.5 69.5t-46 89.5t-15 93.5v428h142v-428q0 -18 6.5 -41t20.5 -49t42.5 -43t66.5 -17zM320 986l161 -125l-52 -74l-174 108z" />
    <glyph glyph-name="Uacute" unicode="&#xda;" horiz-adv-x="736" 
d="M368 122q38 0 66.5 17t42 43t20 49t6.5 41v428h143v-428q0 -47 -15 -93.5t-46 -89.5t-87.5 -69.5t-129.5 -26.5t-129.5 26.5t-87.5 69.5t-46 89.5t-15 93.5v428h142v-428q0 -18 6.5 -41t20.5 -49t42.5 -43t66.5 -17zM255 861l161 125l65 -91l-174 -108z" />
    <glyph glyph-name="Ucircumflex" unicode="&#xdb;" horiz-adv-x="736" 
d="M368 122q38 0 66.5 17t42 43t20 49t6.5 41v428h143v-428q0 -47 -15 -93.5t-46 -89.5t-87.5 -69.5t-129.5 -26.5t-129.5 26.5t-87.5 69.5t-46 89.5t-15 93.5v428h142v-428q0 -18 6.5 -41t20.5 -49t42.5 -43t66.5 -17zM207 863l161 125l161 -125l-52 -74l-109 67l-109 -67z
" />
    <glyph glyph-name="Udieresis" unicode="&#xdc;" horiz-adv-x="736" 
d="M368 122q38 0 66.5 17t42 43t20 49t6.5 41v428h143v-428q0 -47 -15 -93.5t-46 -89.5t-87.5 -69.5t-129.5 -26.5t-129.5 26.5t-87.5 69.5t-46 89.5t-15 93.5v428h142v-428q0 -18 6.5 -41t20.5 -49t42.5 -43t66.5 -17zM177 867q0 32 22 54.5t55 22.5q32 0 54 -22.5
t22 -54.5q0 -33 -22 -54.5t-54 -21.5q-33 0 -55 21.5t-22 54.5zM406 867q0 32 22 54.5t55 22.5q32 0 54 -22.5t22 -54.5q0 -33 -22 -54.5t-54 -21.5q-33 0 -55 21.5t-22 54.5z" />
    <glyph glyph-name="Yacute" unicode="&#xdd;" horiz-adv-x="665" 
d="M403 313v-313h-141v311l-238 389h156l152 -254l152 254h157zM219 861l161 125l65 -91l-174 -108z" />
    <glyph glyph-name="Thorn" unicode="&#xde;" horiz-adv-x="655" 
d="M340 83h-101v-83h-139v700h139v-89h101q70 0 122 -25.5t79.5 -67t40.5 -84.5t13 -87t-13 -87t-40.5 -84.5t-79.5 -67t-122 -25.5zM239 488v-281h93q36 0 63 15.5t39 39.5t17.5 45t5.5 40t-5.5 40.5t-18 45.5t-39 39.5t-62.5 15.5h-93z" />
    <glyph glyph-name="germandbls" unicode="&#xdf;" horiz-adv-x="665" 
d="M306 105q64 0 90.5 25.5t26.5 61.5q-2 20 -17 42t-31.5 38t-30.5 39t-14 47q0 26 19.5 51.5t39 50t19.5 48.5q0 5 -0.5 10t-4.5 18t-11.5 22t-24.5 16.5t-40 7.5q-32 0 -59 -18.5t-28 -66.5v-539h-140v537q0 44 11.5 79t28.5 56.5t41.5 38t44.5 23.5t42.5 11.5t32 5
t16.5 0.5q52 0 93 -14.5t65 -36.5t39.5 -50t21 -52t5.5 -47q0 -39 -13 -68t-30.5 -49.5t-20.5 -27.5q1 -14 23 -36.5t43.5 -57.5t21.5 -82q0 -90 -66 -144t-193 -54v115z" />
    <glyph glyph-name="agrave" unicode="&#xe0;" horiz-adv-x="548" 
d="M258 508q5 0 13 0.5t12 0.5q49 0 84.5 -13t54.5 -32t30 -49.5t13.5 -56.5t2.5 -62v-296h-94l-10 32q-46 -39 -119 -42q-55 -2 -94 13t-57.5 41.5t-26 51.5t-7.5 51q0 166 214 166q26 0 58 -7q0 49 -15.5 65.5t-51.5 16.5q-53 0 -134 -35l-44 103q90 47 171 52zM332 147
v54q-41 11 -62 11q-81 0 -81 -58q0 -22 17 -34t42 -12q26 0 50 12t34 27zM226 786l161 -125l-52 -74l-174 108z" />
    <glyph glyph-name="aacute" unicode="&#xe1;" horiz-adv-x="548" 
d="M258 508q5 0 13 0.5t12 0.5q49 0 84.5 -13t54.5 -32t30 -49.5t13.5 -56.5t2.5 -62v-296h-94l-10 32q-46 -39 -119 -42q-55 -2 -94 13t-57.5 41.5t-26 51.5t-7.5 51q0 166 214 166q26 0 58 -7q0 49 -15.5 65.5t-51.5 16.5q-53 0 -134 -35l-44 103q90 47 171 52zM332 147
v54q-41 11 -62 11q-81 0 -81 -58q0 -22 17 -34t42 -12q26 0 50 12t34 27zM161 661l161 125l65 -91l-174 -108z" />
    <glyph glyph-name="acircumflex" unicode="&#xe2;" horiz-adv-x="548" 
d="M258 508q5 0 13 0.5t12 0.5q49 0 84.5 -13t54.5 -32t30 -49.5t13.5 -56.5t2.5 -62v-296h-94l-10 32q-46 -39 -119 -42q-55 -2 -94 13t-57.5 41.5t-26 51.5t-7.5 51q0 166 214 166q26 0 58 -7q0 49 -15.5 65.5t-51.5 16.5q-53 0 -134 -35l-44 103q90 47 171 52zM332 147
v54q-41 11 -62 11q-81 0 -81 -58q0 -22 17 -34t42 -12q26 0 50 12t34 27zM113 660l161 125l161 -125l-52 -74l-109 67l-109 -67z" />
    <glyph glyph-name="atilde" unicode="&#xe3;" horiz-adv-x="548" 
d="M258 508q5 0 13 0.5t12 0.5q49 0 84.5 -13t54.5 -32t30 -49.5t13.5 -56.5t2.5 -62v-296h-94l-10 32q-46 -39 -119 -42q-55 -2 -94 13t-57.5 41.5t-26 51.5t-7.5 51q0 166 214 166q26 0 58 -7q0 49 -15.5 65.5t-51.5 16.5q-53 0 -134 -35l-44 103q90 47 171 52zM332 147
v54q-41 11 -62 11q-81 0 -81 -58q0 -22 17 -34t42 -12q26 0 50 12t34 27zM369 748l82 -43q-46 -102 -133 -102q-23 0 -50.5 17t-43.5 17q-32 0 -50 -39l-78 36q18 59 53.5 83t75.5 24q27 0 55.5 -16t39.5 -16q27 0 49 39z" />
    <glyph glyph-name="adieresis" unicode="&#xe4;" horiz-adv-x="548" 
d="M87 456q103 53 196 53q49 0 84.5 -13t54.5 -32t30 -49.5t13.5 -56.5t2.5 -62v-296h-94l-10 32q-46 -39 -119 -42q-55 -2 -94 13t-57.5 41.5t-26 51.5t-7.5 51q0 166 214 166q26 0 58 -7q0 49 -15.5 65.5t-51.5 16.5q-53 0 -134 -35zM332 147v54q-41 11 -62 11
q-81 0 -81 -58q0 -22 17 -34t42 -12q26 0 50 12t34 27zM83 667q0 32 22 54.5t55 22.5q32 0 54 -22.5t22 -54.5q0 -33 -22 -54.5t-54 -21.5q-33 0 -55 21.5t-22 54.5zM312 667q0 32 22 54.5t55 22.5q32 0 54 -22.5t22 -54.5q0 -33 -22 -54.5t-54 -21.5q-33 0 -55 21.5
t-22 54.5z" />
    <glyph glyph-name="aring" unicode="&#xe5;" horiz-adv-x="548" 
d="M258 508q5 0 13 0.5t12 0.5q49 0 84.5 -13t54.5 -32t30 -49.5t13.5 -56.5t2.5 -62v-296h-94l-10 32q-46 -39 -119 -42q-55 -2 -94 13t-57.5 41.5t-26 51.5t-7.5 51q0 166 214 166q26 0 58 -7q0 49 -15.5 65.5t-51.5 16.5q-53 0 -134 -35l-44 103q90 47 171 52zM332 147
v54q-41 11 -62 11q-81 0 -81 -58q0 -22 17 -34t42 -12q26 0 50 12t34 27zM172 688q0 42 30 72t72 30t71.5 -30t29.5 -72t-29.5 -71.5t-71.5 -29.5t-72 29.5t-30 71.5zM244 688q0 -11 9 -20t21 -9q11 0 20 9t9 20q0 12 -9 21t-20 9q-12 0 -21 -9t-9 -21z" />
    <glyph glyph-name="ae" unicode="&#xe6;" horiz-adv-x="816" 
d="M767 227h-313q6 -47 35 -78.5t75 -31.5q66 0 125 45l66 -91q-92 -77 -191 -77q-105 0 -170 58q-60 -56 -149 -62q-55 -2 -94 13t-57.5 41.5t-26 51.5t-7.5 51q0 166 214 166q17 0 45 -4q7 28 10 35q-6 25 -21 34.5t-43 9.5q-53 0 -134 -35l-44 103q90 47 171 52
q5 0 13 0.5t12 0.5q91 0 135 -42q62 40 146 40q98 0 152.5 -58t54.5 -157q0 -21 -4 -65zM332 147q-10 28 -15 58q-33 7 -47 7q-81 0 -81 -58q0 -22 17 -34t42 -12q26 0 50 12t34 27zM564 386q-80 0 -106 -79h179q-2 78 -73 79z" />
    <glyph glyph-name="ccedilla" unicode="&#xe7;" horiz-adv-x="577" 
d="M290 -86h-26l-12 13v72q-68 13 -113.5 56.5t-62 92t-16.5 100.5q0 46 11.5 88t38 82.5t78 65t122.5 24.5q109 0 199 -99l-78 -87q-24 26 -57.5 43t-63.5 17q-54 0 -84.5 -39t-30.5 -92q0 -59 34 -93.5t82 -34.5q59 0 110 50l79 -95q-74 -76 -166 -84v-22
q49 -1 72.5 -30.5t23.5 -60.5q0 -53 -34 -81t-83 -28q-60 0 -106 27l30 66q34 -17 66 -17q14 0 25 10t12 23q1 14 -11.5 23.5t-38.5 9.5z" />
    <glyph glyph-name="egrave" unicode="&#xe8;" horiz-adv-x="547" 
d="M498 227h-313q6 -47 35 -78.5t75 -31.5q66 0 125 45l66 -91q-92 -77 -191 -77q-68 0 -119 24.5t-78 64t-40 82t-13 86.5q0 43 13 85t40 82t78 64.5t119 24.5q98 0 152.5 -58t54.5 -157q0 -21 -4 -65zM295 386q-80 0 -106 -79h179q-2 78 -73 79zM225 786l161 -125l-52 -74
l-174 108z" />
    <glyph glyph-name="eacute" unicode="&#xe9;" horiz-adv-x="547" 
d="M498 227h-313q6 -47 35 -78.5t75 -31.5q66 0 125 45l66 -91q-92 -77 -191 -77q-68 0 -119 24.5t-78 64t-40 82t-13 86.5q0 43 13 85t40 82t78 64.5t119 24.5q98 0 152.5 -58t54.5 -157q0 -21 -4 -65zM295 386q-80 0 -106 -79h179q-2 78 -73 79zM184 661l161 125l65 -91
l-174 -108z" />
    <glyph glyph-name="ecircumflex" unicode="&#xea;" horiz-adv-x="547" 
d="M498 227h-313q6 -47 35 -78.5t75 -31.5q66 0 125 45l66 -91q-92 -77 -191 -77q-68 0 -119 24.5t-78 64t-40 82t-13 86.5q0 43 13 85t40 82t78 64.5t119 24.5q98 0 152.5 -58t54.5 -157q0 -21 -4 -65zM295 386q-80 0 -106 -79h179q-2 78 -73 79zM112 660l161 125l161 -125
l-52 -74l-109 67l-109 -67z" />
    <glyph glyph-name="edieresis" unicode="&#xeb;" horiz-adv-x="547" 
d="M498 227h-313q6 -47 35 -78.5t75 -31.5q66 0 125 45l66 -91q-92 -77 -191 -77q-68 0 -119 24.5t-78 64t-40 82t-13 86.5q0 43 13 85t40 82t78 64.5t119 24.5q98 0 152.5 -58t54.5 -157q0 -21 -4 -65zM295 386q-80 0 -106 -79h179q-2 78 -73 79zM83 667q0 32 22 54.5
t55 22.5q32 0 54 -22.5t22 -54.5q0 -33 -22 -54.5t-54 -21.5q-33 0 -55 21.5t-22 54.5zM312 667q0 32 22 54.5t55 22.5q32 0 54 -22.5t22 -54.5q0 -33 -22 -54.5t-54 -21.5q-33 0 -55 21.5t-22 54.5z" />
    <glyph glyph-name="igrave" unicode="&#xec;" horiz-adv-x="266" 
d="M201 500v-500h-136v500h136zM85 786l161 -125l-52 -74l-174 108z" />
    <glyph glyph-name="iacute" unicode="&#xed;" horiz-adv-x="266" 
d="M201 500v-500h-136v500h136zM20 661l161 125l65 -91l-174 -108z" />
    <glyph glyph-name="icircumflex" unicode="&#xee;" horiz-adv-x="322" 
d="M229 500v-500h-136v500h136zM0 663l161 125l161 -125l-52 -74l-109 67l-109 -67z" />
    <glyph glyph-name="idieresis" unicode="&#xef;" horiz-adv-x="382" 
d="M259 500v-500h-136v500h136zM0 667q0 32 22 54.5t55 22.5q32 0 54 -22.5t22 -54.5q0 -33 -22 -54.5t-54 -21.5q-33 0 -55 21.5t-22 54.5zM229 667q0 32 22 54.5t55 22.5q32 0 54 -22.5t22 -54.5q0 -33 -22 -54.5t-54 -21.5q-33 0 -55 21.5t-22 54.5z" />
    <glyph glyph-name="eth" unicode="&#xf0;" horiz-adv-x="584" 
d="M161 621l73 96q34 -23 57 -41l59 60l64 -64l-55 -55q166 -170 166 -392q0 -24 -5.5 -51t-22 -60t-41 -59t-67.5 -43.5t-97 -17.5t-96.5 16.5t-67 41.5t-41 56.5t-22 58t-5.5 49.5q0 38 9.5 73t31.5 70.5t66 58.5t106 26q43 0 69 -12q-22 48 -71 98l-48 -48l-62 62l45 45
q-20 16 -45 32zM292 118q48 0 74.5 30.5t26.5 72.5q-2 43 -28 72.5t-73 29.5t-73.5 -30t-26.5 -72t27 -72.5t73 -30.5z" />
    <glyph glyph-name="ntilde" unicode="&#xf1;" 
d="M215 344v-344h-135v500h92l12 -36q54 44 126 44q55 0 95 -15.5t63 -38.5t36 -58t17 -66.5t4 -71.5v-258h-138v258q0 129 -82 129q-59 0 -90 -43zM388 735l82 -43q-46 -102 -133 -102q-23 0 -50.5 17t-43.5 17q-32 0 -50 -39l-78 36q18 59 53.5 83t75.5 24q27 0 55.5 -16
t39.5 -16q27 0 49 39z" />
    <glyph glyph-name="ograve" unicode="&#xf2;" horiz-adv-x="618" 
d="M309 510q68 0 119 -25t78 -66t39.5 -83.5t12.5 -85.5q0 -44 -12.5 -86.5t-39.5 -83t-78 -65t-119 -24.5t-119 24.5t-78 65t-39.5 83t-12.5 86.5q0 43 12.5 85.5t39.5 83.5t78 66t119 25zM309 112q35 0 59.5 16t35.5 41t15 44.5t4 36.5t-4 37t-15 45t-35.5 41t-59.5 16
t-60 -16.5t-35.5 -41t-15 -44.5t-4.5 -37t4.5 -36.5t15 -44.5t35.5 -41t60 -16zM261 786l161 -125l-52 -74l-174 108z" />
    <glyph glyph-name="oacute" unicode="&#xf3;" horiz-adv-x="618" 
d="M309 510q68 0 119 -25t78 -66t39.5 -83.5t12.5 -85.5q0 -44 -12.5 -86.5t-39.5 -83t-78 -65t-119 -24.5t-119 24.5t-78 65t-39.5 83t-12.5 86.5q0 43 12.5 85.5t39.5 83.5t78 66t119 25zM309 112q35 0 59.5 16t35.5 41t15 44.5t4 36.5t-4 37t-15 45t-35.5 41t-59.5 16
t-60 -16.5t-35.5 -41t-15 -44.5t-4.5 -37t4.5 -36.5t15 -44.5t35.5 -41t60 -16zM196 661l161 125l65 -91l-174 -108z" />
    <glyph glyph-name="ocircumflex" unicode="&#xf4;" horiz-adv-x="618" 
d="M309 510q68 0 119 -25t78 -66t39.5 -83.5t12.5 -85.5q0 -44 -12.5 -86.5t-39.5 -83t-78 -65t-119 -24.5t-119 24.5t-78 65t-39.5 83t-12.5 86.5q0 43 12.5 85.5t39.5 83.5t78 66t119 25zM309 112q35 0 59.5 16t35.5 41t15 44.5t4 36.5t-4 37t-15 45t-35.5 41t-59.5 16
t-60 -16.5t-35.5 -41t-15 -44.5t-4.5 -37t4.5 -36.5t15 -44.5t35.5 -41t60 -16zM148 663l161 125l161 -125l-52 -74l-109 67l-109 -67z" />
    <glyph glyph-name="otilde" unicode="&#xf5;" horiz-adv-x="618" 
d="M309 510q68 0 119 -25t78 -66t39.5 -83.5t12.5 -85.5q0 -44 -12.5 -86.5t-39.5 -83t-78 -65t-119 -24.5t-119 24.5t-78 65t-39.5 83t-12.5 86.5q0 43 12.5 85.5t39.5 83.5t78 66t119 25zM309 112q35 0 59.5 16t35.5 41t15 44.5t4 36.5t-4 37t-15 45t-35.5 41t-59.5 16
t-60 -16.5t-35.5 -41t-15 -44.5t-4.5 -37t4.5 -36.5t15 -44.5t35.5 -41t60 -16zM404 735l82 -43q-46 -102 -133 -102q-23 0 -50.5 17t-43.5 17q-32 0 -50 -39l-78 36q18 59 53.5 83t75.5 24q27 0 55.5 -16t39.5 -16q27 0 49 39z" />
    <glyph glyph-name="odieresis" unicode="&#xf6;" horiz-adv-x="618" 
d="M309 510q68 0 119 -25t78 -66t39.5 -83.5t12.5 -85.5q0 -44 -12.5 -86.5t-39.5 -83t-78 -65t-119 -24.5t-119 24.5t-78 65t-39.5 83t-12.5 86.5q0 43 12.5 85.5t39.5 83.5t78 66t119 25zM309 112q35 0 59.5 16t35.5 41t15 44.5t4 36.5t-4 37t-15 45t-35.5 41t-59.5 16
t-60 -16.5t-35.5 -41t-15 -44.5t-4.5 -37t4.5 -36.5t15 -44.5t35.5 -41t60 -16zM118 667q0 32 22 54.5t55 22.5q32 0 54 -22.5t22 -54.5q0 -33 -22 -54.5t-54 -21.5q-33 0 -55 21.5t-22 54.5zM347 667q0 32 22 54.5t55 22.5q32 0 54 -22.5t22 -54.5q0 -33 -22 -54.5
t-54 -21.5q-33 0 -55 21.5t-22 54.5z" />
    <glyph glyph-name="divide" unicode="&#xf7;" horiz-adv-x="461" 
d="M60 299h341v-99h-341v99zM162 434q0 29 19.5 48.5t48.5 19.5q28 0 48 -20t20 -48q0 -30 -19.5 -49t-48.5 -19t-48.5 19t-19.5 49zM162 68q0 29 19.5 48.5t48.5 19.5q28 0 48 -20t20 -48q0 -30 -19.5 -49t-48.5 -19t-48.5 19t-19.5 49z" />
    <glyph glyph-name="oslash" unicode="&#xf8;" horiz-adv-x="618" 
d="M133 -32l-78 65l49 58q-44 67 -44 159q0 43 12.5 85.5t39.5 83.5t78 66t119 25q71 0 124 -29l54 64l78 -65l-56 -66q49 -69 49 -164q0 -44 -12.5 -86.5t-39.5 -83t-78 -65t-119 -24.5q-77 0 -131 30zM309 112q35 0 59.5 16t35.5 41t15 44.5t4 36.5q0 24 -8 52l-153 -181
q20 -9 47 -9zM194 250q0 -23 6 -45l149 177q-19 7 -40 7q-35 0 -60 -16.5t-35.5 -41t-15 -44.5t-4.5 -37z" />
    <glyph glyph-name="ugrave" unicode="&#xf9;" 
d="M370 156v344h135v-500h-92l-12 36q-54 -44 -126 -44q-55 0 -95 15.5t-63 38.5t-36 58t-17 66.5t-4 71.5v258h138v-258q0 -129 82 -129q59 0 90 43zM244 786l161 -125l-52 -74l-174 108z" />
    <glyph glyph-name="uacute" unicode="&#xfa;" 
d="M370 156v344h135v-500h-92l-12 36q-54 -44 -126 -44q-55 0 -95 15.5t-63 38.5t-36 58t-17 66.5t-4 71.5v258h138v-258q0 -129 82 -129q59 0 90 43zM179 661l161 125l65 -91l-174 -108z" />
    <glyph glyph-name="ucircumflex" unicode="&#xfb;" 
d="M370 156v344h135v-500h-92l-12 36q-54 -44 -126 -44q-55 0 -95 15.5t-63 38.5t-36 58t-17 66.5t-4 71.5v258h138v-258q0 -129 82 -129q59 0 90 43zM131 663l161 125l161 -125l-52 -74l-109 67l-109 -67z" />
    <glyph glyph-name="udieresis" unicode="&#xfc;" 
d="M370 156v344h135v-500h-92l-12 36q-54 -44 -126 -44q-55 0 -95 15.5t-63 38.5t-36 58t-17 66.5t-4 71.5v258h138v-258q0 -129 82 -129q59 0 90 43zM101 667q0 32 22 54.5t55 22.5q32 0 54 -22.5t22 -54.5q0 -33 -22 -54.5t-54 -21.5q-33 0 -55 21.5t-22 54.5zM330 667
q0 32 22 54.5t55 22.5q32 0 54 -22.5t22 -54.5q0 -33 -22 -54.5t-54 -21.5q-33 0 -55 21.5t-22 54.5z" />
    <glyph glyph-name="yacute" unicode="&#xfd;" horiz-adv-x="598" 
d="M228 40q-30 73 -104.5 237t-100.5 223h155l123 -301q31 81 119 301h152l-297 -699h-141v11zM186 661l161 125l65 -91l-174 -108z" />
    <glyph glyph-name="thorn" unicode="&#xfe;" horiz-adv-x="614" 
d="M305 -8q-48 0 -90 14v-205h-135v900h135v-207q42 14 90 14q68 0 119 -25t78 -65.5t39.5 -82.5t12.5 -85t-12.5 -85t-39.5 -82.5t-78 -65.5t-119 -25zM215 365v-230q33 -22 82 -22q36 0 62 15t38.5 39t17.5 44.5t5 38.5t-5 38.5t-17.5 44.5t-38.5 39t-62 15q-49 0 -82 -22
z" />
    <glyph glyph-name="ydieresis" unicode="&#xff;" horiz-adv-x="579" 
d="M204 40q-30 73 -104.5 237t-100.5 223h155l123 -301q31 81 119 301h152l-297 -699h-141v11zM98 667q0 32 22 54.5t55 22.5q32 0 54 -22.5t22 -54.5q0 -33 -22 -54.5t-54 -21.5q-33 0 -55 21.5t-22 54.5zM327 667q0 32 22 54.5t55 22.5q32 0 54 -22.5t22 -54.5
q0 -33 -22 -54.5t-54 -21.5q-33 0 -55 21.5t-22 54.5z" />
    <glyph glyph-name="Amacron" unicode="&#x100;" horiz-adv-x="724" 
d="M30 0l323 709h18l323 -709h-157l-69 165h-212l-68 -165h-158zM362 419l-57 -137h114zM211 894h301v-97h-301v97z" />
    <glyph glyph-name="amacron" unicode="&#x101;" horiz-adv-x="548" 
d="M258 508q5 0 13 0.5t12 0.5q49 0 84.5 -13t54.5 -32t30 -49.5t13.5 -56.5t2.5 -62v-296h-94l-10 32q-46 -39 -119 -42q-55 -2 -94 13t-57.5 41.5t-26 51.5t-7.5 51q0 166 214 166q26 0 58 -7q0 49 -15.5 65.5t-51.5 16.5q-53 0 -134 -35l-44 103q90 47 171 52zM332 147
v54q-41 11 -62 11q-81 0 -81 -58q0 -22 17 -34t42 -12q26 0 50 12t34 27zM123 694h301v-97h-301v97z" />
    <glyph glyph-name="Abreve" unicode="&#x102;" horiz-adv-x="724" 
d="M30 0l323 709h18l323 -709h-157l-69 165h-212l-68 -165h-158zM362 419l-57 -137h114zM416 949l101 -30q-17 -65 -58.5 -97t-97.5 -32t-97.5 32t-57.5 97l99 29q11 -54 56 -54q43 0 55 55z" />
    <glyph glyph-name="abreve" unicode="&#x103;" horiz-adv-x="548" 
d="M258 508q5 0 13 0.5t12 0.5q49 0 84.5 -13t54.5 -32t30 -49.5t13.5 -56.5t2.5 -62v-296h-94l-10 32q-46 -39 -119 -42q-55 -2 -94 13t-57.5 41.5t-26 51.5t-7.5 51q0 166 214 166q26 0 58 -7q0 49 -15.5 65.5t-51.5 16.5q-53 0 -134 -35l-44 103q90 47 171 52zM332 147
v54q-41 11 -62 11q-81 0 -81 -58q0 -22 17 -34t42 -12q26 0 50 12t34 27zM328 749l101 -30q-17 -65 -58.5 -97t-97.5 -32t-97.5 32t-57.5 97l99 29q11 -54 56 -54q43 0 55 55z" />
    <glyph glyph-name="Aogonek" unicode="&#x104;" horiz-adv-x="724" 
d="M30 0l323 709h18l323 -709h-69v-3q0 -10 -17 -41.5t-17 -52.5q0 -40 51 -40q35 0 82 18v-81q-53 -23 -113 -23q-50 0 -83 27t-33 79q0 30 21 69.5t21 47.5l-69 165h-212l-68 -165h-158zM362 419l-57 -137h114z" />
    <glyph glyph-name="aogonek" unicode="&#x105;" horiz-adv-x="548" 
d="M258 508q5 0 13 0.5t12 0.5q49 0 84.5 -13t54.5 -32t30 -49.5t13.5 -56.5t2.5 -62v-299q0 -10 -17 -41.5t-17 -52.5q0 -40 51 -40q35 0 82 18v-81q-53 -23 -113 -23q-50 0 -83 27t-33 79q0 30 20 69.5t20 47.5l-14 32q-46 -39 -119 -42q-55 -2 -94 13t-57.5 41.5
t-26 51.5t-7.5 51q0 166 214 166q26 0 58 -7q0 49 -15.5 65.5t-51.5 16.5q-53 0 -134 -35l-44 103q90 47 171 52zM332 147v54q-41 11 -62 11q-81 0 -81 -58q0 -22 17 -34t42 -12q26 0 50 12t34 27z" />
    <glyph glyph-name="Cacute" unicode="&#x106;" horiz-adv-x="741" 
d="M281 861l161 125l65 -91l-174 -108zM681 579l-93 -90q-29 36 -81 62.5t-99 26.5q-51 0 -90 -18.5t-59.5 -44.5t-34 -60t-17 -58.5t-3.5 -45.5t4 -45.5t17 -58t34 -59.5t60 -44.5t90 -18.5q48 0 99 23.5t89 57.5l80 -97q-118 -118 -269 -118q-77 0 -138.5 23.5t-99.5 60
t-64 85t-36 96t-10 95.5q0 47 10 93.5t36 95.5t64 86t99.5 60.5t138.5 23.5q157 0 273 -131z" />
    <glyph glyph-name="cacute" unicode="&#x107;" horiz-adv-x="577" 
d="M421 173l79 -95q-83 -85 -188 -85q-68 0 -119.5 24.5t-79 64t-40.5 81.5t-13 85q0 46 11.5 88t38 82.5t78 65t122.5 24.5q109 0 199 -99l-78 -87q-24 26 -57.5 43t-63.5 17q-54 0 -84.5 -39t-30.5 -92q0 -59 34 -93.5t82 -34.5q59 0 110 50zM175 661l161 125l65 -91
l-174 -108z" />
    <glyph glyph-name="Ccircumflex" unicode="&#x108;" horiz-adv-x="741" 
d="M681 579l-93 -90q-29 36 -81 62.5t-99 26.5q-51 0 -90 -18.5t-59.5 -44.5t-34 -60t-17 -58.5t-3.5 -45.5t4 -45.5t17 -58t34 -59.5t60 -44.5t90 -18.5q48 0 99 23.5t89 57.5l80 -97q-118 -118 -269 -118q-77 0 -138.5 23.5t-99.5 60t-64 85t-36 96t-10 95.5q0 47 10 93.5
t36 95.5t64 86t99.5 60.5t138.5 23.5q157 0 273 -131zM233 863l161 125l161 -125l-52 -74l-109 67l-109 -67z" />
    <glyph glyph-name="ccircumflex" unicode="&#x109;" horiz-adv-x="577" 
d="M500 78l-79 95q-51 -50 -110 -50q-48 0 -82 34.5t-34 93.5q0 53 30.5 92t84.5 39q30 0 63.5 -17t57.5 -43l78 87q-90 99 -199 99q-71 0 -122.5 -24.5t-78 -65t-38 -82.5t-11.5 -88q0 -43 13 -85t40.5 -81.5t79 -64t119.5 -24.5q105 0 188 85zM144 663l161 125l161 -125
l-52 -74l-109 67l-109 -67z" />
    <glyph glyph-name="Cdotaccent" unicode="&#x10a;" horiz-adv-x="741" 
d="M681 579l-93 -90q-29 36 -81 62.5t-99 26.5q-51 0 -90 -18.5t-59.5 -44.5t-34 -60t-17 -58.5t-3.5 -45.5t4 -45.5t17 -58t34 -59.5t60 -44.5t90 -18.5q48 0 99 23.5t89 57.5l80 -97q-118 -118 -269 -118q-77 0 -138.5 23.5t-99.5 60t-64 85t-36 96t-10 95.5q0 47 10 93.5
t36 95.5t64 86t99.5 60.5t138.5 23.5q157 0 273 -131zM316 867q0 32 22 54.5t55 22.5q32 0 54 -22.5t22 -54.5q0 -33 -22 -54.5t-54 -21.5q-33 0 -55 21.5t-22 54.5z" />
    <glyph glyph-name="cdotaccent" unicode="&#x10b;" horiz-adv-x="577" 
d="M500 78l-79 95q-51 -50 -110 -50q-48 0 -82 34.5t-34 93.5q0 53 30.5 92t84.5 39q30 0 63.5 -17t57.5 -43l78 87q-90 99 -199 99q-71 0 -122.5 -24.5t-78 -65t-38 -82.5t-11.5 -88q0 -43 13 -85t40.5 -81.5t79 -64t119.5 -24.5q105 0 188 85zM232 667q0 32 22 54.5
t55 22.5q32 0 54 -22.5t22 -54.5q0 -33 -22 -54.5t-54 -21.5q-33 0 -55 21.5t-22 54.5z" />
    <glyph glyph-name="Ccaron" unicode="&#x10c;" horiz-adv-x="741" 
d="M681 579l-93 -90q-29 36 -81 62.5t-99 26.5q-51 0 -90 -18.5t-59.5 -44.5t-34 -60t-17 -58.5t-3.5 -45.5t4 -45.5t17 -58t34 -59.5t60 -44.5t90 -18.5q48 0 99 23.5t89 57.5l80 -97q-118 -118 -269 -118q-77 0 -138.5 23.5t-99.5 60t-64 85t-36 96t-10 95.5q0 47 10 93.5
t36 95.5t64 86t99.5 60.5t138.5 23.5q157 0 273 -131zM406 786l-161 125l52 74l109 -67l109 67l52 -74z" />
    <glyph glyph-name="ccaron" unicode="&#x10d;" horiz-adv-x="577" 
d="M421 173l79 -95q-83 -85 -188 -85q-68 0 -119.5 24.5t-79 64t-40.5 81.5t-13 85q0 46 11.5 88t38 82.5t78 65t122.5 24.5q109 0 199 -99l-78 -87q-24 26 -57.5 43t-63.5 17q-54 0 -84.5 -39t-30.5 -92q0 -59 34 -93.5t82 -34.5q59 0 110 50zM308 586l-161 125l52 74
l109 -67l109 67l52 -74z" />
    <glyph glyph-name="Dcaron" unicode="&#x10e;" horiz-adv-x="755" 
d="M349 0h-249v700h249q76 0 137.5 -22.5t99.5 -58t63.5 -83t35.5 -93t10 -92.5q0 -48 -10 -94.5t-35.5 -93.5t-63.5 -82.5t-99 -58t-138 -22.5zM240 130h109q62 0 105.5 25.5t63 65t27 71t7.5 59.5t-7.5 59.5t-27 70.5t-63 64.5t-105.5 25.5h-109v-441zM290 786l-161 125
l52 74l109 -67l109 67l52 -74z" />
    <glyph glyph-name="dcaron" unicode="&#x10f;" horiz-adv-x="802" 
d="M309 509q-58 0 -103 -16.5t-72 -42.5t-44 -61.5t-23.5 -69t-6.5 -69.5q0 -44 12 -86.5t37.5 -82.5t74.5 -65t115 -25q32 0 71 12.5t60 31.5l11 -35h93v701h-135v-209q-37 17 -90 17zM309 113q-36 0 -61 15t-35.5 39t-14.5 43.5t-4 39.5q0 23 4.5 43t16 43.5t38 37.5
t64.5 14q45 0 82 -24v-212q-11 -15 -36 -27t-54 -12zM695 388l-70 34q37 63 56 128q-54 17 -54 78q0 35 23 58.5t58 23.5q46 0 67.5 -26t21.5 -64q0 -45 -34 -117.5t-68 -114.5z" />
    <glyph glyph-name="Dcroat" unicode="&#x110;" horiz-adv-x="755" 
d="M349 0h-249v700h249q76 0 137.5 -22.5t99.5 -58t63.5 -83t35.5 -93t10 -92.5q0 -48 -10 -94.5t-35.5 -93.5t-63.5 -82.5t-99 -58t-138 -22.5zM240 130h109q62 0 105.5 25.5t63 65t27 71t7.5 59.5t-7.5 59.5t-27 70.5t-63 64.5t-105.5 25.5h-109v-441zM128 894h301v-97
h-301v97z" />
    <glyph glyph-name="dcroat" unicode="&#x111;" horiz-adv-x="614" 
d="M534 663h59v-76h-59v-587h-93l-11 35q-21 -19 -60 -31.5t-71 -12.5q-66 0 -115 25t-74.5 65t-37.5 82.5t-12 86.5q0 36 6.5 69.5t23.5 69t44 61.5t72 42.5t103 16.5q53 0 90 -17v95h-76v76h76v37h135v-37zM309 113q29 0 54 12t36 27v212q-37 24 -82 24q-38 0 -64.5 -14
t-38 -37.5t-16 -43.5t-4.5 -43q0 -20 4 -39.5t14.5 -43.5t35.5 -39t61 -15z" />
    <glyph glyph-name="Emacron" unicode="&#x112;" horiz-adv-x="636" 
d="M503 280h-262v-150h335v-130h-476v700h476v-130h-335v-160h262v-130zM167 894h301v-97h-301v97z" />
    <glyph glyph-name="emacron" unicode="&#x113;" horiz-adv-x="547" 
d="M498 227h-313q6 -47 35 -78.5t75 -31.5q66 0 125 45l66 -91q-92 -77 -191 -77q-68 0 -119 24.5t-78 64t-40 82t-13 86.5q0 43 13 85t40 82t78 64.5t119 24.5q98 0 152.5 -58t54.5 -157q0 -21 -4 -65zM295 386q-80 0 -106 -79h179q-2 78 -73 79zM141 694h301v-97h-301v97z
" />
    <glyph glyph-name="Ebreve" unicode="&#x114;" horiz-adv-x="636" 
d="M503 280h-262v-150h335v-130h-476v700h476v-130h-335v-160h262v-130zM392 949l101 -30q-17 -65 -58.5 -97t-97.5 -32t-97.5 32t-57.5 97l99 29q11 -54 56 -54q43 0 55 55z" />
    <glyph glyph-name="ebreve" unicode="&#x115;" horiz-adv-x="547" 
d="M498 227h-313q6 -47 35 -78.5t75 -31.5q66 0 125 45l66 -91q-92 -77 -191 -77q-68 0 -119 24.5t-78 64t-40 82t-13 86.5q0 43 13 85t40 82t78 64.5t119 24.5q98 0 152.5 -58t54.5 -157q0 -21 -4 -65zM295 386q-80 0 -106 -79h179q-2 78 -73 79zM345 749l101 -30
q-17 -65 -58.5 -97t-97.5 -32t-97.5 32t-57.5 97l99 29q11 -54 56 -54q43 0 55 55z" />
    <glyph glyph-name="Edotaccent" unicode="&#x116;" horiz-adv-x="636" 
d="M503 280h-262v-150h335v-130h-476v700h476v-130h-335v-160h262v-130zM257 867q0 32 22 54.5t55 22.5q32 0 54 -22.5t22 -54.5q0 -33 -22 -54.5t-54 -21.5q-33 0 -55 21.5t-22 54.5z" />
    <glyph glyph-name="edotaccent" unicode="&#x117;" horiz-adv-x="547" 
d="M498 227h-313q6 -47 35 -78.5t75 -31.5q66 0 125 45l66 -91q-92 -77 -191 -77q-68 0 -119 24.5t-78 64t-40 82t-13 86.5q0 43 13 85t40 82t78 64.5t119 24.5q98 0 152.5 -58t54.5 -157q0 -21 -4 -65zM295 386q-80 0 -106 -79h179q-2 78 -73 79zM211 667q0 32 22 54.5
t55 22.5q32 0 54 -22.5t22 -54.5q0 -33 -22 -54.5t-54 -21.5q-33 0 -55 21.5t-22 54.5z" />
    <glyph glyph-name="Eogonek" unicode="&#x118;" horiz-adv-x="636" 
d="M503 280h-262v-150h335v-133q0 -10 -17 -41.5t-17 -52.5q0 -40 51 -40q35 0 82 18v-81q-53 -23 -113 -23q-50 0 -83 27t-33 79q0 30 21 69.5t21 47.5h-388v700h476v-130h-335v-160h262v-130z" />
    <glyph glyph-name="eogonek" unicode="&#x119;" horiz-adv-x="547" 
d="M498 227h-313q6 -47 35 -78.5t75 -31.5q66 0 125 45l66 -91q-39 -33 -69 -48v-26q0 -10 -17 -41.5t-17 -52.5q0 -40 51 -40q35 0 82 18v-81q-53 -23 -113 -23q-50 0 -83 27t-33 79q0 29 20 68.5t21 44.5q-22 -2 -33 -2q-68 0 -119 24.5t-78 64t-40 82t-13 86.5
q0 43 13 85t40 82t78 64.5t119 24.5q98 0 152.5 -58t54.5 -157q0 -21 -4 -65zM295 386q-80 0 -106 -79h179q-2 78 -73 79z" />
    <glyph glyph-name="Ecaron" unicode="&#x11a;" horiz-adv-x="636" 
d="M503 280h-262v-150h335v-130h-476v700h476v-130h-335v-160h262v-130zM318 786l-161 125l52 74l109 -67l109 67l52 -74z" />
    <glyph glyph-name="ecaron" unicode="&#x11b;" horiz-adv-x="547" 
d="M498 227h-313q6 -47 35 -78.5t75 -31.5q66 0 125 45l66 -91q-92 -77 -191 -77q-68 0 -119 24.5t-78 64t-40 82t-13 86.5q0 43 13 85t40 82t78 64.5t119 24.5q98 0 152.5 -58t54.5 -157q0 -21 -4 -65zM295 386q-80 0 -106 -79h179q-2 78 -73 79zM289 586l-161 125l52 74
l109 -67l109 67l52 -74z" />
    <glyph glyph-name="Gcircumflex" unicode="&#x11c;" horiz-adv-x="727" 
d="M523 245h-138v128h280v-279q-103 -103 -257 -103q-77 0 -138.5 23.5t-99.5 60t-64 85t-36 96t-10 95.5q0 47 10 93.5t36 95.5t64 86t99.5 60.5t138.5 23.5q153 0 259 -114l-87 -94q-30 32 -79 54t-93 22q-51 0 -90 -18.5t-59.5 -44t-34 -59t-17 -58t-3.5 -45.5t3.5 -46.5
t17 -60t34 -61.5t59.5 -46t90 -19q30 0 63.5 10t51.5 26v89zM228 863l161 125l161 -125l-52 -74l-109 67l-109 -67z" />
    <glyph glyph-name="gcircumflex" unicode="&#x11d;" 
d="M60 -66q1 26 14.5 54.5t38.5 45.5q-41 32 -41 93q0 25 14.5 49t37.5 35q-35 38 -35 105q0 34 10.5 66.5t32.5 62.5t62.5 48.5t95.5 18.5q59 0 95 -20l71 67l79 -79l-70 -75q28 -41 28 -91q0 -33 -11 -65.5t-33 -62t-63.5 -48t-95.5 -18.5q-45 0 -76 12q-9 -1 -16 -6
t-7 -12q0 -19 11.5 -27.5t42.5 -7.5q154 7 213.5 -32t59.5 -114q0 -12 -3 -27.5t-16.5 -39.5t-35.5 -42.5t-65.5 -32.5t-101.5 -14q-125 0 -180.5 48t-55.5 109zM290 242q25 0 40 16t18.5 30.5t3.5 27.5q0 14 -3.5 28.5t-18.5 30.5t-40 16q-35 0 -49 -24.5t-14 -50.5
q0 -14 3 -28t18.5 -30t41.5 -16zM290 -109q27 0 47 4t29.5 9.5t15.5 12t7 9.5t1 5q0 37 -100 37q-102 0 -102 -35q0 -7 6.5 -15t31.5 -17t64 -10zM131 663l161 125l161 -125l-52 -74l-109 67l-109 -67z" />
    <glyph glyph-name="Gbreve" unicode="&#x11e;" horiz-adv-x="727" 
d="M523 245h-138v128h280v-279q-103 -103 -257 -103q-77 0 -138.5 23.5t-99.5 60t-64 85t-36 96t-10 95.5q0 47 10 93.5t36 95.5t64 86t99.5 60.5t138.5 23.5q153 0 259 -114l-87 -94q-30 32 -79 54t-93 22q-51 0 -90 -18.5t-59.5 -44t-34 -59t-17 -58t-3.5 -45.5t3.5 -46.5
t17 -60t34 -61.5t59.5 -46t90 -19q30 0 63.5 10t51.5 26v89zM442 949l101 -30q-17 -65 -58.5 -97t-97.5 -32t-97.5 32t-57.5 97l99 29q11 -54 56 -54q43 0 55 55z" />
    <glyph glyph-name="gbreve" unicode="&#x11f;" 
d="M60 -66q1 26 14.5 54.5t38.5 45.5q-41 32 -41 93q0 25 14.5 49t37.5 35q-35 38 -35 105q0 34 10.5 66.5t32.5 62.5t62.5 48.5t95.5 18.5q59 0 95 -20l71 67l79 -79l-70 -75q28 -41 28 -91q0 -33 -11 -65.5t-33 -62t-63.5 -48t-95.5 -18.5q-45 0 -76 12q-9 -1 -16 -6
t-7 -12q0 -19 11.5 -27.5t42.5 -7.5q154 7 213.5 -32t59.5 -114q0 -12 -3 -27.5t-16.5 -39.5t-35.5 -42.5t-65.5 -32.5t-101.5 -14q-125 0 -180.5 48t-55.5 109zM290 242q25 0 40 16t18.5 30.5t3.5 27.5q0 14 -3.5 28.5t-18.5 30.5t-40 16q-35 0 -49 -24.5t-14 -50.5
q0 -14 3 -28t18.5 -30t41.5 -16zM290 -109q27 0 47 4t29.5 9.5t15.5 12t7 9.5t1 5q0 37 -100 37q-102 0 -102 -35q0 -7 6.5 -15t31.5 -17t64 -10zM347 749l101 -30q-17 -65 -58.5 -97t-97.5 -32t-97.5 32t-57.5 97l99 29q11 -54 56 -54q43 0 55 55z" />
    <glyph glyph-name="Gdotaccent" unicode="&#x120;" horiz-adv-x="727" 
d="M523 245h-138v128h280v-279q-103 -103 -257 -103q-77 0 -138.5 23.5t-99.5 60t-64 85t-36 96t-10 95.5q0 47 10 93.5t36 95.5t64 86t99.5 60.5t138.5 23.5q153 0 259 -114l-87 -94q-30 32 -79 54t-93 22q-51 0 -90 -18.5t-59.5 -44t-34 -59t-17 -58t-3.5 -45.5t3.5 -46.5
t17 -60t34 -61.5t59.5 -46t90 -19q30 0 63.5 10t51.5 26v89zM316 867q0 32 22 54.5t55 22.5q32 0 54 -22.5t22 -54.5q0 -33 -22 -54.5t-54 -21.5q-33 0 -55 21.5t-22 54.5z" />
    <glyph glyph-name="gdotaccent" unicode="&#x121;" 
d="M60 -66q1 26 14.5 54.5t38.5 45.5q-41 32 -41 93q0 25 14.5 49t37.5 35q-35 38 -35 105q0 34 10.5 66.5t32.5 62.5t62.5 48.5t95.5 18.5q59 0 95 -20l71 67l79 -79l-70 -75q28 -41 28 -91q0 -33 -11 -65.5t-33 -62t-63.5 -48t-95.5 -18.5q-45 0 -76 12q-9 -1 -16 -6
t-7 -12q0 -19 11.5 -27.5t42.5 -7.5q154 7 213.5 -32t59.5 -114q0 -12 -3 -27.5t-16.5 -39.5t-35.5 -42.5t-65.5 -32.5t-101.5 -14q-125 0 -180.5 48t-55.5 109zM290 242q25 0 40 16t18.5 30.5t3.5 27.5q0 14 -3.5 28.5t-18.5 30.5t-40 16q-35 0 -49 -24.5t-14 -50.5
q0 -14 3 -28t18.5 -30t41.5 -16zM290 -109q27 0 47 4t29.5 9.5t15.5 12t7 9.5t1 5q0 37 -100 37q-102 0 -102 -35q0 -7 6.5 -15t31.5 -17t64 -10zM216 667q0 32 22 54.5t55 22.5q32 0 54 -22.5t22 -54.5q0 -33 -22 -54.5t-54 -21.5q-33 0 -55 21.5t-22 54.5z" />
    <glyph glyph-name="Gcommaaccent" unicode="&#x122;" horiz-adv-x="727" 
d="M523 245h-138v128h280v-279q-103 -103 -257 -103q-77 0 -138.5 23.5t-99.5 60t-64 85t-36 96t-10 95.5q0 47 10 93.5t36 95.5t64 86t99.5 60.5t138.5 23.5q153 0 259 -114l-87 -94q-30 32 -79 54t-93 22q-51 0 -90 -18.5t-59.5 -44t-34 -59t-17 -58t-3.5 -45.5t3.5 -46.5
t17 -60t34 -61.5t59.5 -46t90 -19q30 0 63.5 10t51.5 26v89zM407 -342l-58 26q27 55 38 88q-49 16 -49 70q0 29 20 50t50 21q39 0 58 -22.5t19 -54.5q0 -60 -78 -178z" />
    <glyph glyph-name="gcommaaccent" unicode="&#x123;" 
d="M60 -66q1 26 14.5 54.5t38.5 45.5q-41 32 -41 93q0 25 14.5 49t37.5 35q-35 38 -35 105q0 34 10.5 66.5t32.5 62.5t62.5 48.5t95.5 18.5q59 0 95 -20l71 67l79 -79l-70 -75q28 -41 28 -91q0 -33 -11 -65.5t-33 -62t-63.5 -48t-95.5 -18.5q-45 0 -76 12q-9 -1 -16 -6
t-7 -12q0 -19 11.5 -27.5t42.5 -7.5q154 7 213.5 -32t59.5 -114q0 -12 -3 -27.5t-16.5 -39.5t-35.5 -42.5t-65.5 -32.5t-101.5 -14q-125 0 -180.5 48t-55.5 109zM290 242q25 0 40 16t18.5 30.5t3.5 27.5q0 14 -3.5 28.5t-18.5 30.5t-40 16q-35 0 -49 -24.5t-14 -50.5
q0 -14 3 -28t18.5 -30t41.5 -16zM290 -109q27 0 47 4t29.5 9.5t15.5 12t7 9.5t1 5q0 37 -100 37q-102 0 -102 -35q0 -7 6.5 -15t31.5 -17t64 -10zM293 843l58 -26q-27 -55 -38 -88q49 -16 49 -70q0 -29 -20 -50t-50 -21q-39 0 -58 22.5t-19 54.5q0 60 78 178z" />
    <glyph glyph-name="Hcircumflex" unicode="&#x124;" horiz-adv-x="775" 
d="M242 280v-280h-142v700h142v-290h292v290h141v-700h-141v280h-292zM226 863l161 125l161 -125l-52 -74l-109 67l-109 -67z" />
    <glyph glyph-name="hcircumflex" unicode="&#x125;" horiz-adv-x="584" 
d="M215 0h-135v700h135v-218q43 26 96 26q55 0 95.5 -15t62.5 -38t35 -58.5t16.5 -66.5t3.5 -72v-258h-135v258q0 59 -18.5 94t-76.5 34q-53 -2 -79 -38v-348zM-13 865l161 125l161 -125l-52 -74l-109 67l-109 -67z" />
    <glyph glyph-name="Hbar" unicode="&#x126;" horiz-adv-x="761" 
d="M40 613h52v87h142v-87h292v87h141v-87h54v-97h-54v-516h-141v280h-292v-280h-142v516h-52v97zM234 410h292v106h-292v-106z" />
    <glyph glyph-name="hbar" unicode="&#x127;" horiz-adv-x="584" 
d="M27 648h53v52h135v-52h113v-73h-113v-93q43 26 96 26q55 0 95.5 -15t62.5 -38t35 -58.5t16.5 -66.5t3.5 -72v-258h-135v258q0 59 -18.5 94t-76.5 34q-53 -2 -79 -38v-348h-135v575h-53v73z" />
    <glyph glyph-name="Itilde" unicode="&#x128;" horiz-adv-x="355" 
d="M248 700v-700h-142v700h142zM273 935l82 -43q-46 -102 -133 -102q-23 0 -50.5 17t-43.5 17q-32 0 -50 -39l-78 36q18 59 53.5 83t75.5 24q27 0 55.5 -16t39.5 -16q27 0 49 39z" />
    <glyph glyph-name="itilde" unicode="&#x129;" horiz-adv-x="355" 
d="M245 500v-500h-136v500h136zM273 735l82 -43q-46 -102 -133 -102q-23 0 -50.5 17t-43.5 17q-32 0 -50 -39l-78 36q18 59 53.5 83t75.5 24q27 0 55.5 -16t39.5 -16q27 0 49 39z" />
    <glyph glyph-name="Imacron" unicode="&#x12a;" horiz-adv-x="301" 
d="M221 700v-700h-142v700h142zM0 894h301v-97h-301v97z" />
    <glyph glyph-name="imacron" unicode="&#x12b;" horiz-adv-x="301" 
d="M218 500v-500h-136v500h136zM0 694h301v-97h-301v97z" />
    <glyph glyph-name="Ibreve" unicode="&#x12c;" horiz-adv-x="311" 
d="M226 700v-700h-142v700h142zM210 949l101 -30q-17 -65 -58.5 -97t-97.5 -32t-97.5 32t-57.5 97l99 29q11 -54 56 -54q43 0 55 55z" />
    <glyph glyph-name="ibreve" unicode="&#x12d;" horiz-adv-x="311" 
d="M223 500v-500h-136v500h136zM210 749l101 -30q-17 -65 -58.5 -97t-97.5 -32t-97.5 32t-57.5 97l99 29q11 -54 56 -54q43 0 55 55z" />
    <glyph glyph-name="Iogonek" unicode="&#x12e;" horiz-adv-x="342" 
d="M242 700v-700h-1v-3q0 -10 -17 -41.5t-17 -52.5q0 -40 51 -40q35 0 82 18v-81q-53 -23 -113 -23q-50 0 -83 27t-33 79q0 30 21 69.5t21 47.5h-53v700h142z" />
    <glyph glyph-name="iogonek" unicode="&#x12f;" horiz-adv-x="313" 
d="M224 500v-503q0 -10 -17 -41.5t-17 -52.5q0 -40 51 -40q35 0 82 18v-81q-53 -23 -113 -23q-50 0 -83 27t-33 79q0 30 21 69.5t21 47.5h-48v500h136zM80 663q0 32 22 54.5t55 22.5q32 0 54 -22.5t22 -54.5q0 -33 -22 -54.5t-54 -21.5q-33 0 -55 21.5t-22 54.5z" />
    <glyph glyph-name="Idotaccent" unicode="&#x130;" horiz-adv-x="333" 
d="M237 700v-700h-142v700h142zM90 867q0 32 22 54.5t55 22.5q32 0 54 -22.5t22 -54.5q0 -33 -22 -54.5t-54 -21.5q-33 0 -55 21.5t-22 54.5z" />
    <glyph glyph-name="dotlessi" unicode="&#x131;" horiz-adv-x="313" 
d="M224 500v-500h-136v500h136z" />
    <glyph glyph-name="IJ" unicode="&#x132;" horiz-adv-x="926" 
d="M242 700v-700h-142v700h142zM315 206l126 46q40 -126 129 -124q113 3 113 145v427h143v-427q0 -38 -6.5 -73.5t-24 -74t-45 -66.5t-74 -46.5t-106.5 -18.5q-109 0 -167.5 56.5t-87.5 155.5z" />
    <glyph glyph-name="ij" unicode="&#x133;" horiz-adv-x="606" 
d="M224 500v-500h-136v500h136zM80 663q0 32 22 54.5t55 22.5q32 0 54 -22.5t22 -54.5q0 -33 -22 -54.5t-54 -21.5q-33 0 -55 21.5t-22 54.5zM240 -57q49 -28 84 -28q56 0 56 75v510h137v-502v-11q0 -18 -2 -36.5t-12 -48t-27.5 -51t-52.5 -38t-83 -16.5q-46 0 -91 19
t-66 40zM373 664q0 33 21.5 55t54.5 22q32 0 54.5 -22.5t22.5 -54.5q0 -33 -22 -54.5t-55 -21.5t-54.5 21t-21.5 55z" />
    <glyph glyph-name="Jcircumflex" unicode="&#x134;" horiz-adv-x="631" 
d="M20 206l126 46q40 -126 129 -124q113 3 113 145v427h143v-427q0 -38 -6.5 -73.5t-24 -74t-45 -66.5t-74 -46.5t-106.5 -18.5q-109 0 -167.5 56.5t-87.5 155.5zM300 863l161 125l161 -125l-52 -74l-109 67l-109 -67z" />
    <glyph glyph-name="jcircumflex" unicode="&#x135;" horiz-adv-x="293" 
d="M-73 -57q49 -28 84 -28q56 0 56 75v510h137v-502v-11q0 -18 -2 -36.5t-12 -48t-27.5 -51t-52.5 -38t-83 -16.5q-46 0 -91 19t-66 40zM-14 663l161 125l161 -125l-52 -74l-109 67l-109 -67z" />
    <glyph glyph-name="Kcommaaccent" unicode="&#x136;" horiz-adv-x="710" 
d="M242 0h-142v700h142v-280l247 280h154l3 -9l-292 -330l316 -352l-4 -9h-158l-266 295v-295zM350 -342l-58 26q28 55 38 88q-49 16 -49 70q0 29 20 50t50 21q39 0 58 -22.5t19 -54.5q0 -60 -78 -178z" />
    <glyph glyph-name="kcommaaccent" unicode="&#x137;" horiz-adv-x="601" 
d="M420 0l-205 224v-224h-135v700h135v-415l191 215h144l4 -10l-207 -230l224 -251l-4 -9h-147zM296 -342l-58 26q28 55 38 88q-49 16 -49 70q0 29 20 50t50 21q39 0 58 -22.5t19 -54.5q0 -60 -78 -178z" />
    <glyph glyph-name="kgreenlandic" unicode="&#x138;" horiz-adv-x="601" 
d="M420 0l-205 224v-224h-135v500h135v-215l191 215h144l4 -10l-207 -230l224 -251l-3 -9h-148z" />
    <glyph glyph-name="Lacute" unicode="&#x139;" horiz-adv-x="564" 
d="M242 700v-570h262v-130h-404v700h142zM107 861l161 125l65 -91l-174 -108z" />
    <glyph glyph-name="lacute" unicode="&#x13a;" horiz-adv-x="266" 
d="M201 691v-691h-137v691h137zM20 860l161 125l65 -91l-174 -108z" />
    <glyph glyph-name="Lcommaaccent" unicode="&#x13b;" horiz-adv-x="564" 
d="M242 700v-570h262v-130h-404v700h142zM277 -342l-58 26q27 55 38 88q-49 16 -49 70q0 29 20 50t50 21q39 0 58 -22.5t19 -54.5q0 -60 -78 -178z" />
    <glyph glyph-name="lcommaaccent" unicode="&#x13c;" horiz-adv-x="297" 
d="M217 700v-700h-137v700h137zM144 -342l-58 26q28 55 38 88q-49 16 -49 70q0 29 20 50t50 21q39 0 58 -22.5t19 -54.5q0 -60 -78 -178z" />
    <glyph glyph-name="Lcaron" unicode="&#x13d;" horiz-adv-x="564" 
d="M242 700v-570h262v-130h-404v700h142zM409 392l-70 34q37 63 56 128q-54 17 -54 78q0 35 23 58.5t58 23.5q46 0 67.5 -26t21.5 -64q0 -45 -34 -117.5t-68 -114.5z" />
    <glyph glyph-name="lcaron" unicode="&#x13e;" horiz-adv-x="500" 
d="M217 702v-702h-137v702h137zM394 390l-70 34q37 63 56 128q-54 17 -54 78q0 35 23 58.5t58 23.5q46 0 67.5 -26t21.5 -64q0 -45 -34 -117.5t-68 -114.5z" />
    <glyph glyph-name="Ldot" unicode="&#x13f;" horiz-adv-x="564" 
d="M242 700v-570h262v-130h-404v700h142zM322 368q0 -35 23 -59t58 -24t59 24.5t24 58.5q0 35 -24 58t-59 23t-58 -23t-23 -58z" />
    <glyph glyph-name="ldot" unicode="&#x140;" horiz-adv-x="486" 
d="M217 701v-701h-137v701h137zM308 360q0 -35 23 -59t58 -24t59 24.5t24 58.5q0 35 -24 58t-59 23t-58 -23t-23 -58z" />
    <glyph glyph-name="Lslash" unicode="&#x141;" horiz-adv-x="560" 
d="M66 219l-56 93l98 57v331h142v-249l124 72l55 -93l-179 -105v-195h250v-130h-392v245z" />
    <glyph glyph-name="lslash" unicode="&#x142;" horiz-adv-x="379" 
d="M65 214l-55 90l96 57v330h138v-251q13 7 37.5 21.5t33.5 19.5l54 -91l-125 -73v-316h-138v238q-27 -17 -41 -25z" />
    <glyph glyph-name="Nacute" unicode="&#x143;" horiz-adv-x="776" 
d="M275 861l161 125l65 -91l-174 -108zM100 702l9 4l425 -403v397h142v-701l-9 -5l-425 407v-401h-142v702z" />
    <glyph glyph-name="nacute" unicode="&#x144;" 
d="M215 344v-344h-135v500h92l12 -36q54 44 126 44q55 0 95 -15.5t63 -38.5t36 -58t17 -66.5t4 -71.5v-258h-138v258q0 129 -82 129q-59 0 -90 -43zM179 661l161 125l65 -91l-174 -108z" />
    <glyph glyph-name="Ncommaaccent" unicode="&#x145;" horiz-adv-x="776" 
d="M100 702l9 4l425 -403v397h142v-701l-9 -5l-425 407v-401h-142v702zM383 -342l-58 26q28 55 38 88q-49 16 -49 70q0 29 20 50t50 21q39 0 58 -22.5t19 -54.5q0 -60 -78 -178z" />
    <glyph glyph-name="ncommaaccent" unicode="&#x146;" 
d="M215 344v-344h-135v500h92l12 -36q54 44 126 44q55 0 95 -15.5t63 -38.5t36 -58t17 -66.5t4 -71.5v-258h-138v258q0 129 -82 129q-59 0 -90 -43zM288 -342l-58 26q27 55 38 88q-49 16 -49 70q0 29 20 50t50 21q39 0 58 -22.5t19 -54.5q0 -60 -78 -178z" />
    <glyph glyph-name="Ncaron" unicode="&#x147;" horiz-adv-x="772" 
d="M85 702l9 4l425 -403v397h142v-701l-9 -5l-425 407v-401h-142v702zM386 786l-161 125l52 74l109 -67l109 67l52 -74z" />
    <glyph glyph-name="ncaron" unicode="&#x148;" horiz-adv-x="582" 
d="M185 344v-344h-135v500h92l12 -36q54 44 126 44q55 0 95 -15.5t63 -38.5t36 -58t17 -66.5t4 -71.5v-258h-138v258q0 129 -82 129q-59 0 -90 -43zM291 586l-161 125l52 74l109 -67l109 67l52 -74z" />
    <glyph glyph-name="napostrophe" unicode="&#x149;" horiz-adv-x="722" 
d="M352 344v-344h-135v500h92l12 -36q54 44 126 44q55 0 95 -15.5t63 -38.5t36 -58t17 -66.5t4 -71.5v-258h-138v258q0 129 -82 129q-59 0 -90 -43zM79 486l-58 26q27 55 38 88q-49 16 -49 70q0 29 20 50t50 21q39 0 58 -22.5t19 -54.5q0 -60 -78 -178z" />
    <glyph glyph-name="Eng" unicode="&#x14a;" horiz-adv-x="776" 
d="M398 -81q49 -28 84 -28q53 0 53 75v148l-293 287v-401h-142v709h22l412 -406v397h142v-706h-1v-31q0 -18 -2 -36.5t-12 -48t-27.5 -51t-52.5 -38t-83 -16.5q-46 0 -91 19t-66 40z" />
    <glyph glyph-name="eng" unicode="&#x14b;" 
d="M247 -80q49 -28 84 -28q56 0 56 75v291q0 129 -82 129q-59 0 -90 -43v-344h-135v500h92l12 -36q54 44 126 44q55 0 95 -15.5t63 -38.5t36 -58t17 -66.5t4 -71.5v-294q0 -18 -2 -36.5t-12.5 -48t-28 -51t-52.5 -38t-83 -16.5q-46 0 -91 19t-66 40z" />
    <glyph glyph-name="Omacron" unicode="&#x14c;" horiz-adv-x="814" 
d="M408 712q76 0 137.5 -24t99.5 -61t63.5 -86t35.5 -96t10 -94q0 -48 -10 -95.5t-35.5 -96.5t-63.5 -86t-99.5 -60.5t-137.5 -23.5q-77 0 -138.5 23.5t-99.5 60.5t-64 86t-36 96.5t-10 95.5q0 47 10 94t36 96t64 86t99.5 61t138.5 24zM408 120q50 0 88.5 19t59 45.5
t33.5 61t17 59.5t4 46t-4 46t-17 59t-33.5 60.5t-59 45t-88.5 18.5q-51 0 -90 -18.5t-59.5 -45t-34 -60.5t-17 -59t-3.5 -46t3.5 -46t17 -59.5t34 -61t59.5 -45.5t90 -19zM256 894h301v-97h-301v97z" />
    <glyph glyph-name="omacron" unicode="&#x14d;" horiz-adv-x="618" 
d="M309 510q68 0 119 -25t78 -66t39.5 -83.5t12.5 -85.5q0 -44 -12.5 -86.5t-39.5 -83t-78 -65t-119 -24.5t-119 24.5t-78 65t-39.5 83t-12.5 86.5q0 43 12.5 85.5t39.5 83.5t78 66t119 25zM309 112q35 0 59.5 16t35.5 41t15 44.5t4 36.5t-4 37t-15 45t-35.5 41t-59.5 16
t-60 -16.5t-35.5 -41t-15 -44.5t-4.5 -37t4.5 -36.5t15 -44.5t35.5 -41t60 -16zM158 694h301v-97h-301v97z" />
    <glyph glyph-name="Obreve" unicode="&#x14e;" horiz-adv-x="814" 
d="M408 712q76 0 137.5 -24t99.5 -61t63.5 -86t35.5 -96t10 -94q0 -48 -10 -95.5t-35.5 -96.5t-63.5 -86t-99.5 -60.5t-137.5 -23.5q-77 0 -138.5 23.5t-99.5 60.5t-64 86t-36 96.5t-10 95.5q0 47 10 94t36 96t64 86t99.5 61t138.5 24zM408 120q50 0 88.5 19t59 45.5
t33.5 61t17 59.5t4 46t-4 46t-17 59t-33.5 60.5t-59 45t-88.5 18.5q-51 0 -90 -18.5t-59.5 -45t-34 -60.5t-17 -59t-3.5 -46t3.5 -46t17 -59.5t34 -61t59.5 -45.5t90 -19zM461 949l101 -30q-17 -65 -58.5 -97t-97.5 -32t-97.5 32t-57.5 97l99 29q11 -54 56 -54q43 0 55 55z
" />
    <glyph glyph-name="obreve" unicode="&#x14f;" horiz-adv-x="618" 
d="M309 510q68 0 119 -25t78 -66t39.5 -83.5t12.5 -85.5q0 -44 -12.5 -86.5t-39.5 -83t-78 -65t-119 -24.5t-119 24.5t-78 65t-39.5 83t-12.5 86.5q0 43 12.5 85.5t39.5 83.5t78 66t119 25zM309 112q35 0 59.5 16t35.5 41t15 44.5t4 36.5t-4 37t-15 45t-35.5 41t-59.5 16
t-60 -16.5t-35.5 -41t-15 -44.5t-4.5 -37t4.5 -36.5t15 -44.5t35.5 -41t60 -16zM360 749l101 -30q-17 -65 -58.5 -97t-97.5 -32t-97.5 32t-57.5 97l99 29q11 -54 56 -54q43 0 55 55z" />
    <glyph glyph-name="Ohungarumlaut" unicode="&#x150;" horiz-adv-x="814" 
d="M408 712q76 0 137.5 -24t99.5 -61t63.5 -86t35.5 -96t10 -94q0 -48 -10 -95.5t-35.5 -96.5t-63.5 -86t-99.5 -60.5t-137.5 -23.5q-77 0 -138.5 23.5t-99.5 60.5t-64 86t-36 96.5t-10 95.5q0 47 10 94t36 96t64 86t99.5 61t138.5 24zM408 120q50 0 88.5 19t59 45.5
t33.5 61t17 59.5t4 46t-4 46t-17 59t-33.5 60.5t-59 45t-88.5 18.5q-51 0 -90 -18.5t-59.5 -45t-34 -60.5t-17 -59t-3.5 -46t3.5 -46t17 -59.5t34 -61t59.5 -45.5t90 -19zM612 954l-65 -158h-97l49 158h113zM409 954l-65 -158h-97l49 158h113z" />
    <glyph glyph-name="ohungarumlaut" unicode="&#x151;" horiz-adv-x="618" 
d="M309 510q68 0 119 -25t78 -66t39.5 -83.5t12.5 -85.5q0 -44 -12.5 -86.5t-39.5 -83t-78 -65t-119 -24.5t-119 24.5t-78 65t-39.5 83t-12.5 86.5q0 43 12.5 85.5t39.5 83.5t78 66t119 25zM309 112q35 0 59.5 16t35.5 41t15 44.5t4 36.5t-4 37t-15 45t-35.5 41t-59.5 16
t-60 -16.5t-35.5 -41t-15 -44.5t-4.5 -37t4.5 -36.5t15 -44.5t35.5 -41t60 -16zM508 754l-65 -158h-97l49 158h113zM305 754l-65 -158h-97l49 158h113z" />
    <glyph glyph-name="OE" unicode="&#x152;" horiz-adv-x="1047" 
d="M914 280h-262v-150h335v-130h-476q-57 -11 -103 -11q-77 0 -138.5 23.5t-99.5 60.5t-64 86t-36 96.5t-10 95.5q0 47 10 94t36 96t64 86t99.5 61t138.5 24q50 0 103 -12h476v-130h-335v-160h262v-130zM408 120q59 0 103 26v407q-46 27 -103 27q-51 0 -90 -18.5t-59.5 -45
t-34 -60.5t-17 -59t-3.5 -46t3.5 -46t17 -59.5t34 -61t59.5 -45.5t90 -19z" />
    <glyph glyph-name="oe" unicode="&#x153;" horiz-adv-x="925" 
d="M876 227h-313q6 -47 35 -78.5t75 -31.5q66 0 125 45l66 -91q-92 -77 -191 -77q-113 0 -183 74q-72 -77 -181 -77q-68 0 -119 24.5t-78 65t-39.5 83t-12.5 86.5q0 43 12.5 85.5t39.5 83.5t78 66t119 25q115 0 182 -74q66 71 182 71q98 0 152.5 -58t54.5 -157q0 -21 -4 -65
zM309 112q33 0 57 14.5t35.5 38.5t16 44t5.5 41q1 19 -4 40.5t-16.5 45t-36 38.5t-57.5 15q-35 0 -60 -16.5t-35.5 -41t-15 -44.5t-4.5 -37t4.5 -36.5t15 -44.5t35.5 -41t60 -16zM673 386q-80 0 -106 -79h179q-2 78 -73 79z" />
    <glyph glyph-name="Racute" unicode="&#x154;" horiz-adv-x="675" 
d="M240 243v-243h-140v700h265q68 0 119.5 -22t78.5 -57.5t39.5 -72.5t12.5 -75q0 -73 -38 -127t-100 -81l125 -265h-154l-114 243h-94zM374 374q53 1 76 33.5t23 65.5q0 35 -23.5 66.5t-79.5 31.5h-130v-197h134zM224 861l161 125l65 -91l-174 -108z" />
    <glyph glyph-name="racute" unicode="&#x155;" horiz-adv-x="415" 
d="M395 498l-39 -124q-33 7 -59 7q-58 0 -82 -41v-340h-135v500h92l12 -31q57 37 128 37q46 0 83 -8zM95 661l161 125l65 -91l-174 -108z" />
    <glyph glyph-name="Rcommaaccent" unicode="&#x156;" horiz-adv-x="675" 
d="M240 243v-243h-140v700h265q68 0 119.5 -22t78.5 -57.5t39.5 -72.5t12.5 -75q0 -73 -38 -127t-100 -81l125 -265h-154l-114 243h-94zM374 374q53 1 76 33.5t23 65.5q0 35 -23.5 66.5t-79.5 31.5h-130v-197h134zM333 -342l-58 26q27 55 38 88q-49 16 -49 70q0 29 20 50
t50 21q39 0 58 -22.5t19 -54.5q0 -60 -78 -178z" />
    <glyph glyph-name="rcommaaccent" unicode="&#x157;" horiz-adv-x="415" 
d="M395 498l-39 -124q-33 7 -59 7q-58 0 -82 -41v-340h-135v500h92l12 -31q57 37 128 37q46 0 83 -8zM141 -342l-58 26q27 55 38 88q-49 16 -49 70q0 29 20 50t50 21q39 0 58 -22.5t19 -54.5q0 -60 -78 -178z" />
    <glyph glyph-name="Rcaron" unicode="&#x158;" horiz-adv-x="675" 
d="M240 243v-243h-140v700h265q68 0 119.5 -22t78.5 -57.5t39.5 -72.5t12.5 -75q0 -73 -38 -127t-100 -81l125 -265h-154l-114 243h-94zM374 374q53 1 76 33.5t23 65.5q0 35 -23.5 66.5t-79.5 31.5h-130v-197h134zM293 786l-161 125l52 74l109 -67l109 67l52 -74z" />
    <glyph glyph-name="rcaron" unicode="&#x159;" horiz-adv-x="415" 
d="M395 498l-39 -124q-33 7 -59 7q-58 0 -82 -41v-340h-135v500h92l12 -31q57 37 128 37q46 0 83 -8zM208 586l-161 125l52 74l109 -67l109 67l52 -74z" />
    <glyph glyph-name="Sacute" unicode="&#x15a;" horiz-adv-x="642" 
d="M214 512q1 -18 10.5 -31t32 -23.5t39 -16.5t52.5 -16q42 -12 66 -20.5t60.5 -28t56.5 -41.5t35.5 -59t15.5 -83q0 -86 -73 -143.5t-182 -57.5q-138 0 -271 71l59 117q119 -57 205 -57q48 0 82 19.5t34 51.5q0 18 -8.5 33t-19 24.5t-34 19.5t-37 14.5t-45.5 14.5
q-9 3 -13 4q-38 11 -60.5 19.5t-54 25.5t-49 36.5t-30.5 51t-13 70.5q0 94 63 149t164 55q118 0 255 -64l-54 -121q-44 18 -98.5 34t-80.5 16q-49 0 -77 -13.5t-30 -50.5zM208 861l161 125l65 -91l-174 -108z" />
    <glyph glyph-name="sacute" unicode="&#x15b;" horiz-adv-x="512" 
d="M207 357q0 -19 74 -42q31 -10 47.5 -16t44 -21t42 -31t26 -42.5t11.5 -59.5q0 -68 -53 -110.5t-135 -42.5q-100 0 -204 61l54 106q90 -46 145 -46q23 0 39 8.5t16 22.5q0 20 -20.5 31t-62.5 23q-35 11 -55.5 19.5t-47 26t-39.5 45t-13 64.5q0 72 46.5 113.5t123.5 41.5
q89 0 194 -52l-51 -111q-80 39 -127 39q-55 0 -55 -27zM149 661l161 125l65 -91l-174 -108z" />
    <glyph glyph-name="Scircumflex" unicode="&#x15c;" horiz-adv-x="642" 
d="M214 512q1 -18 10.5 -31t32 -23.5t39 -16.5t52.5 -16q42 -12 66 -20.5t60.5 -28t56.5 -41.5t35.5 -59t15.5 -83q0 -86 -73 -143.5t-182 -57.5q-138 0 -271 71l59 117q119 -57 205 -57q48 0 82 19.5t34 51.5q0 18 -8.5 33t-19 24.5t-34 19.5t-37 14.5t-45.5 14.5
q-9 3 -13 4q-38 11 -60.5 19.5t-54 25.5t-49 36.5t-30.5 51t-13 70.5q0 94 63 149t164 55q118 0 255 -64l-54 -121q-44 18 -98.5 34t-80.5 16q-49 0 -77 -13.5t-30 -50.5zM160 863l161 125l161 -125l-52 -74l-109 67l-109 -67z" />
    <glyph glyph-name="scircumflex" unicode="&#x15d;" horiz-adv-x="512" 
d="M207 357q0 -19 74 -42q31 -10 47.5 -16t44 -21t42 -31t26 -42.5t11.5 -59.5q0 -68 -53 -110.5t-135 -42.5q-100 0 -204 61l54 106q90 -46 145 -46q23 0 39 8.5t16 22.5q0 20 -20.5 31t-62.5 23q-35 11 -55.5 19.5t-47 26t-39.5 45t-13 64.5q0 72 46.5 113.5t123.5 41.5
q89 0 194 -52l-51 -111q-80 39 -127 39q-55 0 -55 -27zM95 663l161 125l161 -125l-52 -74l-109 67l-109 -67z" />
    <glyph glyph-name="Scedilla" unicode="&#x15e;" horiz-adv-x="642" 
d="M307 -86h-26l-12 13v68q-104 9 -213 68l59 117q119 -57 205 -57q48 0 82 19.5t34 51.5q0 18 -8.5 33t-19 24.5t-34 19.5t-37 14.5t-45.5 14.5q-9 3 -13 4q-38 11 -60.5 19.5t-54 25.5t-49 36.5t-30.5 51t-13 70.5q0 94 63 149t164 55q118 0 255 -64l-54 -121
q-44 18 -98.5 34t-80.5 16q-49 0 -77 -13.5t-30 -50.5q1 -18 10.5 -31t32 -23.5t39 -16.5t52.5 -16q42 -12 66 -20.5t60.5 -28t56.5 -41.5t35.5 -59t15.5 -83q0 -81 -65.5 -137.5t-165.5 -62.5v-21q49 -1 72.5 -30.5t23.5 -60.5q0 -53 -34 -81t-83 -28q-60 0 -106 27l30 66
q34 -17 66 -17q14 0 25 10t12 23q1 14 -11.5 23.5t-38.5 9.5z" />
    <glyph glyph-name="scedilla" unicode="&#x15f;" horiz-adv-x="512" 
d="M247 -86h-26l-12 13v69q-69 10 -149 57l54 106q90 -46 145 -46q23 0 39 8.5t16 22.5q0 20 -20.5 31t-62.5 23q-35 11 -55.5 19.5t-47 26t-39.5 45t-13 64.5q0 72 46.5 113.5t123.5 41.5q89 0 194 -52l-51 -111q-80 39 -127 39q-55 0 -55 -27q0 -19 74 -42
q31 -10 47.5 -16t44 -21t42 -31t26 -42.5t11.5 -59.5q0 -62 -44.5 -103t-116.5 -48v-22q49 -1 72.5 -30.5t23.5 -60.5q0 -53 -34 -81t-83 -28q-60 0 -106 27l30 66q34 -17 66 -17q14 0 25 10t12 23q1 14 -11.5 23.5t-38.5 9.5z" />
    <glyph glyph-name="Scaron" unicode="&#x160;" horiz-adv-x="642" 
d="M214 514q1 -17 10 -30t31 -24.5t37 -17.5t51 -18q35 -12 49 -17t46.5 -18.5t48 -24t38.5 -29t33.5 -37.5t18 -46.5t5.5 -58.5q-5 -87 -76 -144t-179 -57q-138 0 -271 71l62 117q119 -57 202 -57q46 0 76.5 18t35.5 49q6 35 -24 57.5t-88 40.5q-108 33 -144 53
q-104 56 -104 166q0 94 63 149t164 55q118 0 255 -64l-51 -119q-124 51 -194 51q-92 0 -95 -65zM321 786l-161 125l52 74l109 -67l109 67l52 -74z" />
    <glyph glyph-name="scaron" unicode="&#x161;" horiz-adv-x="512" 
d="M207 357q0 -19 74 -42q31 -10 47.5 -16t44 -21t42 -31t26 -42.5t11.5 -59.5q0 -68 -53 -110.5t-135 -42.5q-100 0 -204 61l54 106q90 -46 145 -46q23 0 39 8.5t16 22.5q0 20 -20.5 31t-62.5 23q-35 11 -55.5 19.5t-47 26t-39.5 45t-13 64.5q0 72 46.5 113.5t123.5 41.5
q89 0 194 -52l-51 -111q-80 39 -127 39q-55 0 -55 -27zM262 586l-161 125l52 74l109 -67l109 67l52 -74z" />
    <glyph glyph-name="Tcommaaccent" unicode="&#x162;" horiz-adv-x="613" 
d="M234 0v570h-189v130h523v-130h-191v-570h-143zM302 -342l-58 26q27 55 38 88q-49 16 -49 70q0 29 20 50t50 21q39 0 58 -22.5t19 -54.5q0 -60 -78 -178z" />
    <glyph glyph-name="tcommaaccent" unicode="&#x163;" horiz-adv-x="330" 
d="M62 380h-52v120h52l10 98h126v-98h94v-120h-94v-235q0 -32 28 -32q11 0 71 15l23 -110q-83 -24 -139 -24q-38 0 -64 15.5t-37 40t-14.5 43t-3.5 37.5v250zM160 -342l-58 26q28 55 38 88q-49 16 -49 70q0 29 20 50t50 21q39 0 58 -22.5t19 -54.5q0 -60 -78 -178z" />
    <glyph glyph-name="Tcaron" unicode="&#x164;" horiz-adv-x="613" 
d="M234 0v570h-189v130h523v-130h-191v-570h-143zM306 786l-161 125l52 74l109 -67l109 67l52 -74z" />
    <glyph glyph-name="tcaron" unicode="&#x165;" horiz-adv-x="560" 
d="M62 380h-52v120h52l10 98h126v-98h94v-120h-94v-235q0 -32 28 -32q11 0 71 15l23 -110q-83 -24 -139 -24q-38 0 -64 15.5t-37 40t-14.5 43t-3.5 37.5v250zM435 387l-70 34q37 63 56 128q-54 17 -54 78q0 35 23 58.5t58 23.5q46 0 67.5 -26t21.5 -64q0 -45 -34 -117.5
t-68 -114.5z" />
    <glyph glyph-name="Tbar" unicode="&#x166;" horiz-adv-x="613" 
d="M469 306h-90v-306h-146v306h-88v82h88v182h-188v130h523v-130h-189v-182h90v-82z" />
    <glyph glyph-name="tbar" unicode="&#x167;" horiz-adv-x="330" 
d="M9 319h53v61h-52v120h52l10 98h126v-98h94v-120h-94v-61h92v-97h-92v-77q0 -32 28 -32q11 0 71 15l23 -110q-83 -24 -139 -24q-38 0 -64 15.5t-37 40t-14.5 43t-3.5 37.5v92h-53v97z" />
    <glyph glyph-name="Utilde" unicode="&#x168;" horiz-adv-x="736" 
d="M368 122q38 0 66.5 17t42 43t20 49t6.5 41v428h143v-428q0 -47 -15 -93.5t-46 -89.5t-87.5 -69.5t-129.5 -26.5t-129.5 26.5t-87.5 69.5t-46 89.5t-15 93.5v428h142v-428q0 -18 6.5 -41t20.5 -49t42.5 -43t66.5 -17zM463 935l82 -43q-46 -102 -133 -102q-23 0 -50.5 17
t-43.5 17q-32 0 -50 -39l-78 36q18 59 53.5 83t75.5 24q27 0 55.5 -16t39.5 -16q27 0 49 39z" />
    <glyph glyph-name="utilde" unicode="&#x169;" 
d="M370 156v344h135v-500h-92l-12 36q-54 -44 -126 -44q-55 0 -95 15.5t-63 38.5t-36 58t-17 66.5t-4 71.5v258h138v-258q0 -129 82 -129q59 0 90 43zM388 735l82 -43q-46 -102 -133 -102q-23 0 -50.5 17t-43.5 17q-32 0 -50 -39l-78 36q18 59 53.5 83t75.5 24
q27 0 55.5 -16t39.5 -16q27 0 49 39z" />
    <glyph glyph-name="Umacron" unicode="&#x16a;" horiz-adv-x="736" 
d="M368 122q38 0 66.5 17t42 43t20 49t6.5 41v428h143v-428q0 -47 -15 -93.5t-46 -89.5t-87.5 -69.5t-129.5 -26.5t-129.5 26.5t-87.5 69.5t-46 89.5t-15 93.5v428h142v-428q0 -18 6.5 -41t20.5 -49t42.5 -43t66.5 -17zM217 894h301v-97h-301v97z" />
    <glyph glyph-name="umacron" unicode="&#x16b;" 
d="M370 156v344h135v-500h-92l-12 36q-54 -44 -126 -44q-55 0 -95 15.5t-63 38.5t-36 58t-17 66.5t-4 71.5v258h138v-258q0 -129 82 -129q59 0 90 43zM142 694h301v-97h-301v97z" />
    <glyph glyph-name="Ubreve" unicode="&#x16c;" horiz-adv-x="736" 
d="M368 122q38 0 66.5 17t42 43t20 49t6.5 41v428h143v-428q0 -47 -15 -93.5t-46 -89.5t-87.5 -69.5t-129.5 -26.5t-129.5 26.5t-87.5 69.5t-46 89.5t-15 93.5v428h142v-428q0 -18 6.5 -41t20.5 -49t42.5 -43t66.5 -17zM422 949l101 -30q-17 -65 -58.5 -97t-97.5 -32
t-97.5 32t-57.5 97l99 29q11 -54 56 -54q43 0 55 55z" />
    <glyph glyph-name="ubreve" unicode="&#x16d;" 
d="M370 156v344h135v-500h-92l-12 36q-54 -44 -126 -44q-55 0 -95 15.5t-63 38.5t-36 58t-17 66.5t-4 71.5v258h138v-258q0 -129 82 -129q59 0 90 43zM347 749l101 -30q-17 -65 -58.5 -97t-97.5 -32t-97.5 32t-57.5 97l99 29q11 -54 56 -54q43 0 55 55z" />
    <glyph glyph-name="Uring" unicode="&#x16e;" horiz-adv-x="736" 
d="M368 122q38 0 66.5 17t42 43t20 49t6.5 41v428h143v-428q0 -47 -15 -93.5t-46 -89.5t-87.5 -69.5t-129.5 -26.5t-129.5 26.5t-87.5 69.5t-46 89.5t-15 93.5v428h142v-428q0 -18 6.5 -41t20.5 -49t42.5 -43t66.5 -17zM266 892q0 42 30 72t72 30t71.5 -30t29.5 -72
t-29.5 -71.5t-71.5 -29.5t-72 29.5t-30 71.5zM338 892q0 -11 9 -20t21 -9q11 0 20 9t9 20q0 12 -9 21t-20 9q-12 0 -21 -9t-9 -21z" />
    <glyph glyph-name="uring" unicode="&#x16f;" 
d="M370 156v344h135v-500h-92l-12 36q-54 -44 -126 -44q-55 0 -95 15.5t-63 38.5t-36 58t-17 66.5t-4 71.5v258h138v-258q0 -129 82 -129q59 0 90 43zM186 692q0 42 30 72t72 30t71.5 -30t29.5 -72t-29.5 -71.5t-71.5 -29.5t-72 29.5t-30 71.5zM258 692q0 -11 9 -20t21 -9
q11 0 20 9t9 20q0 12 -9 21t-20 9q-12 0 -21 -9t-9 -21z" />
    <glyph glyph-name="Uhungarumlaut" unicode="&#x170;" horiz-adv-x="736" 
d="M368 122q38 0 66.5 17t42 43t20 49t6.5 41v428h143v-428q0 -47 -15 -93.5t-46 -89.5t-87.5 -69.5t-129.5 -26.5t-129.5 26.5t-87.5 69.5t-46 89.5t-15 93.5v428h142v-428q0 -18 6.5 -41t20.5 -49t42.5 -43t66.5 -17zM571 954l-65 -158h-97l49 158h113zM368 954l-65 -158
h-97l49 158h113z" />
    <glyph glyph-name="uhungarumlaut" unicode="&#x171;" 
d="M370 156v344h135v-500h-92l-12 36q-54 -44 -126 -44q-55 0 -95 15.5t-63 38.5t-36 58t-17 66.5t-4 71.5v258h138v-258q0 -129 82 -129q59 0 90 43zM475 754l-65 -158h-97l49 158h113zM272 754l-65 -158h-97l49 158h113z" />
    <glyph glyph-name="Uogonek" unicode="&#x172;" horiz-adv-x="736" 
d="M368 122q38 0 66.5 17t42 43t20 49t6.5 41v428h143v-428q0 -72 -34 -141t-104 -106v-28q0 -10 -17 -41.5t-17 -52.5q0 -40 51 -40q35 0 82 18v-81q-53 -23 -113 -23q-50 0 -83 27t-33 79q0 30 20.5 69t21.5 45q-23 -4 -52 -4q-73 0 -129.5 26.5t-87.5 69.5t-46 89.5
t-15 93.5v428h142v-428q0 -18 6.5 -41t20.5 -49t42.5 -43t66.5 -17z" />
    <glyph glyph-name="uogonek" unicode="&#x173;" 
d="M370 156v344h135v-503q0 -10 -17 -41.5t-17 -52.5q0 -40 51 -40q35 0 82 18v-81q-53 -23 -113 -23q-50 0 -83 27t-33 79q0 30 20 69.5t20 47.5l-14 36q-54 -44 -126 -44q-55 0 -95 15.5t-63 38.5t-36 58t-17 66.5t-4 71.5v258h138v-258q0 -129 82 -129q59 0 90 43z" />
    <glyph glyph-name="Wcircumflex" unicode="&#x174;" horiz-adv-x="1091" 
d="M384 863l161 125l161 -125l-52 -74l-109 67l-109 -67zM1061 700l-327 -704h-6l-183 379l-182 -379h-7l-326 704h158l174 -411l179 416l8 -1l180 -415l174 411h158z" />
    <glyph glyph-name="wcircumflex" unicode="&#x175;" horiz-adv-x="764" 
d="M221 663l161 125l161 -125l-52 -74l-109 67l-109 -67zM272 267l107 238h8l105 -238l101 233h143l-237 -503h-7l-110 222l-111 -222h-7l-236 503h143z" />
    <glyph glyph-name="Ycircumflex" unicode="&#x176;" horiz-adv-x="677" 
d="M409 313v-313h-141v311l-238 389h156l152 -254l152 254h157zM177 863l161 125l161 -125l-52 -74l-109 67l-109 -67z" />
    <glyph glyph-name="ycircumflex" unicode="&#x177;" horiz-adv-x="609" 
d="M235 40q-30 73 -104.5 237t-100.5 223h155l123 -301q31 81 119 301h152l-297 -699h-141v11zM143 663l161 125l161 -125l-52 -74l-109 67l-109 -67z" />
    <glyph glyph-name="Ydieresis" unicode="&#x178;" horiz-adv-x="677" 
d="M409 313v-313h-141v311l-238 389h156l152 -254l152 254h157zM147 867q0 32 22 54.5t55 22.5q32 0 54 -22.5t22 -54.5q0 -33 -22 -54.5t-54 -21.5q-33 0 -55 21.5t-22 54.5zM376 867q0 32 22 54.5t55 22.5q32 0 54 -22.5t22 -54.5q0 -33 -22 -54.5t-54 -21.5
q-33 0 -55 21.5t-22 54.5z" />
    <glyph glyph-name="Zacute" unicode="&#x179;" horiz-adv-x="661" 
d="M282 130h313v-130h-531l-4 8l316 563h-286v129h507l4 -8zM217 861l161 125l65 -91l-174 -108z" />
    <glyph glyph-name="zacute" unicode="&#x17a;" horiz-adv-x="509" 
d="M67 371v129h394l3 -8l-197 -363h187v-129h-406l-3 7l199 364h-177zM141 661l161 125l65 -91l-174 -108z" />
    <glyph glyph-name="Zdotaccent" unicode="&#x17b;" horiz-adv-x="661" 
d="M282 130h313v-130h-531l-4 8l316 563h-286v129h507l4 -8zM254 867q0 32 22 54.5t55 22.5q32 0 54 -22.5t22 -54.5q0 -33 -22 -54.5t-54 -21.5q-33 0 -55 21.5t-22 54.5z" />
    <glyph glyph-name="zdotaccent" unicode="&#x17c;" horiz-adv-x="509" 
d="M67 371v129h394l3 -8l-197 -363h187v-129h-406l-3 7l199 364h-177zM178 667q0 32 22 54.5t55 22.5q32 0 54 -22.5t22 -54.5q0 -33 -22 -54.5t-54 -21.5q-33 0 -55 21.5t-22 54.5z" />
    <glyph glyph-name="Zcaron" unicode="&#x17d;" horiz-adv-x="661" 
d="M282 130h313v-130h-531l-4 8l316 563h-286v129h507l4 -8zM330 786l-161 125l52 74l109 -67l109 67l52 -74z" />
    <glyph glyph-name="zcaron" unicode="&#x17e;" horiz-adv-x="509" 
d="M67 371v129h394l3 -8l-197 -363h187v-129h-406l-3 7l199 364h-177zM255 586l-161 125l52 74l109 -67l109 67l52 -74z" />
    <glyph glyph-name="longs" unicode="&#x17f;" horiz-adv-x="376" 
d="M386 671l-40 -107q-54 22 -96 22q-22 0 -37 -12.5t-15 -40.5v-533h-136v383h-52v117h52v37q0 83 50.5 126.5t129.5 43.5q71 0 144 -36z" />
    <glyph glyph-name="florin" unicode="&#x192;" horiz-adv-x="384" 
d="M-93 -186l40 107q54 -22 96 -22q22 0 37 12.5t15 40.5v431h-52v117h52v37q0 83 50.5 126.5t129.5 43.5q71 0 144 -36l-40 -107q-54 22 -96 22q-22 0 -37 -12.5t-15 -40.5v-33h93v-117h-93v-435q0 -83 -50.5 -126.5t-129.5 -43.5q-71 0 -144 36z" />
    <glyph glyph-name="Scommaaccent" unicode="&#x218;" horiz-adv-x="642" 
d="M328 -342l-58 26q28 55 38 88q-49 16 -49 70q0 29 20 50t50 21q39 0 58 -22.5t19 -54.5q0 -60 -78 -178zM214 514q1 -17 10 -30t31 -24.5t37 -17.5t51 -18q35 -12 49 -17t46.5 -18.5t48 -24t38.5 -29t33.5 -37.5t18 -46.5t5.5 -58.5q-5 -87 -76 -144t-179 -57
q-138 0 -271 71l62 117q119 -57 202 -57q46 0 76.5 18t35.5 49q6 35 -24 57.5t-88 40.5q-108 33 -144 53q-104 56 -104 166q0 94 63 149t164 55q118 0 255 -64l-51 -119q-124 51 -194 51q-92 0 -95 -65z" />
    <glyph glyph-name="scommaaccent" unicode="&#x219;" horiz-adv-x="512" 
d="M207 357q0 -19 74 -42q31 -10 47.5 -16t44 -21t42 -31t26 -42.5t11.5 -59.5q0 -68 -53 -110.5t-135 -42.5q-100 0 -204 61l54 106q90 -46 145 -46q23 0 39 8.5t16 22.5q0 20 -20.5 31t-62.5 23q-35 11 -55.5 19.5t-47 26t-39.5 45t-13 64.5q0 72 46.5 113.5t123.5 41.5
q89 0 194 -52l-51 -111q-80 39 -127 39q-55 0 -55 -27zM251 -342l-58 26q27 55 38 88q-49 16 -49 70q0 29 20 50t50 21q39 0 58 -22.5t19 -54.5q0 -60 -78 -178z" />
    <glyph glyph-name="circumflex" unicode="&#x2c6;" horiz-adv-x="518" 
d="M102 663l161 125l161 -125l-52 -74l-109 67l-109 -67z" />
    <glyph glyph-name="caron" unicode="&#x2c7;" horiz-adv-x="500" 
d="M263 586l-161 125l52 74l109 -67l109 67l52 -74z" />
    <glyph glyph-name="breve" unicode="&#x2d8;" horiz-adv-x="516" 
d="M328 749l101 -30q-17 -65 -58.5 -97t-97.5 -32t-97.5 32t-57.5 97l99 29q11 -54 56 -54q43 0 55 55z" />
    <glyph glyph-name="dotaccent" unicode="&#x2d9;" horiz-adv-x="579" 
d="M206 667q0 32 22 54.5t55 22.5q32 0 54 -22.5t22 -54.5q0 -33 -22 -54.5t-54 -21.5q-33 0 -55 21.5t-22 54.5z" />
    <glyph glyph-name="ring" unicode="&#x2da;" horiz-adv-x="523" 
d="M160 692q0 42 30 72t72 30t71.5 -30t29.5 -72t-29.5 -71.5t-71.5 -29.5t-72 29.5t-30 71.5zM232 692q0 -11 9 -20t21 -9q11 0 20 9t9 20q0 12 -9 21t-20 9q-12 0 -21 -9t-9 -21z" />
    <glyph glyph-name="ogonek" unicode="&#x2db;" horiz-adv-x="611" 
d="M268 26h88v-29q0 -10 -17 -41.5t-17 -52.5q0 -40 51 -40q35 0 82 18v-81q-53 -23 -113 -23q-50 0 -83 27t-33 79q0 30 21 69.5t21 47.5v26z" />
    <glyph glyph-name="tilde" unicode="&#x2dc;" horiz-adv-x="535" 
d="M363 735l82 -43q-46 -102 -133 -102q-23 0 -50.5 17t-43.5 17q-32 0 -50 -39l-78 36q18 59 53.5 83t75.5 24q27 0 55.5 -16t39.5 -16q27 0 49 39z" />
    <glyph glyph-name="hungarumlaut" unicode="&#x2dd;" horiz-adv-x="530" 
d="M465 754l-65 -158h-97l49 158h113zM262 754l-65 -158h-97l49 158h113z" />
    <glyph glyph-name="Delta" unicode="&#x394;" horiz-adv-x="763" 
d="M381 707l322 -707h-643zM262 130h238l-119 295z" />
    <glyph glyph-name="Delta" unicode="&#x2206;" horiz-adv-x="763" 
d="M381 707l322 -707h-643zM262 130h238l-119 295z" />
    <glyph glyph-name="Omega" unicode="&#x3a9;" horiz-adv-x="848" 
d="M424 708q77 0 138.5 -23.5t99 -60.5t63 -86t35.5 -95.5t10 -93.5q0 -134 -82 -219h100v-130h-291v119q39 20 67 53t40 68t17 61.5t5 47.5t-3.5 46t-16.5 58.5t-34 60t-59.5 45t-88.5 18.5t-88.5 -18.5t-59.5 -45t-34 -60t-16.5 -58.5t-3.5 -46t5 -47.5t17 -61.5t40 -68
t67 -53v-119h-291v130h100q-82 85 -82 219q0 47 10 93.5t35.5 95.5t63 86t99 60.5t138.5 23.5z" />
    <glyph glyph-name="Omega" unicode="&#x2126;" horiz-adv-x="848" 
d="M424 708q77 0 138.5 -23.5t99 -60.5t63 -86t35.5 -95.5t10 -93.5q0 -134 -82 -219h100v-130h-291v119q39 20 67 53t40 68t17 61.5t5 47.5t-3.5 46t-16.5 58.5t-34 60t-59.5 45t-88.5 18.5t-88.5 -18.5t-59.5 -45t-34 -60t-16.5 -58.5t-3.5 -46t5 -47.5t17 -61.5t40 -68
t67 -53v-119h-291v130h100q-82 85 -82 219q0 47 10 93.5t35.5 95.5t63 86t99 60.5t138.5 23.5z" />
    <glyph glyph-name="pi" unicode="&#x3c0;" horiz-adv-x="646" 
d="M455 -4q-38 0 -64 15.5t-36.5 40t-14.5 43.5t-4 37v239h-82v-371h-136v371h-68v129h516v-129h-93v-224q0 -16 4 -24.5t17 -7.5q9 0 79 17l23 -112q-83 -24 -141 -24z" />
    <glyph glyph-name="endash" unicode="&#x2013;" horiz-adv-x="550" 
d="M471 261h-391v113h391v-113z" />
    <glyph glyph-name="emdash" unicode="&#x2014;" horiz-adv-x="672" 
d="M592 261h-512v113h512v-113z" />
    <glyph glyph-name="quoteleft" unicode="&#x2018;" horiz-adv-x="292" 
d="M162 721l70 -34q-37 -63 -56 -128q54 -17 54 -78q0 -35 -23 -58.5t-58 -23.5q-46 0 -67.5 26t-21.5 64q0 45 34 117.5t68 114.5z" />
    <glyph glyph-name="quoteright" unicode="&#x2019;" horiz-adv-x="292" 
d="M130 399l-70 34q37 63 56 128q-54 17 -54 78q0 35 23 58.5t58 23.5q46 0 67.5 -26t21.5 -64q0 -45 -34 -117.5t-68 -114.5z" />
    <glyph glyph-name="quotesinglbase" unicode="&#x201a;" horiz-adv-x="332" 
d="M150 -168l-70 34q37 63 56 128q-54 17 -54 78q0 35 23 58.5t58 23.5q46 0 67.5 -26t21.5 -64q0 -45 -34 -117.5t-68 -114.5z" />
    <glyph glyph-name="quotedblleft" unicode="&#x201c;" horiz-adv-x="523" 
d="M162 721l70 -34q-37 -63 -56 -128q54 -17 54 -78q0 -35 -23 -58.5t-58 -23.5q-46 0 -67.5 26t-21.5 64q0 45 34 117.5t68 114.5zM393 721l70 -34q-37 -63 -56 -128q54 -17 54 -78q0 -35 -23 -58.5t-58 -23.5q-46 0 -67.5 26t-21.5 64q0 45 34 117.5t68 114.5z" />
    <glyph glyph-name="quotedblright" unicode="&#x201d;" horiz-adv-x="523" 
d="M361 399l-70 34q37 63 56 128q-54 17 -54 78q0 35 23 58.5t58 23.5q46 0 67.5 -26t21.5 -64q0 -45 -34 -117.5t-68 -114.5zM130 399l-70 34q37 63 56 128q-54 17 -54 78q0 35 23 58.5t58 23.5q46 0 67.5 -26t21.5 -64q0 -45 -34 -117.5t-68 -114.5z" />
    <glyph glyph-name="quotedblbase" unicode="&#x201e;" horiz-adv-x="544" 
d="M150 -168l-70 34q37 63 56 128q-54 17 -54 78q0 35 23 58.5t58 23.5q46 0 67.5 -26t21.5 -64q0 -45 -34 -117.5t-68 -114.5zM402 -168l-70 34q37 63 56 128q-54 17 -54 78q0 35 23 58.5t58 23.5q46 0 67.5 -26t21.5 -64q0 -45 -34 -117.5t-68 -114.5z" />
    <glyph glyph-name="dagger" unicode="&#x2020;" horiz-adv-x="553" 
d="M342 374v-533h-132v533h-130v126h130v200h132v-200h131v-126h-131z" />
    <glyph glyph-name="daggerdbl" unicode="&#x2021;" horiz-adv-x="553" 
d="M342 39v-198h-132v198h-130v126h130v209h-130v126h130v200h132v-200h131v-126h-131v-209h131v-126h-131z" />
    <glyph glyph-name="bullet" unicode="&#x2022;" horiz-adv-x="421" 
d="M208 161q-50 0 -89 39t-39 90q0 53 39 93t89 40q55 0 94 -39.5t39 -93.5q0 -52 -39 -90.5t-94 -38.5z" />
    <glyph glyph-name="ellipsis" unicode="&#x2026;" horiz-adv-x="780" 
d="M80 77q0 35 25 59.5t59 24.5q35 0 59 -24.5t24 -59.5t-24.5 -59t-58.5 -24t-59 24.5t-25 58.5zM326 77q0 35 25 59.5t59 24.5q35 0 59 -24.5t24 -59.5t-24.5 -59t-58.5 -24t-59 24.5t-25 58.5zM573 77q0 35 25 59.5t59 24.5q35 0 59 -24.5t24 -59.5t-24 -59t-59 -24
q-34 0 -59 24.5t-25 58.5z" />
    <glyph glyph-name="perthousand" unicode="&#x2030;" horiz-adv-x="1243" 
d="M189 706q43 0 75 -16t49 -42t25 -53t8 -54t-8 -54t-25 -52.5t-49 -41t-75 -15.5q-83 0 -121 50.5t-38 112.5q0 28 8 54.5t25 52.5t49.5 42t76.5 16zM189 486q25 0 34 18t9 37q0 11 -2.5 22t-13 22.5t-27.5 11.5q-18 0 -29 -11.5t-13.5 -22.5t-2.5 -22t2.5 -21.5t13.5 -22
t29 -11.5zM604 700l-232 -700h-119l233 700h118zM667 323q43 0 75 -16t49 -42t25 -53t8 -54t-8 -54t-25 -52.5t-49 -41t-75 -15.5t-75.5 15.5t-49.5 41t-25 52.5t-8 54q0 28 8 54.5t25 52.5t49.5 42t75.5 16zM667 103q25 0 34.5 18.5t9.5 36.5q0 11 -2.5 22t-13.5 22.5
t-28 11.5q-18 0 -29 -11.5t-13.5 -22.5t-2.5 -22q0 -10 2.5 -21t13.5 -22.5t29 -11.5zM1056 323q43 0 75 -16t49 -42t25 -53t8 -54t-8 -54t-25 -52.5t-49 -41t-75 -15.5t-75.5 15.5t-49.5 41t-25 52.5t-8 54q0 28 8 54.5t25 52.5t49.5 42t75.5 16zM1056 103q25 0 34.5 18.5
t9.5 36.5q0 11 -2.5 22t-13.5 22.5t-28 11.5q-18 0 -29 -11.5t-13.5 -22.5t-2.5 -22q0 -10 2.5 -21t13.5 -22.5t29 -11.5z" />
    <glyph glyph-name="guilsinglleft" unicode="&#x2039;" horiz-adv-x="320" 
d="M176 256l114 -143l-73 -64l-187 200v13l187 199l73 -64z" />
    <glyph glyph-name="guilsinglright" unicode="&#x203a;" horiz-adv-x="320" 
d="M30 113l114 143l-114 141l73 64l187 -199v-13l-187 -200z" />
    <glyph glyph-name="fraction" unicode="&#x2044;" horiz-adv-x="67" 
d="M261 700l-349 -700h-102l350 700h101z" />
    <glyph glyph-name="zerosuperior" unicode="&#x2070;" horiz-adv-x="328" 
d="M164 803q70 0 102 -52.5t32 -116.5q0 -40 -11 -75t-42.5 -63t-80.5 -28q-48 0 -80 28t-43 63t-11 75q0 39 11 75t43 65t80 29zM164 547q18 0 29.5 18.5t14.5 36t3 32.5q0 16 -3 34t-14.5 36.5t-29.5 18.5t-29.5 -18.5t-14.5 -36.5t-3 -34q0 -11 2 -23.5t6.5 -28
t14.5 -25.5t24 -10z" />
    <glyph glyph-name="foursuperior" unicode="&#x2074;" horiz-adv-x="301" 
d="M235 519v-47h-83v47h-132v66l147 215h68v-207h46v-74h-46zM152 654l-42 -61h42v61z" />
    <glyph glyph-name="fivesuperior" unicode="&#x2075;" horiz-adv-x="305" 
d="M30 528l57 52q25 -33 66 -33q16 0 26 11t10 24q0 15 -10 24.5t-27 9.5h-88v183h189v-73h-102v-39q70 0 97 -31.5t27 -73.5q0 -39 -29.5 -77t-93.5 -38q-74 0 -122 61z" />
    <glyph glyph-name="sixsuperior" unicode="&#x2076;" horiz-adv-x="300" 
d="M176 806l40 -52q-48 -32 -84 -72q9 6 31 6q33 0 56.5 -13t33 -32.5t13 -35t3.5 -28.5q-1 -22 -9.5 -45.5t-37.5 -46t-73 -22.5q-34 0 -59 12.5t-37 31.5t-17.5 36.5t-5.5 33.5q0 141 146 227zM149 546q16 0 25.5 11t9.5 25t-9.5 24t-25.5 10q-14 0 -24 -9.5t-10 -24.5
q0 -14 9 -25t25 -11z" />
    <glyph glyph-name="sevensuperior" unicode="&#x2077;" horiz-adv-x="264" 
d="M20 721v79h222l2 -4l-128 -323h-89l101 248h-108z" />
    <glyph glyph-name="eightsuperior" unicode="&#x2078;" horiz-adv-x="288" 
d="M258 703q0 -16 -9 -36.5t-27 -31.5q35 -23 35 -72q0 -35 -25.5 -66t-86.5 -31q-62 0 -88.5 30.5t-26.5 67.5q0 19 9.5 40.5t25.5 31.5q-16 8 -25.5 27t-9.5 39q0 34 27 67t88 33t87 -30t26 -69zM145 543q11 0 19.5 7.5t8.5 18.5t-8.5 18.5t-19.5 7.5q-12 0 -21 -7.5
t-9 -18.5t9 -18.5t21 -7.5zM145 673q11 0 19.5 7.5t8.5 18.5q0 12 -8.5 19.5t-19.5 7.5q-12 0 -21 -7.5t-9 -19.5q0 -11 9 -18.5t21 -7.5z" />
    <glyph glyph-name="ninesuperior" unicode="&#x2079;" horiz-adv-x="300" 
d="M124 465l-40 52q48 32 84 72q-9 -6 -31 -6q-33 0 -56.5 13t-33 32.5t-13 35t-3.5 28.5q1 22 9.5 45.5t37.5 46t73 22.5q34 0 59 -12.5t37 -31.5t17.5 -36.5t5.5 -33.5q0 -141 -146 -227zM151 725q-16 0 -25.5 -11t-9.5 -25t9.5 -24t25.5 -10q14 0 24 9.5t10 24.5
q0 14 -9 25t-25 11z" />
    <glyph glyph-name="zeroinferior" unicode="&#x2080;" horiz-adv-x="328" 
d="M164 169q70 0 102 -52.5t32 -116.5q0 -40 -11 -75t-42.5 -63t-80.5 -28q-48 0 -80 28t-43 63t-11 75q0 39 11 75t43 65t80 29zM164 -87q18 0 29.5 18.5t14.5 36t3 32.5q0 16 -3 34t-14.5 36.5t-29.5 18.5t-29.5 -18.5t-14.5 -36.5t-3 -34q0 -11 2 -23.5t6.5 -28
t14.5 -25.5t24 -10z" />
    <glyph glyph-name="oneinferior" unicode="&#x2081;" horiz-adv-x="228" 
d="M183 165v-327h-88v208l-41 -22l-34 56l119 85h44z" />
    <glyph glyph-name="twoinferior" unicode="&#x2082;" horiz-adv-x="305" 
d="M84 50l-54 52q56 68 126 68q51 0 80 -28.5t29 -75.5q0 -39 -40 -94l-41 -57h76v-78h-222l-3 8l123 177q18 26 18 43q0 8 -6.5 15.5t-17.5 7.5q-26 0 -68 -38z" />
    <glyph glyph-name="threeinferior" unicode="&#x2083;" horiz-adv-x="282" 
d="M252 66q0 -40 -31 -66q31 -24 31 -64q0 -37 -27 -70.5t-89 -33.5q-63 0 -116 49l49 54q27 -26 67 -26q14 0 24.5 7.5t10.5 19.5q0 15 -10 23t-25 8h-55v67h55q14 0 24.5 8.5t10.5 23.5q0 12 -10.5 19.5t-24.5 7.5q-34 0 -67 -28l-47 54q51 51 114 51q62 0 89 -33t27 -71z
" />
    <glyph glyph-name="fourinferior" unicode="&#x2084;" horiz-adv-x="301" 
d="M235 -115v-47h-83v47h-132v66l147 215h68v-207h46v-74h-46zM152 20l-42 -61h42v61z" />
    <glyph glyph-name="fiveinferior" unicode="&#x2085;" horiz-adv-x="305" 
d="M30 -106l57 52q25 -33 66 -33q16 0 26 11t10 24q0 15 -10 24.5t-27 9.5h-88v183h189v-73h-102v-39q70 0 97 -31.5t27 -73.5q0 -39 -29.5 -77t-93.5 -38q-74 0 -122 61z" />
    <glyph glyph-name="sixinferior" unicode="&#x2086;" horiz-adv-x="300" 
d="M176 172l40 -52q-48 -32 -84 -72q9 6 31 6q33 0 56.5 -13t33 -32.5t13 -35t3.5 -28.5q-1 -22 -9.5 -45.5t-37.5 -46t-73 -22.5q-34 0 -59 12.5t-37 31.5t-17.5 36.5t-5.5 33.5q0 141 146 227zM149 -88q16 0 25.5 11t9.5 25t-9.5 24t-25.5 10q-14 0 -24 -9.5t-10 -24.5
q0 -14 9 -25t25 -11z" />
    <glyph glyph-name="seveninferior" unicode="&#x2087;" horiz-adv-x="264" 
d="M20 86v79h222l2 -3l-128 -324h-89l101 248h-108z" />
    <glyph glyph-name="eightinferior" unicode="&#x2088;" horiz-adv-x="288" 
d="M258 69q0 -16 -9 -36.5t-27 -31.5q35 -23 35 -72q0 -35 -25.5 -66t-86.5 -31q-62 0 -88.5 30.5t-26.5 67.5q0 19 9.5 40.5t25.5 31.5q-16 8 -25.5 27t-9.5 39q0 34 27 67t88 33t87 -30t26 -69zM145 -91q11 0 19.5 7.5t8.5 18.5t-8.5 18.5t-19.5 7.5q-12 0 -21 -7.5
t-9 -18.5t9 -18.5t21 -7.5zM145 39q11 0 19.5 7.5t8.5 18.5q0 12 -8.5 19.5t-19.5 7.5q-12 0 -21 -7.5t-9 -19.5q0 -11 9 -18.5t21 -7.5z" />
    <glyph glyph-name="nineinferior" unicode="&#x2089;" horiz-adv-x="300" 
d="M124 -169l-40 52q48 32 84 72q-9 -6 -31 -6q-33 0 -56.5 13t-33 32.5t-13 35t-3.5 28.5q1 22 9.5 45.5t37.5 46t73 22.5q34 0 59 -12.5t37 -31.5t17.5 -36.5t5.5 -33.5q0 -141 -146 -227zM151 91q-16 0 -25.5 -11t-9.5 -25t9.5 -24t25.5 -10q14 0 24 9.5t10 24.5
q0 14 -9 25t-25 11z" />
    <glyph glyph-name="Euro" unicode="&#x20ac;" horiz-adv-x="584" 
d="M38 467h63q21 103 82.5 167t167.5 64q108 0 193 -98l-85 -85q-56 59 -108 59q-87 0 -115 -107h186l-27 -95h-172v-19q-2 -15 0 -34h144l-25 -95h-100q35 -108 109 -108q24 0 54.5 15.5t55.5 42.5l82 -82q-87 -99 -192 -99t-165.5 64.5t-83.5 166.5h-92l28 95h52v36v17
h-80z" />
    <glyph glyph-name="afii61289" unicode="&#x2113;" horiz-adv-x="450" 
d="M20 285v121h52v124q0 53 17 91t44.5 56t53 25.5t51.5 7.5q88 0 135 -55.5t47 -134.5q0 -92 -61.5 -157t-149.5 -76v-94q0 -14 1.5 -26t5.5 -25t14 -20.5t25 -6.5q29 0 87 40l63 -99q-75 -60 -144 -65q-50 -3 -87 11t-56 35t-30 51.5t-13.5 51t-2.5 43.5v102h-52zM209 537
v-129q38 8 60.5 40t20.5 80q-1 28 -15.5 44t-34.5 15q-31 -4 -31 -50z" />
    <glyph glyph-name="trademark" unicode="&#x2122;" horiz-adv-x="659" 
d="M109 491v190h-64v76h208v-76h-64v-190h-80zM439 488h-12l-58 108l-32 -105h-83l103 265h7l70 -123l66 123h8l106 -265h-81l-36 108z" />
    <glyph glyph-name="estimated" unicode="&#x212e;" horiz-adv-x="815" 
d="M618 178l64 -52q-55 -69 -119.5 -102t-155.5 -33q-77 0 -138.5 23.5t-99.5 60.5t-63.5 86t-35.5 96.5t-10 95.5q0 47 10 93.5t35.5 95.5t63.5 86t99.5 60.5t138.5 23.5t138.5 -23.5t100 -60.5t64 -86t35.5 -95.5t10 -93.5v-27h-537v-172q70 -86 189 -86t211 110zM407 636
q-121 0 -189 -86v-147h376q0 3 0.5 47t0.5 104q-68 82 -188 82z" />
    <glyph glyph-name="onethird" unicode="&#x2153;" horiz-adv-x="630" 
d="M512 700l-349 -700h-102l350 700h101zM183 703v-327h-88v208l-41 -22l-34 56l119 85h44zM598 228q0 -40 -31 -66q31 -24 31 -64q0 -37 -27 -70.5t-89 -33.5q-63 0 -116 49l49 54q27 -26 67 -26q14 0 24.5 7.5t10.5 19.5q0 15 -10 23t-25 8h-55v67h55q14 0 24.5 8.5
t10.5 23.5q0 12 -10.5 19.5t-24.5 7.5q-34 0 -67 -28l-47 54q51 51 114 51q62 0 89 -33t27 -71z" />
    <glyph glyph-name="twothirds" unicode="&#x2154;" horiz-adv-x="690" 
d="M568 700l-349 -700h-102l350 700h101zM654 228q0 -40 -31 -66q31 -24 31 -64q0 -37 -27 -70.5t-89 -33.5q-63 0 -116 49l49 54q27 -26 67 -26q14 0 24.5 7.5t10.5 19.5q0 15 -10 23t-25 8h-55v67h55q14 0 24.5 8.5t10.5 23.5q0 12 -10.5 19.5t-24.5 7.5q-34 0 -67 -28
l-47 54q51 51 114 51q62 0 89 -33t27 -71zM82 586l-54 52q56 68 126 68q51 0 80 -28.5t29 -75.5q0 -39 -40 -94l-41 -57h76v-78h-222l-3 8l123 177q18 26 18 43q0 8 -6.5 15.5t-17.5 7.5q-26 0 -68 -38z" />
    <glyph glyph-name="oneeighth" unicode="&#x215b;" horiz-adv-x="628" 
d="M512 700l-349 -700h-102l350 700h101zM183 703v-327h-88v208l-41 -22l-34 56l119 85h44zM593 231q0 -16 -9 -36.5t-27 -31.5q35 -23 35 -72q0 -35 -25.5 -66t-86.5 -31q-62 0 -88.5 30.5t-26.5 67.5q0 19 9.5 40.5t25.5 31.5q-16 8 -25.5 27t-9.5 39q0 34 27 67t88 33
t87 -30t26 -69zM480 71q11 0 19.5 7.5t8.5 18.5t-8.5 18.5t-19.5 7.5q-12 0 -21 -7.5t-9 -18.5t9 -18.5t21 -7.5zM480 201q11 0 19.5 7.5t8.5 18.5q0 12 -8.5 19.5t-19.5 7.5q-12 0 -21 -7.5t-9 -19.5q0 -11 9 -18.5t21 -7.5z" />
    <glyph glyph-name="threeeighths" unicode="&#x215c;" horiz-adv-x="644" 
d="M548 700l-349 -700h-102l350 700h101zM612 231q0 -16 -9 -36.5t-27 -31.5q35 -23 35 -72q0 -35 -25.5 -66t-86.5 -31q-62 0 -88.5 30.5t-26.5 67.5q0 19 9.5 40.5t25.5 31.5q-16 8 -25.5 27t-9.5 39q0 34 27 67t88 33t87 -30t26 -69zM499 71q11 0 19.5 7.5t8.5 18.5
t-8.5 18.5t-19.5 7.5q-12 0 -21 -7.5t-9 -18.5t9 -18.5t21 -7.5zM499 201q11 0 19.5 7.5t8.5 18.5q0 12 -8.5 19.5t-19.5 7.5q-12 0 -21 -7.5t-9 -19.5q0 -11 9 -18.5t21 -7.5zM254 598q0 -40 -31 -66q31 -24 31 -64q0 -37 -27 -70.5t-89 -33.5q-63 0 -116 49l49 54
q27 -26 67 -26q14 0 24.5 7.5t10.5 19.5q0 15 -10 23t-25 8h-55v67h55q14 0 24.5 8.5t10.5 23.5q0 12 -10.5 19.5t-24.5 7.5q-34 0 -67 -28l-47 54q51 51 114 51q62 0 89 -33t27 -71z" />
    <glyph glyph-name="fiveeighths" unicode="&#x215d;" horiz-adv-x="655" 
d="M548 700l-349 -700h-102l350 700h101zM612 231q0 -16 -9 -36.5t-27 -31.5q35 -23 35 -72q0 -35 -25.5 -66t-86.5 -31q-62 0 -88.5 30.5t-26.5 67.5q0 19 9.5 40.5t25.5 31.5q-16 8 -25.5 27t-9.5 39q0 34 27 67t88 33t87 -30t26 -69zM499 71q11 0 19.5 7.5t8.5 18.5
t-8.5 18.5t-19.5 7.5q-12 0 -21 -7.5t-9 -18.5t9 -18.5t21 -7.5zM499 201q11 0 19.5 7.5t8.5 18.5q0 12 -8.5 19.5t-19.5 7.5q-12 0 -21 -7.5t-9 -19.5q0 -11 9 -18.5t21 -7.5zM18 431l57 52q25 -33 66 -33q16 0 26 11t10 24q0 15 -10 24.5t-27 9.5h-88v183h189v-73h-102
v-39q70 0 97 -31.5t27 -73.5q0 -39 -29.5 -77t-93.5 -38q-74 0 -122 61z" />
    <glyph glyph-name="seveneighths" unicode="&#x215e;" horiz-adv-x="614" 
d="M511 700l-349 -700h-102l350 700h101zM575 231q0 -16 -9 -36.5t-27 -31.5q35 -23 35 -72q0 -35 -25.5 -66t-86.5 -31q-62 0 -88.5 30.5t-26.5 67.5q0 19 9.5 40.5t25.5 31.5q-16 8 -25.5 27t-9.5 39q0 34 27 67t88 33t87 -30t26 -69zM462 71q11 0 19.5 7.5t8.5 18.5
t-8.5 18.5t-19.5 7.5q-12 0 -21 -7.5t-9 -18.5t9 -18.5t21 -7.5zM462 201q11 0 19.5 7.5t8.5 18.5q0 12 -8.5 19.5t-19.5 7.5q-12 0 -21 -7.5t-9 -19.5q0 -11 9 -18.5t21 -7.5zM32 621v79h226v-9l-130 -318h-89l101 248h-108z" />
    <glyph glyph-name="arrowleft" unicode="&#x2190;" horiz-adv-x="616" 
d="M556 198h-277l125 -136l-80 -75l-264 267v8l263 269l79 -79l-123 -134h277v-120z" />
    <glyph glyph-name="arrowup" unicode="&#x2191;" horiz-adv-x="664" 
d="M271 11v277l-136 -125l-75 80l267 264h8l269 -263l-79 -79l-134 123v-277h-120z" />
    <glyph glyph-name="arrowright" unicode="&#x2192;" horiz-adv-x="616" 
d="M337 198h-277v120h277l-123 134l79 79l263 -269v-8l-264 -267l-80 75z" />
    <glyph glyph-name="arrowdown" unicode="&#x2193;" horiz-adv-x="664" 
d="M271 230v277h120v-277l134 123l79 -79l-269 -263h-8l-267 264l75 80z" />
    <glyph glyph-name="partialdiff" unicode="&#x2202;" horiz-adv-x="586" 
d="M161 621l69 93q56 -33 105 -77.5t93.5 -105t70.5 -140t26 -166.5q0 -24 -5.5 -51t-22 -60t-41 -59t-67.5 -43.5t-97 -17.5t-96.5 16.5t-67 41.5t-41 56.5t-22 58t-5.5 49.5q0 26 5 52.5t20 58t37.5 56t61.5 41.5t89 20q43 0 69 -12q-39 66 -79.5 109.5t-101.5 79.5z
M292 118q48 0 74.5 30.5t26.5 72.5q-2 43 -28 72.5t-73 29.5t-73.5 -30t-26.5 -72t27 -72.5t73 -30.5z" />
    <glyph glyph-name="product" unicode="&#x220f;" horiz-adv-x="612" 
d="M117 0v580h-72v122h522v-122h-70v-580h-139v580h-103v-580h-138z" />
    <glyph glyph-name="summation" unicode="&#x2211;" horiz-adv-x="521" 
d="M248 577l151 -227l-151 -227h243v-123h-458l-3 8l216 342l-215 342l3 8h457v-123h-243z" />
    <glyph glyph-name="minus" unicode="&#x2212;" horiz-adv-x="557" 
d="M75 428h414v-97h-414v97z" />
    <glyph glyph-name="radical" unicode="&#x221a;" horiz-adv-x="685" 
d="M288 292l175 408h192v-109h-98l-265 -596h-9l-253 505h150z" />
    <glyph glyph-name="infinity" unicode="&#x221e;" horiz-adv-x="670" 
d="M224 143q-72 0 -108 45t-36 107q0 61 36 106.5t108 45.5q65 0 112 -58q43 58 110 58q72 0 108 -45.5t36 -107.5t-36 -106.5t-108 -44.5q-65 0 -110 55q-43 -55 -112 -55zM438 248q19 0 31 13.5t12 32.5q0 18 -12 30.5t-31 12.5q-32 0 -50 -43q19 -46 50 -46zM233 247
q30 0 49 48q-18 44 -49 44q-20 0 -31.5 -12t-11.5 -32q0 -22 11.5 -35t31.5 -13z" />
    <glyph glyph-name="integral" unicode="&#x222b;" horiz-adv-x="482" 
d="M435 560q-49 28 -84 28q-56 0 -56 -75v-526q0 -18 -2 -36.5t-12.5 -48t-28 -51t-52.5 -38t-83 -16.5q-46 0 -91 19t-66 40l57 87q49 -28 84 -28q56 0 56 75v526q0 18 2 36.5t12.5 48t28 51t52.5 38t83 16.5q46 0 91 -19t66 -40z" />
    <glyph glyph-name="approxequal" unicode="&#x2248;" horiz-adv-x="609" 
d="M162 279l-82 56q67 115 158 115q28 0 71 -22t60 -22q36 0 79 55l81 -62q-62 -113 -159 -113q-25 0 -68 23.5t-66 23.5q-32 0 -74 -54zM162 75l-82 56q67 115 158 115q28 0 71 -22t60 -22q36 0 79 55l81 -62q-62 -113 -159 -113q-25 0 -68 23.5t-66 23.5q-32 0 -74 -54z
" />
    <glyph glyph-name="notequal" unicode="&#x2260;" horiz-adv-x="509" 
d="M151 91h-71v113h106l29 87h-135v114h170l34 95h105l-33 -95h74v-114h-108l-30 -87h138v-113h-173l-31 -91h-103z" />
    <glyph glyph-name="lessequal" unicode="&#x2264;" horiz-adv-x="441" 
d="M30 111h356v-111h-356v111zM222 378l189 -120l-57 -100l-324 196v48l324 195l57 -99z" />
    <glyph glyph-name="greaterequal" unicode="&#x2265;" horiz-adv-x="441" 
d="M411 111h-356v-111h356v111zM30 258l189 120l-189 120l57 99l324 -195v-48l-324 -196z" />
    <glyph glyph-name="lozenge" unicode="&#x25ca;" horiz-adv-x="660" 
d="M60 348l270 373l270 -373l-270 -373zM330 496l-104 -148l104 -148l104 148z" />
    <glyph glyph-name="CR" horiz-adv-x="250" 
 />
    <glyph glyph-name="zero.oldstyle" horiz-adv-x="578" 
d="M289 506q62 0 109 -25.5t72 -66.5t36.5 -84t11.5 -86q0 -33 -5.5 -64.5t-21.5 -66t-40.5 -60t-66.5 -42.5t-95 -17q-66 0 -113.5 25.5t-71 66.5t-34 81.5t-10.5 82.5q0 40 10.5 80.5t34 82t71 67.5t113.5 26zM289 117q31 0 51.5 15t28.5 39.5t10.5 40.5t2.5 32
q0 17 -2.5 34.5t-10.5 44t-28.5 43t-51.5 16.5q-25 0 -43.5 -11.5t-27.5 -26.5t-14 -36t-6 -33t-1 -25q0 -17 2.5 -33.5t10 -42t28 -41.5t51.5 -16z" />
    <glyph glyph-name="one.oldstyle" horiz-adv-x="474" 
d="M61 105h121v217l-102 -53l-50 83l229 160h48v-407h107v-105h-353v105z" />
    <glyph glyph-name="two.oldstyle" horiz-adv-x="444" 
d="M383 354q0 -62 -62 -145l-69 -93h132v-116h-352v29l193 257q30 37 30 63q0 8 -2.5 15.5t-11.5 14.5t-23 7q-45 0 -115 -62l-73 84q89 98 188 98q73 0 119 -39.5t46 -112.5z" />
    <glyph glyph-name="three.oldstyle" horiz-adv-x="503" 
d="M443 324q0 -32 -17.5 -68t-51.5 -56q69 -38 69 -131q0 -27 -9 -55.5t-29.5 -59.5t-62.5 -50.5t-99 -19.5q-116 0 -203 89l72 85q51 -50 131 -50q28 0 48 17.5t23 44.5q4 32 -18 55.5t-56 23.5h-91v104h94q29 0 49.5 20t20.5 51q0 30 -20 46.5t-50 16.5q-29 0 -65.5 -14.5
t-65.5 -39.5l-70 87q92 86 201 86q49 0 86.5 -13t58.5 -32t34 -45t17 -48t4 -44z" />
    <glyph glyph-name="four.oldstyle" horiz-adv-x="516" 
d="M400 7v-118h-136v118h-234v73l264 420h106v-371h86v-122h-86zM264 239l-71 -110h71v110z" />
    <glyph glyph-name="five.oldstyle" horiz-adv-x="544" 
d="M60 -3l80 80q54 -66 124 -66q39 0 64 25t25 57q0 37 -24.5 61t-66.5 24h-148v322h338v-123h-205v-80h21q62 0 107 -19t67.5 -51.5t32 -66t9.5 -71.5q0 -22 -6 -46.5t-22 -52.5t-40 -50t-64 -37t-89 -15q-114 0 -203 109z" />
    <glyph glyph-name="six.oldstyle" horiz-adv-x="554" 
d="M339 634l65 -92q-101 -58 -163 -143q16 8 37 8q51 0 90.5 -15t62.5 -37t38 -52t20 -56t5 -52q0 -28 -10 -59.5t-32 -66.5t-67.5 -58t-106.5 -23t-106.5 22.5t-67.5 57t-32.5 66.5t-10.5 61q-3 150 77 260t201 179zM278 111q40 0 62.5 27t22.5 62t-22.5 61t-62.5 26
t-63 -25.5t-23 -61.5q0 -35 23 -62t63 -27z" />
    <glyph glyph-name="seven.oldstyle" horiz-adv-x="440" 
d="M237 378h-207v122h383l4 -9l-236 -602h-136z" />
    <glyph glyph-name="eight.oldstyle" horiz-adv-x="545" 
d="M272 -5q-59 0 -102.5 18.5t-66 48t-33 60.5t-10.5 62q0 42 21 78.5t53 52.5q-30 18 -48.5 54.5t-18.5 74.5q0 29 9 58t30.5 59.5t65 49.5t103.5 19q59 0 101.5 -19t63.5 -49.5t30 -59.5t9 -58q0 -86 -66 -129q32 -15 52 -54t20 -77q0 -31 -10.5 -62t-33 -60.5t-66.5 -48
t-103 -18.5zM274 257q-43 0 -65 -23.5t-22 -49.5q0 -37 25.5 -57t61.5 -20q35 0 59.5 20t24.5 57q0 26 -21.5 49.5t-62.5 23.5zM352 444q0 32 -23.5 51t-55.5 19q-33 0 -56 -19t-23 -51q0 -22 19 -47.5t60 -26.5q40 1 59.5 26.5t19.5 47.5z" />
    <glyph glyph-name="nine.oldstyle" horiz-adv-x="554" 
d="M215 -140l-67 92q101 58 167 148q-20 -10 -39 -10q-63 0 -108 21t-67 55t-31.5 66.5t-9.5 66.5q0 28 10 59.5t32 66.5t67.5 58t106.5 23t106.5 -22.5t67.5 -57t32.5 -66.5t10.5 -61q3 -150 -77 -260t-201 -179zM276 383q-40 0 -62.5 -27t-22.5 -62t22.5 -61t62.5 -26
t63 25.5t23 61.5q0 35 -23 62t-63 27z" />
    <glyph glyph-name="Euro.oldstyle" horiz-adv-x="583" 
d="M60 168l24 64h34v32h-58l24 64h43q19 82 76.5 130t141.5 48q111 0 178 -62l-67 -96q-45 33 -98 33q-63 0 -91 -53h142l-24 -64h-134v-32h103l-24 -64h-64q28 -54 84 -54q50 0 102 38l63 -96q-81 -62 -170 -62q-86 0 -142.5 46t-75.5 128h-67z" />
    <glyph glyph-name="florin.oldstyle" horiz-adv-x="492" 
d="M-40 -126l40 107q54 -22 96 -22q22 0 37 12.5t15 40.5v176h-52v117h52v37q0 83 50.5 126.5t129.5 43.5q71 0 144 -36l-40 -107q-54 22 -96 22q-22 0 -37 -12.5t-15 -40.5v-33h93v-117h-93v-180q0 -83 -50.5 -126.5t-129.5 -43.5q-71 0 -144 36z" />
    <glyph glyph-name="sterling.oldstyle" horiz-adv-x="648" 
d="M471 488l-40 -107q-54 22 -96 22q-22 0 -37 -12.5t-15 -40.5v-48h93v-72h-93v-64q15 -3 55.5 -23.5t66.5 -20.5q19 0 46.5 17t49.5 51l87 -63q-35 -64 -84.5 -96.5t-99.5 -32.5q-36 0 -96 28.5t-87 28.5q-41 0 -88 -62l-88 58q44 78 102 110v69h-52v72h52v52
q0 83 50.5 126.5t129.5 43.5q71 0 144 -36z" />
    <glyph glyph-name="yen.oldstyle" horiz-adv-x="630" 
d="M136 268h87l-163 220v12h149l105 -157l104 157h152v-10l-162 -222h84v-81h-108v-51h108v-75h-108v-61h-139v61h-109v75h109v51h-109v81z" />
    <glyph glyph-name="percent.oldstyle" horiz-adv-x="900" 
d="M189 560q43 0 75 -16t49 -42t25 -53t8 -54t-8 -54t-25 -52.5t-49 -41t-75 -15.5q-83 0 -121 50.5t-38 112.5q0 28 8 54.5t25 52.5t49.5 42t76.5 16zM713 323q43 0 75 -16t49 -42t25 -53t8 -54t-8 -54t-25 -52.5t-49 -41t-75 -15.5t-75.5 15.5t-49.5 41t-25 52.5t-8 54
q0 28 8 54.5t25 52.5t49.5 42t75.5 16zM418 0h-119l186 557h118zM713 103q25 0 34.5 18.5t9.5 36.5q0 11 -2.5 22t-13.5 22.5t-28 11.5q-18 0 -29 -11.5t-13.5 -22.5t-2.5 -22q0 -10 2.5 -21t13.5 -22.5t29 -11.5zM189 340q25 0 34 18t9 37q0 11 -2.5 22t-13 22.5
t-27.5 11.5q-18 0 -29 -11.5t-13.5 -22.5t-2.5 -22t2.5 -21.5t13.5 -22t29 -11.5z" />
    <glyph glyph-name="commaaccent" horiz-adv-x="250" 
d="M126 -342l-58 26q27 55 38 88q-49 16 -49 70q0 29 20 50t50 21q39 0 58 -22.5t19 -54.5q0 -60 -78 -178z" />
    <glyph glyph-name="a.alt" horiz-adv-x="614" 
d="M304 -9q-66 0 -116 25t-76.5 65t-39 82.5t-12.5 86.5q0 34 7.5 68t25.5 69t44.5 61.5t70 43t96.5 16.5q69 0 126 -39l11 31h93v-500h-93l-11 35q-50 -44 -126 -44zM309 387q-35 0 -60 -16t-35.5 -40.5t-15 -44t-4.5 -36.5t4.5 -36.5t15 -44t35.5 -40.5t60 -16q57 0 90 37
v202q-35 35 -90 35z" />
    <glyph glyph-name="aogonek.alt" horiz-adv-x="616" 
d="M304 -9q-66 0 -116 25t-76.5 65t-39 82.5t-12.5 86.5q0 34 7.5 68t25.5 69t44.5 61.5t70 43t96.5 16.5q69 0 126 -39l11 31h93v-503q0 -10 -17.5 -41.5t-17.5 -52.5q0 -46 53 -46q32 0 74 16l-1 -75q-49 -21 -104 -21q-50 0 -83 27t-33 79q0 30 20.5 69.5t20.5 47.5
l-16 35q-50 -44 -126 -44zM309 387q-35 0 -60 -16t-35.5 -40.5t-15 -44t-4.5 -36.5t4.5 -36.5t15 -44t35.5 -40.5t60 -16q57 0 90 37v202q-35 35 -90 35z" />
    <glyph glyph-name="amacron.alt" horiz-adv-x="612" 
d="M304 -9q-66 0 -116 25t-76.5 65t-39 82.5t-12.5 86.5q0 34 7.5 68t25.5 69t44.5 61.5t70 43t96.5 16.5q69 0 126 -39l11 31h93v-500h-93l-11 35q-50 -44 -126 -44zM309 387q-35 0 -60 -16t-35.5 -40.5t-15 -44t-4.5 -36.5t4.5 -36.5t15 -44t35.5 -40.5t60 -16q57 0 90 37
v202q-35 35 -90 35zM166 688h301v-97h-301v97z" />
    <glyph glyph-name="adieresis.alt" horiz-adv-x="613" 
d="M304 -9q-66 0 -116 25t-76.5 65t-39 82.5t-12.5 86.5q0 34 7.5 68t25.5 69t44.5 61.5t70 43t96.5 16.5q69 0 126 -39l11 31h93v-500h-93l-11 35q-50 -44 -126 -44zM309 387q-35 0 -60 -16t-35.5 -40.5t-15 -44t-4.5 -36.5t4.5 -36.5t15 -44t35.5 -40.5t60 -16q57 0 90 37
v202q-35 35 -90 35zM130 662q0 32 22 54.5t55 22.5q32 0 54 -22.5t22 -54.5q0 -33 -22 -54.5t-54 -21.5q-33 0 -55 21.5t-22 54.5zM359 662q0 32 22 54.5t55 22.5q32 0 54 -22.5t22 -54.5q0 -33 -22 -54.5t-54 -21.5q-33 0 -55 21.5t-22 54.5z" />
    <glyph glyph-name="aring.alt" horiz-adv-x="612" 
d="M304 -9q-66 0 -116 25t-76.5 65t-39 82.5t-12.5 86.5q0 34 7.5 68t25.5 69t44.5 61.5t70 43t96.5 16.5q69 0 126 -39l11 31h93v-500h-93l-11 35q-50 -44 -126 -44zM309 387q-35 0 -60 -16t-35.5 -40.5t-15 -44t-4.5 -36.5t4.5 -36.5t15 -44t35.5 -40.5t60 -16q57 0 90 37
v202q-35 35 -90 35zM213 688q0 42 30 72t72 30t71.5 -30t29.5 -72t-29.5 -71.5t-71.5 -29.5t-72 29.5t-30 71.5zM285 688q0 -11 9 -20t21 -9q11 0 20 9t9 20q0 12 -9 21t-20 9q-12 0 -21 -9t-9 -21z" />
    <glyph glyph-name="agrave.alt" horiz-adv-x="612" 
d="M304 -9q-66 0 -116 25t-76.5 65t-39 82.5t-12.5 86.5q0 34 7.5 68t25.5 69t44.5 61.5t70 43t96.5 16.5q69 0 126 -39l11 31h93v-500h-93l-11 35q-50 -44 -126 -44zM309 387q-35 0 -60 -16t-35.5 -40.5t-15 -44t-4.5 -36.5t4.5 -36.5t15 -44t35.5 -40.5t60 -16q57 0 90 37
v202q-35 35 -90 35zM232 786l161 -125l-52 -74l-174 108z" />
    <glyph glyph-name="acircumflex.alt" horiz-adv-x="612" 
d="M304 -9q-66 0 -116 25t-76.5 65t-39 82.5t-12.5 86.5q0 34 7.5 68t25.5 69t44.5 61.5t70 43t96.5 16.5q69 0 126 -39l11 31h93v-500h-93l-11 35q-50 -44 -126 -44zM309 387q-35 0 -60 -16t-35.5 -40.5t-15 -44t-4.5 -36.5t4.5 -36.5t15 -44t35.5 -40.5t60 -16q57 0 90 37
v202q-35 35 -90 35zM152 660l161 125l161 -125l-52 -74l-109 67l-109 -67z" />
    <glyph glyph-name="aacute.alt" horiz-adv-x="612" 
d="M304 -9q-66 0 -116 25t-76.5 65t-39 82.5t-12.5 86.5q0 34 7.5 68t25.5 69t44.5 61.5t70 43t96.5 16.5q69 0 126 -39l11 31h93v-500h-93l-11 35q-50 -44 -126 -44zM309 387q-35 0 -60 -16t-35.5 -40.5t-15 -44t-4.5 -36.5t4.5 -36.5t15 -44t35.5 -40.5t60 -16q57 0 90 37
v202q-35 35 -90 35zM208 661l161 125l65 -91l-174 -108z" />
    <glyph glyph-name="atilde.alt" horiz-adv-x="612" 
d="M304 -9q-66 0 -116 25t-76.5 65t-39 82.5t-12.5 86.5q0 34 7.5 68t25.5 69t44.5 61.5t70 43t96.5 16.5q69 0 126 -39l11 31h93v-500h-93l-11 35q-50 -44 -126 -44zM309 387q-35 0 -60 -16t-35.5 -40.5t-15 -44t-4.5 -36.5t4.5 -36.5t15 -44t35.5 -40.5t60 -16q57 0 90 37
v202q-35 35 -90 35zM405 733l82 -43q-46 -102 -133 -102q-23 0 -50.5 17t-43.5 17q-32 0 -50 -39l-78 36q18 59 53.5 83t75.5 24q27 0 55.5 -16t39.5 -16q27 0 49 39z" />
    <glyph glyph-name="abreve.alt" horiz-adv-x="612" 
d="M304 -9q-66 0 -116 25t-76.5 65t-39 82.5t-12.5 86.5q0 34 7.5 68t25.5 69t44.5 61.5t70 43t96.5 16.5q69 0 126 -39l11 31h93v-500h-93l-11 35q-50 -44 -126 -44zM309 387q-35 0 -60 -16t-35.5 -40.5t-15 -44t-4.5 -36.5t4.5 -36.5t15 -44t35.5 -40.5t60 -16q57 0 90 37
v202q-35 35 -90 35zM365 746l101 -30q-17 -65 -58.5 -97t-97.5 -32t-97.5 32t-57.5 97l99 29q11 -54 56 -54q43 0 55 55z" />
    <glyph glyph-name="parenleft.case" horiz-adv-x="320" 
d="M30 352q0 256 168 497l92 -56q-125 -230 -125 -440q0 -217 125 -447l-92 -55q-168 238 -168 501z" />
    <glyph glyph-name="parenright.case" horiz-adv-x="320" 
d="M290 353q0 -263 -168 -501l-92 55q125 230 125 447q0 210 -125 440l92 56q168 -241 168 -497z" />
    <glyph glyph-name="hyphen.case" horiz-adv-x="438" 
d="M80 411h286v-115h-286v115z" />
    <glyph glyph-name="bracketleft.case" horiz-adv-x="270" 
d="M30 -136v985h210v-107h-80v-771h80v-107h-210z" />
    <glyph glyph-name="bracketright.case" horiz-adv-x="270" 
d="M240 849v-985h-210v107h80v771h-80v107h210z" />
    <glyph glyph-name="braceleft.case" horiz-adv-x="322" 
d="M251 842h41v-106h-20h-8t-12.5 -4t-16 -11t-11 -24t-5.5 -41v-215q0 -26 -15.5 -51t-34.5 -35q19 -13 34.5 -37.5t15.5 -50.5v-215q0 -21 5 -37t12 -24t15.5 -12.5t13.5 -5.5t8 -1h19v-106h-41q-7 0 -19.5 1.5t-39 11.5t-47.5 27.5t-38 53.5t-17 85v216q0 20 -10 32.5
t-23 15.5h-27v92h27q13 2 23 14t10 33v216q0 48 17 84.5t38 53.5t47.5 27t39 11.5t19.5 1.5z" />
    <glyph glyph-name="bar.case" horiz-adv-x="222" 
d="M162 -134h-102v972h102v-972z" />
    <glyph glyph-name="braceright.case" horiz-adv-x="322" 
d="M30 842h41q7 0 19.5 -1.5t39 -11.5t47.5 -27t38 -53.5t17 -84.5v-216q0 -21 10 -33t23 -14h27v-92h-27q-13 -3 -23 -15.5t-10 -32.5v-216q0 -49 -17 -85t-38 -53.5t-47.5 -27.5t-39 -11.5t-19.5 -1.5h-41v106h19q3 0 8 1t13.5 5.5t15.5 12.5t12 24t5 37v215
q0 26 15.5 50.5t34.5 37.5q-19 10 -34.5 35t-15.5 51v215q0 24 -5.5 41t-11 24t-16 11t-12.5 4h-8h-20v106z" />
    <glyph glyph-name="guilsinglleft.case" horiz-adv-x="320" 
d="M176 351l114 -143l-73 -64l-187 200v13l187 199l73 -64z" />
    <glyph glyph-name="guilsinglright.case" horiz-adv-x="320" 
d="M30 208l114 143l-114 141l73 64l187 -199v-13l-187 -200z" />
    <glyph glyph-name="guillemotleft.case" horiz-adv-x="563" 
d="M176 351l114 -143l-73 -64l-187 200v13l187 199l73 -64zM419 351l114 -143l-73 -64l-187 200v13l187 199l73 -64z" />
    <glyph glyph-name="guillemotright.case" horiz-adv-x="563" 
d="M273 208l114 143l-114 141l73 64l187 -199v-13l-187 -200zM30 208l114 143l-114 141l73 64l187 -199v-13l-187 -200z" />
    <glyph glyph-name="endash.case" horiz-adv-x="550" 
d="M471 323h-391v113h391v-113z" />
    <glyph glyph-name="emdash.case" horiz-adv-x="672" 
d="M592 323h-512v113h512v-113z" />
    <glyph glyph-name="bullet.case" horiz-adv-x="421" 
d="M208 228q-50 0 -89 39t-39 90q0 53 39 93t89 40q55 0 94 -39.5t39 -93.5q0 -52 -39 -90.5t-94 -38.5z" />
    <glyph glyph-name="periodcentered.case" horiz-adv-x="284" 
d="M60 365q0 35 23 58t58 23t59 -23t24 -58t-24 -59t-59 -24t-58 24t-23 59z" />
    <glyph glyph-name="brokenbar.case" horiz-adv-x="222" 
d="M162 252v-387h-102v387h102zM162 838v-386h-102v386h102z" />
    <glyph glyph-name="numbersign.oldstyle" horiz-adv-x="575" 
d="M60 397h80v103h111v-103h73v103h111v-103h80v-110h-80v-74h80v-109h-80v-104h-111v104h-73v-104h-111v104h-80v109h80v74h-80v110zM251 287v-74h73v74h-73z" />
    <glyph glyph-name="dollar.oldstyle" horiz-adv-x="512" 
d="M207 357q0 -19 74 -42q31 -10 47.5 -16t44 -21t42 -31t26 -42.5t11.5 -59.5q0 -57 -38.5 -97t-101.5 -51v-84h-102v83q-70 9 -150 57l54 106q90 -46 145 -46q23 0 39 8.5t16 22.5q0 20 -20.5 31t-62.5 23q-35 11 -55.5 19.5t-47 26t-39.5 45t-13 64.5q0 63 36 103t98 49
v77h102v-81q60 -12 128 -45l-51 -111q-80 39 -127 39q-55 0 -55 -27z" />
    <glyph glyph-name="cent.oldstyle" horiz-adv-x="554" 
d="M421 173l79 -95q-65 -66 -140 -80v-85h-102v85q-54 9 -94 36t-61.5 63.5t-32 74.5t-10.5 76q0 41 9.5 79.5t30.5 76.5t61.5 64.5t96.5 35.5v78h102v-79q79 -17 149 -94l-78 -87q-24 26 -57.5 43t-63.5 17q-54 0 -84.5 -39t-30.5 -92q0 -59 34 -93.5t82 -34.5q59 0 110 50
z" />
    <glyph glyph-name="g.alt" horiz-adv-x="614" 
d="M309 -8q-68 -1 -119 23.5t-78 65.5t-39.5 83.5t-12.5 85.5q0 34 7.5 68t25.5 69t44.5 61.5t70 43t96.5 16.5q84 0 126 -41l12 33h92v-485q0 -31 -4 -59t-18 -64t-38 -61t-68.5 -43t-103.5 -18q-111 0 -232 101l77 89q81 -69 151 -69q100 0 100 115v9q-37 -22 -89 -23z
M309 387q-35 0 -60 -16t-36 -40.5t-15 -44t-4 -36.5q0 -26 8 -54t37.5 -55.5t76.5 -27.5q48 0 82 31v200q-30 43 -89 43z" />
    <glyph glyph-name="gcircumflex.alt" horiz-adv-x="614" 
d="M309 -8q-68 -1 -119 23.5t-78 65.5t-39.5 83.5t-12.5 85.5q0 34 7.5 68t25.5 69t44.5 61.5t70 43t96.5 16.5q84 0 126 -41l12 33h92v-485q0 -31 -4 -59t-18 -64t-38 -61t-68.5 -43t-103.5 -18q-111 0 -232 101l77 89q81 -69 151 -69q100 0 100 115v9q-37 -22 -89 -23z
M309 387q-35 0 -60 -16t-36 -40.5t-15 -44t-4 -36.5q0 -26 8 -54t37.5 -55.5t76.5 -27.5q48 0 82 31v200q-30 43 -89 43zM146 654l161 125l161 -125l-52 -74l-109 67l-109 -67z" />
    <glyph glyph-name="gbreve.alt" horiz-adv-x="614" 
d="M309 -8q-68 -1 -119 23.5t-78 65.5t-39.5 83.5t-12.5 85.5q0 34 7.5 68t25.5 69t44.5 61.5t70 43t96.5 16.5q84 0 126 -41l12 33h92v-485q0 -31 -4 -59t-18 -64t-38 -61t-68.5 -43t-103.5 -18q-111 0 -232 101l77 89q81 -69 151 -69q100 0 100 115v9q-37 -22 -89 -23z
M309 387q-35 0 -60 -16t-36 -40.5t-15 -44t-4 -36.5q0 -26 8 -54t37.5 -55.5t76.5 -27.5q48 0 82 31v200q-30 43 -89 43zM372 751l101 -30q-17 -65 -58.5 -97t-97.5 -32t-97.5 32t-57.5 97l99 29q11 -54 56 -54q43 0 55 55z" />
    <glyph glyph-name="gdotaccent.alt" horiz-adv-x="614" 
d="M309 -8q-68 -1 -119 23.5t-78 65.5t-39.5 83.5t-12.5 85.5q0 34 7.5 68t25.5 69t44.5 61.5t70 43t96.5 16.5q84 0 126 -41l12 33h92v-485q0 -31 -4 -59t-18 -64t-38 -61t-68.5 -43t-103.5 -18q-111 0 -232 101l77 89q81 -69 151 -69q100 0 100 115v9q-37 -22 -89 -23z
M309 387q-35 0 -60 -16t-36 -40.5t-15 -44t-4 -36.5q0 -26 8 -54t37.5 -55.5t76.5 -27.5q48 0 82 31v200q-30 43 -89 43zM231 658q0 32 22 54.5t55 22.5q32 0 54 -22.5t22 -54.5q0 -33 -22 -54.5t-54 -21.5q-33 0 -55 21.5t-22 54.5z" />
    <glyph glyph-name="gcommaaccent.alt" horiz-adv-x="614" 
d="M309 -8q-68 -1 -119 23.5t-78 65.5t-39.5 83.5t-12.5 85.5q0 34 7.5 68t25.5 69t44.5 61.5t70 43t96.5 16.5q84 0 126 -41l12 33h92v-485q0 -31 -4 -59t-18 -64t-38 -61t-68.5 -43t-103.5 -18q-111 0 -232 101l77 89q81 -69 151 -69q100 0 100 115v9q-37 -22 -89 -23z
M309 387q-35 0 -60 -16t-36 -40.5t-15 -44t-4 -36.5q0 -26 8 -54t37.5 -55.5t76.5 -27.5q48 0 82 31v200q-30 43 -89 43zM315 838l58 -26q-27 -55 -38 -88q49 -16 49 -70q0 -29 -20 -50t-50 -21q-39 0 -58 22.5t-19 54.5q0 60 78 178z" />
    <glyph glyph-name="zero.denom" horiz-adv-x="328" 
d="M164 331q70 0 102 -52.5t32 -116.5q0 -40 -11 -75t-42.5 -63t-80.5 -28q-48 0 -80 28t-43 63t-11 75q0 39 11 75t43 65t80 29zM164 75q18 0 29.5 18.5t14.5 36t3 32.5q0 16 -3 34t-14.5 36.5t-29.5 18.5t-29.5 -18.5t-14.5 -36.5t-3 -34q0 -11 2 -23.5t6.5 -28
t14.5 -25.5t24 -10z" />
    <glyph glyph-name="one.denom" horiz-adv-x="228" 
d="M183 327v-327h-88v208l-41 -22l-34 56l119 85h44z" />
    <glyph glyph-name="two.denom" horiz-adv-x="305" 
d="M84 213l-54 52q56 68 126 68q50 0 79.5 -30.5t29.5 -73.5q0 -40 -40 -94l-43 -57h78v-78h-225v20l123 165q18 24 18 43q0 8 -6.5 15.5t-17.5 7.5q-26 0 -68 -38z" />
    <glyph glyph-name="three.denom" horiz-adv-x="282" 
d="M252 228q0 -40 -31 -66q31 -24 31 -64q0 -37 -27 -70.5t-89 -33.5q-63 0 -116 49l49 54q27 -26 67 -26q14 0 24.5 7.5t10.5 19.5q0 15 -10 23t-25 8h-55v67h55q14 0 24.5 8.5t10.5 23.5q0 12 -10.5 19.5t-24.5 7.5q-34 0 -67 -28l-47 54q51 51 114 51q62 0 89 -33t27 -71
z" />
    <glyph glyph-name="four.denom" horiz-adv-x="301" 
d="M235 47v-47h-83v47h-132v66l147 215h68v-207h46v-74h-46zM152 182l-42 -61h42v61z" />
    <glyph glyph-name="five.denom" horiz-adv-x="305" 
d="M30 56l57 52q25 -33 66 -33q16 0 26 11t10 24q0 15 -10 24.5t-27 9.5h-88v183h189v-73h-102v-39q70 0 97 -31.5t27 -73.5q0 -39 -29.5 -77t-93.5 -38q-74 0 -122 61z" />
    <glyph glyph-name="six.denom" horiz-adv-x="300" 
d="M176 334l40 -52q-48 -32 -84 -72q9 6 31 6q33 0 56.5 -13t33 -32.5t13 -35t3.5 -28.5q-1 -22 -9.5 -45.5t-37.5 -46t-73 -22.5q-34 0 -59 12.5t-37 31.5t-17.5 36.5t-5.5 33.5q0 141 146 227zM149 74q16 0 25.5 11t9.5 25t-9.5 24t-25.5 10q-14 0 -24 -9.5t-10 -24.5
q0 -14 9 -25t25 -11z" />
    <glyph glyph-name="seven.denom" horiz-adv-x="259" 
d="M20 248v79h221l2 -3l-127 -324h-89l101 248h-108z" />
    <glyph glyph-name="eight.denom" horiz-adv-x="288" 
d="M258 231q0 -16 -9 -36.5t-27 -31.5q35 -23 35 -72q0 -35 -25.5 -66t-86.5 -31q-62 0 -88.5 30.5t-26.5 67.5q0 19 9.5 40.5t25.5 31.5q-16 8 -25.5 27t-9.5 39q0 34 27 67t88 33t87 -30t26 -69zM145 71q11 0 19.5 7.5t8.5 18.5t-8.5 18.5t-19.5 7.5q-12 0 -21 -7.5
t-9 -18.5t9 -18.5t21 -7.5zM145 201q11 0 19.5 7.5t8.5 18.5q0 12 -8.5 19.5t-19.5 7.5q-12 0 -21 -7.5t-9 -19.5q0 -11 9 -18.5t21 -7.5z" />
    <glyph glyph-name="nine.denom" horiz-adv-x="300" 
d="M124 -7l-40 52q48 32 84 72q-9 -6 -31 -6q-33 0 -56.5 13t-33 32.5t-13 35t-3.5 28.5q1 22 9.5 45.5t37.5 46t73 22.5q34 0 59 -12.5t37 -31.5t17.5 -36.5t5.5 -33.5q0 -141 -146 -227zM151 253q-16 0 -25.5 -11t-9.5 -25t9.5 -24t25.5 -10q14 0 24 9.5t10 24.5
q0 14 -9 25t-25 11z" />
    <glyph glyph-name="one.ftd" horiz-adv-x="503" 
d="M73 0v115h137v361l-98 -52l-52 86l247 171h40v-566h96v-115h-370z" />
    <glyph glyph-name="zero.ftd" horiz-adv-x="686" 
d="M342 683q72 0 126 -33.5t82.5 -87.5t42 -110t13.5 -113q0 -46 -8 -91t-27 -92t-48.5 -82t-76 -57.5t-104.5 -22.5t-104.5 22.5t-75 57.5t-48 82t-27 92t-7.5 91q0 57 13.5 113t41.5 110t82 87.5t125 33.5zM342 115q39 0 66.5 26.5t39.5 66.5t16.5 72t4.5 59t-4.5 58.5
t-16.5 71.5t-39.5 66t-66.5 26q-38 0 -65.5 -26t-39.5 -66t-17 -71.5t-5 -58.5t5 -59t17 -72t39.5 -66.5t65.5 -26.5z" />
    <glyph glyph-name="two.ftd" horiz-adv-x="588" 
d="M141 480l-81 86q108 118 227 118q94 0 152.5 -50.5t58.5 -145.5q0 -83 -83 -187l-141 -174h206v-127h-430v52l265 329q51 64 51 111q0 30 -18.5 50.5t-59.5 20.5q-61 0 -147 -83z" />
    <glyph glyph-name="three.ftd" horiz-adv-x="576" 
d="M496 487q0 -43 -19 -84t-52 -64q36 -21 53.5 -61.5t17.5 -83.5q0 -31 -10 -62t-32.5 -63.5t-69 -53t-110.5 -20.5q-112 0 -214 95l77 91q28 -27 67.5 -47.5t69.5 -20.5q38 0 64.5 21t26.5 60q0 40 -27 63.5t-64 23.5h-99v118h99q37 0 64 24t27 64q0 39 -26.5 60t-64.5 21
q-29 0 -68.5 -20.5t-68.5 -47.5l-77 91q102 95 214 95q64 0 110.5 -20.5t69 -53t32.5 -63.5t10 -62z" />
    <glyph glyph-name="four.ftd" horiz-adv-x="615" 
d="M467 133l-1 -134h-139l1 134h-268v78l299 464h108v-418h88v-124h-88zM327 404l-91 -147h92z" />
    <glyph glyph-name="five.ftd" horiz-adv-x="607" 
d="M80 108l91 81q58 -73 119 -73q48 0 76 31t28 73q0 41 -28 70.5t-77 29.5h-171v359h366v-123h-224v-119h29q68 0 117.5 -21.5t74 -56.5t35.5 -70.5t11 -73.5q0 -24 -6 -51t-23 -58t-42.5 -55t-69 -40.5t-97.5 -16.5q-120 0 -209 114z" />
    <glyph glyph-name="six.ftd" horiz-adv-x="646" 
d="M386 688l65 -99q-105 -56 -177 -157q26 12 69 12q62 -3 106 -26t66 -58.5t31.5 -70.5t9.5 -73q0 -23 -5.5 -49.5t-22 -58t-41 -56.5t-67 -41.5t-96.5 -16.5t-97 17.5t-67.5 43.5t-41 59t-22 60t-5.5 51q0 87 26 163.5t71 133t93.5 96.5t104.5 70zM324 118q46 0 73 30.5
t27 72.5t-26.5 72t-73.5 30t-73 -29.5t-28 -72.5q0 -42 26.5 -72.5t74.5 -30.5z" />
    <glyph glyph-name="seven.ftd" horiz-adv-x="525" 
d="M50 555v123h427l3 -8l-266 -670h-141l220 555h-243z" />
    <glyph glyph-name="eight.ftd" horiz-adv-x="606" 
d="M526 485q0 -35 -18 -76.5t-58 -69.5q76 -45 76 -143q0 -31 -10 -62.5t-32.5 -64.5t-69.5 -54t-111 -21q-52 0 -93 14t-64.5 35.5t-39 50t-21 53t-5.5 48.5q0 43 19 84t53 61q-72 52 -72 145q0 31 10 62t32.5 63.5t69.5 53t111 20.5t111 -20.5t69.5 -53t32.5 -63.5t10 -62
zM303 112q38 0 64.5 22.5t26.5 60.5q0 40 -26.5 62.5t-64.5 22.5t-65 -22.5t-27 -62.5q0 -39 27 -61t65 -22zM303 400q38 0 64.5 22.5t26.5 62.5q0 39 -26 60t-65 21t-65.5 -21t-26.5 -60q0 -40 27 -62.5t65 -22.5z" />
    <glyph glyph-name="nine.ftd" horiz-adv-x="646" 
d="M260 -9l-65 99q105 56 177 157q-26 -12 -69 -12q-62 3 -106 26t-66 58.5t-31.5 70.5t-9.5 73q0 23 5.5 49.5t22 58t41 56.5t67 41.5t96.5 16.5t97 -17.5t67.5 -43.5t41 -59t22 -60t5.5 -51q0 -87 -26 -163.5t-71 -133t-93.5 -96.5t-104.5 -70zM322 561q-46 0 -73 -30.5
t-27 -72.5t26.5 -72t73.5 -30t73 29.5t28 72.5q0 42 -26.5 72.5t-74.5 30.5z" />
    <glyph glyph-name="zero.num" horiz-adv-x="328" 
d="M164 706q70 0 102 -52.5t32 -116.5q0 -40 -11 -75t-42.5 -63t-80.5 -28q-48 0 -80 28t-43 63t-11 75q0 39 11 75t43 65t80 29zM164 450q18 0 29.5 18.5t14.5 36t3 32.5q0 16 -3 34t-14.5 36.5t-29.5 18.5t-29.5 -18.5t-14.5 -36.5t-3 -34q0 -11 2 -23.5t6.5 -28
t14.5 -25.5t24 -10z" />
    <glyph glyph-name="one.num" horiz-adv-x="228" 
d="M183 702v-327h-88v208l-41 -22l-34 56l119 85h44z" />
    <glyph glyph-name="two.num" horiz-adv-x="305" 
d="M84 588l-54 52q56 68 126 68q51 0 80 -28.5t29 -75.5q0 -39 -40 -94l-41 -57h76v-78h-222l-3 8l123 177q18 26 18 43q0 8 -6.5 15.5t-17.5 7.5q-26 0 -68 -38z" />
    <glyph glyph-name="three.num" horiz-adv-x="282" 
d="M252 603q0 -40 -31 -66q31 -24 31 -64q0 -37 -27 -70.5t-89 -33.5q-63 0 -116 49l49 54q27 -26 67 -26q14 0 24.5 7.5t10.5 19.5q0 15 -10 23t-25 8h-55v67h55q14 0 24.5 8.5t10.5 23.5q0 12 -10.5 19.5t-24.5 7.5q-34 0 -67 -28l-47 54q51 51 114 51q62 0 89 -33t27 -71
z" />
    <glyph glyph-name="four.num" horiz-adv-x="301" 
d="M235 422v-47h-83v47h-132v66l147 215h68v-207h46v-74h-46zM152 557l-42 -61h42v61z" />
    <glyph glyph-name="five.num" horiz-adv-x="305" 
d="M30 431l57 52q25 -33 66 -33q16 0 26 11t10 24q0 15 -10 24.5t-27 9.5h-88v183h189v-73h-102v-39q70 0 97 -31.5t27 -73.5q0 -39 -29.5 -77t-93.5 -38q-74 0 -122 61z" />
    <glyph glyph-name="six.num" horiz-adv-x="300" 
d="M176 709l40 -52q-48 -32 -84 -72q9 6 31 6q33 0 56.5 -13t33 -32.5t13 -35t3.5 -28.5q-1 -22 -9.5 -45.5t-37.5 -46t-73 -22.5q-34 0 -59 12.5t-37 31.5t-17.5 36.5t-5.5 33.5q0 141 146 227zM149 449q16 0 25.5 11t9.5 25t-9.5 24t-25.5 10q-14 0 -24 -9.5t-10 -24.5
q0 -14 9 -25t25 -11z" />
    <glyph glyph-name="seven.num" horiz-adv-x="265" 
d="M20 621v79h223l2 -4l-129 -323h-89l101 248h-108z" />
    <glyph glyph-name="eight.num" horiz-adv-x="288" 
d="M258 606q0 -16 -9 -36.5t-27 -31.5q35 -23 35 -72q0 -35 -25.5 -66t-86.5 -31q-62 0 -88.5 30.5t-26.5 67.5q0 19 9.5 40.5t25.5 31.5q-16 8 -25.5 27t-9.5 39q0 34 27 67t88 33t87 -30t26 -69zM145 446q11 0 19.5 7t8.5 19t-8.5 19t-19.5 7q-12 0 -21 -7t-9 -19t9 -19
t21 -7zM145 576q11 0 19.5 7t8.5 19t-8.5 19.5t-19.5 7.5q-12 0 -21 -7.5t-9 -19.5t9 -19t21 -7z" />
    <glyph glyph-name="nine.num" horiz-adv-x="300" 
d="M124 368l-40 52q48 32 84 72q-9 -6 -31 -6q-33 0 -56.5 13t-33 32.5t-13 35t-3.5 28.5q1 22 9.5 45.5t37.5 46t73 22.5q34 0 59 -12.5t37 -31.5t17.5 -36.5t5.5 -33.5q0 -141 -146 -227zM151 628q-16 0 -25.5 -11t-9.5 -25t9.5 -24t25.5 -10q14 0 24 9.5t10 24.5
q0 14 -9 25t-25 11z" />
    <glyph glyph-name="ampersand.alt1" horiz-adv-x="812" 
d="M230 233q3 -113 105 -113q40 0 93 19l-30 20q-68 45 -96.5 87t-28.5 96q0 34 17 67.5t47 46.5q-36 24 -36 80q0 78 55 127t134 49q82 0 138 -38.5t79 -95.5t23 -128q0 -168 -92 -294l114 -89l-81 -100l-130 95q-88 -72 -192 -72q-118 0 -187 62t-69 179v11v267
q-1 22 -14.5 29t-48.5 7v117q35 6 61 6q139 0 139 -162v-273zM473 279l55 -44q64 95 64 214q0 63 -24.5 99t-69.5 36q-27 0 -41.5 -17t-14.5 -36q0 -15 10.5 -26t23.5 -11h36v-97h-60q-19 0 -30 -13.5t-11 -31.5q0 -28 62 -73z" />
    <glyph glyph-name="T_L" horiz-adv-x="597" 
d="M137 700h138v-106l191 71v-92l-191 -69v-54l191 71v-92l-191 -69v-222q64 22 104.5 77.5t49.5 134.5h128q-12 -162 -114.5 -258.5t-235.5 -96.5q-36 0 -70 5v311l-117 -43v90l117 42v55l-117 -41v87l117 43v156z" />
    </font>
</defs>
</svg>
